<?xml version="1.0" encoding="utf-8"?>
<!-- Generator: Adobe Illustrator 23.0.1, SVG Export Plug-In . SVG Version: 6.00 Build 0)  -->
<svg version="1.2" baseProfile="tiny" id="Capa_1" xmlns="http://www.w3.org/2000/svg" xmlns:xlink="http://www.w3.org/1999/xlink"
	 x="0px" y="0px" viewBox="0 0 126 126" xml:space="preserve">
<linearGradient id="SVGID_1_" gradientUnits="userSpaceOnUse" x1="10.2645" y1="4.1796" x2="116.4772" y2="122.6477">
	<stop  offset="4.741732e-07" style="stop-color:#FFFFFF"/>
	<stop  offset="1" style="stop-color:#EAEAEA"/>
</linearGradient>
<path fill="url(#SVGID_1_)" d="M124.5,4.7l-3.1-3.1c-2-2-5.4-2-7.4,0L66.7,48.8c-2,2-5.4,2-7.4,0L12.1,1.5c-2-2-5.4-2-7.4,0L1.5,4.7
	c-2,2-2,5.4,0,7.4l47.2,47.2c2,2,2,5.4,0,7.4L1.5,113.9c-2,2-2,5.4,0,7.4l3.1,3.1c2,2,5.4,2,7.4,0l47.2-47.2c2-2,5.4-2,7.4,0
	l47.2,47.2c2,2,5.4,2,7.4,0l3.1-3.1c2-2,2-5.4,0-7.4L77.2,66.7c-2-2-2-5.4,0-7.4l47.2-47.2C126.5,10,126.5,6.7,124.5,4.7z"/>
</svg>
