<?xml version="1.0" encoding="iso-8859-1"?>
<!-- Generator: Adobe Illustrator 23.0.1, SVG Export Plug-In . SVG Version: 6.00 Build 0)  -->
<svg version="1.2" baseProfile="tiny" id="Layer_1" xmlns="http://www.w3.org/2000/svg" xmlns:xlink="http://www.w3.org/1999/xlink"
	 x="0px" y="0px" viewBox="0 0 126 126" xml:space="preserve">
<linearGradient id="SVGID_1_" gradientUnits="userSpaceOnUse" x1="13.8301" y1="4.4705" x2="114.4258" y2="124.2152">
	<stop  offset="2.717173e-07" style="stop-color:#DC9457"/>
	<stop  offset="1" style="stop-color:#B4705D"/>
</linearGradient>
<path fill="url(#SVGID_1_)" d="M91.9,0H34.1C15.3,0,0,15.3,0,34.1v57.8C0,110.7,15.3,126,34.1,126h57.8c18.8,0,34.1-15.3,34.1-34.1
	V34.1C126,15.3,110.7,0,91.9,0z M63,97.5C44,97.5,28.5,82,28.5,63S44,28.5,63,28.5S97.5,44,97.5,63S82,97.5,63,97.5z M98.3,36.7
	c-5.6,0-10.2-4.6-10.2-10.2s4.6-10.2,10.2-10.2s10.2,4.6,10.2,10.2S103.9,36.7,98.3,36.7z"/>
<linearGradient id="SVGID_2_" gradientUnits="userSpaceOnUse" x1="13.8303" y1="4.4703" x2="114.426" y2="124.215">
	<stop  offset="2.717173e-07" style="stop-color:#DC9457"/>
	<stop  offset="1" style="stop-color:#B4705D"/>
</linearGradient>
<path fill="url(#SVGID_2_)" d="M63,35.9c-14.9,0-27.1,12.1-27.1,27.1c0,14.9,12.1,27.1,27.1,27.1c14.9,0,27.1-12.1,27.1-27.1
	C90.1,48.1,77.9,35.9,63,35.9z"/>
<linearGradient id="SVGID_3_" gradientUnits="userSpaceOnUse" x1="52.4912" y1="-28.0082" x2="153.087" y2="91.7365">
	<stop  offset="2.717173e-07" style="stop-color:#DC9457"/>
	<stop  offset="1" style="stop-color:#B4705D"/>
</linearGradient>
<path fill="url(#SVGID_3_)" d="M98.3,23.7c-1.5,0-2.8,1.3-2.8,2.8s1.3,2.8,2.8,2.8c1.5,0,2.8-1.3,2.8-2.8S99.8,23.7,98.3,23.7z"/>
</svg>
