<?xml version="1.0" encoding="iso-8859-1"?>
<!-- Generator: Adobe Illustrator 23.0.1, SVG Export Plug-In . SVG Version: 6.00 Build 0)  -->
<svg version="1.2" baseProfile="tiny" id="Capa_1" xmlns="http://www.w3.org/2000/svg" xmlns:xlink="http://www.w3.org/1999/xlink"
	 x="0px" y="0px" viewBox="0 0 126 126" xml:space="preserve">
<g>
	<linearGradient id="SVGID_1_" gradientUnits="userSpaceOnUse" x1="22.3788" y1="-5.1447" x2="164.8825" y2="130.1962">
		<stop  offset="2.717173e-07" style="stop-color:#DC9457"/>
		<stop  offset="1" style="stop-color:#B4705D"/>
	</linearGradient>
	<path fill="url(#SVGID_1_)" d="M63,46.3c7.6-8,18.3-12.8,29.5-12.8h14.4C95.4,24.1,79.7,18.7,63,18.7S30.7,24,19.1,33.5h14.3
		C44,33.5,55.3,38.3,63,46.3z"/>
	<linearGradient id="SVGID_2_" gradientUnits="userSpaceOnUse" x1="-12.0351" y1="31.0905" x2="130.4686" y2="166.4314">
		<stop  offset="2.717173e-07" style="stop-color:#DC9457"/>
		<stop  offset="1" style="stop-color:#B4705D"/>
	</linearGradient>
	<path fill="url(#SVGID_2_)" d="M33.2,63c-6.1,0-11.1,4.9-11.1,11.1s4.9,11.1,11.1,11.1s11.1-4.9,11.1-11.1S39.4,63,33.2,63z
		 M33.2,77.8c-2.1,0-3.7-1.6-3.7-3.7s1.6-3.7,3.7-3.7s3.7,1.6,3.7,3.7S35.3,77.8,33.2,77.8z"/>
	<linearGradient id="SVGID_3_" gradientUnits="userSpaceOnUse" x1="6.2971" y1="11.7881" x2="148.8008" y2="147.129">
		<stop  offset="2.717173e-07" style="stop-color:#DC9457"/>
		<stop  offset="1" style="stop-color:#B4705D"/>
	</linearGradient>
	<path fill="url(#SVGID_3_)" d="M122.2,53l3.4-6.8c0.5-1.1,0.5-2.5-0.1-3.5c-0.7-1.1-1.9-1.8-3.2-1.8H92.8c-12.5,0-24.2,7.3-29.8,18
		c-5.8-11-17.6-18-29.8-18H3.7c-1.3,0-2.4,0.7-3.2,1.8c-0.7,1-0.7,2.4-0.1,3.5L3.8,53C1.3,59.1,0,68.2,0,74.1
		c0,18.3,14.9,33.2,33.2,33.2c8.6,0,16.5-3.2,22.7-9.1c0,0,0,0,0,0l3.8,7.1c0.6,1.3,1.9,2,3.3,2c1.4,0,2.7-0.8,3.3-2l3.6-7.1
		c0,0,0.2,0,0.3,0c6.3,6.1,14.3,9.2,22.7,9.2c18.3,0,33.2-14.9,33.2-33.2C126,68.2,124.7,59.1,122.2,53z M33.2,92.5
		c-10.2,0-18.5-8.3-18.5-18.5S23,55.6,33.2,55.6s18.5,8.3,18.5,18.5S43.4,92.5,33.2,92.5z M63,95.3L61.3,92c0,0,0,0,0,0v-0.1
		c0.6-0.9,1.1-1.8,1.6-2.7c0.5,0.9,1,1.8,1.7,2.7c0,0,0,0,0,0L63,95.3z M92.8,92.5c-10.2,0-18.5-8.3-18.5-18.5s8.3-18.5,18.5-18.5
		s18.5,8.3,18.5,18.5S103,92.5,92.8,92.5z"/>
	<linearGradient id="SVGID_4_" gradientUnits="userSpaceOnUse" x1="16.2071" y1="1.3537" x2="158.7108" y2="136.6945">
		<stop  offset="2.717173e-07" style="stop-color:#DC9457"/>
		<stop  offset="1" style="stop-color:#B4705D"/>
	</linearGradient>
	<path fill="url(#SVGID_4_)" d="M92.8,63c-6.1,0-11.1,4.9-11.1,11.1s4.9,11.1,11.1,11.1s11.1-4.9,11.1-11.1S98.9,63,92.8,63z
		 M92.8,77.8c-2.1,0-3.7-1.6-3.7-3.7s1.6-3.7,3.7-3.7s3.7,1.6,3.7,3.7S94.8,77.8,92.8,77.8z"/>
</g>
</svg>
