<?xml version="1.0" encoding="iso-8859-1"?>
<!-- Generator: Adobe Illustrator 23.0.1, SVG Export Plug-In . SVG Version: 6.00 Build 0)  -->
<svg version="1.2" baseProfile="tiny" id="Capa_1" xmlns="http://www.w3.org/2000/svg" xmlns:xlink="http://www.w3.org/1999/xlink"
	 x="0px" y="0px" viewBox="0 0 379.4 450.7" xml:space="preserve">
<path fill="#FF0000" d="M180.7,429.4c12.3-1.1,30.9-7.9,34.2-12.5c3.8-1.7,6.2-5.7,6.2-10.1c0.3-0.9,0.7-1.8,1-2.7l1.5-30.1
	c-0.7-2.4-1.5-5.2-2.5-8.6c-1.1-0.2-2.3-0.3-3.4-0.5c-36.8-6.3-72.3-35.9-88.3-72.5c-13.1-30-14.5-74-3.8-105.1
	c0,0,18.6-62.9,22.6-78.2c3.6-13.8,7.1-56.5,7.1-56.5c1-3,3.7-5,6.6-5h78.3l1.4-29.9c0.5-9.7-6.4-17.8-15-17.8h-202
	c-8.6,0-15.5,8.1-15,17.8l2.4,51.3c0.2,3.7-0.7,7.4-2.6,10.4C2.7,90.1,0,103.6,0,119.3c0,18.7,5.1,37.8,14.2,50.8
	c2,2.9,3.4,6.3,3.6,10L30.1,425c0.5,8.9,7,15.9,15,15.9h107.6C155.3,435.8,162.6,431,180.7,429.4z M16.6,37.7c0,0-6.4-24.9,1.3-29.7
	s197.7-3.2,204.8-1.2c7,2,10.1-1.3,12.3,7.9c2.2,9.2-0.4,23-0.4,23H16.6z"/>
<polygon fill="#FFFFFF" points="187.5,48.7 187.3,36.7 225,37 224.1,48.8 "/>
<path fill="#FFFFFF" d="M201.1,356.1l-4.6,62.1c-0.1,1.7-1.8,3.1-4,3.2l-12.3-0.3l2.3-69.3L201.1,356.1z"/>
<g>
	<path fill="#FF0000" d="M372.2,199c0,0-17.6-60-21.6-74.3c-3.6-12.8-6.3-52.3-6.3-52.3c-1-2.8-3.7-4.6-6.6-4.6H179.5
		c-3,0-5.6,1.8-6.6,4.6c0,0-3.6,39.5-7.2,52.3c-4,14.2-20.7,74.3-20.7,74.3c-10.8,28.8-9.4,61.3,3.9,89c16.2,33.9,47.9,57.6,85,63.4
		c1.1,0.2,2.3,0.3,3.4,0.5c6.6,21.5,7.7,42.4,0,62.4c0,4.1-2.5,7.8-6.2,9.4c-3.3,4.2-11.8,8.8-23.1,13.7c-6,2.5-37.8,3-36.5,9.4
		c1.3,6.3,25.7,3,32.2,3h109.9c6.5,0,30.9,3.3,32.2-3s-30.6-6.9-36.6-9.4c-10-4.4-18.8-8.9-23-13.6c-3.8-1.6-6.2-5.3-6.2-9.4
		c-6.5-19.8-5.7-40.7,0-62.4c1.2-0.2,2.4-0.3,3.6-0.5c37.1-5.9,68.8-29.6,85-63.4C381.6,260.3,383,227.8,372.2,199z M172.8,122.3
		c3.5-11.8,6-43.3,6-43.3c1-2.6,3.6-4.2,6.4-4.2h147.6c2.9,0,5.4,1.7,6.4,4.2c0,0,1.6,31.5,5.1,43.3H172.8z"/>
	<g>
		<path fill="#FFFFFF" d="M341.9,300.8c11.8-18.1,16.5-37.5,16.6-58.4c0.1-30.6-10-59.4-18.8-88.7c-2.2-7.4-4.4-14.7-6.6-22.1
			c-0.5-1.8-1.6-8.6-2.8-9.7c0,0,0,0,0,0l-15.1-0.7c-0.6,1.5,1.6,6.9,2,8.3c1.7,6,3.5,11.9,5.3,17.9c4.4,14.7,7.8,29.3,12.3,44
			c10,33,13.9,69.6-3.4,101.4c-10.7,19.5-23.7,34.5-45.5,43.8c-1.6,0.7,7.2-0.6,7.4-0.6c3,0.2,11.4-4,14.2-5.2
			C307.4,330.8,331.4,316.9,341.9,300.8z"/>
	</g>
	<path fill="#FFFFFF" d="M264.5,391c0.5,7.9,1.9,14,4.4,21.1c2,5.7,3.9,10.5,10.2,16.7c-1.4-1.4,1.7-1.2,0.3-2.5
		c-5.2-4.8-6.9-12.3-8.1-16.2c-1.5-4.9-1.7-9.7-2.1-15.3c-0.6-7.9,0-29.2,2.5-36.7c0.5-1.6-7.8,0.2-7.6-1.4
		C264,356.6,263.9,380.5,264.5,391z"/>
</g>
</svg>
