<?xml version="1.0" encoding="iso-8859-1"?>
<!-- Generator: Adobe Illustrator 23.0.1, SVG Export Plug-In . SVG Version: 6.00 Build 0)  -->
<svg version="1.2" baseProfile="tiny" id="Layer_1" xmlns="http://www.w3.org/2000/svg" xmlns:xlink="http://www.w3.org/1999/xlink"
	 x="0px" y="0px" viewBox="0 0 256 256" xml:space="preserve">
<g>
	<path fill="#020201" d="M252.5,136.6c-4.2-6.4,2.6-10.1,3.3-16.1c0.5-4.2-2-5.8-4.3-8.9c-3.3-4.4-2.2-7.5-0.6-12.4
		c3-9.4-4.3-10.2-7.4-17.4c-1.6-3.7,0.3-6.7-0.1-10.4c-0.5-4.6-3.2-5.5-6.7-7.9c-2.6-1.8-4.7-2.7-5.9-6c-1.2-3.1,0-6.5-1.8-9.5
		c-2.1-3.4-4.9-3.3-8.2-4.4c-5-1.7-6.2-4.1-8.1-8.6c-1.3-3.1-1.8-6.4-5-8.1c-3.3-1.7-7.3,0-10.6-1.5c-3.8-1.8-3.9-5.4-5.9-8.6
		c-3.1-4.9-6.7-3.5-11.6-3.3c-3.7,0.1-7-0.6-9.9-2.9c-2.7-2.2-3.5-5.1-7.3-5.9c-4.6-1.1-8.6,2.9-13.1,2.2c-4.4-0.7-6.2-5.4-10.2-6.6
		c-4.2-1.2-6.4,1.8-9.8,3.5c-3.9,2-6.2,1.1-10-0.9c-8.1-4.2-9.5,0-16.2,3.6c-6.9,3.7-12.2-3.2-18.6,2.1c-3,2.5-4.7,5.2-8.8,6.2
		c-3,0.7-6.4-0.7-9.3,0.2c-6.3,2-5.7,10.6-13.4,12.4c-3.6,0.8-7.5,0.1-10.2,3c-2.9,3.2-1.6,8.4-4.5,11.7c-4.9,5.6-12.5,2.2-14.4,11
		c-0.9,4.3,0,8-3.7,11.2c-3.3,2.9-7.7,2.1-9.3,7.1c-1.3,4.1,1.6,8.4,0.4,12.5c-1.1,3.8-5.5,5.3-6.6,9.2c-1.1,4,1.4,6.5,2,10.3
		c0.6,4.1-1.1,5.7-3.4,8.8c-1.7,2.4-3.7,4.3-3.4,7.5c0.3,3.7,3.6,5.8,4.7,9.1c1.3,4.2-1.1,6.4-2.7,10c-2.2,5.1-0.8,7,2.2,11.1
		c5.2,6.9-0.1,8.5,1.1,15.7c0.7,4.3,4.2,4.4,6,7.5c2.3,4.1-1,7.8,0,11.9c1.1,4.3,4.1,4.1,7.2,6.2c3.6,2.5,4.3,4.7,5,8.7
		c1.7,10.1,5.9,7.4,12.9,12.4c6.4,4.7,2.3,13.6,11.6,15c3.5,0.5,6.4-0.4,9.4,2.2c3,2.6,2.8,7.5,6,9.8c3.4,2.5,6.7,0.3,10.4,0.5
		c4,0.2,5.5,2,8,4.8c2.5,2.8,3.8,5.2,7.8,5.4c5.2,0.2,8.4-4.1,13.6-1.3c2.8,1.5,4,5.3,7.2,6.3c3.5,1.1,5.6-0.6,8.5-2
		c3-1.4,5.3-2.9,8.7-1.7c4.3,1.5,6.3,5.8,11.6,4.1c4.5-1.5,6.2-6.8,11.4-6.7c4.2,0,7.6,3.9,12,2.5c3.2-1.1,4.6-4.4,7-6.4
		c4.4-3.8,6.9-2.5,12.4-2.5c6.3,0,6.1-1.9,9.6-5.9c3.6-4,5.9-3.1,10.7-3.8c9.9-1.4,6.3-13,13.5-18.2c3.7-2.7,9.3-1.7,12.3-5.5
		c2.5-3.1,1-7.2,2.2-10.6c1.7-4.8,5.4-4.8,9.2-7.4c4.9-3.5,2.7-6.4,2.7-11.5c0.1-5.3,3.3-4.8,6.1-8.3c3.3-4.1,1-7.6,0.3-12.2
		C247.5,149.1,259.4,147.1,252.5,136.6z M7.7,138.3c0.4,0,0.3,0.2-0.1,0.6C7.4,138.7,7.4,138.5,7.7,138.3z M8.1,143
		c-0.2,0.3-0.4,0.2-0.6-0.2C7.8,142.6,8,142.6,8.1,143z M128.7,13.6c-0.8,0.8-1,0.3-1.2-0.2C128.1,12.9,128.2,13.7,128.7,13.6z
		 M127.8,15.8c-0.7-1-0.7-1-0.3-1.5C127.4,15,128.7,15.2,127.8,15.8z M127.8,12.2c-0.2,0.4-0.6,0.6-1,0.7
		C126,12,127.8,12.2,127.8,12.2z M126.6,16.3c0.8,0.3,0.8,0.6,0,1.7C126.8,17.5,126.3,16.9,126.6,16.3z M127,11.2
		c-0.5,0.9-0.5,0.9-1.7,0.8C125.9,11.5,126.4,11.5,127,11.2z M124.7,12.3c0.5,1.1,1.6,2.2,1.2,3.1C125,14.9,124,13.2,124.7,12.3z
		 M125.1,16.1c-0.6,0.2-0.7-0.3-1.1-0.3C124.5,15.5,124.9,15.2,125.1,16.1z M123.3,10.6c0.4,0.1,0.5,0.3,0.4,0.7
		C123.7,11.2,122.6,10.8,123.3,10.6z M123.3,11.5c0.6,0.7,0.1,0.7-0.4,1C123.1,12.1,123.2,11.8,123.3,11.5z M122.7,12.7
		c0.8,0,2.2,1.1,0.7,1.7C122.9,13.9,122.7,13.3,122.7,12.7z M122.8,15.4c0.3-0.3,0.5-0.4,0.6-0.5C123.6,15.3,123.4,15.4,122.8,15.4z
		 M121.9,9.9c0.1,0.1,0.3,0.2,0.4,0.4C121.9,10.4,121.9,10.4,121.9,9.9z M118.2,7.6c-0.1,0.1-0.2,0.3-0.4,0.4
		C117.8,7.5,117.8,7.5,118.2,7.6z M116.6,8.7c0.1-0.5,1.5,1,1.6,1c-0.2,0.5-0.5,0.8-1,1C117.4,10.8,116.6,8.6,116.6,8.7z M113.8,7.2
		c0.2,0.8-0.1,0.9-0.7,0.7C113.2,7.6,113.4,7.4,113.8,7.2z M108.1,8.5c-0.2,0.4-0.3,0.6-0.5,1C107.6,9,107.4,8.7,108.1,8.5z
		 M105,13.1c-0.4,0.7-0.7,0-1.1,0C104.4,12.7,104.4,12.7,105,13.1z M103.7,12.8c-0.2,0.1-0.5,0.2-0.7,0.3c-0.3-0.5-0.4-1-0.3-1.6
		C103.1,12.1,103.4,12.4,103.7,12.8z M100.8,11.3c0.2,0.2,0.2,0.5,0,0.7C100.6,11.8,100.6,11.6,100.8,11.3z M100.8,14.5
		c0.1-0.4-0.1-2.9,1.2-0.6c-2.2,0.9,3.8,0.4,4.4,0.7c0.2-1.3,0.6-1.4,0.8-2.1c-0.1,0.3-1.8-0.6-2.1-1.2c2.5-0.9,1.1-0.1,2.4-1.7
		c-0.1,1.5,1.2,1.2,1.2-0.4c0.9,1.2,0.7-0.5,1.5-0.1c0,0.3,0,0.7,0,1c0.9,0.7,1-2,1.8-0.1c-0.7-0.2-1.1,0.2-1.1,0.7
		c0.6-0.1,3.1-0.7,3.4-1.1c0.1,0.2,0.1,0.5-0.1,0.7c0.4,0.2,0.8,0.1,1.2-0.1c-0.6-0.6-0.1,2.9,0.6,0.6c-0.1-0.6-0.2-1.1-0.4-1.7
		c1.9,0.5,0.7,1.8,0.6,2.9c0.1-0.1,3.4-1.2,3.5-0.9c-0.3,0.4-0.4,0.8-0.4,1.2c0.8-0.8,2.2-1.1,3-0.8c0,1.2-0.5,2-1.7,2.1
		c0,0.1,1.4,1.7,1.1,1.7c-0.9,0.2-1.7-2.2-2.7-1.1c-1.1,2.1,2.8,0.8-0.5,2.8c1.4-0.8-2.2,0.1-1.5,0.3c-0.1,0-1.5-1.7-1.5,0
		c-1.5-0.6-1.4-2-1.8-3.3c-0.8,0.4-1.1,2.3,0,2.6c-0.5,0.5-1.1,0.8-1.8,0.7c0.5-2.1-2.6-0.2-3-0.3c0.3,0.2-0.6-3.3-0.4-3.5
		c-0.3-0.1-0.5-0.2-0.8-0.3c-0.3,0.2-0.2,3.8-1.8,2.6c-0.2,1.3,1.6,1.3,1.6,2.6c-1.1-0.5-1.4,0.6-1.9,1.3c-0.4-1.5,0.3-3.3,0-4.4
		c-1.9-0.2-1.3,1.8-2.7,2c1.1-1.8-2.1-2-2.8-2.3C100.1,14.7,100.4,14.6,100.8,14.5z M120.8,239.2c-0.1-0.3-0.1-0.5,0-0.8
		C121.2,238.7,121.4,238.8,120.8,239.2z M120.1,240.6c-0.5-0.3-0.6-0.7-0.6-1.2C120,239.7,120,239.7,120.1,240.6z M119.3,239.3
		c-0.3,0.3-0.7,0.1-1,0.1C118.5,239,118.8,238.7,119.3,239.3z M109.4,237.8c-0.1-0.2,1.3,1.1-0.4,0.5
		C108.9,237.9,109.1,237.8,109.4,237.8z M105.6,239.8c-1.8,1.4-0.9-3.3-0.4-3.5c1.1-0.4,0.2,2.4,2.1,1.4
		C106.8,238.6,105.5,238.7,105.6,239.8z M102.5,237.9c-0.2,0.4-0.2,0.8-0.7,0.9C102,238.5,101.5,237.7,102.5,237.9z M102.1,237.1
		c-0.6,0.5,2-2.4,2.2,0.3C103.5,237,102.8,236.9,102.1,237.1z M104.4,18.8c-1.6,1.3-2.3,1.2-2.9-0.1C102.5,19,103.5,19,104.4,18.8z
		 M101.6,17.1c0.4-0.1,1.6,0.3,0.6,1C101.8,17.9,101.6,17.5,101.6,17.1z M108,238.2c0,0.5,0.1,1.1-0.3,1.6
		C106.7,239,107.7,238.7,108,238.2z M107.3,16.7c0.4-0.6,1.1,0.4,1,0.8C107.7,17.6,107.4,17.3,107.3,16.7z M107.9,15.7
		c0.3,0.3,0.3,0.5,0,0.8C107.8,16.3,107.5,16,107.9,15.7z M97.2,14.9c2.1-0.2,0.7-1.3,1.9-2.6c1.3,1.3-0.5,4-1.9,3.8
		c0.4,0.1-1.6-1.2-1.1-0.8C96.5,15.2,96.8,15,97.2,14.9z M96.2,12.5c-0.3,0.6-0.9,0.3-1.3,0.7C95.1,12.4,95.1,12.4,96.2,12.5z
		 M95.9,16.8c-0.2,0.7-0.2,0.7-1,0.8C95,17,95.3,16.8,95.9,16.8z M91.7,19.4c0.1-0.3-0.2-1,0.6-0.8C92.7,19.4,92,19.3,91.7,19.4z
		 M92.6,17.3c0.4-0.4,0.8-0.5,1.4-0.4c0.8,0.4-1.4,1.3-1.3,1.3C92.6,17.9,92.6,17.6,92.6,17.3z M94.5,234.4c0.3,0,0.2,0.3,0.3,0.5
		c-0.3-0.2-0.5,0.1-0.8,0.2C94.2,234.8,94.2,234.4,94.5,234.4z M95.6,235.3c-0.3-0.1-0.5-0.3-0.7-0.4
		C95.2,234.9,95.5,234.7,95.6,235.3z M94,14.6c0.1,0.3-0.1,0.6-0.4,0.8C93.4,14.9,93.7,14.7,94,14.6z M92.5,13.2
		c0.4,0.2,0.8,0.1,1.2-0.1c-0.1,0.4-1,1.3-1.3,1.5C92.4,14.1,92.5,13.6,92.5,13.2z M90.6,12c0.3,0.3,2,3.2,1.9,3.4
		C91.3,16.4,90.6,12.3,90.6,12z M91,21.9c-0.6,0.2-1-0.1-1.4-0.3C90.1,21.2,90.1,21.2,91,21.9z M91,19.5c0.3-0.4,0.9,0.4,0.2,0.8
		C91,20.1,90.9,19.8,91,19.5z M89.5,20.1c0.4,0.1,0.5,0.3,0.2,0.6C89.3,20.5,89.2,20.3,89.5,20.1z M88.8,16.2
		c-0.7-0.1-0.7-0.5-0.8-1.1C88.6,15.3,88.9,15.6,88.8,16.2z M88.6,18.6c-0.3,0.4-0.5,0.4-0.6,0C88.3,18.3,88.5,18.3,88.6,18.6z
		 M85.2,26c-0.4,0.2-0.8,0.2-1.2,0.1C84.5,25.1,84.9,25.1,85.2,26z M84.3,233.3c0-0.2,0.1-0.3,0.3-0.3
		C84.7,233.3,84.6,233.4,84.3,233.3z M85.1,21.9c-0.3-0.2-0.3-0.2-0.4-0.5C85,21.5,85,21.5,85.1,21.9z M84.2,24.4
		c0.3,0.6,0,0.7-0.2,0.8C83.8,24.9,84.2,24.8,84.2,24.4z M81.5,26c0.2-0.6,0.4,0.5,0.4,0.6C81.6,26.5,81.5,26.3,81.5,26z
		 M80.3,231.2c3.2-0.4-0.3,1.6-0.1,1.4C80.6,232,80.6,232,80.3,231.2z M76.8,229.9c2.5,1.2,0.1,0.8,2.2-0.1
		C79.5,232.3,76.4,232,76.8,229.9z M75.8,228.8c0.3,0.4,0.1,0.6-0.6,0.4C75.3,228.9,75.5,228.8,75.8,228.8z M74.7,229.7
		c0.4,0,0.6,0.2,0.9,0.4c-0.2,0.5-0.4,0.9-0.5,1.4c-0.1-0.5-0.2-1-0.4-1.5C74.8,229.9,74.8,229.8,74.7,229.7z M74.6,228.1
		c-0.1,0.9-0.5,1.6-1.3,2c0,0.1-0.1-2.3-0.2-2.1C73.5,228.1,74,228.1,74.6,228.1z M72.7,225.8c0.3,0.3,0.5,0.5,0.3,1.1
		C72.4,226.6,72.3,226.3,72.7,225.8z M72.1,228c0.1,0.7,0.3,0.2,0.5,1.2c-0.3-0.5-0.6-0.6-1.1-0.6c0.2,0.2,0.3,0.5,0.3,0.9
		c-1-0.5-0.9-1.8-1.2-2.7C71.4,226.8,71.9,227.2,72.1,228z M70.6,228c-0.5,0.1-1-0.3-1-0.9C70.1,227.2,70.4,227.5,70.6,228z
		 M69.6,225c-0.2,0.3-0.4,0.3-0.5,0C69.2,224.6,69.3,224.6,69.6,225z M69,223c0.2,0.5,0,0.7-0.4,0.7C68.4,223.4,68.6,223.2,69,223z
		 M67.6,225c-0.3,0.4,0,1.1-0.7,1.2C66.9,225.7,66.8,225.1,67.6,225z M66.2,226.4c0.2,0.3,0.3,0.7,0.1,1.1c-0.8,0-1.5,0.2-1.8-0.7
		C65.1,227,65.7,226.9,66.2,226.4z M66.3,221.3c-0.2,0.4-0.4,0.3-0.7,0C65.8,221,66.1,221.1,66.3,221.3z M65.3,224.9
		c-0.2,0.4-0.6,0.3-0.9,0.4c0-0.3,0.1-0.6,0.1-0.9C64.8,224.5,65.1,224.7,65.3,224.9z M60.6,34.1c0.3,0.2,0.3,0.3,0,0.5
		C60.3,34.5,60.3,34.3,60.6,34.1z M60.9,218.7c-0.6,0-0.7-0.3-0.9-0.7C60.5,218,60.6,218.3,60.9,218.7z M59.7,32.9
		c0.4,0.3,0.3,0.5-0.4,0.6C59.3,33.2,59.5,33,59.7,32.9z M59.4,35.3c0.3,0.5,0.5,0.7,0.6,1.4C59.3,36.4,59.1,36.1,59.4,35.3z
		 M58.3,41.4c-0.7,0-1.4,0.1-2,0.3c0-0.2,1.2-2.8-1-1.2c1.2,1.7-1.1,1.1-1.1,0.3C54.1,38.2,57.9,40.9,58.3,41.4z M54.7,215.8
		c-0.2-0.3-0.2-0.7,0-1.2c0.2,0.6,0.6,0.9,1.2,0.9C55.5,215.9,55.1,216,54.7,215.8z M55.6,217c-0.2,0.6-0.3,0.6-1-0.2
		C55,216.5,55.2,217.1,55.6,217z M53.5,43.2c0.1,0.1,1.1,0,1,0.5C54.3,44.3,53.6,43.3,53.5,43.2z M56.9,35.7c-0.3,0-0.6,0-0.8,0
		C56.2,35.3,56.5,35.4,56.9,35.7z M56.1,36.2c-0.5-0.2-0.5-0.4,0.1-0.5C56.2,35.9,56.2,36.1,56.1,36.2z M55.9,33.1
		c0.2,0,0.3,1-0.5,0.6C55.5,33.5,55.7,33.3,55.9,33.1z M55.7,37.1c-0.8,0.2-1.2-0.1-1.5-0.6C55,36,55.1,36.9,55.7,37.1z M55,38.4
		c-0.2,0-0.3,0.1-0.5,0.1C54.6,38.2,54.7,38.1,55,38.4z M53.2,36.1c1-1.5,0.6,0.9-0.1,0.9c0-0.6-0.2-1.1-0.6-1.5
		C53,35.4,53,35.9,53.2,36.1z M52.2,36.4c0.2,0.4-0.2,0.7,0,1.1C51.7,37.1,51.3,36.8,52.2,36.4z M50.4,38.3c0.4,0.7,0.4,0.7-0.1,0.9
		C50,38.8,50.5,38.8,50.4,38.3z M49.4,39.1c0.2,0.3,0.2,0.4-0.1,0.5C49.4,39.4,49.4,39.3,49.4,39.1z M48.6,40.8
		c-0.1-0.6,0.1-1,0.7-1.2c0,2.4,4.6,0.5,1.5,0.3c1-1.5,3.1-0.7,3.7-1.3c0.1,1,0.6-0.4,0.9,0.6c-0.9,0-1.9,0.7-2.6-0.3
		c-0.3,0.4,0.1,2-0.2,2.6c1.3-0.5-0.8,1.5-1.7,1.7c0.5-0.8-1-1.7-1.2-2.4c-0.6,0.7,0,2.1-1.5,1.6c0.2-0.5,0.4-1.1,0.7-1.6
		C48.8,41,48.5,41,48.6,40.8z M53.1,218c-0.4-0.2-0.2-0.5-0.4-0.8C53.6,217.4,52.9,217.8,53.1,218z M51.2,214.2
		c0.2,0,0.4-0.1,0.5,0.2C51.7,214.4,51.4,214.3,51.2,214.2z M51.1,213.4c0.5-0.4,0.5-0.4,0.9,0C51.6,213.5,51.4,213.5,51.1,213.4z
		 M48.8,210.1c0.5-0.4,1-0.4,1.4,0c-0.2,0.3-0.5,0.6-0.7,0.9C48.4,211.1,49.9,210,48.8,210.1z M49.2,211.6c0-0.1,0.8-0.2,0.4-0.6
		c0.3,0.3,0.7,0.5,1.2,0.5C50.7,212.5,49.2,211.8,49.2,211.6z M51.7,44.8c-0.5-0.1-0.9-0.4-1.1-0.9c0.4-0.1,0.8-0.2,1.2-0.4
		C51.7,44.2,51.5,44.4,51.7,44.8z M52.9,215.7c0.2,0.7-1,0.2-1.1,0.2C52.2,215.4,52.6,215.5,52.9,215.7z M53,214.7
		c0.2-0.2,0.3-0.1,0.4,0.1C53.3,214.7,53.2,214.7,53,214.7z M48.6,43.1c0.9-0.3,2.2,0.9,1.3,1.7C49.8,44.5,47,43.7,48.6,43.1z
		 M48.1,209.7c0,0.4-0.2,0.6-0.7,0.7C47.3,209.7,47.5,209.5,48.1,209.7z M45.6,207.1c-0.5-0.4,0-1.2,0.6-1.1
		C46.9,207.1,45.8,206.5,45.6,207.1z M45.6,44.1c0.4,0.7,0.5,1.4,0.4,2.2c-0.4-0.2-0.9-0.3-1.4-0.4C45,45.3,45.2,44.8,45.6,44.1z
		 M44.6,206c-0.3,0-0.7,0.1-0.8-0.5C44.3,205.4,44.5,205.6,44.6,206z M44.2,207.5c0.2,0.2,0.3,0.4,0.3,0.8
		C44,208.1,44.1,207.8,44.2,207.5z M44.5,206.8c0.2-0.2,0.3-0.4,0.2-0.7C45.4,206.1,44.5,206.8,44.5,206.8z M44.7,49.5
		c0.4-0.1,0.5,0.3,0.9,0.7C44.7,50.5,44.6,50.1,44.7,49.5z M46.1,49.7c0-0.7,0.4-0.5,0.7-0.8C46.8,49.5,46.5,49.6,46.1,49.7z
		 M47.3,43.5c0.5,0.6,0.2,1.2,0.4,1.8C46.7,44.6,46.7,44.4,47.3,43.5z M47.3,43.1c-0.2-0.3-0.1-0.6,0.1-0.9
		C48.1,42,47.3,43.2,47.3,43.1z M46,39.4c0.6,1.6,0.7,0.4,1.6,1.1C46.5,41.6,46,40.4,46,39.4z M45.6,41.8c0.3,0.2,0.5,0.5,0.6,0.9
		c-0.6,0.2-1.2,0.1-1.8-0.3C45,42.5,45.2,42.1,45.6,41.8z M44.2,50.6c-0.1,0.3-0.5,0.2-0.6,0.4C43.6,50.4,43.8,50.4,44.2,50.6z
		 M43.6,46c-0.6-0.2-0.8,0.6-1.4,0.4c0.4-0.2,0.6-0.6,0.6-1C43.2,45.4,43.5,45.6,43.6,46z M43.1,48.6c0,0,0.2-0.2,0.1,0.2
		C43.1,48.7,43.1,48.6,43.1,48.6z M43.1,205.1c-0.4-0.2-0.4-0.4-0.2-0.7C43,204.7,43,204.9,43.1,205.1z M42.3,47.9
		c-0.5-0.1-0.3-0.5-0.1-0.4C42.8,47.8,42.6,48.4,42.3,47.9z M42.9,42.6c0.1,0.4,0.2,0.6-0.2,0.9C42.3,43.1,42.5,42.9,42.9,42.6z
		 M42.6,44.2c-0.4,0.7-0.6,1.2-0.8,1.7C41.2,45,41.2,44.9,42.6,44.2z M41,49.9c-0.4,0.8-0.4,0.8-1.3,0.1
		C40.2,49.7,40.6,49.7,41,49.9z M38.7,51.3c0.9-1.4-1,1.6-1,1.6C37.6,52.1,38.4,51.8,38.7,51.3z M38.6,58.3
		C38.6,58.3,38.6,58.3,38.6,58.3C38.6,58.3,38.7,58.3,38.6,58.3C38.7,58.4,38.6,58.3,38.6,58.3z M37.5,61.2c0.2-0.6,0.3-0.9,0.4-1.4
		C38.3,60.5,38.3,60.5,37.5,61.2z M38.3,196.3c-0.5,0.2-0.7-0.1-0.8-0.6C38,195.6,38.3,195.7,38.3,196.3z M37.1,51.7
		C37.1,51.7,37.1,51.7,37.1,51.7C37.2,51.8,37,51.8,37.1,51.7z M37.1,51.6C37,51.5,37.2,51.5,37.1,51.6L37.1,51.6z M36.3,48.7
		c-0.2,0.4,0.4,1-0.5,1C35.8,49.3,35.8,48.9,36.3,48.7z M35.8,49.8c0,1.3,0,0.4-0.6,0.4C35.4,50,35.6,49.9,35.8,49.8z M36.3,52.2
		c-1.1,0.2-1.7-0.3-2-1.2C34.8,51.5,35.9,51.2,36.3,52.2z M32.3,52.9c0.4,0.2,0,0.7,0.5,0.8c-0.5,0-0.9,0-1.4,0
		C31.7,53.4,32,53.1,32.3,52.9z M31.4,51.7c0.1,0.2,0.3,0.3,0.6,0.3C32.1,51.9,31,52.1,31.4,51.7z M31.8,56.3
		c0.2-1.6,0.9-0.9,2.3-1.4c0.3-2.7,0.8-0.9,2.5-1.4c-0.3,0.4-0.5,0.9-0.6,1.4c-0.4-0.4-1-0.6-1.6-0.6c-0.4,2.2,3,1.1,3.4-0.1
		c0.2,0.4-1.2,3.1-0.9,4.4c0.2-1.2-0.3-2-1.4-2.3c-0.2,2.5-1.6,0.8-3,1.1c0,0,2.7,2.5-0.2,2.3C32.5,57.9,27.3,55.8,31.8,56.3z
		 M35.4,62.5c0,0.2-0.1,0.1-0.1,0.1C35.3,62.5,35.4,62.5,35.4,62.5z M35.3,61.8C35.3,61.8,35.3,61.8,35.3,61.8L35.3,61.8z
		 M35.3,61.8c-0.5-1-0.4-1.1,0.5-1.6C36.2,60.9,35.6,61.3,35.3,61.8z M28.8,190.6c-0.4-0.9-0.1-1.1,0.8-0.7c0,0,0.5,3.7,1.9,0.7
		c2.2,1.1-2,1.5-2.6,1.2C29.1,191.5,29.1,191,28.8,190.6z M27.6,185.3c-0.6,0.2-2.4-1.8-2.8-0.6c0.1-0.3,2-2.5,2.2-2.2
		c-0.3,0.3-0.6,0.6-1,0.8c-0.1,0.3,5.3,2.6,3,3.2C28.5,186.6,28.8,185.1,27.6,185.3z M27.9,186.5c-0.7,0-0.5-0.4-0.3-0.9
		C28,185.8,27.9,186.2,27.9,186.5z M24.7,185.1c0.1-0.3,0.2-0.4,0.4-0.5C25.2,184.9,25.1,185.1,24.7,185.1z M24.3,183.7
		c0.1-0.6,0.7-0.4,0.9-0.8C24.9,183.5,24.9,183.5,24.3,183.7z M23.1,179.4c-1.6-0.9-0.5-1.9,0.5-2.2c0,0.5,0,0.9,0,1.4
		c0.9-0.3,1.4-0.9,1.5-1.8c-0.1,0.1,1.2,0.1,1.1-0.1c1,0.9-2.6,1.2-1.3,2.3c-2,0.2-0.3,0.7,0.4,0.9c-0.7,1.8,1.1,0.6,1.5,0.9
		c-1,1.8-1.3,0.1-2-0.2c-0.4,0.3-0.6,0.7-0.8,1.2C22.9,181.4,24,180,23.1,179.4z M22.7,179.5c-0.2,0.3-0.4,0.3-0.5,0
		C22,179.1,22.6,179.5,22.7,179.5z M24.6,174.5c2.6,1.1-1.1,2.1-0.9,1.7C23.8,175.9,23.2,173.9,24.6,174.5z M23.6,177.2
		c0-0.1,0-0.1,0-0.2C23.7,177,23.6,177.1,23.6,177.2z M26,76.8c0.2-0.2,0.5-0.2,0.7,0C26.3,77.2,26.3,77.2,26,76.8z M25.2,179.3
		c-0.2,0-0.2-0.1-0.2-0.2C25,179.2,25.1,179.2,25.2,179.3z M27.9,73.9c0-0.4-0.1-0.8,0.5-1C28.3,73.3,28.8,73.9,27.9,73.9z M28,74.1
		C28,74.1,28,74.1,28,74.1C28,74.1,28,74.1,28,74.1z M27.9,74.3C27.9,74.2,27.9,74.2,27.9,74.3C28,74.2,28,74.3,27.9,74.3z
		 M27.9,182.1c0.3,0.2,0.5,0.4,0.8,0.7c-0.3,0.4-0.7,0.6-1.2,0.4C27.5,182.8,27.7,182.5,27.9,182.1z M28.9,74.9c0,0,0.6,1,0.1,0.6
		C28.7,75.3,28.7,75.1,28.9,74.9z M30.2,67c0.8-0.2,0.8-0.2,1.5,0.5C30.8,68.1,30.7,67.1,30.2,67z M30.6,68.3
		c-0.1,0.1-0.2,0.1-0.3,0.1C30.3,68.3,30.6,68,30.6,68.3z M29,59.5c0-0.7,0.3-1.1,1-1.2c0,0.4,0.2,0.7,0.6,0.9
		C30.1,59.5,29.6,59.7,29,59.5z M29,57.4c0.4,0,0.6,0.1,0.5,0.4C29.2,57.9,29.1,57.7,29,57.4z M32,61.3c-0.4,0.9,0.3,1.3,0.8,1.8
		c-1.3-0.1-1.9-1.7-2.7-2.7c0.5-0.6,1.2-0.9,2-1C31.9,59.7,31,61.6,32,61.3z M33.3,60.6c-0.2,0-0.4,0-0.6,0
		C32.9,60.3,33.1,60.2,33.3,60.6c0.4-0.6,0.5-1.2,0.3-1.8c3,1-1.3,4-1.3,2.4C33,61.5,33.3,61.3,33.3,60.6z M32.4,66.4
		c0.2-0.2,0.4-0.2,0.6-0.1C32.8,66.6,32.6,66.5,32.4,66.4z M30.2,64c0.8-0.2,1.5-0.4,1.9,0.6c-0.9-0.4-2.1,0.3-2.7-0.6
		C29.6,63.8,29.9,63.8,30.2,64z M31.1,65.4c-0.3,1.1-1.2,0.2-1.6,0.7C29.7,65,30.4,65.5,31.1,65.4z M31.7,187.2
		c-0.2-0.2-0.9-0.1-0.6-0.8C31.7,186.3,31.5,186.9,31.7,187.2z M31.4,190.6c-0.9-0.1-0.9-0.1-1-0.5
		C30.8,190.1,31.2,190.2,31.4,190.6z M30.8,188.7c-0.2,0.3-0.2,0.5-0.5,0.5C30.2,188.8,30.5,188.8,30.8,188.7z M30.9,186.4
		C30.9,186.4,30.9,186.4,30.9,186.4C30.7,186.5,30.7,186.5,30.9,186.4z M29.8,187.3c-0.4-0.4,0.4,0.2,0.4,0.4
		C30.3,188.1,29.8,187.4,29.8,187.3z M29.7,73.3c-0.1-0.4,0-0.8,0-1.2C30.5,72.9,30.5,72.9,29.7,73.3z M29.9,183.5
		c0.2,0.1,0,0.1-0.2,0.2c0,0,0,0,0,0C28.9,183.9,30.7,182.1,29.9,183.5z M30.7,193.7c0.3,0.1,0.7,0.3,1,0.4
		C31.6,194.5,30.5,194.3,30.7,193.7z M31.3,193.4c0.7-0.5,1.1-0.8,1.8-1.3C33,193.3,32.3,193.4,31.3,193.4z M32.4,194.7
		c0.7-0.6,0.8-0.5,1.3,0.4c-0.6-0.2-0.9-0.4-1.2,0.2C32,195.1,32,194.9,32.4,194.7z M34.4,197.6c0.8,0.9-0.1,0.6-0.2,1.5
		c-0.4,0-0.7-0.2-0.9-0.4C34,198.6,34.3,198.3,34.4,197.6z M34.7,196.8c-0.3,0.2-0.7,0.2-1.1,0.2c0-0.5,0.1-1.1,0.1-1.6
		C34,195.9,35,195.9,34.7,196.8z M33.4,192.6c0.1-0.7,1-2.2,1.6-1.1C33.8,191,34.6,192.9,33.4,192.6z M34.2,64.5
		c0.4-0.4,0.7,0.3,0.4,0.5C34.4,65,34.3,64.8,34.2,64.5z M34,63.2c-0.2-0.4-0.3-0.8-0.2-1.3c0.4,0.4,0.9,0.6,1.5,0.7
		C35.2,63.8,34.4,62.7,34,63.2z M30,54.9c-0.7,0.1-0.5-0.5-0.9-0.9C29.9,54,29.7,54.6,30,54.9z M28.8,62.2c0.2,0.2,0.1,0.4-0.1,0.5
		C28.7,62.5,28.8,62.3,28.8,62.2z M28.7,62.7c0.1,0.3,0.6,0.7-0.2,0.8C28.5,63.2,28.4,62.9,28.7,62.7z M28,62.9
		c0.2,0.1-1,0.9,0.1,0.7c0,0.2-0.1,0.5-0.1,0.7C27.3,63.9,27,62.5,28,62.9z M27.9,57.5C27.7,58,27.4,57.8,27,58
		C27.4,57.6,27.4,57.3,27.9,57.5z M26.9,67.7c0.8,0.4,1.3,0.2,1.5-0.8c0.5,0.3,1,1.4,1.7,1.5c-0.2,0.2-0.3,0.5,0,0.8
		c0.5-0.1,1-0.3,1.5-0.5c-0.3,0.4-0.6,0.8-0.9,1.3c-0.3-0.6-0.7-0.8-1.3-0.4c1.3,1.6-0.7,1.8-1.2,2.5c0.4-0.8,0.8-2.5-0.6-2
		c0,0.7,0.7,0.9-0.7,1.4c-0.3-0.8-0.2-1.6,0.4-2.3c1.4,0.3,0.6,1.5,1.9-0.1c-0.8-0.6-1.4-0.6-2.5-0.7C26.6,68.2,26.7,67.9,26.9,67.7
		z M27.9,72.3c-0.3,0.2-0.1,0.8-0.6,0.8C27.2,72.4,27.2,72.4,27.9,72.3z M26.6,72.9c0.1,0.6,0.9,1,1.4,1.2c-0.3,0.1-0.6,0.1-0.9,0.2
		c0.2,0.5,0.4,1.1,0.4,1.7c-0.3-0.1-1.6-1-2-1.2c0,0.6-0.7,3.1-1.2,3.5c0,0-0.8-4.6-0.8-5.1c1.5-0.1,0.6,1.3,1.5,1.7
		c0.3-0.5,0.7-0.7,1.2-0.6C26.3,74,24.7,72.1,26.6,72.9z M21.4,165.9c0.7-0.2,0.7-0.2,1.3,0.5C22.1,166.3,21.8,166.2,21.4,165.9z
		 M22.1,169.8c-0.2-0.2-0.2-1,0.2-1.1C23.1,169.4,22.1,169.2,22.1,169.8z M18.8,164.7c0.6-2.5,2.1,0.6,2.2,0.8
		C20.3,165.2,19.8,165.2,18.8,164.7z M19.1,166.5c-0.1,0.2-0.2,0.1-0.3,0C18.9,166.5,19,166.5,19.1,166.5z M18.4,165.9
		c0.2,0.2,0.4,0.3,0.3,0.6C18.5,166.4,18.1,166.4,18.4,165.9z M18.7,152.2c1.5,0.7,1.5,1.2,0.3,2.7C18.8,154,19.1,153,18.7,152.2z
		 M18.3,90.3c-0.2-0.2,0.6-0.1,0.5-0.1C18.6,90.3,18.5,90.5,18.3,90.3z M18.9,94c0.4-0.2,0.7-0.2,1,0.3C19.4,94.6,19.1,94.4,18.9,94
		z M20.4,82.7c0.3,0.4,0.1,0.7-0.5,0.7C19.8,83,19.9,82.7,20.4,82.7c-0.1-0.4-1.9-0.7,0-1.2C20.4,81.9,20.4,82.3,20.4,82.7z
		 M22,79.5c0.3,0.4,0,2.4-0.3,2.8C20.5,81.1,21.7,80.3,22,79.5z M21.5,75.7c0-0.1,0.1-0.1,0.1-0.1C21.5,75.6,21.5,75.6,21.5,75.7z
		 M21.7,74.5c0.5,0,0.9-0.1,1.4-0.1c0.5,1.2-1,1-0.8,2c-0.3-0.2-0.5-0.4-0.6-0.6C21.9,75.6,21.7,74.4,21.7,74.5z M22.3,71.8
		c2.1-3.4,2,3.5,0.7,0C23,71.7,21.9,72.4,22.3,71.8z M22.9,86.9c-0.2,0.2-0.5,0.3-0.7,0C22.4,86.6,22.7,86.8,22.9,86.9z M22.1,77.7
		c-0.5-0.7,0.8-0.3,0.8-0.3C22.8,77.9,22.5,78,22.1,77.7z M21.2,84.4c0,0.5-0.3,0.5-0.7,0.1C20.7,84.4,21,84.4,21.2,84.4z M20.4,92
		c-0.4-0.3-0.2-0.4,0.2-0.5C20.6,91.7,20.5,91.9,20.4,92z M21.1,162.8c-0.2-1.9,0.4,1.3,0.7,0.9C21.9,163.5,20.2,163.6,21.1,162.8z
		 M22.6,164.9c-1.1,0.5-0.4-1.7,0.5-0.6C22.9,164.6,22.7,164.8,22.6,164.9z M22.9,81.6c-0.1-0.1,0.5-1.6,0.7-1.7
		C23.4,77.9,23.9,83,22.9,81.6z M23.4,75.9c0.5-0.2,0.5-0.2,0.6,0.4C23.8,76.2,23.5,76.3,23.4,75.9z M25.8,70.8
		c0.6,0.8,0.4,1.2-0.6,1.1C25.2,71.4,25.4,71,25.8,70.8z M25.3,68.4c-0.9-0.6,0-1.3,0.7-1.6C26.2,67.1,25.6,68.2,25.3,68.4z M26,59
		c-0.5,0.2-0.8-0.3-1.1,0C25.3,58.5,25.3,58.5,26,59z M25.1,63.3c0.1,0.2,0.2,0.5-0.2,0.7C24.8,63.7,24.8,63.5,25.1,63.3z
		 M24.8,67.9c0,0.1,0.6,2.4,0.7,2.3c-0.6,0.4-1.5-0.1-2.1-0.1c0.4-1.8,0.7-0.8-0.9-1.9C22.8,67.8,24.7,67.9,24.8,67.9z M23.1,66.2
		c-0.4,0.2-0.8-0.3-1.1,0.1C22.3,65.8,22.7,66,23.1,66.2z M21.9,68.8c-0.2,0.1-0.4,0.3-0.6,0.4C21.5,68.8,21.5,68.8,21.9,68.8z
		 M21.4,70.1c0.1,0.3,0.2,0.6,0,0.8C21.1,70.6,21,70.4,21.4,70.1z M20.2,70c1.2-0.8-0.6-0.9,0.9-0.6c-0.8,0.5-0.7,1.4-2,0.5
		C19.7,69.1,19.6,70.3,20.2,70z M19.9,71.8c-0.6-1,1.5,0.4,2,0.8c-0.1,0.9-2.7,0.7-3,0.4C19.3,72.7,19.6,72.3,19.9,71.8z M19.3,78.6
		c0.4,0.1,1.6,1.6,1.6,2c-0.8-0.2-1.5-0.3-2.3-0.3C19.2,80,19.1,79.2,19.3,78.6z M18.2,103.9c0.6-0.3,0.7-0.2,0.4,0.4
		C18.3,104.6,17.9,104.2,18.2,103.9z M16.3,129.8c0.5-0.7,1.1-0.3,1.7-0.3C17.5,130,16.9,129.7,16.3,129.8z M15.7,133.7
		c-1.4-0.1-0.3-2,0.2-2.6C16,132,16,132.9,15.7,133.7z M14.6,130c2.4,0.8,0.3,0.9,0.1,1C15.1,130.6,14.3,130.4,14.6,130z
		 M13.3,132.6c0.4-0.1,0.7-0.1,1.1,0c-0.1,0.7-0.5,1.1-1.3,1.2C13.1,133.4,13.1,133,13.3,132.6z M14.2,131.6c-0.5,0.4-1,0.6-1.6,0.7
		c0.2-1.1,0.9-1.6,2.1-1.3C14.8,131.4,14.7,131.6,14.2,131.6z M12.1,130.7c-1.7-0.7-0.3-1.2,0.1-1.3
		C11.9,129.8,12.2,130.3,12.1,130.7z M12,118.8c-0.3,0-0.6,0-0.9,0c0-0.5,0.2-0.7,0.7-0.8C11.9,118.3,11.9,118.5,12,118.8z
		 M11.9,123.8c0,0.3,0.8-1.2,0.8-1.2c0.5,0.1,0.8,0.4,0.9,1c0.3-0.2,1,2.4-2.2,1.5c0.4-0.2,0.7-0.4,1.1-0.7
		C12.2,124.3,12,124.1,11.9,123.8z M12,118.8c0.6,0.2,0.6,0.4,0.2,0.7C12,119.3,11.9,119.1,12,118.8z M14.6,113.3
		c0.5,0.1,0.9,0.2,1.4,0.3c-1,0.9,0.7,4.1-0.6,4.4c-1-0.5,0-0.3,0.2-0.5c-0.7-0.3-1.4-0.4-2.2-0.5C13.9,114.8,16.1,116,14.6,113.3z
		 M16.8,121.1c-0.3,0.3-0.5,0.3-0.5-0.1C16.4,120.7,16.6,120.7,16.8,121.1z M17,124.5c0.4,0.2,0.4,0.4-0.1,0.6
		C16.6,124.8,16.6,124.6,17,124.5z M15.7,106.4c0.5,0,0.7,0.3,0.8,0.7C15.9,107.1,15.7,106.9,15.7,106.4z M15.2,109.7
		c0-0.7-0.1-1.1-0.1-1.8C15.7,108.6,16.1,109,15.2,109.7z M15.5,120.4c-0.2,0.6-0.5,0.6-0.7,0C15.1,119.9,15.3,120,15.5,120.4z
		 M15.1,127.2c1.8,1.6-0.9,2.5-0.6,1.5C15.6,129.3,14.8,127.5,15.1,127.2z M14,122.6c-0.2-0.4-0.2-0.7,0.4-1.2
		C14.4,122,14.2,122.3,14,122.6z M13.8,118.1c-0.6,0.1-0.6,0.1-1-0.1C13.1,117.5,13.4,117.5,13.8,118.1z M12.4,115.2
		c-0.3-1.2-0.3-1.2,0.5-1.6C12.9,114.3,12.4,114.6,12.4,115.2z M13.4,126.2c-0.5,0.3-0.5,0.3-1.2,0
		C12.8,125.9,12.8,125.9,13.4,126.2z M11.4,127.1c0.2-0.3,0.3-0.3,0.5-0.1C11.8,127.5,11.6,127.5,11.4,127.1z M11.4,132.8
		c-0.2,0.5-0.5,0.5-0.8,0C10.9,132.4,11.1,132.4,11.4,132.8z M12.5,128.7c0.9-1.1,1.5-1.1,1.9-0.2c-0.6,0-1.1,0.1-1.6,0.4
		c0.4,0.2,0.5,0.4,0.3,0.9c-0.4,0-0.7-0.1-0.9-0.4C12.1,129.1,12.2,128.8,12.5,128.7z M15.3,123c0.6,1-0.3,0.5-0.8,0.8
		c0.5-0.9,0.3-1.9,1.6-1.9C15.9,122.2,15.6,122.6,15.3,123z M15.9,119.3c0.1-0.3,0.3-0.4,0.5-0.2C16.3,119.5,16.2,119.5,15.9,119.3z
		 M17,126.5c-0.5,0-0.8-0.2-0.8-0.7C16.7,125.8,17,126,17,126.5z M17.4,110c0.5,0.4,0.4,0.7,0.1,1.1C17.2,110.7,17.2,110.4,17.4,110
		z M18.1,124.3c0.3,0.3,0.3,0.4,0,0.5C17.8,124.7,17.8,124.5,18.1,124.3z M18.1,146.4c0.4,0.4,0.2,0.8,0,1.4
		C17.6,147.1,17.6,146.7,18.1,146.4z M18,91.9c-0.3,0.4,0-0.4-0.1-0.4C17.9,91.7,18,91.9,18,91.9z M17.4,93.4
		c-0.7,0.1-0.4-0.5-0.5-0.7C17.3,92.6,17.4,92.9,17.4,93.4z M16.5,100.4c0.2,1,1.7-0.7,1.5,0.9c-0.6-0.2-1.2-0.3-1.9-0.3
		c-0.8,0.9,1,1,1.1,1.6c-0.4,0-0.7-0.1-1.1-0.3c-1.3,3.5,0.5,1,1,2.9c-2.2,0.4-1.1-3.5-2.4-4.2C15.3,100.8,15.9,100.6,16.5,100.4z
		 M15.1,105.1c-0.2,0.4-0.6,0.4-1,0.4C14.2,104.8,14.5,104.8,15.1,105.1z M13.8,112.8c-0.2,0.4-0.4,0.4-0.5,0
		C13.4,112.5,13.6,112.5,13.8,112.8z M13.1,111.4c0.5,0.1,0.5,0.4,0.1,0.6C12.7,111.8,12.7,111.6,13.1,111.4z M12,116.8
		c-0.5,0-0.8-0.1-0.8-0.7C11.7,116.1,11.9,116.3,12,116.8z M10.8,119.6c0.4,0.1,0.4,0.3,0.1,0.5C10.5,120,10.5,119.9,10.8,119.6z
		 M11.4,123.4c-0.5,0.1-0.8,0.1-0.9-0.5C10.9,122.7,11.2,122.9,11.4,123.4z M10.1,136.2c0.2,0.4,0.2,0.6-0.2,0.9
		C9.6,136.7,9.5,136.4,10.1,136.2z M9.2,134.8c0.3,0.3,0.3,0.6,0.1,0.9C8.8,135.3,9,135.1,9.2,134.8z M8.5,134.1
		c0.4,0.1,0.4,0.3,0.1,0.5C8.2,134.4,8.1,134.3,8.5,134.1z M8.6,144.3c0.1-0.4,0.3-0.4,0.5-0.2C9,144.4,8.8,144.5,8.6,144.3z
		 M12.2,153.6c0,0-0.7-1.3-0.7-1.2c0.4-0.2,1.8,0.7,2.2,1.2C13.2,153.8,12.7,153.8,12.2,153.6z M12.9,162c-0.2-0.4-0.3-0.7-0.4-1
		C13.2,161,13.1,161.3,12.9,162z M13.8,163.6c-0.4-0.1-0.5-0.3-0.3-0.7C13.3,162.5,14.6,164.1,13.8,163.6z M13,157.7
		c0.4-0.8,0.8-0.3,1.1-0.2C13.7,158.2,13.4,157.4,13,157.7z M14.7,164.1c1.2-0.1,1.6,0.3,1.8,1.5C16.1,164.8,15.3,164.5,14.7,164.1z
		 M17,154.8c0.4-1-2.3-1.4-1.6,0.8c-0.7,0-1.3-0.1-2-0.1c0.7,1.2,1.5-5.9,1.4-5.3c-1.6-0.7-0.6,0.5-2-0.8c-1.7,1.1,0.9,2.2,0.9,2.8
		c-1.1,0.5-2.4-2.3-2.3-3c-1-0.5-1.4,1.9-2.4-0.6c0.5,0.2,1,0.4,1.5,0.4c1.2-0.4-1.2-2.6-1.3-2.6c0.3-0.3,0.8-0.2,1.2-0.4
		c0-0.6,0.7-5.3,0.6-5.4c-0.6-0.4-1.2-0.3-1.6,0.4c-0.1-0.6-0.4-0.9-1-1c0.3-0.3,2-2.8,2.3-0.9c-0.6,0.1-1,0.3-1.2,0.9
		c0.7,0,1.5,0,2.2,0c-0.1-1-0.2-1.9-0.5-2.8c0.4-0.1,0.8,0,1.2,0.2c-0.3,0.4-0.4-3-0.4-3c2.7,0,0.9,3.2,3.2,0.2
		c0.7,1.5-1.7,1.7-0.7,3c2.2-1,3.1,0.5,2.8,2.7c-0.3,2.5-1.4,1.1-3.1,2.7c0.5,1.9,2.4-0.6,3.5,1.5c-0.4-0.8-1.1,3.9-0.8,3.5
		c-0.7-0.6-3.1,0.1-3.5,0.9c0.8,2.5,4.1,0.7,4.7,0.5c-0.6-0.3-1.6,0.2-1.8-0.7c1.1-0.3,2.8,1.3,3.4,2.6c0.4-0.4-3,0.7-2.1,0.6
		c-0.4,0.1-2.4-1.3-2.3-0.3c0,1.3,2.4,1.8,3.1,2.5c-0.1,0.5-1.2,1.3-1.6,1.4C16.6,155.1,16.7,154.9,17,154.8z M17.4,167
		c0.2-0.1,1,0.2,0.8,0.6C17.9,168.3,16.8,167.5,17.4,167z M17.5,164.8c0.5,0.2,0.5,0.7,0.7,1.2C17.2,165.7,17.1,165.6,17.5,164.8z
		 M18.3,163.6c-0.3,0.7-1.2-0.7-1.1-0.9C17.5,162.5,18.5,163.1,18.3,163.6z M16.7,164c0.1-0.1,0.7-0.9,0.5-0.3
		C17,164.2,17,164.1,16.7,164z M17.4,172.7c-0.5-0.1-0.6-0.3-0.4-0.8C17.4,172.2,17.5,172.4,17.4,172.7z M17.8,169.6
		c-0.5-0.7,1.6-1.1,1.4-2c0.2,0.8,0.7,1.1,1.5,1c-0.2-1.2-2.3-2.4,0.3-2.7c-0.5,3.8-1.2,2.6-3.2,5.2
		C17.8,170.6,18.2,170.2,17.8,169.6z M20,170.4c0.3,0.2,0.2,0.4,0.1,0.6C19.8,170.9,20,170.6,20,170.4z M19.6,173.7
		c-0.2,0.2-0.4,0.4-0.6,0.6c0.1-1-1.2-3.7,1.7-1.6c0.7-0.8-1-3.4,0.8-3.4c-0.9,2.3,1.9,3.7,2.7,4.5c-0.8,0.6-1.8,0.1-1.5,2.3
		c-1-0.5-1.3-1.3-0.8-2.3c-0.3-0.4-2.2,3-2.8,3.1C19.5,175.4,21.5,174.9,19.6,173.7z M19.8,179.4c0.4-0.6,1.1-0.9,1.1-1.8
		C21.8,178.5,21.5,178.9,19.8,179.4z M21.5,185c-0.3-0.2-0.6-0.4-1-0.6C21.2,183.9,22,184,21.5,185z M21.5,181.8
		c0.2-0.5,0.1-0.9-0.3-1.2c-0.4,0.4-1.1,1.4-1.8,0.4c-0.2,0.2,2.9-1.1,2.7-1.2c-0.1,0.4,0,0.7,0.2,1c0.3-0.1,0.6-0.2,0.9-0.4
		C23.4,182.6,21.3,182.6,21.5,181.8z M22.8,187.6c-0.3-0.2-0.3-0.4,0.1-0.6C23.3,187.2,23.2,187.4,22.8,187.6z M22.6,184.1
		c0.7-0.1,1.2,0.1,1.7,0.5C23.6,185.2,23.3,185.1,22.6,184.1z M25.6,190c-0.4,0.5-0.9-0.4-1.4-0.1C24.3,189,25.7,190,25.6,190z
		 M26.8,188.7c0.6,0,1.1,0.2,1.1,1.2C27.4,189.4,26.7,189.5,26.8,188.7z M27.6,192c-0.2-0.6-0.1-0.8,0.4-0.6
		C27.8,191.6,27.7,191.8,27.6,192z M28,187.9c-0.9-0.8-2.1,1-2,1.6c-1-1-1.8-2.1-2.5-3.3c0.1-1.1,2.5-0.9,2.5,0.2
		c0.8-0.4,1.3-0.2,1.5,0.7c0.4-0.1,0.5-0.3,0.5-0.7c-0.1,0,1.5,1.5,1.6,1.5C28.9,188.5,28.4,188.5,28,187.9z M29.7,194.9
		c-0.1,0.1-1.6-0.4-0.9-1.2C28.8,193.8,29.6,195,29.7,194.9z M29.9,195.1c0.7-0.1,1.1-0.3,1.5,0.1C30.9,195.7,30.6,195.6,29.9,195.1
		z M31.3,197.6c0.1,0,0.1,0,0.1,0.1C31.4,197.7,31.4,197.7,31.3,197.6z M32.1,200.6c-0.4-0.2-0.4-0.4,0-0.6
		C32.5,200.2,32.4,200.4,32.1,200.6z M31.5,197.8c0.3,0,0.7,0.1,1,0.1C32,198.5,32,198.5,31.5,197.8z M33.7,201.1
		c-1.3-1.5,0.4-0.7,0.5-1.9C34.7,200.3,33.4,200.3,33.7,201.1z M34.4,204.6c0,0.2,0,0.4,0,0.7C34.1,205,34.1,204.8,34.4,204.6z
		 M34.5,204.6c0-0.4,0.1-0.6,0.6-0.5C35.1,204.6,34.8,204.7,34.5,204.6z M34.7,202.8c-0.6-0.6-0.4-0.9,0.2-1.2
		C35.5,202.2,34.8,202.4,34.7,202.8z M34.9,201.2c0.7,0.8,0.4-4.8,0.4-4.6C37.1,195.3,37.5,200.6,34.9,201.2z M35.7,202.1
		c0.5,0.3,0.2,0.6,0,0.9C35.4,202.7,35.4,202.4,35.7,202.1z M35.9,206.1c-0.2,0.6-0.6-0.4-0.5-0.5C35.6,205.6,35.8,205.8,35.9,206.1
		z M35.6,203.4c0.5-0.1,0.6,0.3,0.8,0.6C35.7,204.2,35.7,203.8,35.6,203.4z M36.7,201.4c0.3-0.3,0.5-0.6,0.7-0.9
		c0.1,0.7,1.3,2.3-0.6,2.9C35.8,202.1,38,203,36.7,201.4z M37.1,205.9c0.1-0.2,0.4-0.2,0.7-0.4C37.7,206.2,37.4,206,37.1,205.9z
		 M38.2,205.2c-0.1,0-1.4-0.3-1.3-0.3c-0.7-1.2,1.6-0.5,1.9-0.5C38.6,204.6,38.4,204.9,38.2,205.2z M38.3,203.5
		c0-1.1,0.2-1.4,0.8-0.6C39,203.3,38.7,203.5,38.3,203.5z M39.4,200.7c-0.5,0.9-0.5-1.1,0.5-0.7C39.7,200.2,39.6,200.5,39.4,200.7z
		 M41,206.5c-0.4-0.3-0.8-0.6-1-1.1c0.4,0.1,0.9,0,1.3-0.2C41.1,205.9,41.1,206.2,41,206.5z M41,203.9
		C39.6,203.8,40.9,203.8,41,203.9C41,203.9,41,203.9,41,203.9C41,203.9,41,203.9,41,203.9z M40.4,201.8c-0.6-1.3,1.3-0.8,1.6-0.1
		C41.3,201.5,40.8,201.7,40.4,201.8z M41.7,204.8c0.1-0.4,0.3-0.5,0.6-0.4C43.3,204.8,41.4,204.9,41.7,204.8z M42.5,208.6
		c0.4-0.4-0.9-0.6,0-0.9c0,0.5,0.2,0.8,0.8,0.8C43.1,208.7,42.8,208.8,42.5,208.6z M44.3,212.2c0.1-0.1-1.3,0.1-0.7-0.4
		C44,211.8,44.2,211.9,44.3,212.2z M43.4,209.2c0.7-0.6,1.3-0.4,1.9,0C44.7,209.7,44.1,209.6,43.4,209.2z M44.7,210.8
		c0.4-0.3,1.4-0.8,1.8-0.6C45.6,210.8,45.6,212.4,44.7,210.8z M45.3,214.9c0.1-0.1,0.3-0.2,0.4,0C45.6,215.1,45.4,215.1,45.3,214.9z
		 M45.9,213.6c-0.5-0.2-0.4-0.4,0-0.6C46.2,213.2,46.2,213.4,45.9,213.6z M46.7,216.7c-0.1-0.1-0.9-0.6-0.5-0.7
		C46.6,216.1,46.8,216.4,46.7,216.7z M46.9,213c0.2-0.5,0.4-0.9,0.4-1.5c0.3,0.7,0.7,1.3,1,2C47.7,213.5,47.3,213.3,46.9,213z
		 M48.6,214c-0.4-0.1-0.4-0.3-0.1-0.5C48.8,213.6,48.8,213.8,48.6,214z M49.3,218.7c-0.2,0.8-0.6-0.1-0.4-0.6
		C49.1,218.5,49.1,218.4,49.3,218.7z M49.5,215.5c0.1-0.1,0.9-0.6,0.6,0c-0.5,0-0.8,0.2-0.7,0.7C49.4,215.7,49.2,215.6,49.5,215.5z
		 M49.4,220.5c-0.2-0.3,0.6,0,0.5-0.1C49.7,220.5,49.5,220.7,49.4,220.5z M49.7,218.8c0.3-0.1,0.6-0.3,0.7,0.2
		C50,219.3,49.9,219,49.7,218.8z M50.6,216.6c-0.3-0.5-0.3-0.9,0.1-1.3C50.7,215.8,51.5,216.3,50.6,216.6z M52.6,221.5
		c-0.4,0.4-1.3,0.3-1,0.3c0-0.4,0-0.8,0.2-1.2C52.4,220.6,52.6,220.9,52.6,221.5z M52.5,219c0.1,0-1.5,0.4-1.5,0.6
		c0-0.2,0.5-2.3,0.5-2.3c0.3,0.4,2.5,3,3.1,0.8c0.5,0.4,0.8,0.8,0.8,1.4c-0.9,0.3-1.7-1.2-2.1,0.5c0.5,0,0.8,0.2,1,0.6
		C52.9,220.5,53.5,220.3,52.5,219z M55.7,224.7c0.1-0.6,0.2-0.9,0.3-1.5C56.4,223.9,56.3,224.2,55.7,224.7z M55.3,222.4
		c0.3-0.6,0.8,0.3,1.1-0.2C56.2,223.2,55.8,223,55.3,222.4z M57.8,222.5c-0.1-0.2-0.3-0.5-0.4-0.7c0.3-0.1,0.5-0.2,0.8-0.1
		C58.2,222.1,58.1,222.3,57.8,222.5z M58.3,225c-0.5-0.4,0-0.6,0.1-0.9C59,224.5,58.6,224.7,58.3,225z M57.4,220
		c-0.4,0.2-0.8,0.4-1.1,0.7c0.2,0.4,0.5,0.6,1,0.5c-0.3,0.5-2.9,0.7-3.7,0.9c-0.6-0.6,3-2.3,3.1-2.8c1.9,0.2,2.8-0.8,3.8,1.4
		C59.1,221.5,58.8,219.4,57.4,220z M59.4,220.9c-0.1,0-0.1-0.1,0-0.1C59.4,220.9,59.4,220.9,59.4,220.9z M59.3,222.6
		c0.3-0.8,0.3-0.8,1.1-0.3C59.9,222.4,59.7,222.8,59.3,222.6z M59.8,224.4c0.2,0.2,0.4,0.3,0.5,0.4C59.9,225,59.8,225,59.8,224.4z
		 M60.7,221.2c0.2-0.2,0.4-0.1,0.6,0.1C61.3,221.7,61.1,221.7,60.7,221.2z M60.9,225.7c0-0.3,0.2-0.4,0.5-0.5
		C61.4,225.5,61.4,225.9,60.9,225.7z M61.5,225.2C61.5,225.2,61.5,225.2,61.5,225.2C61.5,225.2,61.5,225.1,61.5,225.2
		C61.5,225.1,61.5,225.2,61.5,225.2z M61.5,222.8c0.5,0.7,0.5,0.7,0.1,1.3C60.8,223.7,61.4,223.3,61.5,222.8z M62,224.6
		c-0.3-0.3,0.6,0,0.4,0C62.2,224.6,62.1,224.7,62,224.6z M63,224.4c0.2-1.3,0.7-2.3,2-2.7C65,221.8,63.2,224.3,63,224.4z
		 M63.9,225.2c-0.5-0.2,0.6-0.3,0.5,0.5C64.2,225.6,64,225.4,63.9,225.2z M64.9,228.7c-0.3,0-0.4-0.2-0.8-0.3
		C64.7,228.2,65,228.1,64.9,228.7z M66.1,228.6c-0.1,0.3,0.2,0.8-0.5,0.8C65.7,229,65.7,228.7,66.1,228.6z M66.6,231.9
		c-0.3,0.4-0.5,0.3-0.6-0.1C66,231.5,66.7,231.3,66.6,231.9z M66.7,228.5c0.4,0.3,0.4,0.7,0.5,1.1C66.7,229.4,66.5,229,66.7,228.5z
		 M67.3,231c-0.1-0.5,0.3-1.5,0.8-1.6C69,230,67.4,231.5,67.3,231z M68.9,233.4c0.1-0.3,0.3-0.1,0.5-0.1
		C69.2,233.4,69.1,233.5,68.9,233.4z M70.8,232.5c-1.1-1-0.2,1.3-1.6-0.7c-0.4,0.4-0.8,0.8-1.2,1.1c0-0.7,0-1.4,0.2-2.1
		c-0.1,0.1,0.5,1.7,0.7,1.9c0.9,0.6-0.7-6.2-0.8-6.4C69.8,225.9,70.5,232,70.8,232.5z M71.8,232c0.5,0.4,0.6,0.9,0.5,1.5
		c-0.5-0.2-0.9-0.5-1.3-0.8C71.4,232.6,71.5,232.1,71.8,232z M71.6,235.6c0,0.2,0.4-2,0.7-0.8C72.3,235.3,72.1,235.6,71.6,235.6z
		 M72.5,230.7c-1,1.1-0.3-0.7,0.1-0.9c0.1-0.1,1.1,1.3,1.1,1.3c-0.3,0.3-0.7,0.5-1,0.8C72.6,231.5,72.5,231.1,72.5,230.7z M73.3,233
		c0-0.3,0-0.6,0-0.8C73.9,232.3,73.9,232.6,73.3,233z M75.3,235.9c-0.2-0.4,0.1-0.6,0.3-0.8C75.8,235.6,75.5,235.7,75.3,235.9z
		 M74.5,234.8c-0.7-0.8-0.6-1.4,0.4-1.7c-0.9,0-1.2-0.4-0.9-1.1c0.8,0.1,1.4-0.1,2-0.7c1.2-0.3-0.7,2-0.2,2.7c0.4,0,0.8,0.1,1.2,0.2
		C76.2,234.7,75.1,233.9,74.5,234.8z M76.9,236.1c0.2-0.4,0.4-0.4,0.7-0.1C77.3,236.1,77.1,236.1,76.9,236.1z M77.5,235.7
		c-0.5-1.1,1-1.5,1.3-0.4C78.3,235.4,77.9,235.5,77.5,235.7z M77.7,233.9c-0.5,0-1.4-1.5-1.1-1.9c0.5,0.6,1.5,1.1,2.4,0.9
		C78.8,233.6,78.3,233.9,77.7,233.9z M79.2,234.9c0.1-0.5-0.2-0.9,0.3-1.2C79.4,234.1,79.9,234.4,79.2,234.9z M79.5,236.8
		c1-2,1.5-2.2,2.9-1.1C81,235.2,80.7,236.8,79.5,236.8z M83.8,237.8c-0.7,0.3-0.8-4.1-3.8-4.2c1.7-1,1.3-0.6,2.5-1.7
		c-0.2-0.1,3,3.2,3.1,3c-2.1-0.5-2.1,1.6,0.1,2C84.9,236.9,84.4,237.5,83.8,237.8z M85.4,238.6c-0.4-0.3-0.3-0.5,0.2-0.6
		C86,238.4,85.9,238.6,85.4,238.6z M88.4,242.7c0.3-0.1,0.4-0.1,0.5-0.1C88.8,242.7,88.7,242.8,88.4,242.7z M88.9,242.5
		c0-0.2-0.2-0.3-0.3-0.4C88.9,242.1,88.9,242.1,88.9,242.5z M93.6,240.7c0.3,0,0.4,0.2,0.5,0.5C93.8,241.1,93.5,241.2,93.6,240.7z
		 M94.1,241.2c0.5-0.1,0.7-0.4,0.6-1C96.3,240.7,94.6,242.5,94.1,241.2z M94.6,242.9c0.5,0.3,1,0.2,1.5,0
		C95.4,243.6,94.9,243.6,94.6,242.9z M95.5,242.1c0.2-0.2,0.5-0.2,0.7,0C96,242.3,95.7,242.3,95.5,242.1z M100,245.3
		c-0.1-0.1-0.3-0.3-0.5-0.5C100,244.7,100.2,244.8,100,245.3z M103,244.1c-0.3-0.5,0-1-0.1-1.5C104,243.1,103.2,243.6,103,244.1z
		 M104.1,244.7c-0.3-0.3-0.2-0.5-0.1-0.8C104.3,244.2,104.2,244.4,104.1,244.7z M104,242.9c-0.3-0.7,1,0.4,1,0.3
		C104.7,243.2,104.4,243.1,104,242.9z M111.4,246.6c-0.5-0.1-0.6-0.3-0.5-0.7C111.4,245.8,111.6,246,111.4,246.6z M113,247.8
		c0.5-0.2,0.6,0.1,0.8,0.4C113.4,248.4,113.3,248.1,113,247.8z M116.4,245.8c0.2,0.1,0,0.6-0.1,1
		C115.7,246.5,115.8,246.1,116.4,245.8z M117.5,248.1c0.2-0.1,0.4-0.1,0.7,0C117.9,248.7,117.7,248.6,117.5,248.1z M118.1,246.6
		c-0.6,0.4-1,1.3-2,0.8c0.5-0.8,1-1.5,1.7-2.1C118,245.7,118.1,246.1,118.1,246.6z M119.7,246.5c-0.4,0-0.2-0.9,0.5-0.6
		C120,246.1,119.8,246.3,119.7,246.5z M120.8,246.8c0.2-0.1,0.4-0.2,0.7-0.4C121.5,247.2,121.1,246.8,120.8,246.8z M121.4,244.2
		c-0.4,0.1-0.8,0.2-1.1,0.5c-0.1-0.4-0.3-2.2,0-2.3c-1.2,0-0.9,2-0.7,2.5c-1-0.6-2.6,0.2-3.2-1.2c-1,0.5,0.3,1.2-0.2,1.9
		c-0.4-0.3-0.8-0.6-1.2-0.8c0.7,2.1,0.1,0.5-0.6,0.5c-0.1,1.7-3.5-0.2-4.4,0.3c0.1,0.4,0.3,0.8,0.4,1.2c-0.3,0.1-3-1-4-0.8
		c0.3-0.3,0.6-0.6,0.9-0.9c-0.6-1.5-1.4,0.2-2.1-0.3c-1.4-1.1,1.5-1,1.6-1.1c0.6-0.8-3.8-2.4-4.2-2.8c-0.7,0.2-1.7,1.3-1.4,2.3
		c-0.9-0.5-0.7-1.1-0.2-1.7c-2.1-0.1-1.3,1.2-2.3,2.4c0.4,0.4-2.7-3.6-2.4-2.6c-0.2-0.5-0.8-1,0.3-1.5c-1.4-0.6-0.6-0.1-1.6,0.6
		c-0.1-0.5,0-0.9,0.3-1.3c-1.6-2-2.8,1.8-1.2,0.7c-0.4,0.6-0.9,0.8-1.6,0.7c0,0.1,1,2.7,0.3,2.6c-1.1-0.2,0-1.3-1.4-1.4
		c-0.5,0.8-0.6,1.7-0.4,2.6c-0.6-0.5-0.7-4.8-1.2-6.6c-0.5,0-0.8,0.4-1,0.8c0.2,0.2,0.6-0.1,0.6,0c0,0,0.5,2.7,0.5,2.6
		c-0.4,0.3-3.9-0.2-4.4-0.6c0.3-0.2,1.6,0.5,1.7,0.6c0.4-2.4-1.1-1.8,0-4.3c-0.3-0.3-1.5-0.1-1.2-0.2l0,0c0.1-0.2,0.2-0.5,0.2-0.7
		c-0.7,0.3-1,0.2-0.9-0.2c0.4-0.2,0.7-0.4,1-0.6c-0.1-0.3-0.3-0.5-0.6-0.7c1.1-0.6,1.4-0.1,2.2-0.4c-0.4,0.7-0.8,0.5-1.2,0.5
		c1.1,0.6,2.3,1.2,3-1c0.3,0.3,0.6,0.5,0.9,0.8c1.3-1.7,2.7,0.2,3.2,1.3c0.4,0.8-2.8-1.3-2.9-1.2c-0.1,0.4-0.1,0.8-0.2,1.1
		c-0.6,0.2-0.4,1.2-1.3,0.7c0.2,0.3-0.5,2.7,2,1.8c-0.2,0.6-0.3,1.2-0.4,1.8c0.4,0,5-3.6,5-1.8c0.6-0.2,1.1-0.7,1.3-1.3
		c-2-1.7,1.2,0,1.6-0.1c0.1-0.5-0.2-3.1,2-1.6c-0.5,0.6-1,0.8-1.7,0.6c0.1,0.2,1,4.8,2,3.3c-0.2,0.6-0.4,1.2-0.4,1.8
		c0.4,0.7,1.8-0.1,1.8-0.7c0.2,0.4-1.6-0.8-0.6-0.7c0.7,0.1,3.1,2.9,3.4,0.7c0.9,0.4,0.6,1,1.5,0.3c0.1,0.1-0.3,2.9,0.5,2.6
		c0.9-0.4,2-2.6,0.8-3.3c0.3-0.5,0.7-0.7,1.2-0.6c-0.1,0.1-0.2,0.3-0.4,0.4c0.7,0.3,1.6-0.1,1.9,0.9c0.6-0.6,1.1-0.9,0.4-1.8
		c0.9,0.3,1.4,0.5,2.1,0.8c-1.1,0.4-1.8,3.4,0,2.7c0.2-2,1.8-0.3,2.4-1.5c-0.7,0.1-1.4,0-2.1-0.3c0.4-0.4,0.8-0.9,1.1-1.4
		c0,0,1.5,0.4,1.6,0.4c0.6,0.3,2.6,1.8,2.7,1.7c0.1,0.4,0,0.7-0.4,1c1.5,1.2,1.3-1.1,3-0.5c-0.5,0.2-0.9,0.5-1.3,0.8
		c0.8,0.5,1.4,1.1,1.8,2C121.8,243.6,122,244.5,121.4,244.2z M94,236.3c-0.1,0-0.1,0,0-0.1L94,236.3z M91.1,236.4c0-0.3,0-0.7,0-1
		c1.3,0.4,2,0.4,0.8,2.3C91.8,237.6,91.1,236.5,91.1,236.4z M121.9,246.1c-0.3-0.5,0-0.6,0.4-0.6
		C122.4,245.8,122.1,245.9,121.9,246.1z M125.1,240.2c-0.1,0.5-2.2,0.7-2.6,0.5C123.4,240.4,124.2,239.7,125.1,240.2z M124.8,238.9
		c0.1-0.1,0.2-0.3,0.4-0.4C125.3,238.9,125.3,238.9,124.8,238.9z M123.7,245.5c-1-0.4-1-0.8-0.1-1
		C123.6,244.8,123.6,245.1,123.7,245.5z M123.8,243.7c-1,1.7-0.4-1.8,0.1-2c0.2-0.1-0.8,1.5-0.8,1.6c0.7,0,1.4-0.2,2.1-0.6
		C124.9,243.3,124.4,243.6,123.8,243.7z M124.9,242.2c-0.2-0.7,0-0.9,0.4-0.7C125.4,241.9,125.2,242.1,124.9,242.2z M124.8,17.6
		c0.2-0.7,0.5-0.6,0.9-0.4C125.4,17.3,125.1,17.4,124.8,17.6z M126.8,238.2c0.4,0.6,0.5,1.2,0.2,1.8
		C126,239.6,126.6,239.2,126.8,238.2z M126.5,243.5c0,0.1,1.4-1.2,1.6-1.5C128.1,243.9,127.8,244.1,126.5,243.5z M128.1,240.9
		c-0.3,0.2-0.6,0.5-0.7,0.9c-1-0.4-0.1-0.8-0.4-1.4c0.4,0,1.6,0.1,1.9,0.7C128.6,241.1,128.3,241.1,128.1,240.9z M128.8,15.4
		c-0.4-0.1-0.5-0.3-0.1-0.5C129,15,129,15.1,128.8,15.4z M143,15.7c-1.2-0.3-0.3-0.2-0.2-1.3C143.3,14.7,143.3,15.2,143,15.7z
		 M142.7,12.7c-0.4-0.4-1.3,0.2-1.5-0.9C141.9,12.1,142.5,11.9,142.7,12.7z M142,15.3c-0.4,0.6-0.6,0.4-0.9,0
		C141.4,15.1,141.7,15.1,142,15.3z M140.6,14.3c1.2,0.7-1.3,2.8-1.8,1.2C139.7,15.5,140.3,15.1,140.6,14.3z M138.5,241.2
		c-0.4-0.6,0.2-0.8,0.3-1C139,240.7,138.9,241,138.5,241.2z M139.9,11c0.8-0.1-0.1,0.8-0.1,0.8C139.6,11.5,139.6,11.2,139.9,11z
		 M139.3,13.8c0,0.1,2.3-1.6,0.3,1.1C139.2,14.5,139.1,14.2,139.3,13.8z M137.9,10.7c0.2,0.6-0.1,0.6-0.4,0.5
		C137.5,11,137.8,10.9,137.9,10.7z M134.2,240.1c1.5,0.5-1.2,1.4-1.3,1.6C131.8,239.5,133.7,241.7,134.2,240.1z M133.4,239.5
		c0.1-0.3,0.3-0.3,0.5,0C133.8,239.9,133.6,239.9,133.4,239.5z M134.6,16.2c-0.6,0.6-0.7-1.3-0.5-1.3
		C134.7,14.7,134.6,16.1,134.6,16.2z M132.5,15.2c0.5-0.8,0.9-0.5,1.3-0.2C133.5,15.9,133,15.5,132.5,15.2z M133.5,10.3
		c0.3,0.4-0.2,0.5-0.3,0.9C133,10.5,133.3,10.4,133.5,10.3z M132.3,12c0.3-0.2,0.4-0.2,0.5,0.1C132.6,12.5,132.4,12.4,132.3,12z
		 M131.2,11.7c0.9,0.2,0.6,1.4,1.4,1.7c0.4-0.3,0.7-0.7,0.9-1.2c0.1,0.8-1,2.5-2,2C131.2,14.1,131.1,12,131.2,11.7z M131.6,238
		c-0.3,0-0.3-0.2-0.5-0.4C131.7,237.5,131.7,237.7,131.6,238z M131.5,238.8c0.4,0.2,0.6,0.4,0,0.7
		C131.4,239.2,131.4,239,131.5,238.8z M131.9,18.4c-0.3-0.3-0.2-0.5-0.1-0.8C132.1,17.9,132,18.1,131.9,18.4z M131.6,17
		c-0.9,0,0.1-0.6,0.3-0.4C132.1,16.9,132,17.1,131.6,17z M130.2,13.6c-0.2-0.6-0.3-1-0.5-1.5C130.3,12.5,130.3,12.5,130.2,13.6z
		 M130.1,16c0.4,0.4,0.4,0.4-0.4,0.9C129.9,16.5,130,16.3,130.1,16z M129.2,244.6c0.1-0.1,0.2-0.2,0.3-0.4
		C129.9,244.6,129.7,244.7,129.2,244.6z M130.6,239.4c0.1,0.8-0.8-0.1-0.8-0.1C130.1,239.1,130.4,239.2,130.6,239.4z M130.2,243.6
		c-0.4-0.3-0.4-0.5,0-0.7C130.7,243.2,130.7,243.5,130.2,243.6z M131.3,245.2c-0.2-0.7-0.2-1.4,0.1-2.1c0.3,0.2,0.6,0.5,0.8,0.8
		C131.5,244.1,131.2,244.5,131.3,245.2z M131.4,243c0-0.6,0.1-1.1,0.5-1.6c0.4,0.2,0.7,0.6,0.8,1C131.9,242.1,132,243.3,131.4,243z
		 M133.2,244.4c0.1,0.4,0.2,0.8,0.3,1.1C133.2,245.3,132.6,245.1,133.2,244.4z M132.6,242.6c0.8-0.8,1.1,0.4,1.3,0.7
		C133.3,243.3,132.9,243.1,132.6,242.6z M133.7,242.5c0.1-0.6,0.9-0.6,1.1-1.3C134.9,242.3,134.2,242.4,133.7,242.5z M133.9,13.8
		c0.2-0.6,0.7-0.1,1-0.2C134.7,14.1,134.6,14.1,133.9,13.8z M135.5,13c0.1,0.6-0.2,0.5-0.5,0.5C135.1,13.2,135.3,13.1,135.5,13z
		 M135.2,239c0.5,0,0.2,0.5,0.5,0.7C135.2,239.7,135.2,239.7,135.2,239z M135.7,241.1c-0.5,0.1-0.5-0.1-0.2-0.4
		C136,240.3,136.3,241.1,135.7,241.1z M136.2,15c-0.3,0.5-0.5,0.5-0.7,0.1C135.8,14.5,136.1,14.5,136.2,15z M136.1,10.6
		c0.4-0.3,0.5,0.1,0.8,0.3C136.4,11.2,136.3,10.8,136.1,10.6z M136.6,243.7c0.4-0.1,0.7-0.3,0.9,0.4
		C137.2,244,136.9,243.9,136.6,243.7z M137.7,16.4c-0.5,0.6-0.4-0.6-0.4-0.6C137.6,15.8,137.8,16,137.7,16.4z M137.8,13.4
		c0.1-0.4,0.3-0.7,0.7-0.9c0.1,0.2,0.2,0.4,0.4,0.6C138.6,13.4,138.2,13.6,137.8,13.4z M140.5,245c0,0-1.1-0.5-1-0.7
		C139.7,243.8,140.5,244.9,140.5,245z M139.1,242.7c-0.4,0.1-0.7,0.3-0.8,0.7c-0.3-1.1,3.2-2.3,0.9-3.1c0.3-0.1,0.5-0.3,0.6-0.6
		C140.3,240.6,142,243.2,139.1,242.7z M141,243.8c0.2-0.2,0.3-0.5,0.9-0.4C141.6,243.7,141.6,244,141,243.8z M142.7,243.8
		c-0.5-0.4-0.5-0.4,0.1-0.7C143,243.4,142.4,243.5,142.7,243.8z M142.8,241.6c-0.5-0.2-0.6-1.1-1.4-0.8
		C142.4,239.9,143.8,240.9,142.8,241.6z M143.1,242.8c0.3-0.3,0.4-0.4,0.6-0.5C143.9,242.7,143.7,242.8,143.1,242.8z M143.7,13.7
		c-0.3-0.1-0.5-0.3-0.4-0.9C143.5,13.2,143.9,13.3,143.7,13.7z M144.9,243.2c-0.4-0.3-0.4-0.3,0-0.7
		C144.9,242.9,144.9,243,144.9,243.2z M144.7,13.5c-0.1-0.4-0.3-0.7,0.5-1C145,13,144.9,13.2,144.7,13.5z M148.1,15.2
		c-0.4,0.3-0.8,0.9-1.2,0C147.3,15.1,147.6,15.1,148.1,15.2z M145.8,238.5c0.3-0.2,0.6-0.2,0.7,0.2
		C146.5,239.1,145.8,238.6,145.8,238.5z M146.1,242.2c-0.7-0.2,0.5-0.5,0.6-0.5C146.6,241.9,146.4,242.1,146.1,242.2z M148,240.9
		c-0.4,0.2-0.7,0.2-1.1,0C146.3,239.9,148.5,241.1,148,240.9z M149.5,16.3c-0.1-0.4,0-0.4,0.6-0.6C150,16,149.5,15.9,149.5,16.3z
		 M150,240.3c-0.4-0.1-0.5-0.4-0.4-0.7C149.9,239.7,150,240,150,240.3z M156,237.4c-0.2,0.2-0.3,0.2-0.5,0.1
		C155.6,237.1,155.8,237.2,156,237.4z M154,15.5c0.4,0.2,1.1,0.3,0.4,1C154,16.3,153.8,15.9,154,15.5z M154.5,239.3
		c-0.2,0.3-0.4,0.3-0.5-0.1C154.2,238.9,154.4,238.9,154.5,239.3z M151.6,16.1c0.4,0.2,0.3,0.5-0.3,0.9
		C151.3,16.6,151.4,16.3,151.6,16.1z M151.6,240c0,0-0.9-1.6-0.2-1.2C151.6,238.9,151.8,239.8,151.6,240z M150.6,14
		c1.1,0.3,1.1,0.3,0.4,1.4C150.8,14.9,151.3,14.2,150.6,14z M151.1,242c-0.2-0.7-0.2-0.7,0.6-0.7C151.7,241.7,151.5,241.9,151.1,242
		z M153,15.5c0.3-0.3,0.5-0.3,0.7,0.1c-0.3,0.4-1.3,0.5-1.6,0.2C152.3,15,152.7,16,153,15.5z M152.3,18c0.3,0.3,0.4,0.4,0.5,0.6
		C152.4,18.8,152.3,18.6,152.3,18z M152.8,237.4c-0.3,0.4-0.5,0.4-0.7,0.1C152.3,237.2,152.5,237.3,152.8,237.4z M155.5,241.1
		c-0.9-1.2-2.2-0.2-3.4-0.6c0.7-0.6,3.1-0.6,3.8-0.6C155.3,240.3,155.8,240.7,155.5,241.1z M155.1,238.3c0.6-0.1,0.6-0.1,1,1.3
		C155.4,239.3,155.4,239.3,155.1,238.3z M161.8,234.4c0.1,0.2,0.4,0.4,0.2,0.6C161.8,234.8,161.7,234.5,161.8,234.4z M162.2,236.2
		c0.3,0.5,0.4,0.8,0,1.3C161.8,237,161.9,236.7,162.2,236.2z M156.7,240.3c-0.4-0.2,0.1-0.6-0.1-0.7
		C157.3,239.8,157.2,240,156.7,240.3z M157.1,238.6c0.3-0.3,0.4-0.3,0.7,0.1C157.5,238.7,157.3,238.8,157.1,238.6z M158.8,241.8
		c-0.4,0.2-0.6,0-0.4-0.6C158.6,241.4,158.7,241.6,158.8,241.8z M158.7,239.4c-0.5,0-0.8-0.2-0.9-0.7c1.2-0.3,0.3-2,2.1-2.3
		c-0.1,0.6-0.5,0.9-1.1,0.9C159,238,158.9,238.7,158.7,239.4z M159.9,237.5c0.2-0.1,1,0.1,1.1,0.1c-0.9,0.3-1.2,0.8-1.1,1.3
		C159.1,238.4,160.1,238,159.9,237.5z M159.6,239.6c-0.3-0.7,1.3-0.7,1.4,0.5C160.6,239.3,160.1,240.6,159.6,239.6z M160.3,16.4
		c0.1,0-0.9,0-0.5-0.2c0.2-0.1,1.3,0.2,1.6,0.2C161,16.4,160.7,16.4,160.3,16.4z M162,238.5c0.2,0.1,0.4,0.2,0.5,0.4
		C162.3,238.9,161.9,239,162,238.5z M164.6,15.9c0.1,1.2-1.7,0.5-1.5,1.7c-0.2-0.3-0.4-0.7-0.6-1.1C163.4,17,163.9,16.5,164.6,15.9z
		 M164.7,17.8c-0.3,0-0.4-0.2-0.6-0.3C164.5,17.3,164.6,17.5,164.7,17.8z M164,240.1c0.7,0.1-2.2-2.5-1.4-0.5
		c-0.1-0.6,0.1-1.1,0.6-1.5c0.1,0.7,0.5,0.9,1.2,0.7C164.2,239.2,165.1,239.9,164,240.1z M163.8,235.3c0.5,0.1,0.9-0.5,1.4,0.3
		C164.7,236.1,164.3,236.1,163.8,235.3z M165.2,173.1C165.2,173.1,165.2,173.1,165.2,173.1L165.2,173.1
		C165.2,173,165.2,173,165.2,173.1z M165.2,238.8c0.1-0.9,0.3-1.3,0.8-1.7C166.2,237.7,166.2,237.7,165.2,238.8z M172,235.3
		c-0.2,0-0.3-0.1-0.5-0.4C171.9,234.8,172.1,234.8,172,235.3z M176.9,231.3c0,0.2-0.2,0.3-0.4,0.4
		C176.4,231.4,176.5,231.3,176.9,231.3z M173.2,236.2c-0.1-0.6,0.1-0.6,0.4-0.5C173.7,236,173.4,236.1,173.2,236.2z M174,236
		c0.4,0,0.4,0.2,0.5,0.4C173.9,236.6,174,236.3,174,236z M174.6,233.4c-0.1,0,0.3-1,0.5-1C175.8,232.4,174.8,233.5,174.6,233.4z
		 M175,234.3c0.6-0.5,1.2-0.5,1.8-0.1c-0.4,0.4-0.6,0.9-0.6,1.4C175.4,235.4,175.9,234.4,175,234.3z M176.3,237.3
		c-0.7-1.2,1.1-1,1.4-0.9C177.2,236.7,176.8,237,176.3,237.3z M178.1,231.2c0.2,0.2,0.5,0.4,0.8,0.7
		C178.3,232,178.3,232,178.1,231.2z M189,224.9c-0.5,0-0.6-0.3-0.6-0.7C188.7,224.4,188.9,224.5,189,224.9z M183,225.4
		c-0.1,0.1,1.3,0.7,0.2,1.3C183.2,226.7,183,225.4,183,225.4z M183,228.2c0.2,0.5,0,0.6-0.7,0.3C182.4,228.1,182.7,228,183,228.2z
		 M180.4,234.8c-0.9-0.3,0.3-1.1,1.2-0.6C181,234,181,234.9,180.4,234.8z M181.8,233.4c0-0.1,0-0.1,0.1,0L181.8,233.4z M181.9,232.7
		c-0.4-0.4-0.2-1.2,0.4-1.2C182.4,232,182.2,232.4,181.9,232.7z M182,229.8c-0.2,0.8-0.8,2.3-1.6,2.8c-0.1-0.4-0.3-0.8-0.6-1.2
		c0.4-0.3,3.2-2.1,1.3-2.3C182.7,228.5,182,229.6,182,229.8z M183.6,230c-0.1,0.3-0.3,0.6-0.6,0.7c-0.1-0.4-0.2-0.7-0.4-1
		C183,229.5,183.2,230,183.6,230z M183.4,232.3c-0.3,0.6-0.5,0.8-0.8,0.1C182.8,232.4,183,232.3,183.4,232.3z M184.2,236.3
		c-0.6-0.2-0.2,0.9-0.4,1.2c-1.9-0.4,0.4-2.1-1.2-2.6c0.5-0.2,0.8-0.6,1.1-1C183.7,234.6,185.4,236.7,184.2,236.3z M184.7,233.8
		c0,0.1,0,0.1-0.1,0.2C184.4,233.8,184.6,233.8,184.7,233.8z M184.7,233.7c0-0.2-0.1-0.3,0.1-0.5
		C185.2,233.5,184.9,233.6,184.7,233.7z M185.2,233c-0.5-0.2-1-0.3-1.1,0.6C182.9,231.5,185.6,231.7,185.2,233z M184.8,231.9
		c0-0.5-0.2-0.7-0.7-0.8c0.2-0.2,0.3-0.3,0.6-0.4C184.5,231.8,185.8,230.9,184.8,231.9z M184.7,230.7c0-0.6,0.4-2.2,1.5-1.9
		C186.1,229.8,185.8,230.6,184.7,230.7z M187,230.6c-0.7,0.1-0.7,0.5-1,1.1C185.3,231,186.6,230.6,187,230.6z M186.9,228.3
		c0.4,0.6,0.4,0.6-0.2,1C186.7,229,186.7,228.6,186.9,228.3z M185.8,232.4c0.8-0.8,1.5-1.1,2.3-0.6
		C187.4,231.9,186.7,232.6,185.8,232.4z M186.2,235.7c0.2,0,0.4-0.1,0.6-0.1C186.7,236.2,186.4,235.7,186.2,235.7z M187.3,235
		c0.2-0.3,0.5-0.5,0.9-0.4C188.1,235.1,187.6,234.9,187.3,235z M188.6,231.2c-0.5,0.1-0.5-0.7-1.1-0.6c0.7-0.3,1.3-0.3,2-0.1
		C189.2,230.8,188.9,231,188.6,231.2z M187.9,228.2c-0.4-1.6-3.3,0-4.1,0.8c0-0.2,3.4-4,3.3-4c-0.5,1.1,1.6,2.7,2.4,2.6
		C189.2,228,188.6,228.3,187.9,228.2z M190.1,226.8c-0.4,0.3,0.2-1.6,0.6-1.7C190.9,225.7,190.7,226.3,190.1,226.8z M217.5,44.9
		c-0.5,0-0.3-0.3-0.4-0.5C217.5,44.5,217.3,44.8,217.5,44.9z M215.9,50.6c0.6,0.8,1.9,0.2,1.8,1.6c0.7,0-1.7-0.2-1.3,0.1
		c-0.7-0.4,0.3-2-1.4-2c0.2-0.3,0.5-0.5,0.8-0.6C215.7,49.8,216.5,50.2,215.9,50.6z M218,54.2c0.5,0.7-1,1.4-1.3,0.7
		C217.2,54.9,218.1,54.9,218,54.2z M216.5,207.1c-0.2,0.3-1.3,0.1-0.7,1.1c-0.6-1.1-1.5-0.5-2.2-0.1c0.4-0.7,1-0.7,1.5-1.4
		c-1.1-2-3.1-2.2,0.1-4.1c0.9,1.2-3.2,1,1.6,1c-0.6-0.7-0.6-1.4,0.3-1.9C219.1,203.6,214.7,206.7,216.5,207.1z M211.6,206.4
		c-0.2-0.6-0.2-1.2,0.1-1.7c0.7-0.3,1,3.1,0.7,3.5C212.6,207.4,211.8,207,211.6,206.4z M210.1,210.5c0,0,0.2-0.2,0.1-0.1
		c0.5-0.2,0.8,0.5,1.3,0.1c-0.2,0.5-0.6,0.9-1.1,1C210.3,211.2,210.2,210.8,210.1,210.5z M209.8,45.7c0.9-2.1,1.5,0.4,2.5,0.3
		C212.3,47.5,210.3,45.7,209.8,45.7z M213.1,51.1c1.2,2,0.5-2.1,0.4-1.7c0.7,0.1,0.9,1.4,1.4,1c-0.5,1.2-2.7,2.2-3.2,0.1
		C212.2,50.4,212.7,50.7,213.1,51.1z M213.6,48.2c-0.3,0.3-0.5,0.5-0.8,0.8C212.7,48.1,213.2,48.2,213.6,48.2z M214.3,56.3
		c-0.1,0.2-0.2,0.4-0.4,0.4C213.8,56.3,214.2,56.5,214.3,56.3z M214.5,57.7c0.3,0.5,0.2,0.9-0.2,1.3
		C213.7,58.6,213.5,57.6,214.5,57.7z M214.4,56.3c0.3-0.5,0.6-0.9,0.9-1.4C215.7,55.9,215.6,56.1,214.4,56.3z M215.9,57.6
		c0.1,0.6-0.4,0.8-0.6,1.2C215,58.2,215.7,58.1,215.9,57.6z M215.3,53.3c-0.2-0.4-0.3-0.6-0.6-1.1C215.7,52.3,215.9,52.6,215.3,53.3
		z M213.2,58.3c-0.1,0.4-0.3,0.6-0.5,0.6C212.8,58.6,212.8,58.6,213.2,58.3z M212.8,53.6c0.3-0.3,0.4-0.2,0.5,0.1
		C212.9,54.1,212.8,54,212.8,53.6z M212.8,202.9c-1.5,0.2,0.1-0.9,0.1-1C212.7,202.2,213.3,202.6,212.8,202.9z M213,201.9
		c0-0.3,0-0.5-0.1-0.8C213.9,201.4,213.3,201.6,213,201.9z M217.1,201.1c-0.6-1.1-1.9,0.9-2.5,0.8c-1-1.2,1.2-1.3,1-1.5
		c-0.4-0.2-0.7-0.4-1.1-0.6c-0.2-1.5,1.3-1.2,2.1-1.3c-0.4,0.8,0.1,2.5,1.3,2.5C217.6,201.4,217.3,201.5,217.1,201.1z M216.6,60.2
		c0.1,0,0.1,0,0.2,0C216.6,60.4,216.6,60.3,216.6,60.2z M217.2,197.5c0.2,0,0.9,0.5,0.7,0.8C217.6,198,217.4,197.7,217.2,197.5z
		 M217.8,58.1c-0.4-0.2-0.5-0.4-0.1-0.6C218.2,57.7,218.2,57.9,217.8,58.1z M216.3,54c0.1-0.8,1.6-0.7,1.6,0.1
		C217.4,54,216.8,54,216.3,54z M207.7,208C207.7,208,207.7,208,207.7,208C207.7,208,207.7,208,207.7,208
		C207.7,208,207.7,208,207.7,208z M206.2,40.6c0.2-0.2,0.5-0.3,0.7-0.1C206.9,40.7,206,41.2,206.2,40.6z M206.5,41.7
		c0.1,0.4,0.3,0.7,0.6,1.1c-0.5,0.1-1-0.1-1.2-0.6C206.1,42.1,206.3,41.9,206.5,41.7z M206,210.7c0.4,0.2,0.7,0.2,0.9,0.3
		C206.4,211.8,206.3,211.3,206,210.7z M206.7,215.9c-0.9,0.4-1.1,0.2-0.5-0.7C206.4,215.4,206.5,215.6,206.7,215.9z M205.5,44.1
		c0.6,0.3,0.9,0.4,1.2,0.5C206.2,45.2,205.9,44.8,205.5,44.1z M206.3,43.7c-0.2,1.3-2.4,0-1.2-0.8C205.5,43.2,205.9,43.5,206.3,43.7
		z M204.5,39.1c0.3,0,0.5,0.2,0.6,0.4c-0.2,0.3-0.5,0.5-0.7,0.7C204.3,39.8,204.4,39.4,204.5,39.1z M205,42.5
		c-0.5-0.2-0.5-0.6-0.7-1.1C204.9,41.6,205.1,41.9,205,42.5z M204.4,220.2c-0.6-0.3-0.2-0.4,0.1-0.5
		C204.5,219.9,204.4,220,204.4,220.2z M204.5,220.9c-0.2,0.3-0.4,0.2-0.6-0.1C204.2,220.5,204.4,220.5,204.5,220.9z M203.5,218.5
		c0.3-0.3,0.5-0.9,1.3-0.7C204.4,218.5,203.9,218.4,203.5,218.5z M203.9,37.5c0,0.4,0,0.8,0,1.2c0.1,0-0.7-0.9-0.8-0.8
		C203.4,37.7,203.6,37.6,203.9,37.5z M202.8,39c-0.1,0-2.8,0.4-1.5-0.8c-0.7,0.1,2.3,0.4,1.6,0C202.8,38.5,202.8,38.8,202.8,39z
		 M202.1,40.1c0.3-0.3,0.5-0.4,0.6-0.5C203,40,202.7,40.1,202.1,40.1z M201.8,41.1c-1-0.2-1.2,0.8-1.9,0.7
		C200.2,40.4,200.5,40.3,201.8,41.1z M200.7,37.1c0-0.1,0.2-0.3,0.1,0.2C200.8,37.2,200.7,37.1,200.7,37.1z M201.7,214.9
		c-0.2,0.1-0.4,0.3-0.3,0.6C200.9,215,201.7,214.9,201.7,214.9z M201.2,217c0,0,0.5-1.1,0.5-0.4C201.7,217.5,200.7,217.1,201.2,217z
		 M201.6,218.3c0,0.1,1,0.7,0,0.8C201.1,218.8,201.1,218.5,201.6,218.3z M203,34.2c0.4,0.4,0,0.6,0,1.1
		C202.5,34.7,202.5,34.4,203,34.2z M202.4,35.4c0.7,0.4,0.3,0.9,0.6,1.3c-0.6-0.1-1.2-0.2-1.7-0.2C201.6,36.2,202,35.8,202.4,35.4z
		 M200.6,32.6c1.2,0.7,0.4,1.4,0.1,2.1C200.3,34,199.6,33.3,200.6,32.6z M199.3,34c-0.9,0.3,1.5,2.1,1.6,1.8
		c-0.2,0.1-0.3,0.2-0.3,0.5c-0.2,0-2-1.3-2.2-1.4C198.7,34.7,198.6,34.1,199.3,34z M199.4,214.4c-0.1-0.2-0.2-0.3,0-0.4
		C199.6,214.2,199.5,214.3,199.4,214.4z M199,41.8c-0.3,0.2-0.5,0.5-0.8,0.7c0.2-0.8-0.7-0.2-0.9-0.8
		C197.9,41.8,198.4,41.8,199,41.8z M198.4,219.6c-0.3,0.7-0.4-0.8-0.4-0.7C198.3,219.1,198.4,219.3,198.4,219.6z M197.8,40.4
		c0.2,0.6-0.1,0.5-0.4,0.5C197.4,40.6,197.6,40.6,197.8,40.4z M196.9,32.9c0.3,0.1,0.4,0.3,0.1,0.5C196.6,33.2,196.6,33,196.9,32.9z
		 M196.3,34.8c0.3-0.3,0.6-0.2,0.9,0.1C197.1,35,195.6,35.6,196.3,34.8z M196,39.4c0.4,0.1,0.5,0.3,0.4,0.6
		C196.1,41,196,39.1,196,39.4z M196.2,217.8c0.2,1-0.3,0.8-0.7,0.8C195.5,218.3,195.8,218.1,196.2,217.8z M195.7,220
		c0-0.3,0.2-0.4,0.5-0.4C196.3,220.1,196,220,195.7,220z M195.5,34.1c0.4,0.1,0.4,0.3,0,0.6C195.2,34.5,195.2,34.3,195.5,34.1z
		 M195.7,220c0.3,0.5,1.2,0.2,1.6,1c-1.2-0.5-1.8,0.7-3,0.6C194.9,221.1,195.1,220.4,195.7,220z M194.4,223c0.7-0.6,1.6-1,2.5-1.1
		c-0.3,1.1-1.7,0.9-2.2,2.3C194,223.9,193.9,223.5,194.4,223z M194,220.7c-0.1,0-0.1,0.1-0.2,0.1C193.8,220.7,193.9,220.6,194,220.7
		z M193.6,221c-0.1,0.2-0.1,0.3-0.1,0.5C193.4,221.1,192.6,221.2,193.6,221z M193.5,221.5c0.1,0.8,0.2,0.7-0.5,1.1
		C193.1,222.2,192.9,221.7,193.5,221.5z M192,226.2c-0.2-0.1-0.6,0-1.1-0.2c1.4-0.1,0.5-1.1,1.3-1.6
		C192.3,225,192.2,225.6,192,226.2z M192.6,223c-0.3-0.1-0.4-0.4-0.3-0.7C192.2,222.3,192.7,223,192.6,223z M193,228.9
		c-0.3,0.2,1-1.5,0.7-1C193.8,228.7,193.3,228.7,193,228.9z M194.7,225.2c-0.3,0.1-0.6,0.3-0.9,0.4c-0.1,0-1.1-1.9-1.1-2
		c0.8,0.6,1.8,1.2,2.7,1.6C195.1,226.1,195,225,194.7,225.2z M197.3,231.7c-0.2-0.2-0.5-1.4-0.6-1.4
		C197.2,230.2,197.8,231.2,197.3,231.7z M196.7,226.3c1.1-0.8,0.6,0.8,0.2,1.3C196.4,227.2,196.3,226.8,196.7,226.3z M198,225
		c-2.4,0.3,1.6-2.7-2.1,1.1c-1.2-0.7,0.3-1.6,1-1.6c0-0.3-0.5-0.5-0.6-0.7c0.4-0.1,1.4-0.6,1.8-0.8c0.1,0.7,0.5,1.2,1.1,1.6
		C198.5,224.6,198.2,224.8,198,225z M198.2,229.5c-0.2-0.6,0.2-0.9,0.5-1.3C198.8,228.9,198.5,229.1,198.2,229.5z M198.8,226
		c-0.7-0.5-0.6-0.9,0.2-1.4c0.6,0.4,1.2,0.9,1.6,1.5C200,226.5,199.4,226.4,198.8,226z M201.6,223.2c0,0.2,0,1.3,0,1.5
		c-0.6,0-1.2,0-1.7,0c-0.2,0.5-1.4-3.6-1.4-3.6c0.3-0.2,0.7-0.2,1,0c0-0.6-0.2-1-0.7-1.3c0.3-0.4,0.7-0.6,1.2-0.5
		c-0.1,0.2-0.1,0.4-0.1,0.7c0.5-0.3,1.1-0.4,1.7-0.5c-0.3,0.4-0.6,0.8-0.9,1.2c0.4,0.7,2.3-0.5,2-1.3
		C204.8,221.5,201.3,221.9,201.6,223.2z M202.6,225.1c-0.9-0.9,0.1-2,1.1-1.2C203,224,202.8,224.4,202.6,225.1z M204.5,219.7
		c0.2-0.5,0.2-0.5,0.7-0.1C205,219.8,204.7,219.6,204.5,219.7z M205.4,212.2c0.3-0.5,0.5-0.5,0.6,0
		C206.1,212.6,205.4,212.5,205.4,212.2z M205.8,222.2c0.4,0,0.7,0.1,0.8,0.5C205.8,223.2,205.9,222.4,205.8,222.2z M206.3,220.6
		c0.5-0.5,0.5-0.5,1-0.2C207,220.8,206.7,220.4,206.3,220.6z M207.7,210.6c-0.5-0.2-0.6-0.4-0.2-0.7
		C207.9,210.1,208,210.3,207.7,210.6z M207.8,207.9c0-0.1,0.1-0.1,0.1-0.2C208,207.9,207.9,207.9,207.8,207.9z M208,199.9
		c-0.3-0.3-0.3-0.5,0.1-0.6C208.4,199.6,208.4,199.8,208,199.9z M208.6,213.9c-0.6-0.2-0.7-0.4-0.2-0.7
		C208.9,213.4,208.9,213.7,208.6,213.9z M208.6,210.1c-0.4-0.2-0.4-0.4,0.1-0.5C208.9,209.9,208.9,210,208.6,210.1z M209.4,42.7
		c0.3-1.5,2.5-1.5,3.6-1.6c-0.5,1.7,0.8,1.3,1.4-0.1c0.9,1.2-1.1,1.4-0.6,2.5c0.4,0,0.9,0,1.3-0.1c0.8,0.5-1.3,3.3-1.7,3.7
		c-2.2-1.6-0.4-1.5-0.2-3.1c0.1-1-2.2-1.2-2.5-0.4c0.3,0.1,0.5,0.3,0.6,0.6c-0.3-0.1-0.7-0.2-1-0.3c0.2,0.2,0.4,0.3,0.5,0.5
		c-0.5,0.3-0.9,0.2-1.3-0.2C210.6,43.9,210.6,43.4,209.4,42.7z M209.6,213.9c0.2-0.3,0.5-1.4,1-1
		C211.3,213.4,210.1,214.1,209.6,213.9z M210.8,214.8c-0.1-0.8,0.5-0.7,0.9-0.8C211.6,214.4,211.3,214.7,210.8,214.8z M211.7,211.1
		L211.7,211.1C211.8,211.1,211.8,211.1,211.7,211.1z M210.7,209c1-0.4,2.2,0.1,2.9-0.8C213.3,209,212.3,210.7,210.7,209z
		 M214.2,211.3c-1-0.8-0.1,1.9-0.9-0.8c0.4-0.2,1.9,0.3,2.5,0.2C215.3,211.3,215.1,212,214.2,211.3z M215.8,210.7
		c-0.4-0.5-0.7-1-0.9-1.6c0.6,0.5,1.3,0.7,2,0.8C216.6,210.3,216.3,210.6,215.8,210.7z M216.6,207.1c0-0.7,0.5-0.6,0.9-0.5
		C217.5,207.3,217,207.1,216.6,207.1z M217.4,210.5c0.3,0,0.3,0.2,0.5,0.4C217.4,211.1,217.3,210.9,217.4,210.5z M217.2,205.4
		c0.3-0.2,0.5-0.5,1-0.4C218.1,205.7,217.7,205.8,217.2,205.4z M218,200.1c0.2-0.1,0.4-0.1,0.6,0C218.5,200.3,218.3,200.2,218,200.1
		z M217.7,52.2c0.3,0,0.7-0.1,0.9,0.3C218,52.8,218,52.8,217.7,52.2z M224.7,51.2c-0.2,0.3-0.4,0.2-0.9,0.2
		C224.3,51.1,224.5,51.1,224.7,51.2z M221.6,56.9c0.4,0,0.8-0.5,1.2,0.1C222.3,57.6,222,57.5,221.6,56.9z M221.9,61
		c-0.3-0.5,0.1-0.5,0.3-0.8C222.5,60.7,222.1,60.8,221.9,61z M222.2,52.8c0.2,0.3-0.4,0.4,0,0.8c-0.5-0.2-0.8-0.3-1.1-0.4
		C221.5,53,221.8,52.9,222.2,52.8z M221.4,56.8c-0.6,0-0.4-0.4-0.5-0.8C221.4,56.2,221.2,56.6,221.4,56.8z M219.7,51.5
		c0.8-0.3,0,0.6,0,0.6C219.3,51.9,219.3,51.8,219.7,51.5z M219.5,199.1c-0.2-0.3-0.2-0.4,0.1-0.5C220,198.8,219.9,199,219.5,199.1z
		 M219.4,54.5c0.5-0.7,0.8-0.9,1.7-0.7C221.1,53.8,218.3,56.2,219.4,54.5z M219.9,55.2c0.5-0.1,0.7,0.3,1,0.7
		C219.9,56.5,219.8,55.9,219.9,55.2z M220.2,200c0,0,0.6-0.6,0.4,0.5c-0.3,0-0.4-0.1-0.3-0.5C220.3,200,220.3,200,220.2,200z
		 M220.3,202.8c-0.1-0.3-0.2-0.6,0.2-0.8C220.8,202.4,220.8,202.6,220.3,202.8z M220.9,201.3c-0.2-0.3-0.2-0.5-0.2-0.7
		C221.2,200.7,220.9,201,220.9,201.3z M220.8,59.5c0.3-0.2,0.5-0.4,0.6-1c0,0.5,0,1,0.1,1.5C221.3,59.9,221.1,59.7,220.8,59.5z
		 M221.3,196.3c0.2-0.2,0.5,0.1,0.7,0c-0.1,0.2-0.2,0.5-0.3,0.7C221.4,196.8,221.2,196.6,221.3,196.3z M221.9,203.1
		c-0.3-0.2-0.2-0.4,0-0.7C222.2,202.7,222.1,202.9,221.9,203.1z M222.2,198.8c-0.1,0-0.1-0.1-0.1-0.2c-0.3,0-0.5-0.1-0.7-0.4
		c0.6-0.3,0.5,0.4,0.8,0.3C222.1,198.6,222.1,198.7,222.2,198.8z M222.2,195.8c-0.2-0.2-0.5-0.3-0.4-0.7
		C222.2,195.2,222.4,195.4,222.2,195.8z M222.6,201.1c-0.4-0.5-0.2-0.8,0.2-1.1C223.2,200.4,223.1,200.8,222.6,201.1z M223.3,196.6
		c-0.3-0.3-0.3-0.6,0.2-0.8C223.4,196.2,223.4,196.4,223.3,196.6z M223.3,59.1c0.3,0.3,0.1,0.6,0.1,0.9
		C223.1,59.7,223.1,59.4,223.3,59.1z M223,56.3c-0.6-0.8-0.8-0.4-0.2-1.6c0.3,0.3,0.7,0.5,1.1,0.7C223.6,55.6,223.3,55.9,223,56.3z
		 M224.9,193.3c-0.5,0.3,0-0.7,0-0.6C225.1,193.1,225.1,193.2,224.9,193.3z M225.5,59.3c-0.2-0.2-0.6-0.3-0.3-0.8
		C225.4,58.8,225.8,58.9,225.5,59.3z M234,169.4c0.1,0.2-0.7-0.9-0.1-0.6C234.2,168.9,234.2,169.2,234,169.4z M234.9,163.5
		c-0.2,0.2,0.2-0.5,0.2-0.5C235.1,163.1,235,163.4,234.9,163.5z M246.9,134.8c0.4,0.4,0.3,0.6-0.1,0.8
		C246.5,135.4,246.6,135.1,246.9,134.8z M246.2,136.1c0.5,0.4,0.4,0.7,0,1.1C245.9,136.7,245.9,136.5,246.2,136.1z M246.1,134.1
		c0.1,0.7-0.7,0.4-0.7,0.2C245.5,134,245.8,134,246.1,134.1z M243.2,133.7c-0.7,0-1.2-0.3-1.4-1c0.3-0.1,0.7-0.1,1,0
		C242.7,133.1,243.3,133.2,243.2,133.7z M242.9,132.6c0.2-1.1-0.9-0.8-1.5-1.2c1.7-1.1,2.1,0.7,2.8,1.8
		C243.6,133.4,243.6,132.1,242.9,132.6z M238.6,148.3c0.4,0,0.8,0.1,1.2,0.1c0,1-0.7,0.4-1.2,0.6
		C238.8,148.8,238.3,148.6,238.6,148.3z M237.9,129.3c0.9-0.1,1.6-0.3,2.3,0.4C238.8,129.9,238.8,129.9,237.9,129.3z M238.2,147.6
		c-0.3-0.4-0.3-0.7-0.1-1.1C238.6,146.8,238.7,147.1,238.2,147.6z M237.8,124.6c0.2-0.4,0.4-0.5,0.6-0.2
		C238.2,125,238,125,237.8,124.6z M240.3,116.8c0.1,0.5,0.7,0.7,0.8,1.2C240.3,117.7,240.3,117.7,240.3,116.8z M241.4,120.4
		c-0.2,0.6-0.4,0.6-0.7,0.2C240.9,120,241.1,119.9,241.4,120.4z M240.3,119.3c-0.3,0.2-0.4,0.2-0.5-0.2
		C240.1,118.9,240.2,118.9,240.3,119.3z M239.9,107.1c-0.5-0.3,0.4-0.8,0.6-0.7C240.3,106.7,240.1,106.9,239.9,107.1z M240,121.1
		c-0.1,0.4-0.4,0.4-0.6,0C239.5,120.7,239.7,120.7,240,121.1z M240,125.9c-0.1,0.5-0.3,0.7-0.8,0.7C239.3,126,239.5,125.8,240,125.9
		z M239.5,124.8c-0.1,0.4-0.3,0.4-0.4,0C239.2,124.4,239.3,124.4,239.5,124.8z M240.1,121.9c1.2-0.2,1.2,1.1,1.5,2
		C241,123.7,240.3,122.5,240.1,121.9z M242.4,118c0.3-0.5,0.6-0.5,1.1-0.1C243.1,118.3,242.8,118.4,242.4,118z M242.4,121.4
		c0.1-0.2,0-0.7,0.5-0.5C243,121.3,242.6,121.2,242.4,121.4z M242.4,121.4c-0.2,0.4,0.1,0.8-0.1,1.2
		C241.3,121.3,241.6,121.9,242.4,121.4z M242.5,123.5c0.3-0.3,0.6-0.6,0.9-0.8c0.7,0.2,0,1.3-0.7,0.9c-0.3,1.2,1.5,1.2,2.1,1.5
		c-2.3,0.4-2.8,0.3-3.2-1.2C242.1,124.2,242.1,123.5,242.5,123.5z M244,126.2c-0.4,0.4-0.8,0.3-1.4,0.1
		C243.3,125.9,243.3,125.9,244,126.2z M241.7,128.7c-0.2,1.1-0.6,1.1-1.3-0.2C240.9,128.4,241.3,128.5,241.7,128.7z M241.1,127.3
		c0.4,0.4,0,0.5-0.2,0.8C240.9,127.8,240.7,127.5,241.1,127.3z M240.4,131.3c0.1,0.8,1.1,1.4,0.4,2.4
		C240.1,132,240.1,132,240.4,131.3z M240.9,130.9c-0.3-0.2,0.5-1,0.7-0.9C241.8,130.2,241.2,131.2,240.9,130.9z M244.2,130.6
		c-0.7-1-0.3-0.1-1.1-0.8c0.1-0.3,0.2-0.7,0.3-1c-0.5,0-1,0-1.6-0.2C242.1,126.9,245.9,129.9,244.2,130.6z M244.8,132.7
		c0.2-0.3,0.4-0.4,0.7-0.3C245.3,133.4,245.1,133.4,244.8,132.7z M244.9,123.4c0.1-0.5,0.4-0.6,0.9-0.5
		C245.6,123.4,245.3,123.5,244.9,123.4z M245.5,119.7c0.2,0.3,0.2,0.5-0.2,0.4C245,119.8,245.1,119.6,245.5,119.7z M243.9,119.7
		c-0.2-0.5,0.7-2.3,1.3-0.9C244.6,118.7,244.1,119,243.9,119.7z M244.9,116.1c0.3,0.4-0.2,0.7-0.6,0.7
		C244.3,116.3,244.5,116.1,244.9,116.1z M243.8,115.5c-0.3-0.8-0.4-1.3-0.6-1.8C244.2,113.7,244.2,113.7,243.8,115.5z M243.1,111.4
		c0.4,0.2,0.4,0.4,0,0.5C242.7,111.8,242.7,111.6,243.1,111.4z M242.7,112.6c0.3,0.1,0.3,0.3,0,0.5
		C242.4,113,242.4,112.8,242.7,112.6z M242.8,117c-0.5,0.1-0.9,0.2-1.4,0.2c-0.4-0.7-2.3-3.8,0-4C241.7,114.2,242.6,115.9,242.8,117
		z M242.3,105.7c-0.6-0.2-0.8-0.3-1.2-0.5C241.8,104.9,241.8,104.9,242.3,105.7z M241.1,108c0.1,0.7,0.1,1.1-0.2,1.7
		C240.1,108.9,240.6,108.6,241.1,108z M240.5,101.4c0.2,1.6,0.8,3.5-1.4,3.8c-0.1-1.2,1.8-1.2,0.8-3.1c-0.2,0.3-0.5,0.5-0.9,0.6
		C239,102.4,240.4,101.4,240.5,101.4z M239.7,93.7c-0.5,0.7-2.3-0.6-0.5-1.2C239.4,93,239.5,93.4,239.7,93.7z M238.2,104.2
		c-0.3,0.3-0.8,0-0.8-0.5C237.7,103.9,237.9,104.1,238.2,104.2z M237.7,152c-0.7,0.9-0.3,1.8-0.9,2.7
		C236.1,153.2,236.2,152.9,237.7,152z M236.1,164c0.1,0.1,0.4,0-0.2,0.3C235.9,164.1,235.9,163.9,236.1,164z M235.9,166.7
		c0-0.4,0.2-0.4,0.4-0.6C236.4,166.7,236.1,166.7,235.9,166.7z M235.7,165c-0.4-0.3-0.3-0.5,0.1-0.7c-0.2,0.8,0.3,0.9,1.4,0.6
		C236.7,165.3,236.2,165.3,235.7,165z M237.9,154c0.4-0.2,1.3,0.3,1.1,0.9C238.5,154.8,238.1,154.5,237.9,154z M238.8,164.1
		c-0.6-0.5-0.6-1.1,0.1-1.8C239.1,162.5,239.5,164.3,238.8,164.1z M238.9,160.9c0.1-0.3,0.2-0.5,0.3-0.8
		C239.9,160.7,239.8,161,238.9,160.9z M240.2,165.4c-0.2-0.4-0.3-0.6-0.5-0.9C240.3,164.6,240.1,164.9,240.2,165.4z M239.7,167.7
		c0.1-0.5,0.5-0.4,0.7-0.7c0.1,0.2,0.1,0.5,0.2,0.7C240.3,167.6,240,167.6,239.7,167.7z M241.2,161.7c0.7-0.5,1.1,1,0,0.8
		C241.6,162.2,241.3,162,241.2,161.7z M241.2,162.8c-0.1,0-0.1-0.1-0.1-0.2C241.2,162.6,241.3,162.7,241.2,162.8z M241.1,164
		c0.3-0.3,0.1-0.1,0.3,0.1C241.7,164.2,240.6,164.4,241.1,164z M241.7,165c-0.4-0.1-0.5-0.3-0.5-0.7
		C241.7,164.4,241.9,164.6,241.7,165z M242.3,154.9c-0.2-0.1-0.1-0.3,0-0.4C242.4,154.6,242.4,154.8,242.3,154.9z M242.4,153.5
		c0.7-0.4,1.1-1.1,1.7-0.1C243.6,153.6,243.2,153.7,242.4,153.5z M243.4,151.4c0.1,0.6-0.1,0.9-0.7,1
		C242.6,151.7,242.9,151.5,243.4,151.4z M247.1,140c-1.4,1.2-0.1,3-1.3,4.3c1.7,1.3-0.2,0.4,0.1,2c0.4,0,0.8,0,1.1,0.1
		c-2.1,1.5-1.5,2.2,0.3,2.3c-0.5,2.2-1.2,0.3-2.3,0.5c-0.1,0.7-0.1,1.4-0.2,2.1c-1.7-0.2-0.2-1.2-1.3-1.8c-1.1,0.8,0.2,1.5-1.5,0.8
		c-0.2,0.4-0.8,4.1-0.8,4.4c-0.9,0.1-1.1-0.6-2.2-0.3c0.2-0.3,2.1-2.7,1.8-3.1c-0.8-0.9-2.1,2.9-2.6-0.2c-0.5,0.4-1,0.5-1.6,0.3
		c0,0.1,1.8-2,1.5-2c0.5,0,0.7,0.9,0.8,0.9c0.7-0.2,3.7-0.1,4.1-1.4c-1.6-0.4-2.1-1.7-3.6-0.7c0-0.1-0.1-3.7-0.2-3.3
		c0.6-3.8,1.6,1.3,2.8-1.6c-1.3-1.7-2.8-0.6-3-3c0-0.5,0.5-4,1.5-3.5c0.3-2.5-0.9,6.8,1.3,0.9c0.4-1.2-1.3-1.6-0.8-2.7
		c0.5,0.3,0.9,0.7,1.2,1.2c0.4-0.9,1.1-1.4,2-1.7c2.3,2.2-1.1,1.3-0.3,3c0.4-0.1,0.7-0.2,1.1-0.2c-0.1,1.1-0.3,2.1-0.8,3
		c0.3,0.3,2-0.2,2.4-0.2c-0.1-0.5-0.4-0.8-1-0.8c0.3-0.6,0.7-0.9,1.4-0.9C246.2,139,248.5,139.9,247.1,140z M247.1,138.1
		c0.2-0.2,0.4-0.8,0.8-0.2C247.6,138.3,247.3,138,247.1,138.1z M247.8,134.6c-0.5-0.2-0.5-0.3,0.1-0.5
		C248.1,134.2,248,134.4,247.8,134.6z M248.7,138.9c-0.4,0-0.5-0.2-0.4-0.6C248.7,138.4,248.8,138.5,248.7,138.9z"/>
	<path fill="#520000" d="M128.1,21.2c-44.3,0-85,28.3-100.3,69.9c-15.5,42.1-2.4,90.5,32,119.1c34.4,28.7,84.7,32.6,123.2,9.5
		c38.3-23,58.6-68.6,50-112.4C223.2,57.9,178.4,21.2,128.1,21.2z M128.1,228.8c-41.9,0-80.4-26.9-94.7-66.2
		c-14.5-39.8-2-85.6,30.7-112.5c32.4-26.7,79.5-30.3,115.5-8.8c36.3,21.6,55.5,64.7,47.4,106.2C217.8,194.2,175.6,228.8,128.1,228.8
		z"/>
	<path fill="#B82205" d="M113.8,106.6c4.4,0,1.8,2.4,4.2,5.1c1.2-1.2,2.8,0,1.4,1.2c1.3,1,2.3,2.2,2.1,3.9c0.3,0.1,4.4-0.5,3.4-1.9
		c-1-1.5-2-0.8-3.4-3.3c5.9,0.2,2.7,2.9,5.7,6.3c0.7,0.8,5,2.7,6.1,2.9c-0.2,3.5,4.9,4.6,6.1,7.1c1,2.1-1,4,0.7,5.5
		c-0.5,3.4,2.4,3.5,2.6,6.1c-0.4-0.3-0.9-0.5-1.4-0.6c-0.6,0.3-3.1,5.9-4,6.9c0.2-1.8,1.6-3.1,2.1-4.8c-0.4-0.4-0.8-0.2-1.4-0.1
		c0.2-1.2-0.6-7.5-2.9-5.1c-1.5,1.6,2.7,6.2-0.2,8.7c1.2,0.7,1,1.8,0.7,2.9c0.5,0.3,1.1,0.7,0.5,1.5c0.9,1,0.1,2.3,0.8,3.3
		c-0.2,0.2-1.2-0.8-1.8-0.7c-0.5,0.1-0.4,3.8-2.3,2.9c1.1-1.2,1.3-3,2.4-4.1c-0.3-0.6-0.8-0.3-1.1-0.6c0.9-1.5,0.5-2.9-1.1-3.6
		c-1.1,0.6-1.2,5.2-0.9,6.4c-1.9-0.2-0.2-4.2-1.5-3.9c-1.5,0.4,0,2.9-1.4,3.5c-0.5-0.2-0.9-0.6-1.2-1c-1.7,1.3-2.7,3.8-5.5,2.8
		c-0.4,0.5-0.2,0.8,0.2,1.1c-3.4,3.6-7.3,6-11.8,8.2c-1.6,0.8-12.5,6.7-13.9,5.2c3.5-3.1,11.8-2.6,14.6-6.8c-1.3-0.8-4-0.3-5.2,0.8
		c-3.5-3-3.4,0.8-1,0.4c0,0.1,0.1,0.1,0.1,0.2c-1.1,1-2.6,1-3.8,1.6c-1.7-1.9-4.2-0.8-4.6,1.7c-0.4,0.1-0.8,0.1-1.2,0.2
		c-0.2,1.1-2.3,2.3-3.5,2.1c0-0.9,1.4-2.1-0.5-2.2c0.9-0.4,1.7-0.9,2.5-1.5c-0.3-0.6-0.7-0.8-1.3-0.5c-0.2-0.5-0.1-1-0.1-1.7
		c0.6,1.1,1.7,0.5,2.4,1c0.9-0.6,4.1-2.2,4.3-2.7c1.7,1.2,1.7,1.2,2.3,1c-0.1-2.7-1.2-1.7,2.2-2.8c0.1,0.1,0.1,0.1,0.2,0.2
		c-0.2,1,2.6,1.5,1.3-0.7c1.1-0.1,1.1-1.5,1.8-2.1c1.1-0.9,0.5,0.9,1.6,0.6c0.5-0.5,0.7-1,0.5-1.7c1.8-0.4,4.6-2.3,2.2-3.8
		c1.4-1,7.1-5.2,7.7-4.3c0.9-0.8,0.9-1.1-0.1-2.8c1.6-1.2-0.5-6.7-2.1-7.3c1.5-2.7-4.2-6-5.5-6.4c-3.1-1.1-6.1-0.1-9.1-1.2
		c-1.2,1,0.7,0.6-1.7,2.4c-1.6,1.2-3.5,0.4-4.7,2.4c-2.4-0.7-4.9,4.5-7,3.5c-1-3.6,2.5-5.2,4.6-6.8c1.8-1.4,1.9-1,3.5-3.3
		c0.4-0.5,4.1-1.6,1.5-2.9c-1-0.5-3.3,1.3-4,1.8l0,0c0.1-0.5,0-0.9-0.2-1.3c-1.5-0.1-1.3,2-2.6,2.1c-1-1,0.7-2.5-2-2.1
		c-1.4,0.2-2.4,1.5-3.7,2.1c-0.3-0.2-0.1-0.6-0.6-0.8c-2.4,3.4-6.1,7.2-7.1,11.3c-3-2,5.8-8.5,4.4-10.7c-1.5,0.5-2.6,1.2-2.7,3
		c-2.1-0.4-1.5,2.6-3.5,2.2l0,0c0.4-1.4,0.6-3.3,2.2-2.8c0.3-1.3,0.3-2.8,1.7-3.5c-1.7-2.2,0.6-3.9-3.5-3.7
		c-2.9,0.1-4.3,3.3-5.8,5.8c-2.9,4.7-6.5,9.1-8.6,14.2c-1.9,4.5-0.8,8.8-2.2,13.3c1.6,0.3,3.9,2.3,4.6,2.6c0.8,0.3,4.3,0.8,5.3,1.6
		c2.2-0.8,4.1-0.5,6,0c0,1.9-0.9,2.7,0.9,4.5c2.5,2.4,0.9-0.9,3.6,0c0,0,0.5,6.6,2.4,2.2c-1.5-0.4-1.7-3.6-1-4.7
		c2.9,0,2.1-0.2,3.7,1.4c-0.8,1.3-2.1-0.5-2.1,2.1c-0.1,2.5,3.4,0.4,4.4-0.1c-0.1-1.9,2.8-2.2,2.1-0.2c-0.2,0.7-1.1,1.7-1.7,2.1
		c-1.4,1.2-2,0.1-2.7,0.4c-0.7,0.3-2.3,2-3.7,2.4c-1.4,0.3-1.5-2.7-2.7-1.2c0,0,0.8,2.2,0.9,2.3c-1.2,0.3-1.3-1.2-2.6-0.8
		c-2.6,0.8-0.4,2.7-0.4,2.9c0,3.2-0.8,2.6,3.4,2c0.9-1.6-2.4-1.7-2.1-3.8c0.9,0.8,1.9,1.1,3,0.9c0,0.4-0.1,0.8-0.3,1.1
		c2.2,0.6,1.1,2.5,3.3,2c1.6-0.3-1-1.6,1.8-1.9l0,0c-0.2,0.2,3.5,6-0.4,3.7c0.4-0.2,0.8-0.5,1.2-0.9c0,0.5-7.6-0.2-7.2,1
		c-1.7,0.4-3.4,0.4-5.1,0.3c0.4-0.4,0.8-0.6,1.3-0.8c-0.4-1.2-1.2-1.5-2.3-1.1c0,0.5,0.1,1.1,0.2,1.6c-0.9,0.5-4.6-3.6-4.6,0.3
		c0.6,0.6,1.9,0,0.9,1.5c-1.2-1.3-2.4-0.7-3.9-1.2c-1-0.3-0.2-2-0.9-2.5c-1.2,0-2.6,5.7-1.3,1.1c-4.1-4-5,1.7-7.5,1.1
		c1.2-2.5-6.5-1.9-4.8-3.3c-0.6-0.7-4.4-3.7-5.3-3.8c-0.2-1.9-2.1-2.1-3.1-3.3c-1.2-1.5-1.9-3-3-4.6c-0.7,0-0.9,0.9-1.7,1
		c0.1-1.7,1.4-3.4,0.1-5c1.1-1.3,0.8-1.9-0.7-2c-1.6,1,1.8,4-0.6,4.2c-0.9-8.6-3.2-13.9,0.4-23c2.4-5.9,9.3-23.2,16.6-24.8
		c0-2.3,3.2-2.3,4-3.5c-0.3-0.7-0.7-1-1.4-1c2.6-1.1,2.2,0.6,3.8-3.1c2.3,0.5,4.4-1.3,7-2.3c3.8-1.5,6.8-4.7,10.8-5.4
		c0.8,2.4-1.6,1.7-1.6,3.7c1.3,0.6,3.1-0.1,4.1,1.3c1.1-0.1,1.6-2.6,3.6-0.6c1-4.2,1.1-5.4,3.1-2c-0.7,1.5-2.2,0.2-0.9,2.1
		c0.7,1,3.4-0.5,4.6,0.3c-1.1,2.2,2.4,2.8,3,4.2c0.6,1.4-1.2,4-0.5,5.1c1.3,2.1,7-1.7,2.3-1.7c0.4-0.9,1.2-1.2,2-1.7
		c-0.1,1.5,0.6,2.6,1.9,3.3c0.5-0.4,0.8-0.9,0.8-1.5c0.3,0.3,0.6,0.6,0.8,0.9c2.3-1.3-0.7-2.1-1.1-2.9c0.3-0.3,0.6-0.6,1-0.8
		c1.1,1.3,2.4,2.3,3.3,3.7c2.7-1.8,4,1.4,4.8-2.4c0.6-0.2,1.3-0.2,1.8-0.7c1.5,0.8,3.5,1.4,2.3,3.4c1.1,1.6,2.6,2.5,4.5,2.9
		c0-0.9,0.6-1.7,0.4-2.6c-0.9-0.4-1.2,0.5-2,0.6C116.3,109.8,116.1,108.4,113.8,106.6L113.8,106.6z M69,122.3c-1-5.2-2.5,3.2-4,4.2
		c-2.2-3.3-0.4-0.9-2.5,0.3c-1.6-0.9-4.1,4.3-4.8,5.6c0.6,0.8,1.5,1.5,1.3,2.7c-4.9-1.4-3.8,11.6-1.4,5.5c2.1,0.4,5.2-7.6,6-9.8
		c0.6,2,2.5,2.3,0.7-0.5c1.6-1.2,3-2.6,4.4-3.7c-0.9-1.6,10.8-10.5,12.2-9.7c0.5-0.9,1.5-0.9,2.1-1.5c-1.6-4.3-9.6,4.1-10.7,4
		C71.3,120.7,70.5,121.2,69,122.3z M38.2,153.4c0-0.4,0.4-2.3,0-2.7C37.5,150.2,36.2,153.2,38.2,153.4z M74.8,173.9
		c0.9,1.1,1,1.1,1.8-0.1C76,173.2,75.5,173.2,74.8,173.9z M68.6,128.5c0.6,0.8,0.6,0.8,1.8,0.1C69.8,127.5,69.8,127.5,68.6,128.5z
		 M57.8,175.1c0.2,0.2,1.9,1.1,1.5,0.2C58.7,174.5,58.2,174.5,57.8,175.1z M114.7,159.7c-0.3-1.1-1.6-0.7-1.4-0.3
		C113.7,160,114.1,160.1,114.7,159.7z M114.7,112.8c-0.4-0.5-0.9-0.6-1.4-0.2C113.2,113.4,113.7,113.5,114.7,112.8z M56.4,145.1
		c-0.3-0.6-0.7-0.6-1.1,0C55.6,145.7,56,145.7,56.4,145.1z M69,130c-0.3-0.9-1.5-0.5-1.3,0C68,130.4,68.7,130.2,69,130z
		 M114.5,114.4c-0.8-0.5-0.8-0.5-1.2,0.3C113.8,114.9,114.1,114.9,114.5,114.4z M44.5,164.3c-0.6,0.3-0.7,0.6-0.2,1
		C44.9,165,45,164.7,44.5,164.3z M53.9,116.2c-0.7-0.5-0.7-0.5-1,0.2C53.2,116.5,53.5,116.6,53.9,116.2z M46.4,126.4
		C46.3,125.2,46.5,128.1,46.4,126.4z M92.2,106.5C94.1,105.4,90.4,106.7,92.2,106.5z M61.4,141C59.8,141.7,63.1,141.6,61.4,141z
		 M45.6,166.9C45.5,165.1,44.1,168.3,45.6,166.9z M93.8,107.2C92.3,107.6,95.4,107.7,93.8,107.2z M43.1,162.6
		C42.8,161.5,43.3,163.5,43.1,162.6z"/>
	<path fill="#B82205" d="M86.9,173.6c2.7-1.8,6.7,0,8-2.4c0.1,0,2.2,0.5,2.5,0.6c0.9,2.3-5.8,0-3.5,4c-0.6,0.3-1,0.9-1.7,0.3
		c1.3-2.1-1.9-3.6-3.3-1.8C88.2,174.1,87.6,173.5,86.9,173.6L86.9,173.6z"/>
	<path fill="#B82205" d="M138.8,153.8c2.1-2.1,1.5-4.1,2-6.6c0.4-2.4,1.7-5,1.9-7.4c0.6,0.2,0.9,0.6,1.4,1.2
		C141.3,142.1,142.2,155.1,138.8,153.8z"/>
	<path fill="#B82205" d="M122.6,160.7c-0.1-3.8,1.2-1.3,2.9-2.7c0.7-0.5,3.9-5.8,5.1-4.5C127.5,156.8,126.4,158.9,122.6,160.7
		L122.6,160.7z"/>
	<path fill="#B82205" d="M128.3,162.9c0-1.3,0.7-2.3,1.1-3.4c1.9,0.2,5.8-6.6,6.5-5.1C133,156.7,131.6,160.6,128.3,162.9
		L128.3,162.9z"/>
	<path fill="#B82205" d="M73.2,128.4c0.4,0.2,0.6,0.5,0.8,1.1c-2.6,2.7-3.5,6.3-4.9,9.7C67.3,138.1,72,129.7,73.2,128.4z"/>
	<path fill="#B82205" d="M77.4,127.5c-1.1,0.9-1.1-0.6-2.1-0.5c-0.2,0.5-0.4,1-0.5,1.5c-0.1-0.7-0.5-0.8-1.2-0.7
		c1-1.6,4.2-3.5,4.6-4.8C78.3,124.9,78,125.8,77.4,127.5z"/>
	<path fill="#B82205" d="M107.6,170.1c0.4-1.9,1.7-2.6,3.6-2.3c1.1-1.5,2.5-2.4,4.6-2.9c-5.7,5.1-0.9,0.3-1.5,2.8
		c-0.9,0.7-0.6-1-1.3-0.6C111.5,167.9,108.9,168.9,107.6,170.1z"/>
	<path fill="#B82205" d="M77,132.4c-0.1,0.8,0.2,1.7-0.4,2.5c-2.2-0.5-1.6,2.7-3.6,2.7C73.5,135.9,74.9,132.7,77,132.4L77,132.4z"/>
	<path fill="#B82205" d="M87.7,129.4c0.5-1.2,1.1-1.4,2.2-0.7c0.2-1.1,0.8-1.5,1.8-1.2C92.4,131.4,88.9,129.5,87.7,129.4L87.7,129.4
		z"/>
	<path fill="#B82205" d="M101.2,100.3c-0.3,1.4,1.6,2,0.9,3.5c-1,0.1-1.9-0.2-2.3-1.4c0.8-0.5,0.4-1.2,0.3-1.8
		C100.4,100.2,100.7,100.3,101.2,100.3z"/>
	<path fill="#B82205" d="M87.4,129.7c0.1,0.9,1,1.2,1.4,2c-0.7,1.1-2.2,0.5-3.3,1.8C85,132.2,86.3,130.3,87.4,129.7L87.4,129.7z"/>
	<path fill="#B82205" d="M99.5,172.5c0-0.2,1.1-2.8,1.5-2.9c0.6,0.3,1.1,0.7,1.5,1.2c-0.3,0.5-0.7,1-0.7,1.6
		C101,172.7,100.3,171.8,99.5,172.5z"/>
	<path fill="#B82205" d="M116.8,163.2c-0.7-0.2-1.3,0.4-2,0.3c0.6-1,4-3.3,5.2-3.5C120.4,161.8,117.1,161.1,116.8,163.2L116.8,163.2
		z"/>
	<path fill="#B82205" d="M95.5,159.7C93,164,91.4,158.6,95.5,159.7z"/>
	<path fill="#B82205" d="M142.5,144.8c1.6,0.2,1.2,0.8,1,1.8c1.3,1,0.8,1.9-0.3,2.8C142.1,148,143.5,146.3,142.5,144.8z"/>
	<path fill="#B82205" d="M124.8,164c-0.1-1.3,1.8-1.3,0.8-2.7c0.5-0.4,0.9-0.9,1.7-1.2C127,161.6,127.3,164.6,124.8,164L124.8,164z"
		/>
	<path fill="#B82205" d="M134.9,158.7c0.4-2.6,1.4-3.6,3-3.3C137.1,156.4,136.2,158.1,134.9,158.7z"/>
	<path fill="#B82205" d="M117.6,165.5c1.4,0.2,2-0.9,2.8-1.4c0.8,0.9-0.3,1.2-0.5,1.9c0.7,0.6,0.3,1.2-0.1,1.8
		C119.6,167.6,117.7,165.6,117.6,165.5z"/>
	<path fill="#B82205" d="M106.9,170.2c-0.8,0.2-1.4,0.5-2,1.1c-0.5-0.6-1.8,0-2-1.4C104.5,170.4,105.9,168.4,106.9,170.2z"/>
	<path fill="#B82205" d="M92.9,170.8c-0.5,0-0.8-0.2-1.1-0.4c0.6-1.1,3.9-3.3,3.8-0.7C94.4,169.3,93.4,169.5,92.9,170.8z"/>
	<path fill="#B82205" d="M89.9,170.7c-0.8,0.2-1.5,0.4-2.1-0.2c0.7-1.5,1.5-2,3-2C89.8,169.1,89.1,169.6,89.9,170.7z"/>
	<path fill="#B82205" d="M68.7,99.7c2-0.1-0.4-2.8,2.4-2.7c-1.1,0.6-0.8,1.4-0.5,2.1C70.8,99.1,68.6,101.2,68.7,99.7L68.7,99.7z"/>
	<path fill="#B82205" d="M78.1,163c-0.1-0.6,0.1-1,0.3-1.4c0.7,0.8,1.4,0.3,2.2,0C80.1,163.1,79.6,163.4,78.1,163z"/>
	<path fill="#B82205" d="M98.4,104.2c0.1,0.6,0,1.1-0.1,1.5c-1.1,0-1.5-0.8-2.4-1.6C96.8,104.1,97.6,104.1,98.4,104.2z"/>
	<path fill="#B82205" d="M141.8,136.7c0.2-1.3-0.1-2.4-0.7-3.5C142.2,133.9,144,136.5,141.8,136.7z"/>
	<path fill="#B82205" d="M84.3,100.2c-0.4,0.2-3.5-0.5-3.7-0.8C81.8,98.5,83.2,98.9,84.3,100.2z"/>
	<path fill="#B82205" d="M93.6,101c-1.9-0.5-0.1-2.2,0.4-3.1C94.1,99,93.9,100,93.6,101z"/>
	<path fill="#B82205" d="M89.8,94.8c1.4-0.9,2.9,0.6,1.9,1.9C91.3,96.6,90.2,95.1,89.8,94.8z"/>
	<path fill="#B82205" d="M100.4,105.8c-0.5,0.1-0.9-0.1-0.9-0.6C99.6,103.2,103.8,105.7,100.4,105.8z"/>
	<path fill="#B82205" d="M81.9,160.1c-1.4,0.8-1.6,1.3-1.9-0.6C80.8,159.2,81.4,159.4,81.9,160.1z"/>
	<path fill="#B82205" d="M86.6,96.7c-0.2-0.1-1.8-1.4-1.9-1.5c0.9-0.4,1.7,0.1,2.5,0.2C87.3,96,86.9,96.3,86.6,96.7z"/>
	<path fill="#B82205" d="M96.6,102.3c-0.1,0.6-1.7,1.9-1.8,0.7C94.8,102.4,96.3,102.2,96.6,102.3z"/>
	<path fill="#B82205" d="M125.4,155.3c0.1,1.1-0.7,1.4-1.6,1.7C124,156.2,124.6,155.7,125.4,155.3z"/>
	<path fill="#B82205" d="M95.1,126.6c0.2,0.8-0.4,1.4-0.2,2.2C93.8,128.1,93.8,127.8,95.1,126.6L95.1,126.6z"/>
	<path fill="#B82205" d="M107.8,106.7c0.7-0.3,1.3-0.1,1.9,0.5C108.1,107.7,108.1,107.7,107.8,106.7z"/>
	<path fill="#B82205" d="M107.5,166.4c-0.9,1,0.2,1.8-1.8,1C106.1,166.8,106.6,166.6,107.5,166.4z"/>
	<path fill="#B82205" d="M89.4,100.6c0.4-1,1.1-0.6,1.9-0.5C90.7,101.1,90.1,100.8,89.4,100.6z"/>
	<path fill="#B82205" d="M133.2,118.7c0.8,0.4,0.8,0.8,0,1.1C132.2,119.4,132.2,119,133.2,118.7z"/>
	<path fill="#B82205" d="M129,117.5c0.7-1.5,0.7-1.5,1.6-0.7C130.1,117.1,129.6,117.4,129,117.5z"/>
	<path fill="#B82205" d="M108,171.6c-0.3,0.7-0.6,1.1-1.3,0.8C107.1,171.2,107.1,171.2,108,171.6z"/>
	<path fill="#B82205" d="M90.5,98.8c-0.1-1.4,1.4-1.1,1.3-0.9C91.6,98.5,91.1,98.8,90.5,98.8z"/>
	<path fill="#B82205" d="M86.6,169.5c-0.3,0.9-0.8,1.2-1.6,0.9C85.4,169.8,85.4,169.8,86.6,169.5z"/>
	<path fill="#B82205" d="M89.9,177c0.3-0.5,0.6-0.9,1.1-1.2C91.2,177,91,177.1,89.9,177z"/>
	<path fill="#B82205" d="M83.2,97.4c0.5-0.1,1.1-0.9,1.7,0.1C84.3,98,83.8,97.9,83.2,97.4z"/>
	<path fill="#B82205" d="M107.8,109.5c-0.9,0.2-1.2-0.4-1.8-0.7C107,108.3,107.3,108.7,107.8,109.5z"/>
	<path fill="#B82205" d="M113,164.2c-0.2,0.5-0.5,0.7-1,0.9C111.3,163.6,112.5,163.6,113,164.2z"/>
	<path fill="#B82205" d="M120.2,109.8c0.7,0.2,1.6,0.2,1.1,1.5c-0.7-0.3-0.9-0.9-1.3-1.3C120.1,109.9,120.1,109.8,120.2,109.8z"/>
	<path fill="#B82205" d="M73.6,97.4c0.5-0.1,0.8-0.4,1.4-0.3c-0.2,0.3-0.4,0.6-0.5,1C74.1,97.8,73.9,97.6,73.6,97.4z"/>
	<path fill="#B82205" d="M86.5,171.9c-0.6,0.2-1-0.3-1.7-0.1C85.7,170.9,86,171,86.5,171.9z"/>
	<path fill="#B82205" d="M76.9,96.3c0.4-0.9,1-1.1,1.8-0.9C78.1,95.6,77.8,96.4,76.9,96.3z"/>
	<path fill="#B82205" d="M140.8,133c-0.6-1.2-0.5-1.6,0.4-1.8C141,131.8,140.6,132.3,140.8,133z"/>
	<path fill="#B82205" d="M120.3,162.7c-0.3,0.1-0.6,0.3-0.9,0.4C118.7,162.3,120,162.3,120.3,162.7z"/>
	<path fill="#B82205" d="M127.9,114.2c0.4-0.2,0.8-0.2,1.2,0C128.7,115.1,128.3,115.1,127.9,114.2z"/>
	<path fill="#B82205" d="M98.7,175c-0.6,0.7-1.4,0.5-2.1,0.5C97.2,175.2,97.9,174.9,98.7,175L98.7,175z"/>
	<path fill="#B82205" d="M124.8,164c0.1,0.7-0.1,1.3-1.1,1C123.8,164.4,124.3,164.2,124.8,164L124.8,164z"/>
	<path fill="#B82205" d="M112.4,170.4c0.3-0.2,0.6-0.4,1-0.5C113.9,170.4,113,171,112.4,170.4z"/>
	<path fill="#B82205" d="M104.8,172c0.4,0.5,0.8,1-0.2,1.3C104.4,172.8,104.3,172.4,104.8,172z"/>
	<path fill="#B82205" d="M83.3,171.5c0.5,0.4,0.7,0.8,0.4,1.4C82.9,173.7,83.2,171.2,83.3,171.5z"/>
	<path fill="#B82205" d="M101,173.9c0.2,0.9-0.1,1.2-0.6,0.8C100.3,174.3,100.5,174,101,173.9z"/>
	<path fill="#B82205" d="M64.5,102.5c0.7-0.4,1.1-0.3,1.3,0.3C65.2,103.2,65,102.8,64.5,102.5z"/>
	<path fill="#B82205" d="M122.2,162.4c0.5,0.8,0.5,1.1-0.2,0.9C121.7,163,121.7,162.7,122.2,162.4z"/>
	<path fill="#B82205" d="M99.6,159.3c0.5,0.3,0.5,0.6,0,0.9C99.1,159.9,99.1,159.6,99.6,159.3z"/>
	<path fill="#B82205" d="M75.8,95.1c0.1,0.4,0.2,0.8,0.4,1.5c-0.7-0.5-0.6-1-0.8-1.4C75.5,95.2,75.6,95.1,75.8,95.1z"/>
	<path fill="#B82205" d="M80.3,136.7c-0.1-0.7,0.2-0.8,0.7-0.7C81.1,136.6,80.8,136.7,80.3,136.7z"/>
	<path fill="#B82205" d="M82.1,96.1C80.7,94.3,84.5,96.3,82.1,96.1z"/>
	<path fill="#B82205" d="M83.1,93c-0.4,0.5-0.7,0.4-1.1,0.2C82.2,92.7,82.6,92.9,83.1,93z"/>
	<path fill="#B82205" d="M104.2,105.8c-0.5-0.4-0.2-0.7-0.2-1.1C104.5,105,104.5,105.3,104.2,105.8z"/>
	<path fill="#B82205" d="M105.2,106.9c0.4-0.3,0.7-0.3,1.1-0.2C105.9,107.2,105.6,107.3,105.2,106.9z"/>
	<path fill="#B82205" d="M116.8,163.2c0.6,0.6,0.6,0.6,0.1,1C116.6,163.9,116.9,163.5,116.8,163.2L116.8,163.2z"/>
	<path fill="#B82205" d="M86.7,163.9c0.4,0.5,0.5,0.8-0.2,0.9C86.2,164.4,86.6,164.2,86.7,163.9z"/>
	<path fill="#B82205" d="M103.3,173.4c-0.4,0.6-0.6,0.5-1,0.3C102.5,173.2,102.9,173.4,103.3,173.4z"/>
	<path fill="#B82205" d="M112.1,107.2C111.7,108.6,112,105.7,112.1,107.2z"/>
	<path fill="#B82205" d="M87.9,94.4C86.7,94.2,89.3,94.2,87.9,94.4z"/>
	<path fill="#B82205" d="M113.5,106.3c-0.5-0.1-0.7-0.3-0.4-0.7C113.6,105.7,113.3,106.1,113.5,106.3L113.5,106.3z"/>
	<path fill="#B82205" d="M110.6,171c-0.4,0.3-0.7,0.3-1.2,0.1C109.9,170.7,110.2,170.9,110.6,171z"/>
	<path fill="#B82205" d="M142.2,153.2C141.7,152,143.1,152.7,142.2,153.2z"/>
	<path fill="#B82205" d="M106.5,162.2c-0.1,0.4-0.5,0.5-0.8,0.6c0-0.1-0.1-0.1-0.1-0.2c0.2-0.3,0.5-0.5,0.8-0.6
		C106.3,162.1,106.4,162.1,106.5,162.2z"/>
	<path fill="#B82205" d="M82.8,171.1C83,170,82.7,172.4,82.8,171.1z"/>
	<path fill="#B82205" d="M94.5,129.9C93.5,129.8,95.7,129.7,94.5,129.9z"/>
	<path fill="#B82205" d="M136.8,124C136.5,125.1,137,122.8,136.8,124z"/>
	<path fill="#B82205" d="M77.4,179.2c-0.3,0.2-0.4,0.1-0.4-0.3C77.2,178.8,77.4,178.9,77.4,179.2z"/>
	<path fill="#B82205" d="M135.2,121.9C134,121.7,136.4,121.8,135.2,121.9z"/>
	<path fill="#B82205" d="M123.3,165.5C123,166.2,123.7,164.7,123.3,165.5z"/>
	<path fill="#B82205" d="M122.3,161c-0.1,0.3-0.4,0.4-0.7,0.2C121.8,160.9,122.1,161,122.3,161L122.3,161z"/>
	<path fill="#B82205" d="M107.5,104.7c0.1,0,0.1-0.1,0.2-0.1c0.1,0.1,0.2,0.2,0.2,0.3C107.7,105,107.6,104.9,107.5,104.7z"/>
	<path fill="#B82205" d="M119.8,109.6c-0.2,0-0.3,0-0.4-0.2C119.6,109.3,119.7,109.4,119.8,109.6L119.8,109.6z"/>
	<path fill="#B82205" d="M104.6,158.7c0.5-0.2,0.6-0.2,0.2,0.2C104.8,158.8,104.7,158.8,104.6,158.7z"/>
	<path fill="#B82205" d="M98.7,175c0.1-0.3,0.2-0.3,0.3-0.1C98.9,174.9,98.8,175,98.7,175L98.7,175z"/>
	<path fill="#B82205" d="M122.6,160.7c0,0.2-0.1,0.3-0.3,0.3l0,0C122.3,160.8,122.4,160.7,122.6,160.7L122.6,160.7z"/>
	<path fill="#B82205" d="M68.7,99.7c0,0-0.1-0.1-0.1-0.1C68.7,99.6,68.7,99.7,68.7,99.7L68.7,99.7z"/>
	<path fill="#B82205" d="M113.5,106.3c0.1,0.1,0.2,0.2,0.3,0.3l0,0C113.6,106.6,113.5,106.5,113.5,106.3L113.5,106.3z"/>
	<path fill="#B82205" d="M119.8,109.6c0.2,0,0.3,0.1,0.4,0.2c-0.1,0.1-0.1,0.1-0.2,0.2C119.8,109.8,119.7,109.7,119.8,109.6z"/>
	<path fill="#B82205" d="M87.7,129.4c0,0.2-0.1,0.2-0.3,0.3l0,0C87.4,129.5,87.5,129.4,87.7,129.4L87.7,129.4z"/>
	<path fill="#B82205" d="M104.8,158.9c-0.1,0.1-0.2,0.2-0.3,0.3c-0.1-0.1-0.1-0.1-0.2-0.2c0.1-0.1,0.2-0.2,0.3-0.3
		C104.7,158.8,104.8,158.8,104.8,158.9z"/>
	<path fill="#B82205" d="M128.3,162.9c0,0.1,0,0.1-0.1,0.1C128.2,162.9,128.2,162.9,128.3,162.9L128.3,162.9z"/>
	<path fill="#B82205" d="M136.9,152.1c0.2,0.3,0.2,0.3-0.1,0.1C136.8,152.2,136.9,152.2,136.9,152.1z"/>
	<path fill="#B82205" d="M63,127.4c0.3,0.5,0.7,0.9,0.5,1.4C62.7,128.6,62.5,128.2,63,127.4z"/>
	<path fill="#B82205" d="M69,122.3c0,0.1-0.1,0.3-0.1,0.4C68.7,122.5,68.8,122.3,69,122.3z"/>
	<path fill="#D0D441" d="M149.1,159.4c0.1-0.3-0.2-0.5-0.2-0.8c2.4-0.7,2.7-1.2,1.4-2.9c2.3-4,2.3-8.9,3.8-13
		c0.6-0.1,1.2-0.1,1.8-0.2c1.2-2.9,1.6-8.2,2.9-11.7c1-2.6,2.7-5.9,3.5-9.1c1-3.7,5.5-16,2.3-17.8c-0.5,1.7-5.6,3.2-6.8,3.5
		c-1.1,0.3-12,1.6-12.5,2.3c1.3,1.3,2.9,1.1,4.5,0.9c0,0.1,0,0.2,0,0.3c-4.8,0.3-11.4,1.2-15-0.7c0.5,0.3-3.1-2.7-2.7-2.1
		c-0.6-1-0.1-3.3-1.2-3.9c-1,0.1-1.3,0.6-1.1,1.6c-2.1-1.6-0.8-3.8-1.5-5.7c2.5,0.5,3.3-1.7,2.3-2.9c1.3-2,1.3-2,0.6-2.9
		c1.4,1,3.9,0.4,3.4-1.5c2.8-3.2,7.4-0.5,10.3-2.7c-0.9-1-2.1-0.7-3.3-0.4c0.9-2,7.6-0.7,9.8-2.2c-0.8-1.4-2.1,0.2-2.9-0.5
		c2.2-1.9,9.8-0.8,13.2-1.8c2.4-0.7,10.6-1.7,12.1-4c1.5,0.6,1.4,1.3,2.2-0.6c0.8,0.8,7.7,0.4,7.9-0.5c0.4,0,0.4,0.4,0.7,0.7
		c3.3-2.8,12.6-1.5,16.7-1.6c3.6,0,7.4,0,11.1,0.2c1.5-0.2,2.9-0.1,4.3,0.3c-0.3,0.5-0.3,0.9,0.1,1.3c0.4-0.4,0.7-1,0.7-1.6
		c1.4,0,1,2.3,2,2.1c0.9-0.2,0.3-1.3,0.2-1.8c1.6,0,7.8,0.9,8.9,1.8c-0.9,1.1-2.8-0.3-2.1,1.7c0.3,0.8,2.2,0.7,3,1.1
		c1.4-2.2,2.2,0.5,2.8,0.8c-0.5,0.6-2.8,1-3.6,1.1c-2.6-4.1-1.1,0-4.6-0.2c1.4,1.2,1.4,0.9,0.9,2.4c1.6,1.2,3.9-0.2,5.6,1
		c-1,3.1-5,0-5.7,2.6c0.8,0.4,1.2,1.1,1.7,1.8c-0.9,0.1-1.9,0.1-2.8,0c0,0,0.6-2.6,0.7-2.4c-1.6-1.9-2.1,3.7-1.9,4.3
		c-0.8-0.1-1,0.5-1.1,1.1c-0.8,0.1-1.4,0.2-2.2,0.3c-0.6-1.3,0.3-1.1-1.7-1c0,0.4,0.2,0.7,0.4,1c-0.3,0-0.6,0-1,0
		c-0.4-1-2.7-2.3-3.7-2.1c-0.7,1.7,0,2,1.6,2.3c-1.7,0.2-9.7-0.9-6.9,1.9c-0.6,0.1-1.1,0.2-1.7,0.3c-0.2-0.4-0.2-0.8,0-1.3
		c-3-1.1-15.7,1.2-16.8,0c1.9,2.2,10,0.3,13.6,1c-5.2,0.2-10.4,0-15.8,0.8c2.9,5.4,0.6,17.1-1.5,22.4c2.4,2.8-2.7,8.3-2.3,11.4
		c-2.3,0.2-3.9,15-7.6,16.5c1.3,2.8-2.6,5-2,7.2c-0.3,0-0.6,0.1-0.8,0.1c-1.4,4.8-3.7,13.4-7.6,15.6c-0.5-1.3-0.3-2.7-0.2-4
		c0.3-0.1,2.9-3.1,1.6-3.7c-1.2-0.6-1.1,2-2.3,1.3c0.2-1,0.9-1.7,1.7-2.2c-0.5-1.5,2-2.4,2.8-3.8c0.5-0.9-1-2.4-1.8-1.3
		c0.1,0.4,0.3,0.7,0.6,1c-0.3,0.4-0.7,0.6-1.2,0.4c0.4-3.6-1.2-7.3-1.8-2.2c-0.6-0.1-0.7-0.1-1.4,0.3c0.7,0.8,0.7,1.1,1.4,1.8
		c-2.2,3.8,0,8-1.8,11.1c0.9,0.5,1.4,1.5,2.5,1.2c-0.4,1.1-1.6,2.7-2.1,3.9c-1.3-1.1-0.7-2.4-1-3.6c0.4-0.4,1-4.1-0.3-4.8
		c-0.1-1.9-0.1-2-2-1.1c1.1,1.9-1.2,6.1,0.3,7c-0.2,0.7-1.3,1-0.8,2.1c-0.2,0.2-0.6,0.3-1.2,0.6c0.7-1.9,0.4-3.9,1.2-5.8
		c-0.9,0.2-1.8,0.4-2.6-0.1c-0.4,0.6,0.5,2.8,1.3,3.3c-2.8,0.4-0.4,2.7-2.1,3.6c-2.1-0.7,1.6-4-1.6-4.1c-0.6,1.4-1.9,6.8-3.8,6.1
		c1-1,1.4-2.1,0.1-3.1l0,0c-0.1-1.4,2.1-2.4-1-2.8c-0.1,0.3-1.4,4.9-2.5,4.1c0-0.7,0-1.5,0-2.2c1.7,0.6,0.4-2.9,0-3.2
		c-1.2,1.6-1.8,3.1-2.5,4.9c-1.8-2.3,2.8-7,0.9-8.5c-1.9,0.2-1.6,4-2.8,5.1c0.3-3.4,2-7.4,3.5-10.3c0.5,1.3-1.4,2,0,3
		c0.3-0.2,3.5-7,3.5-6.9C150.5,159.5,151.2,158.5,149.1,159.4L149.1,159.4z M170.9,144.9c-0.4,1.2-0.4,2.2,0.1,3.4
		C173.2,148,173.9,143.3,170.9,144.9z M184.7,100.1C186.1,106.1,187.2,97.6,184.7,100.1z M218.9,94.7c0.8,1.7,4.3,0.6,2.4-0.8
		C220.9,95,219.6,93.9,218.9,94.7z M154.8,88.7c-0.2-0.2-2.5-2.3-2.8-0.7C151.9,88.8,154.7,88.7,154.8,88.7z M147.9,172.3
		c1-0.5,1.2-1.3,0.5-2.2C147.8,169.4,147,171.6,147.9,172.3z M211.5,95.6C209.4,98.5,214.2,96.7,211.5,95.6z M163.6,104.5
		c-1.1-1.3-1.7,0.2-1.3,0.6C162.9,105.3,163.3,105.1,163.6,104.5z M135.9,110.3c0.8,0.2,0.8,0.2,1.5-0.6
		C136.6,109.3,136.6,109.3,135.9,110.3z M182.5,81.7c-1.3-0.6-1.7-0.4-1.3,0.6C181.9,82.6,182.3,82.4,182.5,81.7z M164.2,85.7
		c-0.3-0.7-0.7-0.7-1.2-0.1C163.3,86.2,163.7,86.2,164.2,85.7z M215,92.5c0.6,0.2,0.9,0.2,1.2-0.3C215.7,91.9,215.3,91.8,215,92.5z
		 M131.3,102.8c-0.4-0.6-0.7-0.7-0.9-0.1C130.6,103.1,130.9,103.1,131.3,102.8z"/>
	<path fill="#D0D441" d="M138.2,88.4c-0.2-0.5,0-0.9-0.3-1.3c0.8-0.5,1.6-0.2,2.6-0.3C139.8,87.6,139.6,88.7,138.2,88.4z"/>
	<path fill="#D0D441" d="M141.2,113.2c1.2-0.4,2.5-0.2,3.8-0.1C143.8,113.6,142.5,113.9,141.2,113.2z"/>
	<path fill="#D0D441" d="M149.1,159.4c-0.3,1.3-0.5,1.9-1.1,3.1C147.6,161.5,148.1,160.3,149.1,159.4L149.1,159.4z"/>
	<path fill="#D0D441" d="M227.9,93.9c-0.7-0.5,0-1.9,0.8-1.4C229.2,92.8,228.6,94.1,227.9,93.9z"/>
	<path fill="#D0D441" d="M137,88.5c0,0.8-0.4,1.5-1,1.9C134.4,90.3,137.2,88.5,137,88.5z"/>
	<path fill="#D0D441" d="M197.5,78.2c0.8-0.3,1.3-0.6,2-0.2C199,78.6,199,78.6,197.5,78.2z"/>
	<path fill="#D0D441" d="M130.8,90.3c0.5-1.3,0.6-1.4,1.3-0.7C131.5,90.3,131.5,90.3,130.8,90.3z"/>
	<path fill="#D0D441" d="M206.2,77.8c0.9,0,1.5-0.1,2.2,0.4C207.6,78.4,207,78.5,206.2,77.8z"/>
	<path fill="#D0D441" d="M230.3,82.1c0.8-0.5,1.2-0.4,1,0.3C230.9,82.5,230.5,82.5,230.3,82.1z"/>
	<path fill="#D0D441" d="M227.7,88.2c-1-0.1-1-0.2-0.5-1C228,87.2,227.6,87.8,227.7,88.2z"/>
	<path fill="#D0D441" d="M151.6,177.5c-0.4,0.3-0.1,1.3-1.1,1C150.7,177.9,151,177.6,151.6,177.5L151.6,177.5z"/>
	<path fill="#D0D441" d="M128.4,96.2c0.3,0.4,0.1,0.6-0.2,0.9C127.8,97,127.8,96.7,128.4,96.2z"/>
	<path fill="#D0D441" d="M132,92.4c-0.1,0.5-0.4,0.7-0.9,0.8C131,92.5,131.3,92.3,132,92.4z"/>
	<path fill="#D0D441" d="M226.5,80.3c0.5-0.3,0.9-0.4,1.2,0.1C227.3,80.6,227,80.6,226.5,80.3z"/>
	<path fill="#D0D441" d="M156.9,180.4c-0.1-0.3-0.1-0.6,0-0.9C157.6,179.8,157.3,180.1,156.9,180.4z"/>
	<path fill="#D0D441" d="M160.6,85c-0.5,0.3-0.8,0.2-1.3,0.1C159.8,84.8,160.2,84.9,160.6,85z"/>
	<path fill="#D0D441" d="M147.7,180.5C147.9,181.4,147.4,179.5,147.7,180.5z"/>
	<path fill="#D0D441" d="M130.4,97.7c-0.2,0.1-0.5,0.2-0.7,0C129.9,97.5,130.1,97.5,130.4,97.7z"/>
	<path fill="#D0D441" d="M128.6,95c0.2-0.2,0.4-0.3,0.6-0.1C129.1,95.2,128.8,95.2,128.6,95z"/>
	<path fill="#FFFFFF" d="M155.3,46.5c0.3,2.8-0.3,5.6-0.3,8.3c1,0.3,1.9,0.7,2.8,0.8c2.6-4.2,5.2-8.3,7.9-12.6
		c-1-0.3-1.9-0.6-2.8-0.9c-1.7,2.5-2.9,5.2-4.9,7.5c0.3-2.9,0.6-5.9,0.8-8.8c-0.9-0.3-1.7-0.6-2.5-0.8c-1.6,2.7-3.2,5.2-4.7,7.8
		c-0.1,0-0.2-0.1-0.2-0.1c0.3-2.9,0.7-5.9,1-9c-1.1-0.3-2-0.8-3.2-0.9c-0.4,4.9-0.8,9.8-1.1,14.7c1,0.2,1.8,0.7,2.8,0.8
		C152.4,51,153.8,48.7,155.3,46.5z"/>
	<path fill="#FFFFFF" d="M76.8,55.3c-2-2.4-4.8-2.5-7.4-0.4c-2.3,1.8-2.8,4.6-1.1,7.1c1,1.4,2,2.8,3.1,4.2c1.5,1.9,3.6,2.5,5.8,1.7
		c2.3-0.8,4-3,4-5.2c0.1-1-0.2-1.8-0.8-2.6C79.2,58.4,78.1,56.8,76.8,55.3z M77.7,64c-0.7,0.9-1.4,1.2-2.7,0.9c-1.3-0.9-2-2.4-3-3.5
		c-0.5-0.6-0.9-1.2-1.3-1.8c-0.6-1.1-0.4-2,0.6-2.7c0.9-0.7,1.9-0.6,2.7,0.3c1.3,1.5,2.5,3.1,3.6,4.8C78.1,62.6,78.2,63.4,77.7,64z"
		/>
	<path fill="#FFFFFF" d="M127.4,43c1.9-1.1,1.8-2.7,1.6-4.3c-0.3-1.7-1.1-2.7-2.8-2.9c-2.4-0.3-4.8,0.1-7.3,0.1
		c0.2,4.9,0.4,9.6,0.6,14.4c1.2,0,2.2,0.1,3.1-0.1c0-1,0-1.9,0-2.8c0-0.9,0-1.9,0-2.9c1.1,0,2.1-0.2,2.9,0.1
		c0.5,0.4,0.6,0.9,0.6,1.4c0,0.7,0,1.5,0.1,2.2c0.1,0.7,0.3,1.4,1.1,1.9c0.2,0,0.5,0,0.9,0c0.6,0,1.2,0,1.8,0
		c0.1-0.1,0.3-0.2,0.4-0.3c-1.1-1-1-2.3-1-3.5C129.4,44.9,129.1,43.6,127.4,43z M125.8,41.4c-0.9,1.2-2.1,0.7-3.3,0.8
		c-0.2-1.2-0.1-2.4-0.2-3.7c1-0.2,2-0.2,3,0C126.2,39.4,125.8,40.4,125.8,41.4z"/>
	<path fill="#FFFFFF" d="M173.7,57.9c0.8,1.3,0.7,1.7-0.6,2.7c-1,0.2-1.7-0.3-2.3-1c-0.8-0.9-0.3-1.8,0-2.7
		c-0.8-0.5-1.5-1.1-2.4-1.4c-1.5,2-1.5,3.7-0.1,5.5c1,1.2,2.3,2,3.8,2.3c1.9,0.4,3.4-0.3,4.5-1.8c1-1.4,1-2.9,0.1-4.4
		c-0.4-0.7-0.9-1.3-1.4-2c-0.3-0.5-0.7-1-1-1.5c-0.4-1-0.1-1.8,0.8-2.1c0.8-0.2,1.4,0.2,2,0.7c0.5,0.5,0.7,1.1,0.5,1.7
		c-0.1,0.3-0.5,0.6-0.3,1c0.8,0.4,1.4,1,2.3,1.3c1.4-1.7,1.5-3.5,0.3-5.2c-0.7-0.9-1.5-1.6-2.5-2c-2-0.9-4.1-0.6-5.4,1
		c-1.3,1.5-1.3,3.3,0,5.3C172.5,56.2,173.1,57,173.7,57.9z"/>
	<path fill="#FFFFFF" d="M112,48.6c-0.4-1.1-0.6-2.2-0.6-3.2c1.3-0.5,2.6-0.4,3.8-0.9c0-0.8-0.1-1.4-0.4-2.1c-1.3,0-2.6,0.5-3.9,0.5
		c-0.2-1-0.5-1.9-0.4-2.9c1.9-0.3,3.7-0.7,5.5-1c0-1-0.3-1.8-0.5-2.7c-3,0.5-5.9,1-8.9,1.6c0.8,4.8,1.7,9.4,2.5,14.2
		c3-0.5,5.9-1.1,8.8-1.6c0-1.1-0.2-1.9-0.4-2.9C115.7,48,113.8,48.3,112,48.6z"/>
	<path fill="#FFFFFF" d="M104,53.6c0-5.1,0-10.1,0-15.2c-1.2,0.3-2.1,0.5-3,1c-0.1,3.2,0.5,6.3,0.1,9.5c-1.7-2.6-3.5-5.3-5.2-8
		c-1.1,0.4-2.2,0.6-3.2,1.2c2.9,4.1,5.7,8.2,8.6,12.3C102.3,54.2,103.2,53.9,104,53.6z"/>
	<path fill="#FFFFFF" d="M184.1,53.8c-0.6,0.7-1.2,1.4-1.7,2.1c0.7,1,1.9,1.4,2.6,2.4c-2.4,3-4.7,5.9-7.2,9c1,0.7,1.6,1.4,2.6,1.9
		c2.4-3,4.8-6,7.2-9c1.1,0.7,1.8,1.6,2.9,2.1c0.5-0.8,1.3-1.3,1.6-2.2C189.4,58.1,186.8,56,184.1,53.8z"/>
	<path fill="#FFFFFF" d="M142.9,39.9c1.2-0.1,2.3,0.3,3.5,0.3c0.2-1,0.6-1.9,0.2-2.8c-3.4-0.5-6.7-1-10.1-1.4c0.1,1-0.4,1.8-0.3,2.7
		c1.1,0.5,2.3,0.2,3.4,0.7c-0.6,3.8-1.1,7.5-1.7,11.3c1.2,0.1,2.1,0.5,3.2,0.3C141.8,47.3,142.4,43.6,142.9,39.9z"/>
	<path fill="#FFFFFF" d="M92.2,58.1c-0.7-0.8-0.9-1.8-1.6-2.4c-1.7,0.9-3.3,1.8-5,2.8c-1.9-3.4-3.7-6.7-5.6-10.1
		c-1,0.5-1.8,1-2.8,1.6c2.4,4.3,4.7,8.4,7.1,12.6C87,61,89.6,59.6,92.2,58.1z"/>
	<path fill="#FFFFFF" d="M164.6,59c2.1-4.4,4.2-8.7,6.3-13c-1-0.5-1.9-1.1-3-1.3c-2.1,4.3-4.2,8.6-6.3,12.9
		C162.7,58.1,163.6,58.5,164.6,59z"/>
	<path fill="#FFFFFF" d="M96.3,56.3c-1.9-4.4-3.9-8.7-5.8-13c-0.7,0-1.1,0.3-1.5,0.6c-0.5,0.2-1.1,0.3-1.4,0.8
		c1.9,4.3,3.9,8.7,5.8,13.1C94.4,57.1,95.4,57,96.3,56.3z"/>
	<path fill="#FFFFFF" d="M93,208.8c0.4-0.8,0.8-1.4,1-2.2c-1.4-0.8-2.8-1.2-4.1-2c0.4-1,0.8-1.9,1.4-2.8c2,0.9,4,1.8,6,2.7
		c0.4-1,0.9-1.8,1.2-2.7c-3.2-1.4-6.2-2.8-9.4-4.3c-2.2,4.8-4.3,9.4-6.4,14.1c3.2,1.5,6.3,2.9,9.4,4.3c0.7-0.9,1-1.8,1.4-2.8
		c-2-0.9-3.9-1.8-6-2.8c0.5-1.2,0.9-2.2,1.6-3.2C90.3,207.5,91.6,208.1,93,208.8z"/>
	<path fill="#FFFFFF" d="M152,208c-0.7-2.3-2.5-3.5-4.9-3.5c-0.9,0-1.7,0.2-2.5,0.5c-2.6,1-3.7,2.8-3.4,5.5c0.1,0.4,0.2,0.8,0.3,1.2
		c0.5,2.4,2.3,3.6,4.8,3.2c1.4-0.2,2.4-0.9,3.4-2c0.2,0.9,0.4,1.6,0.5,2.3c0.3,1.7-0.6,2.7-2.3,2.8c-1.2,0.1-1.8-0.6-2.1-1.8
		c-1,0.2-1.9,0.4-2.9,0.6c0.2,2.1,1.3,3.5,3.2,3.9c1.7,0.3,3.3,0.1,4.8-0.7c2-1.1,2.9-2.8,2.7-5C153.2,212.7,152.7,210.3,152,208z
		 M148.4,211.9c-1.3,1.3-3.2,0.8-3.7-0.9c-0.1-0.3-0.1-0.6-0.2-0.9c-0.3-1.4,0.3-2.4,1.6-2.7c1.3-0.3,2.4,0.4,2.8,1.8
		c0.1,0.5,0.2,1,0.3,1.5C149,211.1,148.8,211.6,148.4,211.9z"/>
	<path fill="#FFFFFF" d="M100.1,206.8c-1.4,0.1-2.6,0.7-3.1,2.1c-0.6,1.5,0.1,2.6,1.2,3.5c0.4,0.3,0.8,0.6,1.2,0.9
		c0.6,0.4,1.2,0.8,1.6,1.4c0.2,0.6,0,1-0.6,1.3c-1,0.2-1.9-0.1-2.5-1.1c-0.2-0.4,0.1-0.8-0.2-1.3c-0.7-0.2-1.4-0.6-2.3-0.6
		c-0.2,1-0.3,1.8,0.1,2.7c1,2,4.5,3.3,6.6,2.3c2.1-0.9,2.5-3.3,1-5c-0.8-0.8-1.7-1.3-2.6-2.1c-0.4-0.4-1-0.8-0.6-1.5
		c1.5-0.9,2.5-0.3,2.9,1.7c0.7,0.2,1.4,0.4,2.2,0.7c0.5-0.8,0.4-1.4,0.2-2.2C104.8,208.2,102.7,206.7,100.1,206.8z"/>
	<path fill="#FFFFFF" d="M174.7,201.8c0.8-0.9,1.2-1.8,0.9-2.9c-0.4-1.5-1.8-3.5-4.1-3.4c-2.3,0-4.1,1.1-5.5,2.9
		c-0.9,1.2-1.1,3.9,0.5,5.1c0.8-0.5,1.8-0.8,2.5-1.5c-0.9-2.1-0.5-2.9,1.7-3.5c1.4,0.6,2,1.4,1.9,2.9c-0.4,0.9-1.5,1.2-2.2,1.8
		c0.4,0.6,0.6,1.4,1.1,1.9c1-0.4,1.7-1.1,2.9-0.8c1.4,1.4,1.7,2.8,0.8,3.6c-1.2,1.1-2.3,0.8-3.7-1c-0.9,0.5-1.7,1-2.6,1.4
		c0.8,2.5,2.9,3.4,4.6,3.2c1.5-0.2,2.9-0.8,4-1.9c1.5-1.3,2-3,1.4-4.7C178.2,202.5,177.2,201.8,174.7,201.8z"/>
	<path fill="#FFFFFF" d="M136.3,206.6c-0.1,0.9-0.6,1.5-1.5,1.8c0.4,4.6,0.9,9.1,1.3,13.7c1.2-0.1,2.3,0,3.4-0.4
		c-0.5-5.1-1-10.1-1.5-15.1C137.4,206.4,136.9,206.4,136.3,206.6z"/>
	<path fill="#FFFFFF" d="M113.8,210.4c-0.6-0.4-1.3-0.2-1.8-0.6c0.2-0.8,0.3-1.6,0.5-2.5c-1.1-0.1-2-0.1-2.9,0
		c-0.6,0.5-0.2,1.4-0.7,1.7c-0.6,0.3-1.1-0.2-1.6,0c-0.4,0.6-0.4,1.3-0.4,2c0.4,0.3,0.9,0.3,1.4,0.5c-0.3,2.9-1.6,5.6-1,8.5
		c1.1,0.4,2.1,0.6,3.2,0.7c-0.7-3,0.5-5.7,0.9-8.3c0.8-0.4,1.4,0.3,2.2-0.1C113.3,211.7,114.1,211.1,113.8,210.4z"/>
	<path fill="#FFFFFF" d="M164.6,204.2c-1.1-2.8-3.2-3.9-6.1-3.3c-2.2,0.5-4.1,1.6-4.6,4.1c-0.4,2.2,0.5,4,1.8,5.6
		c0.4,0.4,1,0.7,1.6,0.8c1.9,0.2,3.6-0.3,4.9-1.9c0.2-0.2,0.2-0.7,0.7-0.5c0.3,0.8,0.6,1.6,0.8,2.4c0.3,1.1-0.1,1.9-1.1,2.4
		c-1.2,0.6-2.1,0.4-2.8-0.5c-0.2-0.2-0.1-0.6-0.7-0.6c-0.8,0.3-1.6,0.6-2.5,1c0.5,2.4,1.9,3.4,4.5,3.3c3.6-0.2,7.3-2.9,5.4-7.9
		C165.8,207.4,165.2,205.8,164.6,204.2z M159.1,209C159.1,209,159.2,209,159.1,209C159.1,209,159.1,209,159.1,209
		C159.1,209,159.1,209,159.1,209c-1.3,0-2-1.8-2.2-3.1c-0.2-1,0.5-1.8,1.7-2.1c1.2-0.3,2.1,0.1,2.6,1.5
		C162.2,207.3,161.2,209,159.1,209z"/>
	<path fill="#FFFFFF" d="M113.8,218.3c0,1-0.4,2-0.3,3c0.9,0,1.8,0.4,2.7,0.3c0.2-1,0.5-2,0.3-3.1
		C115.6,218.3,114.8,218.1,113.8,218.3z"/>
</g>
</svg>
