<?xml version="1.0" encoding="iso-8859-1"?>
<!-- Generator: Adobe Illustrator 23.0.1, SVG Export Plug-In . SVG Version: 6.00 Build 0)  -->
<svg version="1.2" baseProfile="tiny" id="Layer_1" xmlns="http://www.w3.org/2000/svg" xmlns:xlink="http://www.w3.org/1999/xlink"
	 x="0px" y="0px" viewBox="0 0 256 256" xml:space="preserve">
<g>
	<path fill="#FFFFFF" d="M113.8,106.6c4.4,0,1.8,2.4,4.2,5.1c1.2-1.2,2.8,0,1.4,1.2c1.3,1,2.3,2.2,2.1,3.9c0.3,0.1,4.4-0.5,3.4-1.9
		c-1-1.5-2-0.8-3.4-3.3c5.9,0.2,2.7,2.9,5.7,6.3c0.7,0.8,5,2.7,6.1,2.9c-0.2,3.5,4.9,4.6,6.1,7.1c1,2.1-1,4,0.7,5.5
		c-0.5,3.4,2.4,3.5,2.6,6.1c-0.4-0.3-0.9-0.5-1.4-0.6c-0.6,0.3-3.1,5.9-4,6.9c0.2-1.8,1.6-3.1,2.1-4.8c-0.4-0.4-0.8-0.2-1.4-0.1
		c0.2-1.2-0.6-7.5-2.9-5.1c-1.5,1.6,2.7,6.2-0.2,8.7c1.2,0.7,1,1.8,0.7,2.9c0.5,0.3,1.1,0.7,0.5,1.5c0.9,1,0.1,2.3,0.8,3.3
		c-0.2,0.2-1.2-0.8-1.8-0.7c-0.5,0.1-0.4,3.8-2.3,2.9c1.1-1.2,1.3-3,2.4-4.1c-0.3-0.6-0.8-0.3-1.1-0.6c0.9-1.5,0.5-2.9-1.1-3.6
		c-1.1,0.6-1.2,5.2-0.9,6.4c-1.9-0.2-0.2-4.2-1.5-3.9c-1.5,0.4,0,2.9-1.4,3.5c-0.5-0.2-0.9-0.6-1.2-1c-1.7,1.3-2.7,3.8-5.5,2.8
		c-0.4,0.5-0.2,0.8,0.2,1.1c-3.4,3.6-7.3,6-11.8,8.2c-1.6,0.8-12.5,6.7-13.9,5.2c3.5-3.1,11.8-2.6,14.6-6.8c-1.3-0.8-4-0.3-5.2,0.8
		c-3.5-3-3.4,0.8-1,0.4c0,0.1,0.1,0.1,0.1,0.2c-1.1,1-2.6,1-3.8,1.6c-1.7-1.9-4.2-0.8-4.6,1.7c-0.4,0.1-0.8,0.1-1.2,0.2
		c-0.2,1.1-2.3,2.3-3.5,2.1c0-0.9,1.4-2.1-0.5-2.2c0.9-0.4,1.7-0.9,2.5-1.5c-0.3-0.6-0.7-0.8-1.3-0.5c-0.2-0.5-0.1-1-0.1-1.7
		c0.6,1.1,1.7,0.5,2.4,1c0.9-0.6,4.1-2.2,4.3-2.7c1.7,1.2,1.7,1.2,2.3,1c-0.1-2.7-1.2-1.7,2.2-2.8c0.1,0.1,0.1,0.1,0.2,0.2
		c-0.2,1,2.6,1.5,1.3-0.7c1.1-0.1,1.1-1.5,1.8-2.1c1.1-0.9,0.5,0.9,1.6,0.6c0.5-0.5,0.7-1,0.5-1.7c1.8-0.4,4.6-2.3,2.2-3.8
		c1.4-1,7.1-5.2,7.7-4.3c0.9-0.8,0.9-1.1-0.1-2.8c1.6-1.2-0.5-6.7-2.1-7.3c1.5-2.7-4.2-6-5.5-6.4c-3.1-1.1-6.1-0.1-9.1-1.2
		c-1.2,1,0.7,0.6-1.7,2.4c-1.6,1.2-3.5,0.4-4.7,2.4c-2.4-0.7-4.9,4.5-7,3.5c-1-3.6,2.5-5.2,4.6-6.8c1.8-1.4,1.9-1,3.5-3.3
		c0.4-0.5,4.1-1.6,1.5-2.9c-1-0.5-3.3,1.3-4,1.8l0,0c0.1-0.5,0-0.9-0.2-1.3c-1.5-0.1-1.3,2-2.6,2.1c-1-1,0.7-2.5-2-2.1
		c-1.4,0.2-2.4,1.5-3.7,2.1c-0.3-0.2-0.1-0.6-0.6-0.8c-2.4,3.4-6.1,7.2-7.1,11.3c-3-2,5.8-8.5,4.4-10.7c-1.5,0.5-2.6,1.2-2.7,3
		c-2.1-0.4-1.5,2.6-3.5,2.2l0,0c0.4-1.4,0.6-3.3,2.2-2.8c0.3-1.3,0.3-2.8,1.7-3.5c-1.7-2.2,0.6-3.9-3.5-3.7
		c-2.9,0.1-4.3,3.3-5.8,5.8c-2.9,4.7-6.5,9.1-8.6,14.2c-1.9,4.5-0.8,8.8-2.2,13.3c1.6,0.3,3.9,2.3,4.6,2.6c0.8,0.3,4.3,0.8,5.3,1.6
		c2.2-0.8,4.1-0.5,6,0c0,1.9-0.9,2.7,0.9,4.5c2.5,2.4,0.9-0.9,3.6,0c0,0,0.5,6.6,2.4,2.2c-1.5-0.4-1.7-3.6-1-4.7
		c2.9,0,2.1-0.2,3.7,1.4c-0.8,1.3-2.1-0.5-2.1,2.1c-0.1,2.5,3.4,0.4,4.4-0.1c-0.1-1.9,2.8-2.2,2.1-0.2c-0.2,0.7-1.1,1.7-1.7,2.1
		c-1.4,1.2-2,0.1-2.7,0.4c-0.7,0.3-2.3,2-3.7,2.4c-1.4,0.3-1.5-2.7-2.7-1.2c0,0,0.8,2.2,0.9,2.3c-1.2,0.3-1.3-1.2-2.6-0.8
		c-2.6,0.8-0.4,2.7-0.4,2.9c0,3.2-0.8,2.6,3.4,2c0.9-1.6-2.4-1.7-2.1-3.8c0.9,0.8,1.9,1.1,3,0.9c0,0.4-0.1,0.8-0.3,1.1
		c2.2,0.6,1.1,2.5,3.3,2c1.6-0.3-1-1.6,1.8-1.9l0,0c-0.2,0.2,3.5,6-0.4,3.7c0.4-0.2,0.8-0.5,1.2-0.9c0,0.5-7.6-0.2-7.2,1
		c-1.7,0.4-3.4,0.4-5.1,0.3c0.4-0.4,0.8-0.6,1.3-0.8c-0.4-1.2-1.2-1.5-2.3-1.1c0,0.5,0.1,1.1,0.2,1.6c-0.9,0.5-4.6-3.6-4.6,0.3
		c0.6,0.6,1.9,0,0.9,1.5c-1.2-1.3-2.4-0.7-3.9-1.2c-1-0.3-0.2-2-0.9-2.5c-1.2,0-2.6,5.7-1.3,1.1c-4.1-4-5,1.7-7.5,1.1
		c1.2-2.5-6.5-1.9-4.8-3.3c-0.6-0.7-4.4-3.7-5.3-3.8c-0.2-1.9-2.1-2.1-3.1-3.3c-1.2-1.5-1.9-3-3-4.6c-0.7,0-0.9,0.9-1.7,1
		c0.1-1.7,1.4-3.4,0.1-5c1.1-1.3,0.8-1.9-0.7-2c-1.6,1,1.8,4-0.6,4.2c-0.9-8.6-3.2-13.9,0.4-23c2.4-5.9,9.3-23.2,16.6-24.8
		c0-2.3,3.2-2.3,4-3.5c-0.3-0.7-0.7-1-1.4-1c2.6-1.1,2.2,0.6,3.8-3.1c2.3,0.5,4.4-1.3,7-2.3c3.8-1.5,6.8-4.7,10.8-5.4
		c0.8,2.4-1.6,1.7-1.6,3.7c1.3,0.6,3.1-0.1,4.1,1.3c1.1-0.1,1.6-2.6,3.6-0.6c1-4.2,1.1-5.4,3.1-2c-0.7,1.5-2.2,0.2-0.9,2.1
		c0.7,1,3.4-0.5,4.6,0.3c-1.1,2.2,2.4,2.8,3,4.2c0.6,1.4-1.2,4-0.5,5.1c1.3,2.1,7-1.7,2.3-1.7c0.4-0.9,1.2-1.2,2-1.7
		c-0.1,1.5,0.6,2.6,1.9,3.3c0.5-0.4,0.8-0.9,0.8-1.5c0.3,0.3,0.6,0.6,0.8,0.9c2.3-1.3-0.7-2.1-1.1-2.9c0.3-0.3,0.6-0.6,1-0.8
		c1.1,1.3,2.4,2.3,3.3,3.7c2.7-1.8,4,1.4,4.8-2.4c0.6-0.2,1.3-0.2,1.8-0.7c1.5,0.8,3.5,1.4,2.3,3.4c1.1,1.6,2.6,2.5,4.5,2.9
		c0-0.9,0.6-1.7,0.4-2.6c-0.9-0.4-1.2,0.5-2,0.6C116.3,109.8,116.1,108.4,113.8,106.6L113.8,106.6z M69,122.3c-1-5.2-2.5,3.2-4,4.2
		c-2.2-3.3-0.4-0.9-2.5,0.3c-1.6-0.9-4.1,4.3-4.8,5.6c0.6,0.8,1.5,1.5,1.3,2.7c-4.9-1.4-3.8,11.6-1.4,5.5c2.1,0.4,5.2-7.6,6-9.8
		c0.6,2,2.5,2.3,0.7-0.5c1.6-1.2,3-2.6,4.4-3.7c-0.9-1.6,10.8-10.5,12.2-9.7c0.5-0.9,1.5-0.9,2.1-1.5c-1.6-4.3-9.6,4.1-10.7,4
		C71.3,120.7,70.5,121.2,69,122.3z M38.2,153.4c0-0.4,0.4-2.3,0-2.7C37.5,150.2,36.2,153.2,38.2,153.4z M74.8,173.9
		c0.9,1.1,1,1.1,1.8-0.1C76,173.2,75.5,173.2,74.8,173.9z M68.6,128.5c0.6,0.8,0.6,0.8,1.8,0.1C69.8,127.5,69.8,127.5,68.6,128.5z
		 M57.8,175.1c0.2,0.2,1.9,1.1,1.5,0.2C58.7,174.5,58.2,174.5,57.8,175.1z M114.7,159.7c-0.3-1.1-1.6-0.7-1.4-0.3
		C113.7,160,114.1,160.1,114.7,159.7z M114.7,112.8c-0.4-0.5-0.9-0.6-1.4-0.2C113.2,113.4,113.7,113.5,114.7,112.8z M56.4,145.1
		c-0.3-0.6-0.7-0.6-1.1,0C55.6,145.7,56,145.7,56.4,145.1z M69,130c-0.3-0.9-1.5-0.5-1.3,0C68,130.4,68.7,130.2,69,130z
		 M114.5,114.4c-0.8-0.5-0.8-0.5-1.2,0.3C113.8,114.9,114.1,114.9,114.5,114.4z M44.5,164.3c-0.6,0.3-0.7,0.6-0.2,1
		C44.9,165,45,164.7,44.5,164.3z M53.9,116.2c-0.7-0.5-0.7-0.5-1,0.2C53.2,116.5,53.5,116.6,53.9,116.2z M46.4,126.4
		C46.3,125.2,46.5,128.1,46.4,126.4z M92.2,106.5C94.1,105.4,90.4,106.7,92.2,106.5z M61.4,141C59.8,141.7,63.1,141.6,61.4,141z
		 M45.6,166.9C45.5,165.1,44.1,168.3,45.6,166.9z M93.8,107.2C92.3,107.6,95.4,107.7,93.8,107.2z M43.1,162.6
		C42.8,161.5,43.3,163.5,43.1,162.6z"/>
	<path fill="#FFFFFF" d="M86.9,173.6c2.7-1.8,6.7,0,8-2.4c0.1,0,2.2,0.5,2.5,0.6c0.9,2.3-5.8,0-3.5,4c-0.6,0.3-1,0.9-1.7,0.3
		c1.3-2.1-1.9-3.6-3.3-1.8C88.2,174.1,87.6,173.5,86.9,173.6L86.9,173.6z"/>
	<path fill="#FFFFFF" d="M138.8,153.8c2.1-2.1,1.5-4.1,2-6.6c0.4-2.4,1.7-5,1.9-7.4c0.6,0.2,0.9,0.6,1.4,1.2
		C141.3,142.1,142.2,155.1,138.8,153.8z"/>
	<path fill="#FFFFFF" d="M122.6,160.7c-0.1-3.8,1.2-1.3,2.9-2.7c0.7-0.5,3.9-5.8,5.1-4.5C127.5,156.8,126.4,158.9,122.6,160.7
		L122.6,160.7z"/>
	<path fill="#FFFFFF" d="M128.3,162.9c0-1.3,0.7-2.3,1.1-3.4c1.9,0.2,5.8-6.6,6.5-5.1C133,156.7,131.6,160.6,128.3,162.9
		L128.3,162.9z"/>
	<path fill="#FFFFFF" d="M73.2,128.4c0.4,0.2,0.6,0.5,0.8,1.1c-2.6,2.7-3.5,6.3-4.9,9.7C67.3,138.1,72,129.7,73.2,128.4z"/>
	<path fill="#FFFFFF" d="M77.4,127.5c-1.1,0.9-1.1-0.6-2.1-0.5c-0.2,0.5-0.4,1-0.5,1.5c-0.1-0.7-0.5-0.8-1.2-0.7
		c1-1.6,4.2-3.5,4.6-4.8C78.3,124.9,78,125.8,77.4,127.5z"/>
	<path fill="#FFFFFF" d="M107.6,170.1c0.4-1.9,1.7-2.6,3.6-2.3c1.1-1.5,2.5-2.4,4.6-2.9c-5.7,5.1-0.9,0.3-1.5,2.8
		c-0.9,0.7-0.6-1-1.3-0.6C111.5,167.9,108.9,168.9,107.6,170.1z"/>
	<path fill="#FFFFFF" d="M77,132.4c-0.1,0.8,0.2,1.7-0.4,2.5c-2.2-0.5-1.6,2.7-3.6,2.7C73.5,135.9,74.9,132.7,77,132.4L77,132.4z"/>
	<path fill="#FFFFFF" d="M87.7,129.4c0.5-1.2,1.1-1.4,2.2-0.7c0.2-1.1,0.8-1.5,1.8-1.2C92.4,131.4,88.9,129.5,87.7,129.4L87.7,129.4
		z"/>
	<path fill="#FFFFFF" d="M101.2,100.3c-0.3,1.4,1.6,2,0.9,3.5c-1,0.1-1.9-0.2-2.3-1.4c0.8-0.5,0.4-1.2,0.3-1.8
		C100.4,100.2,100.7,100.3,101.2,100.3z"/>
	<path fill="#FFFFFF" d="M87.4,129.7c0.1,0.9,1,1.2,1.4,2c-0.7,1.1-2.2,0.5-3.3,1.8C85,132.2,86.3,130.3,87.4,129.7L87.4,129.7z"/>
	<path fill="#FFFFFF" d="M99.5,172.5c0-0.2,1.1-2.8,1.5-2.9c0.6,0.3,1.1,0.7,1.5,1.2c-0.3,0.5-0.7,1-0.7,1.6
		C101,172.7,100.3,171.8,99.5,172.5z"/>
	<path fill="#FFFFFF" d="M116.8,163.2c-0.7-0.2-1.3,0.4-2,0.3c0.6-1,4-3.3,5.2-3.5C120.4,161.8,117.1,161.1,116.8,163.2L116.8,163.2
		z"/>
	<path fill="#FFFFFF" d="M95.5,159.7C93,164,91.4,158.6,95.5,159.7z"/>
	<path fill="#FFFFFF" d="M142.5,144.8c1.6,0.2,1.2,0.8,1,1.8c1.3,1,0.8,1.9-0.3,2.8C142.1,148,143.5,146.3,142.5,144.8z"/>
	<path fill="#FFFFFF" d="M124.8,164c-0.1-1.3,1.8-1.3,0.8-2.7c0.5-0.4,0.9-0.9,1.7-1.2C127,161.6,127.3,164.6,124.8,164L124.8,164z"
		/>
	<path fill="#FFFFFF" d="M134.9,158.7c0.4-2.6,1.4-3.6,3-3.3C137.1,156.4,136.2,158.1,134.9,158.7z"/>
	<path fill="#FFFFFF" d="M117.6,165.5c1.4,0.2,2-0.9,2.8-1.4c0.8,0.9-0.3,1.2-0.5,1.9c0.7,0.6,0.3,1.2-0.1,1.8
		C119.6,167.6,117.7,165.6,117.6,165.5z"/>
	<path fill="#FFFFFF" d="M106.9,170.2c-0.8,0.2-1.4,0.5-2,1.1c-0.5-0.6-1.8,0-2-1.4C104.5,170.4,105.9,168.4,106.9,170.2z"/>
	<path fill="#FFFFFF" d="M92.9,170.8c-0.5,0-0.8-0.2-1.1-0.4c0.6-1.1,3.9-3.3,3.8-0.7C94.4,169.3,93.4,169.5,92.9,170.8z"/>
	<path fill="#FFFFFF" d="M89.9,170.7c-0.8,0.2-1.5,0.4-2.1-0.2c0.7-1.5,1.5-2,3-2C89.8,169.1,89.1,169.6,89.9,170.7z"/>
	<path fill="#FFFFFF" d="M68.7,99.7c2-0.1-0.4-2.8,2.4-2.7c-1.1,0.6-0.8,1.4-0.5,2.1C70.8,99.1,68.6,101.2,68.7,99.7L68.7,99.7z"/>
	<path fill="#FFFFFF" d="M78.1,163c-0.1-0.6,0.1-1,0.3-1.4c0.7,0.8,1.4,0.3,2.2,0C80.1,163.1,79.6,163.4,78.1,163z"/>
	<path fill="#FFFFFF" d="M98.4,104.2c0.1,0.6,0,1.1-0.1,1.5c-1.1,0-1.5-0.8-2.4-1.6C96.8,104.1,97.6,104.1,98.4,104.2z"/>
	<path fill="#FFFFFF" d="M141.8,136.7c0.2-1.3-0.1-2.4-0.7-3.5C142.2,133.9,144,136.5,141.8,136.7z"/>
	<path fill="#FFFFFF" d="M84.3,100.2c-0.4,0.2-3.5-0.5-3.7-0.8C81.8,98.5,83.2,98.9,84.3,100.2z"/>
	<path fill="#FFFFFF" d="M93.6,101c-1.9-0.5-0.1-2.2,0.4-3.1C94.1,99,93.9,100,93.6,101z"/>
	<path fill="#FFFFFF" d="M89.8,94.8c1.4-0.9,2.9,0.6,1.9,1.9C91.3,96.6,90.2,95.1,89.8,94.8z"/>
	<path fill="#FFFFFF" d="M100.4,105.8c-0.5,0.1-0.9-0.1-0.9-0.6C99.6,103.2,103.8,105.7,100.4,105.8z"/>
	<path fill="#FFFFFF" d="M81.9,160.1c-1.4,0.8-1.6,1.3-1.9-0.6C80.8,159.2,81.4,159.4,81.9,160.1z"/>
	<path fill="#FFFFFF" d="M86.6,96.7c-0.2-0.1-1.8-1.4-1.9-1.5c0.9-0.4,1.7,0.1,2.5,0.2C87.3,96,86.9,96.3,86.6,96.7z"/>
	<path fill="#FFFFFF" d="M96.6,102.3c-0.1,0.6-1.7,1.9-1.8,0.7C94.8,102.4,96.3,102.2,96.6,102.3z"/>
	<path fill="#FFFFFF" d="M125.4,155.3c0.1,1.1-0.7,1.4-1.6,1.7C124,156.2,124.6,155.7,125.4,155.3z"/>
	<path fill="#FFFFFF" d="M95.1,126.6c0.2,0.8-0.4,1.4-0.2,2.2C93.8,128.1,93.8,127.8,95.1,126.6L95.1,126.6z"/>
	<path fill="#FFFFFF" d="M107.8,106.7c0.7-0.3,1.3-0.1,1.9,0.5C108.1,107.7,108.1,107.7,107.8,106.7z"/>
	<path fill="#FFFFFF" d="M107.5,166.4c-0.9,1,0.2,1.8-1.8,1C106.1,166.8,106.6,166.6,107.5,166.4z"/>
	<path fill="#FFFFFF" d="M89.4,100.6c0.4-1,1.1-0.6,1.9-0.5C90.7,101.1,90.1,100.8,89.4,100.6z"/>
	<path fill="#FFFFFF" d="M133.2,118.7c0.8,0.4,0.8,0.8,0,1.1C132.2,119.4,132.2,119,133.2,118.7z"/>
	<path fill="#FFFFFF" d="M129,117.5c0.7-1.5,0.7-1.5,1.6-0.7C130.1,117.1,129.6,117.4,129,117.5z"/>
	<path fill="#FFFFFF" d="M108,171.6c-0.3,0.7-0.6,1.1-1.3,0.8C107.1,171.2,107.1,171.2,108,171.6z"/>
	<path fill="#FFFFFF" d="M90.5,98.8c-0.1-1.4,1.4-1.1,1.3-0.9C91.6,98.5,91.1,98.8,90.5,98.8z"/>
	<path fill="#FFFFFF" d="M86.6,169.5c-0.3,0.9-0.8,1.2-1.6,0.9C85.4,169.8,85.4,169.8,86.6,169.5z"/>
	<path fill="#FFFFFF" d="M89.9,177c0.3-0.5,0.6-0.9,1.1-1.2C91.2,177,91,177.1,89.9,177z"/>
	<path fill="#FFFFFF" d="M83.2,97.4c0.5-0.1,1.1-0.9,1.7,0.1C84.3,98,83.8,97.9,83.2,97.4z"/>
	<path fill="#FFFFFF" d="M107.8,109.5c-0.9,0.2-1.2-0.4-1.8-0.7C107,108.3,107.3,108.7,107.8,109.5z"/>
	<path fill="#FFFFFF" d="M113,164.2c-0.2,0.5-0.5,0.7-1,0.9C111.3,163.6,112.5,163.6,113,164.2z"/>
	<path fill="#FFFFFF" d="M120.2,109.8c0.7,0.2,1.6,0.2,1.1,1.5c-0.7-0.3-0.9-0.9-1.3-1.3C120.1,109.9,120.1,109.8,120.2,109.8z"/>
	<path fill="#FFFFFF" d="M73.6,97.4c0.5-0.1,0.8-0.4,1.4-0.3c-0.2,0.3-0.4,0.6-0.5,1C74.1,97.8,73.9,97.6,73.6,97.4z"/>
	<path fill="#FFFFFF" d="M86.5,171.9c-0.6,0.2-1-0.3-1.7-0.1C85.7,170.9,86,171,86.5,171.9z"/>
	<path fill="#FFFFFF" d="M76.9,96.3c0.4-0.9,1-1.1,1.8-0.9C78.1,95.6,77.8,96.4,76.9,96.3z"/>
	<path fill="#FFFFFF" d="M140.8,133c-0.6-1.2-0.5-1.6,0.4-1.8C141,131.8,140.6,132.3,140.8,133z"/>
	<path fill="#FFFFFF" d="M120.3,162.7c-0.3,0.1-0.6,0.3-0.9,0.4C118.7,162.3,120,162.3,120.3,162.7z"/>
	<path fill="#FFFFFF" d="M127.9,114.2c0.4-0.2,0.8-0.2,1.2,0C128.7,115.1,128.3,115.1,127.9,114.2z"/>
	<path fill="#FFFFFF" d="M98.7,175c-0.6,0.7-1.4,0.5-2.1,0.5C97.2,175.2,97.9,174.9,98.7,175L98.7,175z"/>
	<path fill="#FFFFFF" d="M124.8,164c0.1,0.7-0.1,1.3-1.1,1C123.8,164.4,124.3,164.2,124.8,164L124.8,164z"/>
	<path fill="#FFFFFF" d="M112.4,170.4c0.3-0.2,0.6-0.4,1-0.5C113.9,170.4,113,171,112.4,170.4z"/>
	<path fill="#FFFFFF" d="M104.8,172c0.4,0.5,0.8,1-0.2,1.3C104.4,172.8,104.3,172.4,104.8,172z"/>
	<path fill="#FFFFFF" d="M83.3,171.5c0.5,0.4,0.7,0.8,0.4,1.4C82.9,173.7,83.2,171.2,83.3,171.5z"/>
	<path fill="#FFFFFF" d="M101,173.9c0.2,0.9-0.1,1.2-0.6,0.8C100.3,174.3,100.5,174,101,173.9z"/>
	<path fill="#FFFFFF" d="M64.5,102.5c0.7-0.4,1.1-0.3,1.3,0.3C65.2,103.2,65,102.8,64.5,102.5z"/>
	<path fill="#FFFFFF" d="M122.2,162.4c0.5,0.8,0.5,1.1-0.2,0.9C121.7,163,121.7,162.7,122.2,162.4z"/>
	<path fill="#FFFFFF" d="M99.6,159.3c0.5,0.3,0.5,0.6,0,0.9C99.1,159.9,99.1,159.6,99.6,159.3z"/>
	<path fill="#FFFFFF" d="M75.8,95.1c0.1,0.4,0.2,0.8,0.4,1.5c-0.7-0.5-0.6-1-0.8-1.4C75.5,95.2,75.6,95.1,75.8,95.1z"/>
	<path fill="#FFFFFF" d="M80.3,136.7c-0.1-0.7,0.2-0.8,0.7-0.7C81.1,136.6,80.8,136.7,80.3,136.7z"/>
	<path fill="#FFFFFF" d="M82.1,96.1C80.7,94.3,84.5,96.3,82.1,96.1z"/>
	<path fill="#FFFFFF" d="M83.1,93c-0.4,0.5-0.7,0.4-1.1,0.2C82.2,92.7,82.6,92.9,83.1,93z"/>
	<path fill="#FFFFFF" d="M104.2,105.8c-0.5-0.4-0.2-0.7-0.2-1.1C104.5,105,104.5,105.3,104.2,105.8z"/>
	<path fill="#FFFFFF" d="M105.2,106.9c0.4-0.3,0.7-0.3,1.1-0.2C105.9,107.2,105.6,107.3,105.2,106.9z"/>
	<path fill="#FFFFFF" d="M116.8,163.2c0.6,0.6,0.6,0.6,0.1,1C116.6,163.9,116.9,163.5,116.8,163.2L116.8,163.2z"/>
	<path fill="#FFFFFF" d="M86.7,163.9c0.4,0.5,0.5,0.8-0.2,0.9C86.2,164.4,86.6,164.2,86.7,163.9z"/>
	<path fill="#FFFFFF" d="M103.3,173.4c-0.4,0.6-0.6,0.5-1,0.3C102.5,173.2,102.9,173.4,103.3,173.4z"/>
	<path fill="#FFFFFF" d="M112.1,107.2C111.7,108.6,112,105.7,112.1,107.2z"/>
	<path fill="#FFFFFF" d="M87.9,94.4C86.7,94.2,89.3,94.2,87.9,94.4z"/>
	<path fill="#FFFFFF" d="M113.5,106.3c-0.5-0.1-0.7-0.3-0.4-0.7C113.6,105.7,113.3,106.1,113.5,106.3L113.5,106.3z"/>
	<path fill="#FFFFFF" d="M110.6,171c-0.4,0.3-0.7,0.3-1.2,0.1C109.9,170.7,110.2,170.9,110.6,171z"/>
	<path fill="#FFFFFF" d="M142.2,153.2C141.7,152,143.1,152.7,142.2,153.2z"/>
	<path fill="#FFFFFF" d="M106.5,162.2c-0.1,0.4-0.5,0.5-0.8,0.6c0-0.1-0.1-0.1-0.1-0.2c0.2-0.3,0.5-0.5,0.8-0.6
		C106.3,162.1,106.4,162.1,106.5,162.2z"/>
	<path fill="#FFFFFF" d="M82.8,171.1C83,170,82.7,172.4,82.8,171.1z"/>
	<path fill="#FFFFFF" d="M94.5,129.9C93.5,129.8,95.7,129.7,94.5,129.9z"/>
	<path fill="#FFFFFF" d="M136.8,124C136.5,125.1,137,122.8,136.8,124z"/>
	<path fill="#FFFFFF" d="M77.4,179.2c-0.3,0.2-0.4,0.1-0.4-0.3C77.2,178.8,77.4,178.9,77.4,179.2z"/>
	<path fill="#FFFFFF" d="M135.2,121.9C134,121.7,136.4,121.8,135.2,121.9z"/>
	<path fill="#FFFFFF" d="M123.3,165.5C123,166.2,123.7,164.7,123.3,165.5z"/>
	<path fill="#FFFFFF" d="M122.3,161c-0.1,0.3-0.4,0.4-0.7,0.2C121.8,160.9,122.1,161,122.3,161L122.3,161z"/>
	<path fill="#FFFFFF" d="M107.5,104.7c0.1,0,0.1-0.1,0.2-0.1c0.1,0.1,0.2,0.2,0.2,0.3C107.7,105,107.6,104.9,107.5,104.7z"/>
	<path fill="#FFFFFF" d="M119.8,109.6c-0.2,0-0.3,0-0.4-0.2C119.6,109.3,119.7,109.4,119.8,109.6L119.8,109.6z"/>
	<path fill="#FFFFFF" d="M104.6,158.7c0.5-0.2,0.6-0.2,0.2,0.2C104.8,158.8,104.7,158.8,104.6,158.7z"/>
	<path fill="#FFFFFF" d="M98.7,175c0.1-0.3,0.2-0.3,0.3-0.1C98.9,174.9,98.8,175,98.7,175L98.7,175z"/>
	<path fill="#FFFFFF" d="M122.6,160.7c0,0.2-0.1,0.3-0.3,0.3l0,0C122.3,160.8,122.4,160.7,122.6,160.7L122.6,160.7z"/>
	<path fill="#FFFFFF" d="M68.7,99.7c0,0-0.1-0.1-0.1-0.1C68.7,99.6,68.7,99.7,68.7,99.7L68.7,99.7z"/>
	<path fill="#FFFFFF" d="M113.5,106.3c0.1,0.1,0.2,0.2,0.3,0.3l0,0C113.6,106.6,113.5,106.5,113.5,106.3L113.5,106.3z"/>
	<path fill="#FFFFFF" d="M119.8,109.6c0.2,0,0.3,0.1,0.4,0.2c-0.1,0.1-0.1,0.1-0.2,0.2C119.8,109.8,119.7,109.7,119.8,109.6z"/>
	<path fill="#FFFFFF" d="M87.7,129.4c0,0.2-0.1,0.2-0.3,0.3l0,0C87.4,129.5,87.5,129.4,87.7,129.4L87.7,129.4z"/>
	<path fill="#FFFFFF" d="M104.8,158.9c-0.1,0.1-0.2,0.2-0.3,0.3c-0.1-0.1-0.1-0.1-0.2-0.2c0.1-0.1,0.2-0.2,0.3-0.3
		C104.7,158.8,104.8,158.8,104.8,158.9z"/>
	<path fill="#FFFFFF" d="M128.3,162.9c0,0.1,0,0.1-0.1,0.1C128.2,162.9,128.2,162.9,128.3,162.9L128.3,162.9z"/>
	<path fill="#FFFFFF" d="M136.9,152.1c0.2,0.3,0.2,0.3-0.1,0.1C136.8,152.2,136.9,152.2,136.9,152.1z"/>
	<path fill="#FFFFFF" d="M63,127.4c0.3,0.5,0.7,0.9,0.5,1.4C62.7,128.6,62.5,128.2,63,127.4z"/>
	<path fill="#FFFFFF" d="M69,122.3c0,0.1-0.1,0.3-0.1,0.4C68.7,122.5,68.8,122.3,69,122.3z"/>
	<path fill="#FFFFFF" d="M149.1,159.4c0.1-0.3-0.2-0.5-0.2-0.8c2.4-0.7,2.7-1.2,1.4-2.9c2.3-4,2.3-8.9,3.8-13
		c0.6-0.1,1.2-0.1,1.8-0.2c1.2-2.9,1.6-8.2,2.9-11.7c1-2.6,2.7-5.9,3.5-9.1c1-3.7,5.5-16,2.3-17.8c-0.5,1.7-5.6,3.2-6.8,3.5
		c-1.1,0.3-12,1.6-12.5,2.3c1.3,1.3,2.9,1.1,4.5,0.9c0,0.1,0,0.2,0,0.3c-4.8,0.3-11.4,1.2-15-0.7c0.5,0.3-3.1-2.7-2.7-2.1
		c-0.6-1-0.1-3.3-1.2-3.9c-1,0.1-1.3,0.6-1.1,1.6c-2.1-1.6-0.8-3.8-1.5-5.7c2.5,0.5,3.3-1.7,2.3-2.9c1.3-2,1.3-2,0.6-2.9
		c1.4,1,3.9,0.4,3.4-1.5c2.8-3.2,7.4-0.5,10.3-2.7c-0.9-1-2.1-0.7-3.3-0.4c0.9-2,7.6-0.7,9.8-2.2c-0.8-1.4-2.1,0.2-2.9-0.5
		c2.2-1.9,9.8-0.8,13.2-1.8c2.4-0.7,10.6-1.7,12.1-4c1.5,0.6,1.4,1.3,2.2-0.6c0.8,0.8,7.7,0.4,7.9-0.5c0.4,0,0.4,0.4,0.7,0.7
		c3.3-2.8,12.6-1.5,16.7-1.6c3.6,0,7.4,0,11.1,0.2c1.5-0.2,2.9-0.1,4.3,0.3c-0.3,0.5-0.3,0.9,0.1,1.3c0.4-0.4,0.7-1,0.7-1.6
		c1.4,0,1,2.3,2,2.1c0.9-0.2,0.3-1.3,0.2-1.8c1.6,0,7.8,0.9,8.9,1.8c-0.9,1.1-2.8-0.3-2.1,1.7c0.3,0.8,2.2,0.7,3,1.1
		c1.4-2.2,2.2,0.5,2.8,0.8c-0.5,0.6-2.8,1-3.6,1.1c-2.6-4.1-1.1,0-4.6-0.2c1.4,1.2,1.4,0.9,0.9,2.4c1.6,1.2,3.9-0.2,5.6,1
		c-1,3.1-5,0-5.7,2.6c0.8,0.4,1.2,1.1,1.7,1.8c-0.9,0.1-1.9,0.1-2.8,0c0,0,0.6-2.6,0.7-2.4c-1.6-1.9-2.1,3.7-1.9,4.3
		c-0.8-0.1-1,0.5-1.1,1.1c-0.8,0.1-1.4,0.2-2.2,0.3c-0.6-1.3,0.3-1.1-1.7-1c0,0.4,0.2,0.7,0.4,1c-0.3,0-0.6,0-1,0
		c-0.4-1-2.7-2.3-3.7-2.1c-0.7,1.7,0,2,1.6,2.3c-1.7,0.2-9.7-0.9-6.9,1.9c-0.6,0.1-1.1,0.2-1.7,0.3c-0.2-0.4-0.2-0.8,0-1.3
		c-3-1.1-15.7,1.2-16.8,0c1.9,2.2,10,0.3,13.6,1c-5.2,0.2-10.4,0-15.8,0.8c2.9,5.4,0.6,17.1-1.5,22.4c2.4,2.8-2.7,8.3-2.3,11.4
		c-2.3,0.2-3.9,15-7.6,16.5c1.3,2.8-2.6,5-2,7.2c-0.3,0-0.6,0.1-0.8,0.1c-1.4,4.8-3.7,13.4-7.6,15.6c-0.5-1.3-0.3-2.7-0.2-4
		c0.3-0.1,2.9-3.1,1.6-3.7c-1.2-0.6-1.1,2-2.3,1.3c0.2-1,0.9-1.7,1.7-2.2c-0.5-1.5,2-2.4,2.8-3.8c0.5-0.9-1-2.4-1.8-1.3
		c0.1,0.4,0.3,0.7,0.6,1c-0.3,0.4-0.7,0.6-1.2,0.4c0.4-3.6-1.2-7.3-1.8-2.2c-0.6-0.1-0.7-0.1-1.4,0.3c0.7,0.8,0.7,1.1,1.4,1.8
		c-2.2,3.8,0,8-1.8,11.1c0.9,0.5,1.4,1.5,2.5,1.2c-0.4,1.1-1.6,2.7-2.1,3.9c-1.3-1.1-0.7-2.4-1-3.6c0.4-0.4,1-4.1-0.3-4.8
		c-0.1-1.9-0.1-2-2-1.1c1.1,1.9-1.2,6.1,0.3,7c-0.2,0.7-1.3,1-0.8,2.1c-0.2,0.2-0.6,0.3-1.2,0.6c0.7-1.9,0.4-3.9,1.2-5.8
		c-0.9,0.2-1.8,0.4-2.6-0.1c-0.4,0.6,0.5,2.8,1.3,3.3c-2.8,0.4-0.4,2.7-2.1,3.6c-2.1-0.7,1.6-4-1.6-4.1c-0.6,1.4-1.9,6.8-3.8,6.1
		c1-1,1.4-2.1,0.1-3.1l0,0c-0.1-1.4,2.1-2.4-1-2.8c-0.1,0.3-1.4,4.9-2.5,4.1c0-0.7,0-1.5,0-2.2c1.7,0.6,0.4-2.9,0-3.2
		c-1.2,1.6-1.8,3.1-2.5,4.9c-1.8-2.3,2.8-7,0.9-8.5c-1.9,0.2-1.6,4-2.8,5.1c0.3-3.4,2-7.4,3.5-10.3c0.5,1.3-1.4,2,0,3
		c0.3-0.2,3.5-7,3.5-6.9C150.5,159.5,151.2,158.5,149.1,159.4L149.1,159.4z M170.9,144.9c-0.4,1.2-0.4,2.2,0.1,3.4
		C173.2,148,173.9,143.3,170.9,144.9z M184.7,100.1C186.1,106.1,187.2,97.6,184.7,100.1z M218.9,94.7c0.8,1.7,4.3,0.6,2.4-0.8
		C220.9,95,219.6,93.9,218.9,94.7z M154.8,88.7c-0.2-0.2-2.5-2.3-2.8-0.7C151.9,88.8,154.7,88.7,154.8,88.7z M147.9,172.3
		c1-0.5,1.2-1.3,0.5-2.2C147.8,169.4,147,171.6,147.9,172.3z M211.5,95.6C209.4,98.5,214.2,96.7,211.5,95.6z M163.6,104.5
		c-1.1-1.3-1.7,0.2-1.3,0.6C162.9,105.3,163.3,105.1,163.6,104.5z M135.9,110.3c0.8,0.2,0.8,0.2,1.5-0.6
		C136.6,109.3,136.6,109.3,135.9,110.3z M182.5,81.7c-1.3-0.6-1.7-0.4-1.3,0.6C181.9,82.6,182.3,82.4,182.5,81.7z M164.2,85.7
		c-0.3-0.7-0.7-0.7-1.2-0.1C163.3,86.2,163.7,86.2,164.2,85.7z M215,92.5c0.6,0.2,0.9,0.2,1.2-0.3C215.7,91.9,215.3,91.8,215,92.5z
		 M131.3,102.8c-0.4-0.6-0.7-0.7-0.9-0.1C130.6,103.1,130.9,103.1,131.3,102.8z"/>
	<path fill="#FFFFFF" d="M138.2,88.4c-0.2-0.5,0-0.9-0.3-1.3c0.8-0.5,1.6-0.2,2.6-0.3C139.8,87.6,139.6,88.7,138.2,88.4z"/>
	<path fill="#FFFFFF" d="M141.2,113.2c1.2-0.4,2.5-0.2,3.8-0.1C143.8,113.6,142.5,113.9,141.2,113.2z"/>
	<path fill="#FFFFFF" d="M149.1,159.4c-0.3,1.3-0.5,1.9-1.1,3.1C147.6,161.5,148.1,160.3,149.1,159.4L149.1,159.4z"/>
	<path fill="#FFFFFF" d="M227.9,93.9c-0.7-0.5,0-1.9,0.8-1.4C229.2,92.8,228.6,94.1,227.9,93.9z"/>
	<path fill="#FFFFFF" d="M137,88.5c0,0.8-0.4,1.5-1,1.9C134.4,90.3,137.2,88.5,137,88.5z"/>
	<path fill="#FFFFFF" d="M197.5,78.2c0.8-0.3,1.3-0.6,2-0.2C199,78.6,199,78.6,197.5,78.2z"/>
	<path fill="#FFFFFF" d="M130.8,90.3c0.5-1.3,0.6-1.4,1.3-0.7C131.5,90.3,131.5,90.3,130.8,90.3z"/>
	<path fill="#FFFFFF" d="M206.2,77.8c0.9,0,1.5-0.1,2.2,0.4C207.6,78.4,207,78.5,206.2,77.8z"/>
	<path fill="#FFFFFF" d="M230.3,82.1c0.8-0.5,1.2-0.4,1,0.3C230.9,82.5,230.5,82.5,230.3,82.1z"/>
	<path fill="#FFFFFF" d="M227.7,88.2c-1-0.1-1-0.2-0.5-1C228,87.2,227.6,87.8,227.7,88.2z"/>
	<path fill="#FFFFFF" d="M151.6,177.5c-0.4,0.3-0.1,1.3-1.1,1C150.7,177.9,151,177.6,151.6,177.5L151.6,177.5z"/>
	<path fill="#FFFFFF" d="M128.4,96.2c0.3,0.4,0.1,0.6-0.2,0.9C127.8,97,127.8,96.7,128.4,96.2z"/>
	<path fill="#FFFFFF" d="M132,92.4c-0.1,0.5-0.4,0.7-0.9,0.8C131,92.5,131.3,92.3,132,92.4z"/>
	<path fill="#FFFFFF" d="M226.5,80.3c0.5-0.3,0.9-0.4,1.2,0.1C227.3,80.6,227,80.6,226.5,80.3z"/>
	<path fill="#FFFFFF" d="M156.9,180.4c-0.1-0.3-0.1-0.6,0-0.9C157.6,179.8,157.3,180.1,156.9,180.4z"/>
	<path fill="#FFFFFF" d="M160.6,85c-0.5,0.3-0.8,0.2-1.3,0.1C159.8,84.8,160.2,84.9,160.6,85z"/>
	<path fill="#FFFFFF" d="M147.7,180.5C147.9,181.4,147.4,179.5,147.7,180.5z"/>
	<path fill="#FFFFFF" d="M130.4,97.7c-0.2,0.1-0.5,0.2-0.7,0C129.9,97.5,130.1,97.5,130.4,97.7z"/>
	<path fill="#FFFFFF" d="M128.6,95c0.2-0.2,0.4-0.3,0.6-0.1C129.1,95.2,128.8,95.2,128.6,95z"/>
</g>
<g>
	<path fill="#FFFFFF" d="M128.1,21.2c-44.3,0-85,28.3-100.3,69.9c-15.5,42.1-2.4,90.5,32,119.1c34.4,28.7,84.7,32.6,123.2,9.5
		c38.3-23,58.6-68.6,50-112.4C223.2,57.9,178.4,21.2,128.1,21.2z M128.1,228.8c-41.9,0-80.4-26.9-94.7-66.2
		c-14.5-39.8-2-85.6,30.7-112.5c32.4-26.7,79.5-30.3,115.5-8.8c36.3,21.6,55.5,64.7,47.4,106.2C217.8,194.2,175.6,228.8,128.1,228.8
		z"/>
	<path fill="#FFFFFF" d="M155.3,46.5c0.3,2.8-0.3,5.6-0.3,8.3c1,0.3,1.9,0.7,2.8,0.8c2.6-4.2,5.2-8.3,7.9-12.6
		c-1-0.3-1.9-0.6-2.8-0.9c-1.7,2.5-2.9,5.2-4.9,7.5c0.3-2.9,0.6-5.9,0.8-8.8c-0.9-0.3-1.7-0.6-2.5-0.8c-1.6,2.7-3.2,5.2-4.7,7.8
		c-0.1,0-0.2-0.1-0.2-0.1c0.3-2.9,0.7-5.9,1-9c-1.1-0.3-2-0.8-3.2-0.9c-0.4,4.9-0.8,9.8-1.1,14.7c1,0.2,1.8,0.7,2.8,0.8
		C152.4,51,153.8,48.7,155.3,46.5z"/>
	<path fill="#FFFFFF" d="M76.8,55.3c-2-2.4-4.8-2.5-7.4-0.4c-2.3,1.8-2.8,4.6-1.1,7.1c1,1.4,2,2.8,3.1,4.2c1.5,1.9,3.6,2.5,5.8,1.7
		c2.3-0.8,4-3,4-5.2c0.1-1-0.2-1.8-0.8-2.6C79.2,58.4,78.1,56.8,76.8,55.3z M77.7,64c-0.7,0.9-1.4,1.2-2.7,0.9c-1.3-0.9-2-2.4-3-3.5
		c-0.5-0.6-0.9-1.2-1.3-1.8c-0.6-1.1-0.4-2,0.6-2.7c0.9-0.7,1.9-0.6,2.7,0.3c1.3,1.5,2.5,3.1,3.6,4.8C78.1,62.6,78.2,63.4,77.7,64z"
		/>
	<path fill="#FFFFFF" d="M127.4,43c1.9-1.1,1.8-2.7,1.6-4.3c-0.3-1.7-1.1-2.7-2.8-2.9c-2.4-0.3-4.8,0.1-7.3,0.1
		c0.2,4.9,0.4,9.6,0.6,14.4c1.2,0,2.2,0.1,3.1-0.1c0-1,0-1.9,0-2.8c0-0.9,0-1.9,0-2.9c1.1,0,2.1-0.2,2.9,0.1
		c0.5,0.4,0.6,0.9,0.6,1.4c0,0.7,0,1.5,0.1,2.2c0.1,0.7,0.3,1.4,1.1,1.9c0.2,0,0.5,0,0.9,0c0.6,0,1.2,0,1.8,0
		c0.1-0.1,0.3-0.2,0.4-0.3c-1.1-1-1-2.3-1-3.5C129.4,44.9,129.1,43.6,127.4,43z M125.8,41.4c-0.9,1.2-2.1,0.7-3.3,0.8
		c-0.2-1.2-0.1-2.4-0.2-3.7c1-0.2,2-0.2,3,0C126.2,39.4,125.8,40.4,125.8,41.4z"/>
	<path fill="#FFFFFF" d="M173.7,57.9c0.8,1.3,0.7,1.7-0.6,2.7c-1,0.2-1.7-0.3-2.3-1c-0.8-0.9-0.3-1.8,0-2.7
		c-0.8-0.5-1.5-1.1-2.4-1.4c-1.5,2-1.5,3.7-0.1,5.5c1,1.2,2.3,2,3.8,2.3c1.9,0.4,3.4-0.3,4.5-1.8c1-1.4,1-2.9,0.1-4.4
		c-0.4-0.7-0.9-1.3-1.4-2c-0.3-0.5-0.7-1-1-1.5c-0.4-1-0.1-1.8,0.8-2.1c0.8-0.2,1.4,0.2,2,0.7c0.5,0.5,0.7,1.1,0.5,1.7
		c-0.1,0.3-0.5,0.6-0.3,1c0.8,0.4,1.4,1,2.3,1.3c1.4-1.7,1.5-3.5,0.3-5.2c-0.7-0.9-1.5-1.6-2.5-2c-2-0.9-4.1-0.6-5.4,1
		c-1.3,1.5-1.3,3.3,0,5.3C172.5,56.2,173.1,57,173.7,57.9z"/>
	<path fill="#FFFFFF" d="M112,48.6c-0.4-1.1-0.6-2.2-0.6-3.2c1.3-0.5,2.6-0.4,3.8-0.9c0-0.8-0.1-1.4-0.4-2.1c-1.3,0-2.6,0.5-3.9,0.5
		c-0.2-1-0.5-1.9-0.4-2.9c1.9-0.3,3.7-0.7,5.5-1c0-1-0.3-1.8-0.5-2.7c-3,0.5-5.9,1-8.9,1.6c0.8,4.8,1.7,9.4,2.5,14.2
		c3-0.5,5.9-1.1,8.8-1.6c0-1.1-0.2-1.9-0.4-2.9C115.7,48,113.8,48.3,112,48.6z"/>
	<path fill="#FFFFFF" d="M104,53.6c0-5.1,0-10.1,0-15.2c-1.2,0.3-2.1,0.5-3,1c-0.1,3.2,0.5,6.3,0.1,9.5c-1.7-2.6-3.5-5.3-5.2-8
		c-1.1,0.4-2.2,0.6-3.2,1.2c2.9,4.1,5.7,8.2,8.6,12.3C102.3,54.2,103.2,53.9,104,53.6z"/>
	<path fill="#FFFFFF" d="M184.1,53.8c-0.6,0.7-1.2,1.4-1.7,2.1c0.7,1,1.9,1.4,2.6,2.4c-2.4,3-4.7,5.9-7.2,9c1,0.7,1.6,1.4,2.6,1.9
		c2.4-3,4.8-6,7.2-9c1.1,0.7,1.8,1.6,2.9,2.1c0.5-0.8,1.3-1.3,1.6-2.2C189.4,58.1,186.8,56,184.1,53.8z"/>
	<path fill="#FFFFFF" d="M142.9,39.9c1.2-0.1,2.3,0.3,3.5,0.3c0.2-1,0.6-1.9,0.2-2.8c-3.4-0.5-6.7-1-10.1-1.4c0.1,1-0.4,1.8-0.3,2.7
		c1.1,0.5,2.3,0.2,3.4,0.7c-0.6,3.8-1.1,7.5-1.7,11.3c1.2,0.1,2.1,0.5,3.2,0.3C141.8,47.3,142.4,43.6,142.9,39.9z"/>
	<path fill="#FFFFFF" d="M92.2,58.1c-0.7-0.8-0.9-1.8-1.6-2.4c-1.7,0.9-3.3,1.8-5,2.8c-1.9-3.4-3.7-6.7-5.6-10.1
		c-1,0.5-1.8,1-2.8,1.6c2.4,4.3,4.7,8.4,7.1,12.6C87,61,89.6,59.6,92.2,58.1z"/>
	<path fill="#FFFFFF" d="M164.6,59c2.1-4.4,4.2-8.7,6.3-13c-1-0.5-1.9-1.1-3-1.3c-2.1,4.3-4.2,8.6-6.3,12.9
		C162.7,58.1,163.6,58.5,164.6,59z"/>
	<path fill="#FFFFFF" d="M96.3,56.3c-1.9-4.4-3.9-8.7-5.8-13c-0.7,0-1.1,0.3-1.5,0.6c-0.5,0.2-1.1,0.3-1.4,0.8
		c1.9,4.3,3.9,8.7,5.8,13.1C94.4,57.1,95.4,57,96.3,56.3z"/>
	<path fill="#FFFFFF" d="M93,208.8c0.4-0.8,0.8-1.4,1-2.2c-1.4-0.8-2.8-1.2-4.1-2c0.4-1,0.8-1.9,1.4-2.8c2,0.9,4,1.8,6,2.7
		c0.4-1,0.9-1.8,1.2-2.7c-3.2-1.4-6.2-2.8-9.4-4.3c-2.2,4.8-4.3,9.4-6.4,14.1c3.2,1.5,6.3,2.9,9.4,4.3c0.7-0.9,1-1.8,1.4-2.8
		c-2-0.9-3.9-1.8-6-2.8c0.5-1.2,0.9-2.2,1.6-3.2C90.3,207.5,91.6,208.1,93,208.8z"/>
	<path fill="#FFFFFF" d="M152,208c-0.7-2.3-2.5-3.5-4.9-3.5c-0.9,0-1.7,0.2-2.5,0.5c-2.6,1-3.7,2.8-3.4,5.5c0.1,0.4,0.2,0.8,0.3,1.2
		c0.5,2.4,2.3,3.6,4.8,3.2c1.4-0.2,2.4-0.9,3.4-2c0.2,0.9,0.4,1.6,0.5,2.3c0.3,1.7-0.6,2.7-2.3,2.8c-1.2,0.1-1.8-0.6-2.1-1.8
		c-1,0.2-1.9,0.4-2.9,0.6c0.2,2.1,1.3,3.5,3.2,3.9c1.7,0.3,3.3,0.1,4.8-0.7c2-1.1,2.9-2.8,2.7-5C153.2,212.7,152.7,210.3,152,208z
		 M148.4,211.9c-1.3,1.3-3.2,0.8-3.7-0.9c-0.1-0.3-0.1-0.6-0.2-0.9c-0.3-1.4,0.3-2.4,1.6-2.7c1.3-0.3,2.4,0.4,2.8,1.8
		c0.1,0.5,0.2,1,0.3,1.5C149,211.1,148.8,211.6,148.4,211.9z"/>
	<path fill="#FFFFFF" d="M100.1,206.8c-1.4,0.1-2.6,0.7-3.1,2.1c-0.6,1.5,0.1,2.6,1.2,3.5c0.4,0.3,0.8,0.6,1.2,0.9
		c0.6,0.4,1.2,0.8,1.6,1.4c0.2,0.6,0,1-0.6,1.3c-1,0.2-1.9-0.1-2.5-1.1c-0.2-0.4,0.1-0.8-0.2-1.3c-0.7-0.2-1.4-0.6-2.3-0.6
		c-0.2,1-0.3,1.8,0.1,2.7c1,2,4.5,3.3,6.6,2.3c2.1-0.9,2.5-3.3,1-5c-0.8-0.8-1.7-1.3-2.6-2.1c-0.4-0.4-1-0.8-0.6-1.5
		c1.5-0.9,2.5-0.3,2.9,1.7c0.7,0.2,1.4,0.4,2.2,0.7c0.5-0.8,0.4-1.4,0.2-2.2C104.8,208.2,102.7,206.7,100.1,206.8z"/>
	<path fill="#FFFFFF" d="M174.7,201.8c0.8-0.9,1.2-1.8,0.9-2.9c-0.4-1.5-1.8-3.5-4.1-3.4c-2.3,0-4.1,1.1-5.5,2.9
		c-0.9,1.2-1.1,3.9,0.5,5.1c0.8-0.5,1.8-0.8,2.5-1.5c-0.9-2.1-0.5-2.9,1.7-3.5c1.4,0.6,2,1.4,1.9,2.9c-0.4,0.9-1.5,1.2-2.2,1.8
		c0.4,0.6,0.6,1.4,1.1,1.9c1-0.4,1.7-1.1,2.9-0.8c1.4,1.4,1.7,2.8,0.8,3.6c-1.2,1.1-2.3,0.8-3.7-1c-0.9,0.5-1.7,1-2.6,1.4
		c0.8,2.5,2.9,3.4,4.6,3.2c1.5-0.2,2.9-0.8,4-1.9c1.5-1.3,2-3,1.4-4.7C178.2,202.5,177.2,201.8,174.7,201.8z"/>
	<path fill="#FFFFFF" d="M136.3,206.6c-0.1,0.9-0.6,1.5-1.5,1.8c0.4,4.6,0.9,9.1,1.3,13.7c1.2-0.1,2.3,0,3.4-0.4
		c-0.5-5.1-1-10.1-1.5-15.1C137.4,206.4,136.9,206.4,136.3,206.6z"/>
	<path fill="#FFFFFF" d="M113.8,210.4c-0.6-0.4-1.3-0.2-1.8-0.6c0.2-0.8,0.3-1.6,0.5-2.5c-1.1-0.1-2-0.1-2.9,0
		c-0.6,0.5-0.2,1.4-0.7,1.7c-0.6,0.3-1.1-0.2-1.6,0c-0.4,0.6-0.4,1.3-0.4,2c0.4,0.3,0.9,0.3,1.4,0.5c-0.3,2.9-1.6,5.6-1,8.5
		c1.1,0.4,2.1,0.6,3.2,0.7c-0.7-3,0.5-5.7,0.9-8.3c0.8-0.4,1.4,0.3,2.2-0.1C113.3,211.7,114.1,211.1,113.8,210.4z"/>
	<path fill="#FFFFFF" d="M164.6,204.2c-1.1-2.8-3.2-3.9-6.1-3.3c-2.2,0.5-4.1,1.6-4.6,4.1c-0.4,2.2,0.5,4,1.8,5.6
		c0.4,0.4,1,0.7,1.6,0.8c1.9,0.2,3.6-0.3,4.9-1.9c0.2-0.2,0.2-0.7,0.7-0.5c0.3,0.8,0.6,1.6,0.8,2.4c0.3,1.1-0.1,1.9-1.1,2.4
		c-1.2,0.6-2.1,0.4-2.8-0.5c-0.2-0.2-0.1-0.6-0.7-0.6c-0.8,0.3-1.6,0.6-2.5,1c0.5,2.4,1.9,3.4,4.5,3.3c3.6-0.2,7.3-2.9,5.4-7.9
		C165.8,207.4,165.2,205.8,164.6,204.2z M159.1,209C159.1,209,159.2,209,159.1,209C159.1,209,159.1,209,159.1,209
		C159.1,209,159.1,209,159.1,209c-1.3,0-2-1.8-2.2-3.1c-0.2-1,0.5-1.8,1.7-2.1c1.2-0.3,2.1,0.1,2.6,1.5
		C162.2,207.3,161.2,209,159.1,209z"/>
	<path fill="#FFFFFF" d="M113.8,218.3c0,1-0.4,2-0.3,3c0.9,0,1.8,0.4,2.7,0.3c0.2-1,0.5-2,0.3-3.1
		C115.6,218.3,114.8,218.1,113.8,218.3z"/>
	<g>
		<path fill="#FFFFFF" d="M241.8,137.4c0.2-0.5,0-0.8-0.2-1.1c-0.1,0.7-0.1,1.4-0.2,2.1C241.5,138.1,241.6,137.8,241.8,137.4z"/>
		<path fill="#FFFFFF" d="M242,143c-0.3-0.4-0.7-0.7-1-0.9c-0.1,0.5-0.1,1.1-0.2,1.6C241.1,144.1,241.5,144.1,242,143z"/>
		<path fill="#FFFFFF" d="M118.9,241.5c0.7,0.5,1,0.4,1.3,0.1C119.8,241.6,119.3,241.5,118.9,241.5
			C118.9,241.5,118.9,241.5,118.9,241.5z"/>
		<path fill="#FFFFFF" d="M251.5,111.7c-3.3-4.4-2.2-7.5-0.6-12.4c3-9.4-4.3-10.2-7.4-17.4c-1.6-3.7,0.3-6.7-0.1-10.4
			c-0.5-4.6-3.2-5.5-6.7-7.9c-2.6-1.8-4.7-2.7-5.9-6c-1.2-3.1,0-6.5-1.8-9.5c-2.1-3.4-4.9-3.3-8.2-4.4c-5-1.7-6.2-4.1-8.1-8.6
			c-1.3-3.1-1.8-6.4-5-8.1c-3.3-1.7-7.3,0-10.6-1.5c-3.8-1.8-3.9-5.4-5.9-8.6c-3.1-4.9-6.7-3.5-11.6-3.3c-3.7,0.1-7-0.6-9.9-2.9
			c-2.7-2.2-3.5-5.1-7.3-5.9c-4.6-1.1-8.6,2.9-13.1,2.2c-4.4-0.7-6.2-5.4-10.2-6.6c-4.2-1.2-6.4,1.8-9.8,3.5c-3.9,2-6.2,1.1-10-0.9
			c-8.1-4.2-9.5,0-16.2,3.6c-6.9,3.7-12.2-3.2-18.6,2.1c-3,2.5-4.7,5.2-8.8,6.2c-3,0.7-6.4-0.7-9.3,0.2c-6.3,2-5.7,10.6-13.4,12.4
			c-3.6,0.8-7.5,0.1-10.2,3c-2.9,3.2-1.6,8.4-4.5,11.7c-4.9,5.6-12.5,2.2-14.4,11c-0.9,4.3,0,8-3.7,11.2c-3.3,2.9-7.7,2.1-9.3,7.1
			c-1.3,4.1,1.6,8.4,0.4,12.5c-1.1,3.8-5.5,5.3-6.6,9.2c-1.1,4,1.4,6.5,2,10.3c0.6,4.1-1.1,5.7-3.4,8.8c-1.7,2.4-3.7,4.3-3.4,7.5
			c0.3,3.7,3.6,5.8,4.7,9.1c1.3,4.2-1.1,6.4-2.7,10c-2.2,5.1-0.8,7,2.2,11.1c5.2,6.9-0.1,8.5,1.1,15.7c0.7,4.3,4.2,4.4,6,7.5
			c2.3,4.1-1,7.8,0,11.9c1.1,4.3,4.1,4.1,7.2,6.2c3.6,2.5,4.3,4.7,5,8.7c1.7,10.1,5.9,7.4,12.9,12.4c6.4,4.7,2.3,13.6,11.6,15
			c3.5,0.5,6.4-0.4,9.4,2.2c3,2.6,2.8,7.5,6,9.8c3.4,2.5,6.7,0.3,10.4,0.5c4,0.2,5.5,2,8,4.8c2.5,2.8,3.8,5.2,7.8,5.4
			c5.2,0.2,8.4-4.1,13.6-1.3c2.8,1.5,4,5.3,7.2,6.3c3.5,1.1,5.6-0.6,8.5-2c3-1.4,5.3-2.9,8.7-1.7c4.3,1.5,6.3,5.8,11.6,4.1
			c4.5-1.5,6.2-6.8,11.4-6.7c4.2,0,7.6,3.9,12,2.5c3.2-1.1,4.6-4.4,7-6.4c4.4-3.8,6.9-2.5,12.4-2.5c6.3,0,6.1-1.9,9.6-5.9
			c3.6-4,5.9-3.1,10.7-3.8c9.9-1.4,6.3-13,13.5-18.2c3.7-2.7,9.3-1.7,12.3-5.5c2.5-3.1,1-7.2,2.2-10.6c1.7-4.8,5.4-4.8,9.2-7.4
			c4.9-3.5,2.7-6.4,2.7-11.5c0.1-5.3,3.3-4.8,6.1-8.3c3.3-4.1,1-7.6,0.3-12.2c-1.5-9.7,10.4-11.7,3.6-22.2
			c-4.2-6.4,2.6-10.1,3.3-16.1C256.3,116.3,253.8,114.7,251.5,111.7z M246.9,134.8c0.4,0.4,0.3,0.6-0.1,0.8
			C246.5,135.4,246.6,135.1,246.9,134.8z M246.2,137.1c-0.3-0.4-0.4-0.7,0-1.1C246.7,136.5,246.7,136.8,246.2,137.1z M246.1,134.1
			c0.1,0.7-0.7,0.4-0.7,0.2C245.5,134,245.8,134,246.1,134.1z M244.8,132.7c0.2-0.3,0.4-0.4,0.7-0.3
			C245.3,133.4,245.1,133.4,244.8,132.7z M244.9,123.4c0.1-0.5,0.4-0.6,0.9-0.5C245.6,123.4,245.3,123.5,244.9,123.4z M245.3,120.1
			c-0.2-0.3-0.1-0.4,0.2-0.4C245.7,120,245.6,120.1,245.3,120.1z M243.9,119.7c-0.2-0.5,0.7-2.3,1.3-0.9
			C244.6,118.7,244.1,119,243.9,119.7z M244.9,116.1c0.3,0.4-0.2,0.7-0.6,0.7C244.3,116.3,244.5,116.1,244.9,116.1z M243.8,115.5
			c-0.3-0.8-0.4-1.3-0.6-1.8C244.2,113.7,244.2,113.7,243.8,115.5z M242.4,118c0.3-0.5,0.6-0.5,1.1-0.1
			C243.1,118.3,242.8,118.4,242.4,118z M242.4,121.4c0.1-0.2,0-0.7,0.5-0.5C243,121.3,242.6,121.2,242.4,121.4z M243.1,111.4
			c0.4,0.2,0.4,0.4,0,0.5C242.7,111.8,242.7,111.6,243.1,111.4z M242.7,112.6c0.3,0.1,0.3,0.3,0,0.5
			C242.4,113,242.4,112.8,242.7,112.6z M242.3,105.7c-0.6-0.2-0.8-0.3-1.2-0.5C241.8,104.9,241.8,104.9,242.3,105.7z M240.9,109.6
			c-0.8-0.7-0.3-1.1,0.2-1.7C241.1,108.6,241.1,109,240.9,109.6z M239.2,92.6c0.2,0.4,0.3,0.8,0.5,1.2
			C239.2,94.4,237.4,93.2,239.2,92.6z M225.2,58.6c0.2,0.2,0.6,0.3,0.3,0.8C225.3,59.1,224.9,59,225.2,58.6z M224.7,51.2
			c-0.2,0.3-0.4,0.2-0.9,0.2C224.3,51.1,224.5,51.1,224.7,51.2z M222.8,54.6c0.3,0.3,0.7,0.5,1.1,0.7c-0.3,0.3-0.6,0.6-0.9,1
			C222.4,55.5,222.2,55.8,222.8,54.6z M223.3,60c-0.2-0.4-0.2-0.6-0.1-0.9C223.6,59.4,223.4,59.7,223.3,60z M222.8,57
			c-0.5,0.6-0.9,0.5-1.2-0.1C222,56.9,222.4,56.4,222.8,57z M221.9,61c-0.3-0.5,0.1-0.5,0.3-0.8C222.5,60.7,222.1,60.8,221.9,61z
			 M222.2,52.8c0.2,0.3-0.4,0.4,0,0.8c-0.5-0.2-0.8-0.3-1.1-0.4C221.5,53,221.8,52.9,222.2,52.8z M219.9,55.2c0.5-0.1,0.7,0.3,1,0.7
			C219.9,56.5,219.8,55.9,219.9,55.2z M221.4,56.8c-0.6,0-0.4-0.4-0.5-0.8C221.4,56.2,221.2,56.6,221.4,56.8z M221.4,58.6
			c0,0.5,0,1,0.1,1.5c-0.2-0.2-0.4-0.4-0.7-0.5C221.1,59.3,221.3,59.1,221.4,58.6z M219.7,51.5c0.8-0.3,0,0.6,0,0.6
			C219.3,51.9,219.3,51.8,219.7,51.5z M219.4,54.5c0.5-0.7,0.8-0.9,1.7-0.7C221.1,53.8,218.3,56.2,219.4,54.5z M218.6,52.5
			c-0.6,0.3-0.6,0.3-0.9-0.3C218,52.2,218.4,52.1,218.6,52.5z M218,54.2c0.5,0.7-1,1.4-1.3,0.7C217.2,54.9,218.1,54.9,218,54.2z
			 M216.3,54c0.1-0.8,1.6-0.7,1.6,0.1C217.4,54,216.8,54,216.3,54z M217.7,57.5c0.5,0.2,0.5,0.4,0.1,0.6
			C217.4,57.9,217.4,57.8,217.7,57.5z M217.5,44.9c-0.5,0-0.3-0.3-0.4-0.5C217.5,44.5,217.3,44.8,217.5,44.9z M215.9,50.6
			c0.6,0.8,1.8,0.3,1.8,1.5c-0.4,0-1.6-0.1-1.3,0.1c-0.7-0.4,0.3-2-1.4-2c0.2-0.3,0.5-0.5,0.8-0.6C215.7,49.8,216.5,50.2,215.9,50.6
			z M213.1,51.1c0.1,0.2,0.3,0.4,0.3,0.5c-0.7,0.2-1.5,0-1.7-1.2C212.2,50.4,212.7,50.7,213.1,51.1z M209.8,45.7
			c0.9-2.1,1.5,0.4,2.5,0.3C212.3,47.5,210.3,45.7,209.8,45.7z M212.8,48.9c-0.2-0.8,0.3-0.7,0.8-0.8
			C213.4,48.4,213.1,48.6,212.8,48.9z M213.5,49.4c0.7,0.1,0.9,1.3,1.4,0.9c-0.2,0.4-0.6,0.9-1.1,1.1
			C213.8,50.9,213.6,49.6,213.5,49.4z M215.3,53.3c-0.2-0.4-0.3-0.6-0.6-1.1C215.7,52.3,215.9,52.6,215.3,53.3z M213.1,41
			c-0.5,1.7,0.8,1.3,1.4-0.1c0.9,1.2-1.1,1.4-0.6,2.5c0.4,0,0.9,0,1.3-0.1c0.8,0.5-1.3,3.3-1.7,3.7c-2.2-1.6-0.4-1.5-0.2-3.1
			c0.1-1-2.2-1.2-2.5-0.4c0.3,0.1,0.5,0.3,0.6,0.6c-0.3-0.1-0.7-0.2-1-0.3c0.2,0.2,0.4,0.3,0.5,0.5c-0.5,0.3-0.9,0.2-1.3-0.2
			c1.2-0.2,1.2-0.7,0-1.5C209.7,41.2,211.9,41.2,213.1,41z M206.2,40.6c0.2-0.2,0.5-0.3,0.7-0.1C206.9,40.7,206,41.2,206.2,40.6z
			 M206.5,41.7c0.1,0.4,0.3,0.7,0.6,1.1c-0.5,0.1-1-0.1-1.2-0.6C206.1,42.1,206.3,41.9,206.5,41.7z M206.3,43.7
			c0,0.4-0.2,0.5-0.5,0.5c0.4,0.2,0.6,0.3,0.9,0.4c-0.5,0.5-0.8,0.2-1.1-0.4c-0.6-0.1-1.2-0.8-0.5-1.3
			C205.5,43.2,205.9,43.5,206.3,43.7z M204.5,39.1c0.3,0,0.5,0.2,0.6,0.4c-0.2,0.3-0.5,0.5-0.7,0.7
			C204.3,39.8,204.4,39.4,204.5,39.1z M205,42.5c-0.5-0.2-0.5-0.6-0.7-1.1C204.9,41.6,205.1,41.9,205,42.5z M203,34.2
			c0.4,0.4,0,0.6,0,1.1C202.5,34.7,202.5,34.4,203,34.2z M203.9,37.5c0,0.4,0,0.8,0,1.2c0.1,0-0.7-0.9-0.8-0.8
			C203.4,37.7,203.6,37.6,203.9,37.5z M202.8,39c-0.1,0-2.7,0.4-1.5-0.7c0.2,0.1,1.3,0.2,1.6,0.1C202.8,38.6,202.8,38.8,202.8,39z
			 M202.1,40.1c0.3-0.3,0.5-0.4,0.6-0.5C203,40,202.7,40.1,202.1,40.1z M202.4,35.4c0.7,0.4,0.3,0.9,0.6,1.3
			c-0.6-0.1-1.2-0.2-1.7-0.2C201.6,36.2,202,35.8,202.4,35.4z M200.6,32.6c1.2,0.7,0.4,1.4,0.1,2.1C200.3,34,199.6,33.3,200.6,32.6z
			 M200.8,37.2c0-0.1-0.1-0.1-0.1-0.2C200.7,37,200.9,36.8,200.8,37.2z M199.3,34c-0.9,0.3,1.5,2.1,1.6,1.8
			c-0.2,0.1-0.3,0.2-0.3,0.5c-0.2,0-2-1.3-2.2-1.4C198.7,34.7,198.6,34.1,199.3,34z M196.9,32.9c0.3,0.1,0.4,0.3,0.1,0.5
			C196.6,33.2,196.6,33,196.9,32.9z M196.3,34.8c0.3-0.3,0.6-0.2,0.9,0.1C197.1,35,195.6,35.6,196.3,34.8z M195.5,34.1
			c0.4,0.1,0.4,0.3,0,0.6C195.2,34.5,195.2,34.3,195.5,34.1z M164.6,15.9c0.1,1.2-1.7,0.5-1.5,1.7c-0.2-0.3-0.4-0.7-0.6-1.1
			C163.4,17,163.9,16.5,164.6,15.9z M164.7,17.8c-0.3,0-0.4-0.2-0.6-0.3C164.5,17.3,164.6,17.5,164.7,17.8z M159.8,16.2
			c0.2-0.1,1.3,0.2,1.6,0.2c-0.3,0-0.7,0-1,0.1C160.4,16.4,159.5,16.4,159.8,16.2z M154,15.5c0.4,0.2,1.1,0.3,0.4,1
			C154,16.3,153.8,15.9,154,15.5z M153,15.5c0.3-0.3,0.5-0.3,0.7,0.1c-0.3,0.4-1.3,0.5-1.6,0.2C152.3,15,152.7,16,153,15.5z
			 M151,15.4c-0.2-0.5,0.4-1.1-0.4-1.4C151.6,14.2,151.6,14.2,151,15.4z M148.1,15.2c-0.4,0.3-0.8,0.9-1.2,0
			C147.3,15.1,147.6,15.1,148.1,15.2z M145.2,12.6c-0.2,0.4-0.3,0.6-0.5,1C144.6,13.1,144.4,12.8,145.2,12.6z M143.7,13.7
			c-0.3-0.1-0.5-0.3-0.4-0.9C143.5,13.2,143.9,13.3,143.7,13.7z M142.7,12.7c-0.4-0.4-1.3,0.2-1.5-0.9
			C141.9,12.1,142.5,11.9,142.7,12.7z M139.9,11c0.8-0.1-0.1,0.8-0.1,0.8C139.6,11.5,139.6,11.2,139.9,11z M138.5,12.5
			c0.1,0.2,0.2,0.4,0.4,0.6c-0.3,0.4-0.6,0.5-1.1,0.3C137.9,13,138.1,12.7,138.5,12.5z M137.9,10.7c0.2,0.6-0.1,0.6-0.4,0.5
			C137.5,11,137.8,10.9,137.9,10.7z M136.9,10.9c-0.4,0.3-0.6-0.1-0.8-0.3C136.6,10.3,136.7,10.7,136.9,10.9z M135.5,13
			c0.1,0.6-0.2,0.5-0.5,0.5C135.1,13.2,135.3,13.1,135.5,13z M134.9,13.6c-0.2,0.5-0.3,0.5-1,0.2C134.1,13.2,134.6,13.7,134.9,13.6z
			 M133.5,10.3c0.3,0.4-0.2,0.5-0.3,0.9C133,10.5,133.3,10.4,133.5,10.3z M132.8,12.2c-0.2,0.3-0.4,0.3-0.5-0.1
			C132.5,11.8,132.7,11.8,132.8,12.2z M130.2,13.6c-0.2-0.6-0.3-1-0.5-1.5C130.3,12.5,130.3,12.5,130.2,13.6z M128.7,13.6
			c-0.8,0.8-1,0.3-1.2-0.2C128.1,12.9,128.2,13.7,128.7,13.6z M127.8,12.2c-0.2,0.4-0.6,0.6-1,0.7C126,12,127.8,12.2,127.8,12.2z
			 M127,11.2c-0.5,0.9-0.5,0.9-1.7,0.8C125.9,11.5,126.4,11.5,127,11.2z M123.3,10.6c0.4,0.1,0.5,0.3,0.4,0.7
			C123.7,11.2,122.6,10.8,123.3,10.6z M123.3,11.5c0.6,0.7,0.1,0.7-0.4,1C123.1,12.1,123.2,11.8,123.3,11.5z M122.3,10.3
			c-0.4,0.1-0.4,0.1-0.4-0.4C122.1,10.1,122.2,10.2,122.3,10.3z M118.2,7.6c-0.1,0.1-0.2,0.3-0.4,0.4C117.8,7.5,117.8,7.5,118.2,7.6
			z M118.3,9.7c-0.2,0.5-0.5,0.8-1,1c0.1,0.1-0.7-2.1-0.7-2C116.7,8.2,118.1,9.7,118.3,9.7z M113.8,7.2c0.2,0.8-0.1,0.9-0.7,0.7
			C113.2,7.6,113.4,7.4,113.8,7.2z M108.1,8.5c-0.2,0.4-0.3,0.6-0.5,1C107.6,9,107.4,8.7,108.1,8.5z M105,13.1c-0.4,0.7-0.7,0-1.1,0
			C104.4,12.7,104.4,12.7,105,13.1z M102.7,11.6c0.4,0.6,0.7,0.9,1,1.3c-0.2,0.1-0.5,0.2-0.7,0.3C102.7,12.7,102.6,12.1,102.7,11.6z
			 M100.8,11.3c0.2,0.2,0.2,0.5,0,0.7C100.6,11.8,100.6,11.6,100.8,11.3z M99,12.3c1.3,1.3-0.5,4-1.9,3.8c0.3,0-0.7-0.7-1-0.9
			c0.4-0.1,0.7-0.2,1.1-0.4C99.2,14.7,97.9,13.6,99,12.3z M96.2,12.5c-0.3,0.6-0.9,0.3-1.3,0.7C95.1,12.4,95.1,12.4,96.2,12.5z
			 M95.9,16.8c-0.2,0.7-0.2,0.7-1,0.8C95,17,95.3,16.8,95.9,16.8z M92.6,18.2c0-0.3,0-0.6,0-0.9c0.4-0.4,0.8-0.5,1.4-0.4
			C94.8,17.3,92.6,18.2,92.6,18.2z M94,14.6c0.1,0.3-0.1,0.6-0.4,0.8C93.4,14.9,93.7,14.7,94,14.6z M92.5,13.2
			c0.4,0.2,0.8,0.1,1.2-0.1c-0.1,0.4-1,1.3-1.3,1.5C92.4,14.1,92.5,13.6,92.5,13.2z M92.5,15.3c-1.2,1.1-1.9-3-1.9-3.4
			C90.9,12.2,92.6,15.2,92.5,15.3z M92.3,18.6c0.4,0.7-0.3,0.6-0.6,0.8C91.8,19.1,91.5,18.5,92.3,18.6z M91.2,20.3
			c-0.2-0.2-0.2-0.5-0.2-0.8C91.4,19.1,91.9,19.9,91.2,20.3z M89.5,20.1c0.4,0.1,0.5,0.3,0.2,0.6C89.3,20.5,89.2,20.3,89.5,20.1z
			 M88.8,16.2c-0.7-0.1-0.7-0.5-0.8-1.1C88.6,15.3,88.9,15.6,88.8,16.2z M88.6,18.6c-0.3,0.4-0.5,0.4-0.6,0
			C88.3,18.3,88.5,18.3,88.6,18.6z M85.1,21.9c-0.3-0.2-0.3-0.2-0.4-0.5C85,21.5,85,21.5,85.1,21.9z M60.6,34.1
			c0.3,0.2,0.3,0.3,0,0.5C60.3,34.5,60.3,34.3,60.6,34.1z M59.7,32.9c0.4,0.3,0.3,0.5-0.4,0.6C59.3,33.2,59.5,33,59.7,32.9z
			 M59.4,35.3c0.3,0.5,0.5,0.7,0.6,1.4C59.3,36.4,59.1,36.1,59.4,35.3z M56.9,35.7c-0.3,0-0.6,0-0.8,0
			C56.2,35.3,56.5,35.4,56.9,35.7z M56.1,36.2c-0.5-0.2-0.5-0.4,0.1-0.5C56.2,35.9,56.2,36.1,56.1,36.2z M55.9,33.1
			c0.2,0,0.3,1-0.5,0.6C55.5,33.5,55.7,33.3,55.9,33.1z M55.7,37.1c-0.8,0.2-1.2-0.1-1.5-0.6C55,36,55.1,36.9,55.7,37.1z M55.4,39.2
			c-0.9,0-1.8,0.7-2.6-0.3c0.7-0.1,1.4,0,1.7-0.4C54.6,39.6,55.1,38.2,55.4,39.2z M54.5,38.4c0.1-0.2,0.2-0.3,0.5-0.1
			C54.8,38.4,54.7,38.4,54.5,38.4z M53.2,36.1c1-1.5,0.6,0.9-0.1,0.9c0-0.6-0.2-1.1-0.6-1.5C53,35.4,53,35.9,53.2,36.1z M52.2,36.4
			c0.2,0.4-0.2,0.7,0,1.1C51.7,37.1,51.3,36.8,52.2,36.4z M50.4,38.3c0.4,0.7,0.4,0.7-0.1,0.9C50,38.8,50.5,38.8,50.4,38.3z
			 M49.4,39.1c0.2,0.3,0.2,0.4-0.1,0.5C49.4,39.4,49.4,39.3,49.4,39.1z M48.6,40.8c-0.1-0.6,0.1-1,0.7-1.2c0,2.4,4.6,0.5,1.5,0.3
			c0.5-0.7,1.2-0.9,1.9-1c-0.2,0.5,0.1,1.9-0.2,2.6c1.3-0.5-0.8,1.5-1.7,1.7c0.5-0.8-1-1.7-1.2-2.4c-0.6,0.7,0,2.1-1.5,1.6
			c0.2-0.5,0.4-1.1,0.7-1.6C48.8,41,48.5,41,48.6,40.8z M48.6,43.1c0.9-0.3,2.2,0.9,1.3,1.7C49.8,44.5,47,43.7,48.6,43.1z
			 M47.7,45.2c-1-0.6-1.1-0.9-0.4-1.8C47.8,44,47.5,44.6,47.7,45.2z M47.3,43.1c-0.2-0.3-0.1-0.6,0.1-0.9
			C48.1,42,47.3,43.2,47.3,43.1z M47.7,40.5c-1.1,1.1-1.6-0.1-1.6-1.1C46.7,41.1,46.7,39.9,47.7,40.5z M45.6,41.8
			c0.3,0.2,0.5,0.5,0.6,0.9c-0.6,0.2-1.2,0.1-1.8-0.3C45,42.5,45.2,42.1,45.6,41.8z M46,46.3c-0.4-0.2-0.9-0.3-1.4-0.4
			c0.4-0.7,0.6-1.2,1-1.8C46,44.8,46.1,45.6,46,46.3z M44.2,50.6c-0.1,0.3-0.5,0.2-0.6,0.4C43.6,50.4,43.8,50.4,44.2,50.6z M43.6,46
			c-0.6-0.2-0.8,0.6-1.4,0.4c0.4-0.2,0.6-0.6,0.6-1C43.2,45.4,43.5,45.6,43.6,46z M43.1,48.8c0-0.1-0.1-0.1-0.1-0.2
			C43.1,48.6,43.3,48.3,43.1,48.8z M42.3,47.9c-0.5-0.1-0.3-0.5-0.1-0.4C42.8,47.8,42.6,48.4,42.3,47.9z M42.9,42.6
			c0.1,0.4,0.2,0.6-0.2,0.9C42.3,43.1,42.5,42.9,42.9,42.6z M42.6,44.2c-0.4,0.7-0.6,1.2-0.8,1.7C41.2,45,41.2,44.9,42.6,44.2z
			 M41,49.9c-0.4,0.8-0.4,0.8-1.3,0.1C40.2,49.7,40.6,49.7,41,49.9z M38.7,51.3c0.9-1.4-1,1.6-1,1.6C37.6,52.1,38.4,51.8,38.7,51.3z
			 M37.1,51.6C37,51.5,37.2,51.5,37.1,51.6L37.1,51.6z M37.1,51.7C37.1,51.7,37.1,51.7,37.1,51.7C37.2,51.8,37,51.8,37.1,51.7z
			 M36.3,48.7c-0.2,0.4,0.4,1-0.5,1C35.8,49.3,35.8,48.9,36.3,48.7z M35.8,49.8c0,1.3,0,0.4-0.6,0.4C35.4,50,35.6,49.9,35.8,49.8z
			 M36.3,52.2c-1.1,0.2-1.7-0.3-2-1.2C34.8,51.5,35.9,51.2,36.3,52.2z M32.8,53.7c-0.5,0-0.9,0-1.4,0c0.3-0.3,0.6-0.6,0.9-0.8
			C32.7,53.1,32.3,53.6,32.8,53.7z M31.4,51.7c0,0.1,0.1,0.2,0.2,0.3C31.4,51.9,31.2,51.9,31.4,51.7z M31.8,56.3
			c0.2-1.6,0.9-0.9,2.3-1.4c0.3-2.7,0.8-0.9,2.5-1.4c-0.3,0.4-0.5,0.9-0.6,1.4c-0.4-0.4-1-0.6-1.6-0.6c-0.4,2.2,3,1.1,3.4-0.1
			c0.2,0.3-0.7,2.2-0.9,3.6c-0.1-0.7-0.6-1.2-1.4-1.4c-0.2,2.5-1.6,0.8-3,1.1c0,0,2.7,2.5-0.2,2.3C32.5,57.9,27.3,55.8,31.8,56.3z
			 M35.3,61.8c-0.5-1-0.4-1.1,0.5-1.6C36.2,60.9,35.6,61.3,35.3,61.8z M29.3,64c0.3-0.2,0.6-0.1,0.8,0.1c0.8-0.2,1.5-0.4,1.9,0.6
			C31.2,64.2,30,64.9,29.3,64z M31.1,65.4c-0.3,1.1-1.2,0.2-1.6,0.7C29.7,65,30.4,65.5,31.1,65.4z M29,59.5c0-0.7,0.3-1.1,1-1.2
			c0,0.4,0.2,0.7,0.6,0.9C30.1,59.5,29.6,59.7,29,59.5z M30,60.4c0.5-0.6,1.2-0.9,2-1c-0.1,0.3-1,2.2,0,1.9
			c-0.4,0.9,0.3,1.3,0.8,1.8C31.4,63,30.8,61.4,30,60.4z M32.4,61.3c0.6,0.3,1,0,1-0.7c-0.2,0-0.4,0-0.6,0c0.2-0.3,0.4-0.4,0.6-0.1
			c0.4-0.5,0.5-1.1,0.3-1.7C36.7,59.8,32.4,62.8,32.4,61.3z M30,54.9c-0.7,0.1-0.5-0.5-0.9-0.9C29.9,54,29.7,54.6,30,54.9z
			 M29.5,57.8c-0.3,0.1-0.4-0.1-0.5-0.4C29.4,57.4,29.6,57.5,29.5,57.8z M28.8,62.2c0.2,0.2,0.1,0.4-0.1,0.5
			C28.7,62.5,28.8,62.3,28.8,62.2z M28.7,62.7c0.1,0.3,0.6,0.7-0.2,0.8C28.5,63.2,28.4,62.9,28.7,62.7z M28.1,63.6
			c0,0.2-0.1,0.5-0.1,0.7c-0.7-0.4-1-1.8,0-1.4C28.3,63,27,63.8,28.1,63.6z M27.9,57.5C27.7,58,27.4,57.8,27,58
			C27.4,57.6,27.4,57.3,27.9,57.5z M25.3,68.4c-0.9-0.6,0-1.3,0.7-1.6C26.2,67.1,25.6,68.2,25.3,68.4z M25.2,71.9
			c0-0.5,0.2-0.8,0.6-1.1C26.5,71.6,26.3,71.9,25.2,71.9z M26,59c-0.5,0.2-0.8-0.3-1.1,0C25.3,58.5,25.3,58.5,26,59z M25.1,63.3
			c0.1,0.2,0.2,0.5-0.2,0.7C24.8,63.7,24.8,63.5,25.1,63.3z M24.8,67.9c0,0.1,0.6,2.4,0.7,2.3c-0.6,0.4-1.5-0.1-2.1-0.1
			c0.4-1.8,0.7-0.8-0.9-1.9C22.8,67.8,24.7,67.9,24.8,67.9z M20.3,81.5c0,0.4,0.1,0.8,0,1.2c0.3,0.4,0.1,0.7-0.5,0.7
			c-0.1-0.4,0-0.6,0.4-0.7C20.3,82.3,18.5,81.9,20.3,81.5z M21.2,84.4c0,0.5-0.3,0.5-0.7,0.1C20.7,84.4,21,84.4,21.2,84.4z M22,79.5
			c0.3,0.4,0,2.4-0.3,2.8C20.5,81.1,21.7,80.3,22,79.5z M21.5,75.7c0-0.1,0.1-0.1,0.1-0.1C21.5,75.6,21.5,75.6,21.5,75.7z
			 M22.9,77.4c-0.2,0.5-0.5,0.6-0.8,0.3C21.6,77,22.9,77.3,22.9,77.4z M23.5,80c0,0.9-0.1,2.4-0.6,1.6C22.9,81.5,23.3,80.4,23.5,80z
			 M22.3,76.3c-0.3-0.2-0.5-0.4-0.6-0.6c0.2,0,0-1.2,0-1.2c0.5,0,0.9-0.1,1.4-0.1C23.5,75.5,22.1,75.4,22.3,76.3z M22.9,71.7
			c0.1,0-1.1,0.7-0.7,0C24.3,68.4,24.3,75.3,22.9,71.7z M23.1,66.2c-0.4,0.2-0.8-0.3-1.1,0.1C22.3,65.8,22.7,66,23.1,66.2z
			 M21.9,68.8c-0.2,0.1-0.4,0.3-0.6,0.4C21.5,68.8,21.5,68.8,21.9,68.8z M21.4,70.1c0.1,0.3,0.2,0.6,0,0.8
			C21.1,70.6,21,70.4,21.4,70.1z M20.2,70c1.2-0.8-0.6-0.9,0.9-0.6c-0.8,0.5-0.7,1.4-2,0.5C19.7,69.1,19.6,70.3,20.2,70z M19.9,71.8
			c-0.6-1,1.5,0.4,2,0.8c-0.1,0.9-2.7,0.7-3,0.4C19.3,72.7,19.6,72.3,19.9,71.8z M19.3,78.6c0.4,0.1,1.6,1.6,1.6,2
			c-0.8-0.2-1.5-0.3-2.3-0.3C19.2,80,19.1,79.2,19.3,78.6z M18.8,90.2c-0.2,0.2-0.3,0.3-0.5,0.1C18.1,90,18.9,90.2,18.8,90.2z
			 M17.9,91.6c0,0.2,0.1,0.3,0.1,0.4C17.7,92.3,17.9,91.5,17.9,91.6z M17.4,93.4c-0.7,0.1-0.4-0.5-0.5-0.7
			C17.3,92.6,17.4,92.9,17.4,93.4z M15.1,105.1c-0.2,0.4-0.6,0.4-1,0.4C14.2,104.8,14.5,104.8,15.1,105.1z M13.8,112.8
			c-0.2,0.4-0.4,0.4-0.5,0C13.4,112.5,13.6,112.5,13.8,112.8z M11.3,125.2c0.4-0.2,0.7-0.4,1.1-0.7c-0.2-0.2-0.4-0.4-0.5-0.6
			c0,0.3,0.8-1.2,0.8-1.2c0.5,0.1,0.8,0.4,0.9,1C13.9,123.4,14.6,126,11.3,125.2z M13.4,126.2c-0.5,0.3-0.5,0.3-1.2,0
			C12.8,125.9,12.8,125.9,13.4,126.2z M12.1,130.7c-1.7-0.7-0.3-1.2,0.1-1.3C11.9,129.8,12.2,130.3,12.1,130.7z M11.4,132.8
			c-0.2,0.5-0.5,0.5-0.8,0C10.9,132.4,11.1,132.4,11.4,132.8z M11.4,127.1c0.2-0.3,0.3-0.3,0.5-0.1
			C11.8,127.5,11.6,127.5,11.4,127.1z M12.8,117.9c0.3-0.5,0.6-0.4,1,0.1C13.2,118.2,13.2,118.2,12.8,117.9z M13.1,111.4
			c0.5,0.1,0.5,0.4,0.1,0.6C12.7,111.8,12.7,111.6,13.1,111.4z M12.9,113.6c0,0.7-0.6,1-0.5,1.6C12.1,114,12.1,114,12.9,113.6z
			 M12.2,119.5c-0.2-0.2-0.3-0.4-0.2-0.7C12.6,119.1,12.6,119.3,12.2,119.5z M12,116.8c-0.5,0-0.8-0.1-0.8-0.7
			C11.7,116.1,11.9,116.3,12,116.8z M11.7,118c0.2,0.2,0.3,0.5,0.3,0.8c-0.3,0-0.6,0-0.9,0C11,118.4,11.2,118.1,11.7,118z
			 M10.8,119.6c0.4,0.1,0.4,0.3,0.1,0.5C10.5,120,10.5,119.9,10.8,119.6z M11.4,123.4c-0.5,0.1-0.8,0.1-0.9-0.5
			C10.9,122.7,11.2,122.9,11.4,123.4z M10.1,136.2c0.2,0.4,0.2,0.6-0.2,0.9C9.6,136.7,9.5,136.4,10.1,136.2z M9.2,134.8
			c0.3,0.3,0.3,0.6,0.1,0.9C8.8,135.3,9,135.1,9.2,134.8z M7.7,138.3c0.4,0,0.3,0.2-0.1,0.6C7.4,138.7,7.4,138.5,7.7,138.3z
			 M7.5,142.9c0.2-0.3,0.4-0.2,0.6,0.2C7.8,143.3,7.7,143.3,7.5,142.9z M8.5,134.1c0.4,0.1,0.4,0.3,0.1,0.5
			C8.2,134.4,8.1,134.3,8.5,134.1z M12.2,153.6c0,0-0.7-1.3-0.7-1.2c0.4-0.2,1.8,0.7,2.2,1.2C13.2,153.8,12.7,153.8,12.2,153.6z
			 M12.9,162c-0.2-0.4-0.3-0.7-0.4-1C13.2,161,13.1,161.3,12.9,162z M13.8,163.6c-0.4-0.1-0.5-0.3-0.3-0.7
			C13.3,162.5,14.6,164.1,13.8,163.6z M13,157.7c0.4-0.8,0.8-0.3,1.1-0.2C13.7,158.2,13.4,157.4,13,157.7z M14.7,164.1
			c1.2-0.1,1.6,0.3,1.8,1.5C16.1,164.8,15.3,164.5,14.7,164.1z M17.1,162.7c0.4-0.2,1.3,0.4,1.1,0.9C18,164.3,17.1,162.9,17.1,162.7
			z M18.2,166c-1-0.3-1.1-0.3-0.7-1.2C18,165,18,165.5,18.2,166z M17.2,163.8c-0.1,0.4-0.1,0.4-0.5,0.3
			C16.8,163.9,17.4,163.1,17.2,163.8z M17.4,172.7c-0.5-0.1-0.6-0.3-0.4-0.8C17.4,172.2,17.5,172.4,17.4,172.7z M17.4,167
			c0.2-0.1,1,0.2,0.8,0.6C17.9,168.3,16.8,167.5,17.4,167z M17.7,171.1c0.1-0.5,0.5-0.9,0.1-1.5c-0.5-0.7,1.6-1.1,1.4-2
			c0.2,0.6,0.5,0.9,1,1C19.6,169.3,18.9,169.6,17.7,171.1z M18.4,165.9c0.2,0.2,0.4,0.3,0.3,0.6C18.5,166.4,18.1,166.4,18.4,165.9z
			 M18.8,166.5c0.1,0,0.2,0,0.3,0C19,166.7,18.9,166.6,18.8,166.5z M20.1,171c-0.3-0.2-0.1-0.4-0.1-0.6
			C20.3,170.6,20.2,170.8,20.1,171z M21.5,185c-0.3-0.2-0.6-0.4-1-0.6C21.2,183.9,22,184,21.5,185z M21.5,181.8
			c0.2-0.5,0.1-0.9-0.3-1.2c-0.4,0.4-1.1,1.4-1.8,0.5c0.2,0,2.5-1,2.6-1.2c-0.1,0.4,0,0.7,0.2,1c0.3-0.1,0.6-0.2,0.9-0.4
			C23.4,182.6,21.3,182.6,21.5,181.8z M19.8,179.4c0.4-0.6,1.1-0.9,1.1-1.8C21.8,178.5,21.5,178.9,19.8,179.4z M22.7,179.5
			c-0.2,0.3-0.4,0.3-0.5,0C22,179.1,22.6,179.5,22.7,179.5z M29,186.5c-0.5,0.1-0.2-1.4-1.4-1.2c-0.5,0.2-2.1-1.5-2.6-0.9
			c0.5-0.7,1.9-2.2,2.1-2c-0.3,0.3-0.6,0.6-1,0.8C25.8,183.5,31.3,185.8,29,186.5z M27.9,186.5c-0.7,0-0.5-0.4-0.3-0.9
			C28,185.8,27.9,186.2,27.9,186.5z M25.1,184.6c0.1,0.3,0,0.5-0.4,0.5C24.7,184.8,24.9,184.7,25.1,184.6z M24.3,183.7
			c0.1-0.6,0.7-0.4,0.9-0.8C24.9,183.5,24.9,183.5,24.3,183.7z M24.4,184.6c-0.7,0.7-1.1,0.5-1.7-0.5
			C23.3,184,23.8,184.3,24.4,184.6z M22.8,187.6c-0.3-0.2-0.3-0.4,0.1-0.6C23.3,187.2,23.2,187.4,22.8,187.6z M24.2,190
			c0.1-1,1.5,0,1.4,0.1C25.3,190.5,24.8,189.6,24.2,190z M26.8,188.7c0.6,0,1.1,0.2,1.1,1.2C27.4,189.4,26.7,189.5,26.8,188.7z
			 M27.6,192c-0.2-0.6-0.1-0.8,0.4-0.6C27.8,191.6,27.7,191.8,27.6,192z M26,189.6c-1-1-1.8-2.1-2.5-3.3c0.1-1.1,2.5-0.9,2.5,0.2
			c0.8-0.4,1.3-0.2,1.5,0.7c0.4-0.1,0.5-0.3,0.5-0.7c-0.1,0,1.5,1.5,1.6,1.5c-0.5,0.5-1,0.5-1.4-0.1C27.1,187.1,25.9,189,26,189.6z
			 M29.6,190c0,0,0.5,3.7,1.9,0.7c2.2,1.1-2,1.5-2.6,1.2c0.2-0.4,0.2-0.8-0.1-1.2C28.4,189.8,28.6,189.6,29.6,190z M30.2,187.7
			c0.1,0.4-0.4-0.3-0.4-0.4C29.4,186.9,30.2,187.5,30.2,187.7z M30.3,189.2c-0.1-0.4,0.1-0.4,0.5-0.5
			C30.7,189,30.6,189.2,30.3,189.2z M31.4,190.6c-0.9-0.1-0.9-0.1-1-0.5C30.8,190.1,31.2,190.2,31.4,190.6z M31.3,193.4
			c0.7-0.5,1.1-0.8,1.8-1.3C33,193.3,32.3,193.4,31.3,193.4z M31.8,194.2c-0.1,0.3-1.2,0.1-1-0.4C31.1,193.9,31.4,194,31.8,194.2z
			 M28.8,193.8c0,0,0.9,1.2,0.9,1.2C29.7,195,28.1,194.6,28.8,193.8z M29.9,195.1c0.7-0.1,1.1-0.3,1.5,0.1
			C30.9,195.7,30.6,195.6,29.9,195.1z M31.3,197.6c0.1,0,0.1,0,0.1,0.1C31.4,197.7,31.4,197.7,31.3,197.6z M32.1,200.6
			c-0.4-0.2-0.4-0.4,0-0.6C32.5,200.2,32.4,200.4,32.1,200.6z M31.5,197.8c0.3,0,0.7,0.1,1,0.1C32,198.5,32,198.5,31.5,197.8z
			 M32.5,195.2c-0.5-0.1-0.5-0.3-0.1-0.5c0.7-0.6,0.8-0.5,1.3,0.4C33,194.8,32.7,194.6,32.5,195.2z M34.4,197.6
			c0.8,0.9-0.1,0.6-0.2,1.5c-0.4,0-0.7-0.2-0.9-0.4C34,198.6,34.3,198.3,34.4,197.6z M33.7,197c0-0.5,0.1-1.1,0.1-1.6
			c0.3,0.5,1.2,0.6,1,1.4C34.4,197,34,197,33.7,197z M34.3,199.3c0.5,1-0.9,1-0.5,1.9C32.5,199.6,34.1,200.4,34.3,199.3z
			 M34.4,204.6c0,0.2,0,0.4,0,0.7C34.1,205,34.1,204.8,34.4,204.6z M34.5,204.6c0-0.4,0.1-0.6,0.6-0.5
			C35.1,204.6,34.8,204.7,34.5,204.6z M34.7,202.8c-0.6-0.6-0.4-0.9,0.2-1.2C35.5,202.2,34.8,202.4,34.7,202.8z M35.3,205.6
			c0.3,0,0.4,0.2,0.5,0.5C35.7,206.7,35.3,205.7,35.3,205.6z M35.6,203.4c0.5-0.1,0.6,0.3,0.8,0.6C35.7,204.2,35.7,203.8,35.6,203.4
			z M35.7,202.1c0.5,0.3,0.2,0.6,0,0.9C35.4,202.7,35.4,202.4,35.7,202.1z M35.2,201.1c0.3-0.8,0.2-4.7,0.2-4.5
			C37.1,195.3,37.5,200.2,35.2,201.1z M36.7,201.4c0.3-0.3,0.5-0.6,0.7-0.9c0.1,0.7,1.3,2.3-0.6,2.9C35.8,202.1,38,203,36.7,201.4z
			 M37.1,205.9c0.1-0.2,0.4-0.2,0.7-0.4C37.7,206.2,37.4,206,37.1,205.9z M38.2,205.2c-0.1,0-1.4-0.3-1.3-0.3
			c-0.7-1.2,1.6-0.5,1.9-0.5C38.6,204.6,38.4,204.9,38.2,205.2z M38.3,203.5c0-1.1,0.2-1.4,0.8-0.6C39,203.3,38.7,203.5,38.3,203.5z
			 M41,206.5c-0.4-0.3-0.8-0.6-1-1.1c0.4,0.1,0.9,0,1.3-0.2C41.1,205.9,41.1,206.2,41,206.5z M41,203.9
			C39.6,203.8,40.9,203.8,41,203.9C41,203.9,41,203.9,41,203.9C41,203.9,41,203.9,41,203.9z M41.7,204.8c0.1-0.4,0.3-0.5,0.6-0.4
			C43.3,204.8,41.4,204.9,41.7,204.8z M42.5,208.6c0.4-0.4-0.9-0.6,0-0.9c0,0.5,0.2,0.8,0.8,0.8C43.1,208.7,42.8,208.8,42.5,208.6z
			 M42.9,204.4c0.1,0.3,0.1,0.5,0.2,0.7C42.7,204.9,42.7,204.7,42.9,204.4z M43.7,211.8c0.3,0,0.6,0.1,0.6,0.4
			C44.1,212.1,43.1,212.2,43.7,211.8z M43.4,209.2c0.7-0.6,1.3-0.4,1.9,0C44.7,209.7,44.1,209.6,43.4,209.2z M44.7,206
			c0.8,0.1-0.1,0.8-0.2,0.7C44.7,206.6,44.7,206.3,44.7,206z M44.5,208.2c-0.6-0.2-0.4-0.5-0.3-0.8
			C44.4,207.7,44.5,207.9,44.5,208.2z M43.8,205.4c0.5-0.1,0.7,0.1,0.8,0.5C44.3,206,43.9,206.1,43.8,205.4z M44.7,210.8
			c0.4-0.3,1.4-0.8,1.8-0.6C45.6,210.8,45.6,212.4,44.7,210.8z M45.3,214.9c0.1-0.1,0.3-0.2,0.4,0C45.6,215.1,45.4,215.1,45.3,214.9
			z M45.9,213.6c-0.5-0.2-0.4-0.4,0-0.6C46.2,213.2,46.2,213.4,45.9,213.6z M46.2,216c0.4,0.1,0.6,0.3,0.5,0.7
			C46.7,216.7,45.9,216.1,46.2,216z M46.9,213c0.2-0.5,0.4-0.9,0.4-1.5c0.3,0.7,0.7,1.3,1,2C47.7,213.5,47.3,213.3,46.9,213z
			 M48.1,209.7c0,0.4-0.2,0.6-0.7,0.7C47.3,209.7,47.5,209.5,48.1,209.7z M48.6,214c-0.4-0.1-0.4-0.3-0.1-0.5
			C48.8,213.6,48.8,213.8,48.6,214z M48.9,218.1c0.3,0.3,0.3,0.2,0.4,0.6C49.1,219.5,48.7,218.6,48.9,218.1z M49.4,220.5
			c-0.2-0.3,0.6,0,0.5-0.1C49.7,220.5,49.5,220.7,49.4,220.5z M49.4,216.1c0-0.4-0.2-0.6,0.1-0.7c0.1-0.1,0.9-0.6,0.6,0
			C49.6,215.4,49.3,215.6,49.4,216.1z M49.7,218.8c0.3-0.1,0.6-0.3,0.7,0.2C50,219.3,49.9,219,49.7,218.8z M50.6,216.6
			c-0.3-0.5-0.3-0.9,0.1-1.3C50.7,215.8,51.5,216.3,50.6,216.6z M51.6,221.8c0-0.4,0-0.8,0.2-1.2c0.6,0.1,0.8,0.4,0.8,0.9
			C52.3,221.8,51.8,221.8,51.6,221.8z M52.5,219c0.1,0-1.5,0.4-1.5,0.6c0-0.2,0.5-2.3,0.5-2.3c0.3,0.4,2.5,3,3.1,0.8
			c0.5,0.4,0.8,0.8,0.8,1.4c-0.9,0.3-1.7-1.2-2.1,0.5c0.5,0,0.8,0.2,1,0.6C52.9,220.5,53.5,220.3,52.5,219z M53.1,218
			c-0.4-0.2-0.2-0.5-0.4-0.8C53.6,217.4,52.9,217.8,53.1,218z M53,214.7c0.2-0.2,0.3-0.1,0.4,0.1C53.3,214.7,53.2,214.7,53,214.7z
			 M51.8,215.9c0.4-0.5,0.8-0.3,1.1-0.2C53.1,216.3,51.9,215.9,51.8,215.9z M51.1,213.4c0.5-0.4,0.5-0.4,0.9,0
			C51.6,213.5,51.4,213.5,51.1,213.4z M51.8,214.3c-0.1,0-0.3-0.1-0.5-0.2C51.4,214.2,51.7,214.1,51.8,214.3z M54.6,216.9
			c0.4-0.3,0.6,0.3,1,0.2C55.3,217.6,55.3,217.6,54.6,216.9z M55.7,224.7c0.1-0.6,0.2-0.9,0.3-1.5C56.4,223.9,56.3,224.2,55.7,224.7
			z M55.3,222.4c0.3-0.6,0.8,0.3,1.1-0.2C56.2,223.2,55.8,223,55.3,222.4z M53.5,222.1c-0.6-0.6,3-2.3,3.1-2.8
			c1.9,0.2,2.8-0.8,3.8,1.4c-1.3,0.8-1.5-1.3-3-0.7c-0.4,0.2-0.8,0.4-1.1,0.7c0.2,0.4,0.5,0.6,1,0.5
			C56.9,221.7,54.3,221.9,53.5,222.1z M59.4,220.9c-0.1,0-0.1-0.1,0-0.1C59.4,220.9,59.4,220.9,59.4,220.9z M57.8,222.5
			c-0.1-0.2-0.3-0.5-0.4-0.7c0.3-0.1,0.5-0.2,0.8-0.1C58.2,222.1,58.1,222.3,57.8,222.5z M58.3,225c-0.5-0.4,0-0.6,0.1-0.9
			C59,224.5,58.6,224.7,58.3,225z M59.8,224.4c0.2,0.2,0.4,0.3,0.5,0.4C59.9,225,59.8,225,59.8,224.4z M59.3,222.6
			c0.3-0.8,0.3-0.8,1.1-0.3C59.9,222.4,59.7,222.8,59.3,222.6z M60.9,225.7c0-0.3,0.2-0.4,0.5-0.5C61.4,225.5,61.4,225.9,60.9,225.7
			z M60.7,221.2c0.2-0.2,0.4-0.1,0.6,0.1C61.3,221.7,61.1,221.7,60.7,221.2z M61.5,225.2C61.5,225.2,61.5,225.2,61.5,225.2
			C61.5,225.2,61.5,225.1,61.5,225.2C61.5,225.1,61.5,225.2,61.5,225.2z M61.6,224.1c-0.8-0.3-0.2-0.8-0.1-1.3
			C62.1,223.4,62.1,223.4,61.6,224.1z M62.4,224.6c-0.2,0-0.4,0.1-0.4,0C61.7,224.3,62.6,224.6,62.4,224.6z M64.4,225.8
			c-0.2-0.2-0.4-0.4-0.5-0.5C63.4,225,64.4,224.9,64.4,225.8z M64.9,228.7c-0.3,0-0.4-0.2-0.8-0.3C64.7,228.2,65,228.1,64.9,228.7z
			 M64.4,225.2c0-0.3,0.1-0.6,0.1-0.9c0.3,0.2,0.5,0.4,0.8,0.6C65.1,225.3,64.8,225.2,64.4,225.2z M66.2,226.4
			c0.2,0.3,0.3,0.7,0.1,1.1c-0.8,0-1.5,0.2-1.8-0.7C65.1,227,65.7,226.9,66.2,226.4z M65.6,229.3c0-0.4,0.1-0.6,0.5-0.8
			C66,228.8,66.4,229.4,65.6,229.3z M66.6,231.9c-0.3,0.4-0.5,0.3-0.6-0.1C66,231.5,66.7,231.3,66.6,231.9z M66.7,228.5
			c0.4,0.3,0.4,0.7,0.5,1.1C66.7,229.4,66.5,229,66.7,228.5z M67.6,225c-0.3,0.4,0,1.1-0.7,1.2C66.9,225.7,66.8,225.1,67.6,225z
			 M67.3,231c-0.1-0.5,0.3-1.5,0.8-1.6C69,230,67.4,231.5,67.3,231z M68.2,230.8c0,0.1,0.2,1,0.5,1.5c-0.2,0.2-0.4,0.4-0.7,0.6
			C68,232.2,68.1,231.5,68.2,230.8z M68.9,233.4c0.1-0.3,0.3-0.1,0.5-0.1C69.2,233.4,69.1,233.5,68.9,233.4z M69.3,231.8
			c0,0-0.1,0.1-0.1,0.1c-0.1-1.7-1-5.5-1.1-5.7c1.8-0.3,2.4,5.8,2.8,6.3C69.7,231.5,70.7,233.8,69.3,231.8z M71.7,229.6
			c-1-0.5-0.9-1.8-1.2-2.7c0.9-0.1,1.4,0.3,1.6,1.2c0.1,0.7,0.3,0.2,0.5,1.2c-0.3-0.5-0.6-0.6-1.1-0.6
			C71.7,228.9,71.8,229.2,71.7,229.6z M70.6,228c-0.5,0.1-1-0.3-1-0.9C70.1,227.2,70.4,227.5,70.6,228z M71.6,235.6
			c0.1-0.1,0.4-1.9,0.7-0.8C72.3,235.3,72.1,235.6,71.6,235.6z M72.3,233.5c-0.5-0.2-0.9-0.5-1.3-0.8c0.4-0.1,0.5-0.6,0.8-0.7
			C72.3,232.4,72.5,232.9,72.3,233.5z M72.6,231.8c-0.1-0.4-0.1-0.7-0.1-1.1c-1,1.1-0.3-0.7,0.1-0.9c0.1-0.1,1.1,1.3,1.1,1.3
			C73.3,231.3,73,231.6,72.6,231.8z M73.3,233c0-0.3,0-0.6,0-0.8C73.9,232.3,73.9,232.6,73.3,233z M75.3,235.9
			c-0.2-0.4,0.1-0.6,0.3-0.8C75.8,235.6,75.5,235.7,75.3,235.9z M74.5,234.8c-0.7-0.8-0.6-1.4,0.4-1.7c-0.9,0-1.2-0.4-0.9-1.1
			c0.8,0.1,1.4-0.1,2-0.7c1.2-0.3-0.7,2-0.2,2.7c0.4,0,0.8,0.1,1.2,0.2C76.2,234.7,75.1,233.9,74.5,234.8z M74.7,229.7
			c0.4,0,0.6,0.2,0.9,0.4c-0.2,0.5-0.4,0.9-0.5,1.4c-0.1-0.5-0.2-1-0.4-1.5C74.8,229.9,74.8,229.8,74.7,229.7z M76.9,236.1
			c0.2-0.4,0.4-0.4,0.7-0.1C77.3,236.1,77.1,236.1,76.9,236.1z M77.5,235.7c-0.5-1.1,1-1.5,1.3-0.4
			C78.3,235.4,77.9,235.5,77.5,235.7z M77.7,233.9c-0.5,0-1.4-1.5-1.1-1.9c0.5,0.6,1.5,1.1,2.4,0.9
			C78.8,233.6,78.3,233.9,77.7,233.9z M79.2,234.9c0.1-0.5-0.2-0.9,0.3-1.2C79.4,234.1,79.9,234.4,79.2,234.9z M79.5,236.8
			c1-2,1.5-2.2,2.9-1.1C81,235.2,80.7,236.8,79.5,236.8z M85.6,238c0.3,0.4,0.3,0.6-0.2,0.6C85,238.3,85.1,238.1,85.6,238z
			 M87.3,240.8c-0.8-0.1-1.4-0.3-1.6-0.5C86,240.1,86.9,240.6,87.3,240.8z M88.4,242.7c0.3-0.1,0.4-0.1,0.5-0.1
			C88.8,242.7,88.7,242.8,88.4,242.7z M88.9,242.5c0-0.2-0.2-0.3-0.3-0.4C88.9,242.1,88.9,242.1,88.9,242.5z M93.6,240.7
			c0.3,0,0.4,0.2,0.5,0.5C93.8,241.1,93.5,241.2,93.6,240.7z M94.1,241.2c0.5-0.1,0.7-0.4,0.6-1C96.3,240.7,94.6,242.5,94.1,241.2z
			 M94.6,242.9c0.5,0.3,1,0.2,1.5,0C95.4,243.6,94.9,243.6,94.6,242.9z M95.5,242.1c0.2-0.2,0.5-0.2,0.7,0
			C96,242.3,95.7,242.3,95.5,242.1z M100,245.3c-0.1-0.1-0.3-0.3-0.5-0.5C100,244.7,100.2,244.8,100,245.3z M103,244.1
			c-0.3-0.5,0-1-0.1-1.5C104,243.1,103.2,243.6,103,244.1z M104.1,244.7c-0.3-0.3-0.2-0.5-0.1-0.8
			C104.3,244.2,104.2,244.4,104.1,244.7z M105,243.3c-0.3-0.1-0.7-0.2-1-0.3C103.7,242.2,105,243.3,105,243.3z M111.4,246.6
			c-0.5-0.1-0.6-0.3-0.5-0.7C111.4,245.8,111.6,246,111.4,246.6z M113,247.8c0.5-0.2,0.6,0.1,0.8,0.4
			C113.4,248.4,113.3,248.1,113,247.8z M116.4,245.8c0.2,0.1,0,0.6-0.1,1C115.7,246.5,115.8,246.1,116.4,245.8z M116.1,247.4
			c0.5-0.8,1-1.5,1.7-2.1c0.2,0.4,0.3,0.8,0.3,1.3C117.5,247,117.1,247.9,116.1,247.4z M117.5,248.1c0.2-0.1,0.4-0.1,0.7,0
			C117.9,248.7,117.7,248.6,117.5,248.1z M119.7,246.5c-0.4,0-0.2-0.9,0.5-0.6C120,246.1,119.8,246.3,119.7,246.5z M120.8,246.8
			c0.2-0.1,0.4-0.2,0.7-0.4C121.5,247.2,121.1,246.8,120.8,246.8z M121.9,246.1c-0.3-0.5,0-0.6,0.4-0.6
			C122.4,245.8,122.1,245.9,121.9,246.1z M123.6,244.5c0,0.3,0,0.7,0.1,1C122.7,245,122.7,244.7,123.6,244.5z M123.8,243.7
			c-0.5,0.9-0.6,0.3-0.5-0.4c0.7,0,1.3-0.2,1.9-0.6C124.9,243.3,124.4,243.6,123.8,243.7z M126.5,243.5c0,0.1,1.4-1.2,1.6-1.5
			C128.1,243.9,127.8,244.1,126.5,243.5z M129.2,244.6c0.1-0.1,0.2-0.2,0.3-0.4C129.9,244.6,129.7,244.7,129.2,244.6z M130.2,243.6
			c-0.4-0.3-0.4-0.5,0-0.7C130.7,243.2,130.7,243.5,130.2,243.6z M131.3,245.2c-0.2-0.7-0.2-1.4,0.1-2.1c0.3,0.2,0.6,0.5,0.8,0.8
			C131.5,244.1,131.2,244.5,131.3,245.2z M133.2,244.4c0.1,0.4,0.2,0.8,0.3,1.1C133.2,245.3,132.6,245.1,133.2,244.4z M132.6,242.6
			c0.8-0.8,1.1,0.4,1.3,0.7C133.3,243.3,132.9,243.1,132.6,242.6z M136.6,243.7c0.4-0.1,0.7-0.3,0.9,0.4
			C137.2,244,136.9,243.9,136.6,243.7z M139.5,244.3c0.2-0.5,1,0.6,1,0.7C140.4,245,139.4,244.5,139.5,244.3z M141,243.8
			c0.2-0.2,0.3-0.5,0.9-0.4C141.6,243.7,141.6,244,141,243.8z M142.7,243.8c-0.5-0.4-0.5-0.4,0.1-0.7
			C143,243.4,142.4,243.5,142.7,243.8z M143.1,242.8c0.3-0.3,0.4-0.4,0.6-0.5C143.9,242.7,143.7,242.8,143.1,242.8z M144.9,243.2
			c-0.4-0.3-0.4-0.3,0-0.7C144.9,242.9,144.9,243,144.9,243.2z M146.1,242.2c-0.7-0.2,0.5-0.5,0.6-0.5
			C146.6,241.9,146.4,242.1,146.1,242.2z M148,240.9c-0.4,0.2-0.7,0.2-1.1,0C146.3,239.9,148.5,241.1,148,240.9z M151.1,242
			c-0.2-0.7-0.2-0.7,0.6-0.7C151.7,241.7,151.5,241.9,151.1,242z M155.5,241.1c-0.9-1.2-2.2-0.2-3.4-0.6c0.7-0.6,3.1-0.6,3.8-0.6
			C155.3,240.3,155.8,240.7,155.5,241.1z M154,239.1c0.3-0.2,0.4-0.2,0.5,0.1C154.2,239.6,154.1,239.6,154,239.1z M156.7,240.3
			c-0.4-0.2,0.1-0.6-0.1-0.7C157.3,239.8,157.2,240,156.7,240.3z M157.1,238.6c0.3-0.3,0.4-0.3,0.7,0.1
			C157.5,238.7,157.3,238.8,157.1,238.6z M158.4,241.2c0.1,0.2,0.3,0.4,0.4,0.6C158.4,242.1,158.3,241.9,158.4,241.2z M160,238.9
			c-0.8-0.5,0.1-1,0-1.4c0.2-0.1,1,0.1,1.1,0.1C160.1,238,159.8,238.4,160,238.9z M159.6,239.6c-0.3-0.7,1.3-0.7,1.4,0.5
			C160.6,239.3,160.1,240.6,159.6,239.6z M162,238.5c0.2,0.1,0.4,0.2,0.5,0.4C162.3,238.9,161.9,239,162,238.5z M164.1,240.1
			c0.1-0.2-1-1.2-1.5-1.2c0.1-0.3,0.2-0.6,0.5-0.8c0.1,0.7,0.5,0.9,1.2,0.7C164.2,239.2,165,239.8,164.1,240.1z M165.2,238.8
			c0.1-0.9,0.3-1.3,0.8-1.7C166.2,237.7,166.2,237.7,165.2,238.8z M172,235.3c-0.2,0-0.3-0.1-0.5-0.4
			C171.9,234.8,172.1,234.8,172,235.3z M173.2,236.2c-0.1-0.6,0.1-0.6,0.4-0.5C173.7,236,173.4,236.1,173.2,236.2z M174,236
			c0.4,0,0.4,0.2,0.5,0.4C173.9,236.6,174,236.3,174,236z M174.6,233.4c-0.1,0,0.3-1,0.5-1C175.8,232.4,174.8,233.5,174.6,233.4z
			 M175,234.3c0.6-0.5,1.2-0.5,1.8-0.1c-0.4,0.4-0.6,0.9-0.6,1.4C175.4,235.4,175.9,234.4,175,234.3z M176.9,231.3
			c0,0.2-0.2,0.3-0.4,0.4C176.4,231.4,176.5,231.3,176.9,231.3z M176.3,237.3c-0.7-1.2,1.1-1,1.4-0.9
			C177.2,236.7,176.8,237,176.3,237.3z M178.1,231.2c0.2,0.2,0.5,0.4,0.8,0.7C178.3,232,178.3,232,178.1,231.2z M181.1,229.1
			c1.6-0.6,1,0.4,0.9,0.6c-0.2,0.8-0.8,2.3-1.6,2.8c-0.1-0.4-0.3-0.8-0.6-1.2C180.1,231.1,182.9,229.4,181.1,229.1z M180.4,234.8
			c-0.9-0.3,0.3-1.1,1.2-0.6C181,234,181,234.9,180.4,234.8z M181.8,233.4c0-0.1,0-0.1,0.1,0L181.8,233.4z M181.9,232.7
			c-0.4-0.4-0.2-1.2,0.4-1.2C182.4,232,182.2,232.4,181.9,232.7z M182.5,229.7c0.5-0.2,0.7,0.3,1.1,0.3c-0.1,0.3-0.3,0.6-0.6,0.7
			C182.9,230.3,182.7,230,182.5,229.7z M183.4,232.3c-0.3,0.6-0.5,0.8-0.8,0.1C182.8,232.4,183,232.3,183.4,232.3z M184.2,236.3
			c-0.6-0.2-0.2,0.9-0.4,1.2c-1.9-0.4,0.4-2.1-1.2-2.6c0.5-0.2,0.8-0.6,1.1-1C183.7,234.6,185.4,236.7,184.2,236.3z M184.6,233.9
			c-0.2-0.2,0-0.1,0.1-0.2C184.6,233.8,184.6,233.9,184.6,233.9z M184.7,233.7c0-0.2-0.1-0.3,0.1-0.5
			C185.2,233.5,184.9,233.6,184.7,233.7z M185.2,233c-0.5-0.2-1-0.3-1.1,0.6C182.9,231.5,185.6,231.7,185.2,233z M184.8,231.9
			c0-0.5-0.2-0.7-0.7-0.8c0.2-0.2,0.3-0.3,0.6-0.4C184.5,231.8,185.8,230.9,184.8,231.9z M184.7,230.7c0-0.6,0.4-2.2,1.5-1.9
			C186.1,229.8,185.8,230.6,184.7,230.7z M187,230.6c-0.7,0.1-0.7,0.5-1,1.1C185.3,231,186.6,230.6,187,230.6z M186.9,228.3
			c0.4,0.6,0.4,0.6-0.2,1C186.7,229,186.7,228.6,186.9,228.3z M185.8,232.4c0.8-0.8,1.5-1.1,2.3-0.6
			C187.4,231.9,186.7,232.6,185.8,232.4z M186.2,235.7c0.2,0,0.4-0.1,0.6-0.1C186.7,236.2,186.4,235.7,186.2,235.7z M187.3,235
			c0.2-0.3,0.5-0.5,0.9-0.4C188.1,235.1,187.6,234.9,187.3,235z M188.6,231.2c-0.5,0.1-0.5-0.7-1.1-0.6c0.7-0.3,1.3-0.3,2-0.1
			C189.2,230.8,188.9,231,188.6,231.2z M190.1,226.8c-0.4,0.3,0.2-1.6,0.6-1.7C190.9,225.7,190.7,226.3,190.1,226.8z M192,226.2
			c-0.2-0.1-0.6,0-1.1-0.2c1.4-0.1,0.5-1.1,1.3-1.6C192.3,225,192.2,225.6,192,226.2z M192.6,223c-0.3-0.1-0.4-0.4-0.3-0.7
			C192.2,222.3,192.7,223,192.6,223z M193,228.9c-0.3,0.2,1-1.5,0.7-1C193.8,228.7,193.3,228.7,193,228.9z M194.7,225.2
			c-0.3,0.1-0.6,0.3-0.9,0.4c-0.1,0-1.1-1.9-1.1-2c0.8,0.6,1.8,1.2,2.7,1.6C195.1,226.1,195,225,194.7,225.2z M193,222.7
			c0.1-0.5-0.1-0.9,0.5-1.1C193.5,222.3,193.7,222.2,193,222.7z M197.3,221c-1.2-0.5-1.8,0.7-3,0.6c0.6-0.6,0.8-1.2,1.4-1.6
			C196,220.6,196.8,220.3,197.3,221z M195.7,220c0-0.3,0.2-0.4,0.5-0.4C196.3,220.1,196,220,195.7,220z M194.4,223
			c0.7-0.6,1.6-1,2.5-1.1c-0.3,1.1-1.7,0.9-2.2,2.3C194,223.9,193.9,223.5,194.4,223z M197.3,231.7c-0.2-0.2-0.5-1.4-0.6-1.4
			C197.2,230.2,197.8,231.2,197.3,231.7z M196.7,226.3c1.1-0.8,0.6,0.8,0.2,1.3C196.4,227.2,196.3,226.8,196.7,226.3z M197.2,224.6
			c-0.3,0.3-0.7,0.7-1.3,1.4c-1.2-0.7,0.3-1.6,1-1.6c0-0.3-0.5-0.5-0.6-0.7c0.4-0.1,1.4-0.6,1.8-0.8c0.1,0.7,0.5,1.2,1.1,1.6
			c-0.6,0.1-0.8,0.3-1.1,0.5C197.3,225.1,197.1,224.9,197.2,224.6z M198,218.9c0.3,0.1,0.5,0.4,0.4,0.7
			C198,220.3,198,218.8,198,218.9z M198.2,229.5c-0.2-0.6,0.2-0.9,0.5-1.3C198.8,228.9,198.5,229.1,198.2,229.5z M198.8,226
			c-0.7-0.5-0.6-0.9,0.2-1.4c0.6,0.4,1.2,0.9,1.6,1.5C200,226.5,199.4,226.4,198.8,226z M201.6,223.2c0,0.2,0,1.3,0,1.5
			c-0.6,0-1.2,0-1.7,0c-0.2,0.5-1.4-3.6-1.4-3.6c0.3-0.2,0.7-0.2,1,0c0-0.6-0.2-1-0.7-1.3c0.3-0.4,0.7-0.6,1.2-0.5
			c-0.1,0.2-0.1,0.4-0.1,0.7c0.5-0.3,1.1-0.4,1.7-0.5c-0.3,0.4-0.6,0.8-0.9,1.2c0.4,0.7,2.3-0.5,2-1.3
			C204.8,221.5,201.3,221.9,201.6,223.2z M201.2,217c0,0,0.5-1.1,0.5-0.4C201.7,217.5,200.7,217.1,201.2,217z M201.6,219
			c-0.5-0.3-0.5-0.5,0-0.8C201.6,218.3,202.7,219,201.6,219z M202.6,225.1c-0.9-0.9,0.1-2,1.1-1.2C203,224,202.8,224.4,202.6,225.1z
			 M203.5,218.5c0.3-0.3,0.5-0.9,1.3-0.7C204.4,218.5,203.9,218.4,203.5,218.5z M204.5,219.7c0,0.2,0,0.3-0.1,0.5
			C203.8,219.9,204.2,219.8,204.5,219.7z M204,220.8c0.2-0.3,0.4-0.3,0.6,0.1C204.3,221.2,204.1,221.1,204,220.8z M204.5,219.7
			c0.2-0.5,0.2-0.5,0.7-0.1C205,219.8,204.7,219.6,204.5,219.7z M205.4,212.2c0.3-0.5,0.5-0.5,0.6,0
			C206.1,212.6,205.4,212.5,205.4,212.2z M206.2,215.2c0.2,0.2,0.3,0.4,0.5,0.7C205.8,216.3,205.6,216,206.2,215.2z M205.8,222.2
			c0.4,0,0.7,0.1,0.8,0.5C205.8,223.2,205.9,222.4,205.8,222.2z M206.3,220.6c0.5-0.5,0.5-0.5,1-0.2
			C207,220.8,206.7,220.4,206.3,220.6z M207.7,210.6c-0.5-0.2-0.6-0.4-0.2-0.7C207.9,210.1,208,210.3,207.7,210.6z M208.6,213.9
			c-0.6-0.2-0.7-0.4-0.2-0.7C208.9,213.4,208.9,213.7,208.6,213.9z M208.6,210.1c-0.4-0.2-0.4-0.4,0.1-0.5
			C208.9,209.9,208.9,210,208.6,210.1z M209.6,213.9c0.2-0.3,0.5-1.4,1-1C211.3,213.4,210.1,214.1,209.6,213.9z M211.5,210.5
			c-0.2,0.5-0.6,0.9-1.1,1c-0.1-0.3-0.2-0.7-0.3-1c0,0,0.2-0.2,0.1-0.1C210.7,210.2,211,210.9,211.5,210.5z M210.8,214.8
			c-0.1-0.8,0.5-0.7,0.9-0.8C211.6,214.4,211.3,214.7,210.8,214.8z M211.7,211.1L211.7,211.1C211.8,211.1,211.8,211.1,211.7,211.1z
			 M210.7,209c1-0.4,2.2,0.1,2.9-0.8C213.3,209,212.3,210.7,210.7,209z M216.9,203.5c-0.6-0.7-0.6-1.4,0.3-1.9
			c1.9,2-2.5,5.1-0.6,5.5c-0.2,0.3-1.3,0.1-0.7,1.1c-0.6-1.1-1.5-0.5-2.2-0.1c0.4-0.7,1-0.7,1.5-1.4c-1.1-2-3.1-2.2,0.1-4.1
			C216.2,203.8,212.1,203.5,216.9,203.5z M214.2,211.3c-1-0.8-0.1,1.9-0.9-0.8c0.4-0.2,1.9,0.3,2.5,0.2
			C215.3,211.3,215.1,212,214.2,211.3z M215.8,210.7c-0.4-0.5-0.7-1-0.9-1.6c0.6,0.5,1.3,0.7,2,0.8
			C216.6,210.3,216.3,210.6,215.8,210.7z M216.6,207.1c0-0.7,0.5-0.6,0.9-0.5C217.5,207.3,217,207.1,216.6,207.1z M217.4,210.5
			c0.3,0,0.3,0.2,0.5,0.4C217.4,211.1,217.3,210.9,217.4,210.5z M217.2,205.4c0.3-0.2,0.5-0.5,1-0.4
			C218.1,205.7,217.7,205.8,217.2,205.4z M218,200.1c0.2-0.1,0.4-0.1,0.6,0C218.5,200.3,218.3,200.2,218,200.1z M219.5,199.1
			c-0.2-0.3-0.2-0.4,0.1-0.5C220,198.8,219.9,199,219.5,199.1z M220.3,202.8c-0.1-0.3-0.2-0.6,0.2-0.8
			C220.8,202.4,220.8,202.6,220.3,202.8z M220.6,200.5c-0.3,0-0.4-0.1-0.3-0.5c0,0-0.1,0-0.1,0C220.2,200,220.8,199.4,220.6,200.5z
			 M220.9,201.3c-0.2-0.3-0.2-0.5-0.2-0.7C221.2,200.7,220.9,201,220.9,201.3z M221.3,196.3c0.2-0.2,0.5,0.1,0.7,0
			c-0.1,0.2-0.2,0.5-0.3,0.7C221.4,196.8,221.2,196.6,221.3,196.3z M221.9,203.1c-0.3-0.2-0.2-0.4,0-0.7
			C222.2,202.7,222.1,202.9,221.9,203.1z M222.2,198.8c-0.1,0-0.1-0.1-0.1-0.2c-0.3,0-0.5-0.1-0.7-0.4c0.6-0.3,0.5,0.4,0.8,0.3
			C222.1,198.6,222.1,198.7,222.2,198.8z M222.2,195.8c-0.2-0.2-0.5-0.3-0.4-0.7C222.2,195.2,222.4,195.4,222.2,195.8z M222.6,201.1
			c-0.4-0.5-0.2-0.8,0.2-1.1C223.2,200.4,223.1,200.8,222.6,201.1z M223.3,196.6c-0.3-0.3-0.3-0.6,0.2-0.8
			C223.4,196.2,223.4,196.4,223.3,196.6z M224.9,193.3c-0.5,0.3,0-0.7,0-0.6C225.1,193.1,225.1,193.2,224.9,193.3z M235.9,166.7
			c0-0.4,0.2-0.4,0.4-0.6C236.4,166.7,236.1,166.7,235.9,166.7z M238.8,164.1c-0.6-0.5-0.6-1.1,0.1-1.8
			C239.1,162.5,239.5,164.3,238.8,164.1z M238.9,160.9c0.1-0.3,0.2-0.5,0.3-0.8C239.9,160.7,239.8,161,238.9,160.9z M239.7,167.7
			c0.1-0.5,0.5-0.4,0.7-0.7c0.1,0.2,0.1,0.5,0.2,0.7C240.3,167.6,240,167.6,239.7,167.7z M239.6,164.5c0.6,0.1,0.5,0.4,0.5,0.9
			C239.9,165,239.8,164.8,239.6,164.5z M241.1,164c0.3-0.3,0.1-0.1,0.3,0.1C241.7,164.2,240.6,164.4,241.1,164z M241.1,162.5
			c0.1,0.1,0.2,0.1,0.1,0.2C241.1,162.8,241.1,162.7,241.1,162.5z M241.7,165c-0.4-0.1-0.5-0.3-0.5-0.7
			C241.7,164.4,241.9,164.6,241.7,165z M241.2,162.5c0.5-0.3,0.2-0.5,0-0.8C241.8,161.1,242.2,162.7,241.2,162.5z M242.3,154.9
			c-0.2-0.1-0.1-0.3,0-0.4C242.4,154.6,242.4,154.8,242.3,154.9z M242.4,153.5c0.7-0.4,1.1-1.1,1.7-0.1
			C243.6,153.6,243.2,153.7,242.4,153.5z M243.4,151.4c0.1,0.6-0.1,0.9-0.7,1C242.6,151.7,242.9,151.5,243.4,151.4z M247.1,140
			c-1.4,1.2-0.1,3-1.3,4.3c1.7,1.3-0.2,0.4,0.1,2c0.4,0,0.8,0,1.1,0.1c-2.1,1.5-1.5,2.2,0.3,2.3c-0.5,2.2-1.2,0.3-2.3,0.5
			c-0.1,0.7-0.1,1.4-0.2,2.1c-1.7-0.2-0.2-1.2-1.3-1.8c-1.1,0.8,0.2,1.5-1.5,0.8c-0.2,0.4-0.8,4.1-0.8,4.4c-0.9,0.1-1.1-0.6-2.2-0.3
			c0.2-0.3,2.1-2.7,1.8-3.1c-0.5-0.5-1,0.4-1.6,0.8c-0.2,0.7-0.3,1.5-0.5,2.2c0.2,0.2,0.3,0.4,0.2,0.7c-0.1,0-0.3-0.1-0.4-0.1
			c-0.8,3.1-1.7,6.2-2.7,9.2c0,0,0.1,0,0.1,0c0.1,0.1,0.3,0-0.2,0.3c0,0.1-0.1,0.2-0.1,0.4c0,0.5,0.5,0.6,1.4,0.3
			c-0.5,0.4-0.9,0.4-1.4,0.1c0,0,0,0-0.1-0.1c-0.5,1.4-1,2.7-1.5,4.1c0,0.1,0,0.3-0.1,0.4c0,0,0,0-0.1-0.1
			c-4,10.2-9.4,19.9-16.2,28.6c0,0.1,0.1,0.2,0,0.3c0,0-0.1-0.1-0.1-0.1c-0.4,0.5-0.8,1-1.2,1.5c0.1,0.7,0.6,1.5,1.4,1.5
			c-0.4,0.3-0.7,0.4-0.9,0c-0.6-1-1.8,0.8-2.4,0.8c-0.9,1-1.7,2-2.6,3c0.4,0.7,0.5,3,0.3,3.3c0.3-0.8-0.5-1.2-0.7-1.8
			c-0.1-0.3-0.2-0.6-0.2-0.8c-1.7,1.8-3.4,3.5-5.1,5.2c0.3,0.1,0.5,0.2,0.6,0.2c-0.4,0.6-0.6,0.3-0.8-0.1c-1.5,1.5-3.1,2.9-4.7,4.3
			c0,0.1-0.1,0.1-0.1,0.2c0,0-0.1-0.1-0.1-0.1c-2.5,2.1-5.1,4.1-7.8,6c0,0,0,0.1,0,0.1c0,0,0-0.1-0.1-0.1c-1.5,1.1-3.1,2.1-4.6,3.1
			c0.1,0.1,0.2,0.2,0.2,0.4c-0.3,0-0.4-0.1-0.5-0.2c-0.4,0.3-0.9,0.6-1.3,0.8c0.3,1,1.8,2,2.5,1.9c-0.4,0.6-1,0.8-1.7,0.7
			c-0.4-1.6-3.3,0-4.1,0.8c0-0.1,1.3-1.6,2.2-2.7c-1.1,0.7-2.3,1.3-3.4,2c0.1,0,0.2,0,0.4,0.1c0.2,0.5,0,0.6-0.7,0.3
			c0-0.1,0.1-0.2,0.2-0.2c-6.4,3.5-13.2,6.3-20.1,8.5c0,0.2,0,0.5-0.2,0.8c-0.2-0.2-0.3-0.4-0.3-0.6c-1,0.3-2,0.6-3,0.9
			c0,0.6,0,1.2-0.2,1.7c-0.5,0-0.8-0.2-0.9-0.7c0.5-0.1,0.6-0.5,0.7-0.9c-0.9,0.3-1.9,0.5-2.8,0.7c0.1,0.2,0.2,0.5,0.4,1
			c-0.6-0.2-0.7-0.2-0.9-0.9c-1.2,0.3-2.4,0.5-3.6,0.8c0,0.2,0,0.5-0.1,0.6c0,0-0.1-0.2-0.3-0.5c-0.5,0.1-1,0.2-1.5,0.3
			c0.1,0.1,0.1,0.3,0.1,0.4c-0.2-0.1-0.4-0.2-0.4-0.4c-2.2,0.4-4.3,0.7-6.5,1c0.1,0.2,0,0.5-0.3,0.7c-0.3-0.1-0.4-0.4-0.6-0.6
			c-0.5,0.1-1.1,0.1-1.6,0.2c0.3,0.9,0.3,1.8-1.5,1.5c-0.4,0.1-0.7,0.3-0.8,0.7c-0.2-0.7,1.1-1.4,1.5-2.1c-1.7,0.2-3.4,0.3-5,0.4
			c-0.1,0.7-0.6,0.7-1.1,0.8c0.1-0.4,0.4-0.6,0.7-0.8c-0.7,0-1.4,0.1-2.1,0.1c0.1,0.2,0.2,0.4,0.3,0.6c-0.7-0.3-0.6,0.9-1.2,0.6
			c0-0.4,0-0.8,0.2-1.2c-2.1,0.1-4.2,0.1-6.3,0c0,0.2-0.2,0.3-0.4,0.4c0-0.2-0.1-0.3-0.1-0.4c-0.3,0-0.7,0-1,0
			c-0.1,0.2-0.3,0.6-0.5,0.9c0.1-0.4,0.2-0.7,0.3-0.9c-1,0-2-0.1-3-0.2c-0.1,0.1-0.2,0.1-0.3,0.2c0.8,0.5,1.4,1.1,1.8,2
			c-0.4-0.1-0.3,0.7-0.8,0.5c-0.4,0.1-0.8,0.2-1.1,0.5c-0.1-0.4-0.3-2.2,0-2.3c-1.2,0-0.9,2-0.7,2.5c-1-0.6-2.6,0.2-3.2-1.2
			c-1,0.5,0.3,1.2-0.2,1.9c-0.4-0.3-0.8-0.6-1.2-0.8c0.7,2.1,0.1,0.5-0.6,0.5c-0.1,1.7-3.5-0.2-4.4,0.3c0.1,0.4,0.3,0.8,0.4,1.2
			c-0.3,0.1-3-1-4-0.8c0.3-0.3,0.6-0.6,0.9-0.9c-0.6-1.5-1.4,0.2-2.1-0.3c-1.4-1.1,1.5-1,1.6-1.1c0.6-0.8-3.8-2.4-4.2-2.8
			c-0.7,0.2-1.7,1.3-1.4,2.3c-0.9-0.5-0.7-1.1-0.2-1.7c-2.1-0.1-1.3,1.1-2.3,2.4c-0.2-0.4-2.7-3.5-2.4-2.6c-0.2-0.5-0.8-1,0.3-1.5
			c-1.4-0.6-0.6-0.1-1.6,0.6c-0.1-0.5,0-0.9,0.3-1.3c-1.6-2-2.8,1.8-1.2,0.7c-0.4,0.6-0.9,0.8-1.6,0.7c0,0.1,1,2.7,0.3,2.6
			c-1.1-0.2,0-1.3-1.4-1.4c-0.5,0.8-0.6,1.7-0.4,2.6c-0.6-0.5-0.7-4.7-1.2-6.5c0.2,0.3,0.7,0.5,1.8,0.2c-0.2,0.6-0.3,1.2-0.4,1.8
			c0.4,0,5-3.6,5-1.8c0.2-0.1,0.4-0.2,0.6-0.3c-1.4-0.4-2.9-0.8-4.3-1.3c0,0.3-0.2,0.8-0.6,1.5c-0.1-0.1-0.8-1.2-0.8-1.3
			c0-0.2,0-0.4,0-0.6c-0.1,0-0.3-0.1-0.4-0.1c-0.2,0.3-0.3,0.8-1,0.4c0.1,0.2-0.1,1,0.2,1.6c-0.5,0-0.7,0.4-1,0.8
			c0.2,0.2,0.6-0.1,0.6,0c0,0,0.5,2.7,0.5,2.6c-0.3,0.2-1.6,0.1-2.7-0.1c0.4-2.3-1-1.8,0-4.2c-0.3-0.3-1.5-0.1-1.2-0.2l0,0
			c0.1-0.2,0.2-0.5,0.2-0.7c-0.7,0.3-1,0.2-0.9-0.2c0.4-0.2,0.7-0.4,1-0.6c-0.1-0.3-0.3-0.5-0.6-0.7c0.1,0,0.1-0.1,0.2-0.1
			c-0.6-0.2-1.1-0.5-1.7-0.7c0,0-0.1,0-0.2,0c0,0,0,0,0-0.1c-0.3-0.1-0.6-0.2-0.9-0.4c0.8,0.8,1.7,1.8,2,1.9c-2-0.5-2,1.6,0.2,2
			c-0.8,0-1.2,0.7-1.9,0.9c-0.7,0.3-0.8-4.1-3.8-4.2c1.4-0.8,1.4-0.7,2-1.3c-0.3-0.1-0.5-0.2-0.8-0.3c-0.5,0.4-1.1,0.7-1.1,0.6
			c0.4-0.5,0.4-0.6,0.3-1c-0.5-0.2-1-0.5-1.5-0.7c-0.5,1.2-2.5,0.7-2.1-1c1.7,0.8,1.1,0.9,1.3,0.6c-0.8-0.4-1.7-0.8-2.5-1.2
			c-0.1,0-0.2,0-0.4-0.1c0,0,0-0.1,0.1-0.1c-0.3-0.1-0.6-0.3-0.8-0.4c-0.2,0.6-0.6,1.1-1.2,1.5c0,0.1-0.1-1.9-0.2-2.1
			c0.1,0,0.2,0,0.3,0c-3.1-1.7-6-3.5-8.9-5.4c-0.5,0.8-1.2,1.7-1.3,1.8c0.1-0.8,0.4-1.5,0.9-2c-3-2-5.9-4.2-8.7-6.5
			c-0.2,0-0.4,0-0.6,0c-0.1-0.2-0.2-0.3-0.1-0.6c-1.3-1.1-2.6-2.3-3.9-3.4c-0.5,0.4-1.5-0.1-1.4-0.3c0-0.1,0.8-0.2,0.4-0.6
			c0.1,0.1,0.2,0.2,0.3,0.2c-0.1-0.1-0.2-0.2-0.4-0.3c0,0,0,0,0,0c-0.6,0.1-0.5-0.2-0.4-0.4c-1.2-1.1-2.4-2.3-3.5-3.5
			c0,0-0.1,0.1-0.1,0.1c-0.2-0.1-0.2-0.3-0.2-0.5c-1.5-1.6-3-3.3-4.4-5c-0.2,0-0.4,0.1-0.6,0.1c-0.2-0.5-0.1-0.7,0.1-0.8
			c-0.2-0.3-0.5-0.6-0.7-0.9c-0.1,0.2-0.2,0.3-0.3,0.5c-0.4,0.8-0.5-0.6,0.2-0.7c-2-2.4-3.8-4.9-5.5-7.5c-0.1,0.1-0.3,0.2-0.6,0.1
			c0-0.2,0.1-0.4,0.2-0.7c-1.9-2.9-3.7-5.8-5.3-8.8c-0.3,0.2-0.6,0.2-0.9,0.1c0.1-0.3,0.3-0.6,0.4-1c-0.8-1.5-1.5-3-2.3-4.5
			c-0.7,0.4-1.4,0.7-0.7,1.3c-2,0.2-0.3,0.7,0.4,0.9c-0.7,1.8,1.1,0.6,1.5,0.9c-1,1.8-1.3,0.1-2-0.2c-0.4,0.3-0.6,0.7-0.8,1.2
			c-1.1-0.4,0-1.8-0.9-2.4c-1.6-0.9-0.5-1.9,0.5-2.2c0,0.5,0,0.9,0,1.4c0.9-0.3,1.4-0.9,1.5-1.8c0,0,0,0.1,0.1,0.1
			c-0.1-0.3-0.3-0.6-0.4-0.8c-0.5,0.2-1.1,0.3-1.1,0.1c0.1-0.3-0.3-1.6,0.3-1.8c-0.1-0.1-0.1-0.3-0.2-0.4c-0.7,0.3-1.3,0.3-1.1,2.1
			c-1-0.5-1.3-1.3-0.8-2.3c-0.3-0.4-2.2,3-2.8,3.1c0.2-1.3,2.2-1.8,0.4-3.1c-0.2,0.2-0.4,0.4-0.6,0.6c0.1-1-1.2-3.7,1.7-1.6
			c0.7-0.8-1-3.4,0.8-3.4c-0.7,1.7,0.8,3,1.8,3.8c-0.5-1.1-0.9-2.2-1.4-3.3c0,0,0,0,0,0c-0.1-0.1-0.1-0.2-0.1-0.4
			c-0.4-1-0.7-1.9-1.1-2.9c-0.1,0.7-0.3,1.2-0.4,1.6c-0.5-1-1.6-1.8,0.2-2.1c-0.1-0.2-0.1-0.4-0.2-0.6c-0.5-0.1-0.9-0.3-1.6-0.6
			c0.3-1.2,0.8-1.1,1.2-0.6c-1-3-1.9-6-2.6-9.1c-0.3,0.2-0.6,0.4-0.8,0.4c0-0.3,0.1-0.5,0.3-0.6c0.4-1-2.3-1.4-1.6,0.8
			c-0.6,0-1.1-0.1-1.7-0.1c0.6-0.8,1.2-5.9,1-5.3c-1.6-0.7-0.6,0.5-2-0.8c-1.7,1.1,0.9,2.2,0.9,2.8c-1.1,0.5-2.4-2.3-2.3-3
			c-1-0.5-1.4,1.9-2.4-0.6c0.5,0.2,1,0.4,1.5,0.4c1.2-0.4-1.2-2.6-1.3-2.6c0.3-0.3,0.8-0.2,1.2-0.4c0-0.6,0.7-5.3,0.6-5.4
			c-0.6-0.4-1.2-0.3-1.6,0.4c-0.1-0.6-0.4-0.9-1-1c0.3-0.3,2-2.8,2.3-0.9c-0.6,0.1-1,0.3-1.2,0.9c0.7,0,1.5,0,2.2,0
			c-0.1-1-0.2-1.9-0.5-2.8c0.4,0,0.8,0,1.1,0.1c-0.2-0.4-0.3-3-0.2-2.9c2.3,0,1.3,2.2,2.4,1.1c-0.1-0.8-0.1-1.6-0.1-2.4
			c-0.2,0.4-0.6,0.7-1.1,0.7c0-0.4,0-0.8,0.2-1.1c0.3-0.1,0.6-0.1,0.9,0c0-0.3,0-0.6,0-0.9c-0.5,0.4-1,0.6-1.6,0.7
			c0.2-1,0.7-1.4,1.5-1.4c0-0.8,0-1.6,0-2.4c-0.5,0-0.9,0.1-1.3,0.4c0.4,0.2,0.5,0.4,0.3,0.9c-0.4,0-0.7-0.1-0.9-0.4
			c-0.2-0.3-0.1-0.6,0.3-0.7c0.7-0.8,1.2-1,1.6-0.7c0-2,0-3.9,0.1-5.9c-0.1,0.2-0.2,0.3-0.3,0.4c-0.2-0.4-0.2-0.7,0.3-1.1
			c0.1-1.4,0.2-2.9,0.3-4.3c-0.4-0.1-0.8-0.2-1.2-0.2c0.3-1.1,1-1.3,1.4-1.7c0-0.4,0.1-0.9,0.1-1.3c-0.1-0.2-0.2-0.4-0.3-0.7
			c0.1,0,0.3,0.1,0.4,0.1c0.2-1.3,0.4-2.7,0.6-4c-0.1,0.1-0.2,0.2-0.3,0.4c0-0.7-0.1-1.1-0.1-1.8c0.3,0.3,0.5,0.5,0.6,0.7
			c0.1-0.6,0.2-1.2,0.3-1.7c-0.2-0.1-0.3-0.3-0.3-0.6c0.1,0,0.3,0,0.4,0.1c0.1-0.5,0.2-0.9,0.3-1.4c-0.3-0.2-0.4-0.4-0.6-0.8
			c0.1,0.1,0.4,0.1,0.7,0.1c0.1-0.6,0.3-1.3,0.4-1.9c-0.3-0.1-0.5-0.1-0.8-0.2c-0.3,0.8-0.4,1.3-0.5,1.6c-0.2-1.1-0.2-2.5-1-2.9
			c0.6-0.2,1.2-0.4,1.8-0.6c0.1,0.5,0.5,0.4,0.8,0.3c0.5-2.1,1.1-4.2,1.8-6.3C19,94.2,19,94.1,18.9,94c0.1,0,0.2-0.1,0.3-0.1
			c0.5-1.8,1.1-3.5,1.8-5.2c1.5-4.1,3.2-8,5.1-11.8c0,0-0.1-0.1-0.1-0.1c0.1,0,0.1-0.1,0.2-0.1c0.2-0.4,0.4-0.7,0.6-1.1
			c-0.5-0.3-1.1-0.7-1.4-0.9c0,0.6-0.7,3.1-1.2,3.5c0,0-0.2-0.9-0.3-1.9c-0.2-0.1-0.4-0.1-0.5-0.4c0.2-0.1,0.3-0.1,0.4-0.1
			c-0.2-1.2-0.4-2.4-0.4-2.7c1.5-0.1,0.6,1.3,1.5,1.7c0.3-0.5,0.7-0.7,1.2-0.6c0.1-0.2-1.5-2.1,0.4-1.4c0.1,0.5,0.6,0.8,1.1,1.1
			c0.1-0.1,0.1-0.3,0.2-0.4c0-0.2,0.1-0.4,0.3-0.5c0.3-0.6,0.7-1.1,1-1.7c-0.4,0.3-0.9,0.5-1.2,0.8c0.4-0.8,0.8-2.5-0.6-2
			c0,0.7,0.7,0.9-0.7,1.4c-0.3-0.8-0.2-1.6,0.4-2.3c1.4,0.3,0.6,1.5,1.9-0.1c-0.8-0.6-1.4-0.6-2.5-0.7c0.1-0.3,0.3-0.5,0.4-0.8
			c0.8,0.4,1.3,0.2,1.5-0.8c0.5,0.3,1,1.4,1.7,1.5c-0.2,0.2-0.3,0.5,0,0.8c0.2,0,0.3-0.1,0.5-0.2c0.3-0.5,0.6-0.9,0.9-1.4
			c-0.6,0.1-0.7-0.6-1.1-0.7c0.7-0.2,0.8-0.2,1.3,0.4c0.9-1.5,1.9-2.9,2.9-4.3c-0.2,0-0.3,0-0.4,0.2c-0.2-0.4-0.3-0.8-0.2-1.3
			c0.3,0.3,0.6,0.5,1,0.6c3.1-4.3,6.5-8.4,10.1-12.3c-0.3-0.1-0.3-0.4-0.2-0.8c0.3,0,0.4,0.1,0.6,0.3c1.8-1.9,3.7-3.7,5.6-5.4
			c-0.1-0.1-0.2-0.2-0.3-0.4c0.4-0.1,0.7-0.2,1.1-0.3c0.9-0.8,1.8-1.6,2.7-2.3c-0.1-0.1-0.2-0.3-0.2-0.4c0-1.3,0.9-1.3,1.8-0.9
			c13.3-10.8,28.9-18.6,45.6-22.7c0-0.1,0-0.1,0-0.2c0.1,0,0.3,0,0.5,0c0.2-0.1,0.4-0.1,0.7-0.1c0.6-1.5-2.3-1.8-2.9-2
			c0.2-0.3,0.6-0.4,0.9-0.4c0.1-0.4-0.1-2.9,1.2-0.6c-2.2,0.9,3.8,0.4,4.4,0.7c0.2-1.3,0.6-1.4,0.8-2.1c-0.1,0.3-1.8-0.6-2.1-1.2
			c2.5-0.9,1.1-0.1,2.4-1.7c-0.1,1.5,1.2,1.2,1.2-0.4c0.9,1.2,0.7-0.5,1.5-0.1c0,0.3,0,0.7,0,1c0.9,0.7,1-2,1.8-0.1
			c-0.7-0.2-1.1,0.2-1.1,0.7c0.6-0.1,3.1-0.7,3.4-1.1c0.1,0.2,0.1,0.5-0.1,0.7c0.3,0.1,0.7,0.1,1,0c-0.1,0.6,0.3,2.3,0.8,0.5
			c-0.1-0.6-0.2-1.1-0.4-1.7c1.9,0.5,0.7,1.8,0.6,2.9c0.1-0.1,3.4-1.2,3.5-0.9c-0.3,0.4-0.4,0.8-0.4,1.2c0.8-0.8,2.2-1.1,3-0.8
			c0,1.2-0.5,2-1.7,2.1c0,0,0.2,0.3,0.5,0.7c0.8,0,1.5-0.1,2.3-0.1c-0.4-0.4-0.6-0.9-0.6-1.5c0.7,0,1.9,1,1,1.5c0.4,0,0.7,0,1.1,0
			c-0.3-0.6-0.5-1.4-0.1-1.9c0.3,0.7,0.8,1.3,1.1,1.9c0.8,0,1.5,0,2.3,0c1.1,0,2.3,0,3.4,0.1c-0.2-0.4-0.2-2.2-0.2-2.4
			c0.9,0.2,0.6,1.4,1.4,1.7c0.4-0.3,0.7-0.7,0.9-1.2c0.1,0.5-0.5,1.5-1.1,1.9c2.4,0.1,4.8,0.3,7.2,0.5c-0.3-0.3-0.4-0.6-0.2-1
			c0,0.1,2.3-1.5,0.3,1c0.2,0,0.5,0,0.7,0.1c0.1-0.1,0.2-0.3,0.3-0.5c0.3,0.1,0.3,0.3,0.3,0.5c0.5,0.1,1.1,0.1,1.6,0.2
			c0.1-0.2,0.2-0.4,0.2-0.7c0.3,0.2,0.4,0.5,0.4,0.8c2.1,0.3,4.2,0.6,6.3,1.1c-0.1-0.4,0-0.4,0.6-0.5c-0.1,0.3-0.5,0.2-0.6,0.5
			c0.6,0.1,1.3,0.3,1.9,0.4c0-0.2,0.1-0.4,0.2-0.6c0.3,0.2,0.3,0.4,0.1,0.6c18.1,3.9,34.9,12.3,48.9,23.9c0.3-0.1,0.7,0.1,1.2,0.5
			c-0.3-0.1-0.5,0-0.6,0c5.1,4.2,9.7,8.9,14,14c0-0.1,0.1-0.1,0.1-0.2c0.1,0.2,0.2,0.4,0.2,0.6c11.3,13.4,19.5,29.4,23.6,47.1
			c0.3-0.4,1.3-1.1,1.4-1.1c0.2,1.4,0.7,3.2-0.8,3.7c0.1,0.3,0.1,0.6,0.2,0.9c0,0.2,0.1,0.4,0.1,0.6c0.2-0.1,0.4-0.2,0.5-0.2
			c-0.2,0.2-0.3,0.4-0.5,0.6c0.4,2.1,0.7,4.2,1,6.4c0.1-0.1,0.3-0.1,0.5-0.1c0.3,1,1.2,2.7,1.3,3.7c-0.5,0.1-0.9,0.2-1.4,0.2
			c0,0,0,0,0-0.1c0.1,1.5,0.3,3,0.3,4.5c0.1,0,0.3-0.1,0.6-0.2c-0.2,0.4,0.1,0.8-0.1,1.2c-0.3-0.4-0.4-0.6-0.5-0.7
			c0,0.7,0.1,1.4,0.1,2.1c0.3,0,0.4-0.4,0.6-0.5c0.3-0.3,0.6-0.6,0.9-0.8c0.7,0.2,0,1.3-0.7,0.9c-0.3,1.2,1.5,1.2,2.1,1.5
			c-1.9,0.3-2.5,0.3-2.9-0.5c0,1.2,0.1,2.5,0,3.7c0.6-1.1,3.9,1.6,2.3,2.2c-0.7-1-0.3-0.1-1.1-0.8c0.1-0.3,0.2-0.7,0.3-1
			c-0.5,0-1,0-1.5-0.2c0,0.9,0,1.8-0.1,2.7c1.4-0.6,1.8,1,2.4,2c-0.7,0.2-0.6-1.1-1.3-0.6c0.2-0.9-0.5-0.9-1.1-1
			c0,1.2-0.1,2.5-0.2,3.7c0.2,0.2,0.4,0.4,0.5,0.6c0.4-0.9,1.1-1.4,2-1.7c2.3,2.2-1.1,1.3-0.3,3c0.4-0.1,0.7-0.2,1.1-0.2
			c-0.1,1.1-0.3,2.1-0.8,3c0.3,0.3,2-0.2,2.4-0.2c-0.1-0.5-0.4-0.8-1-0.8c0.3-0.6,0.7-0.9,1.4-0.9C246.2,139,248.5,139.9,247.1,140z
			 M25.2,179.3c-0.2,0-0.2-0.1-0.2-0.2C25,179.2,25.1,179.2,25.2,179.3z M23.5,177c0.2,0,0.1,0.1,0,0.2
			C23.6,177.1,23.6,177.1,23.5,177z M8.6,144.3c0.1-0.4,0.3-0.4,0.5-0.2C9,144.4,8.8,144.5,8.6,144.3z M27.9,72.3
			c-0.3,0.2-0.1,0.8-0.6,0.8C27.2,72.4,27.2,72.4,27.9,72.3z M30.3,68.3c0,0,0.3-0.3,0.3-0.1C30.5,68.4,30.5,68.4,30.3,68.3z
			 M244,126.2c-0.4,0.4-0.8,0.3-1.4,0.1C243.3,125.9,243.3,125.9,244,126.2z M243.2,133.7c-0.7,0-1.2-0.3-1.4-1c0.3-0.1,0.7-0.1,1,0
			C242.7,133.1,243.3,133.2,243.2,133.7z M247.1,138.1c0.2-0.2,0.4-0.8,0.8-0.2C247.6,138.3,247.3,138,247.1,138.1z M247.8,134.6
			c-0.5-0.2-0.5-0.3,0.1-0.5C248.1,134.2,248,134.4,247.8,134.6z M248.7,138.9c-0.4,0-0.5-0.2-0.4-0.6
			C248.7,138.4,248.8,138.5,248.7,138.9z"/>
		<path fill="#FFFFFF" d="M112.5,240.8c-0.1,0.7,0.2,1.3,1.1,0.9c0-0.4,0.1-0.6,0.2-0.7C113.4,240.9,113,240.9,112.5,240.8z"/>
		<path fill="#FFFFFF" d="M240.1,147.6c-0.1,0.8-0.3,1.5-0.4,2.3c1.1-0.1,2.9-0.3,3.3-1.3C241.7,148.3,241.1,147.4,240.1,147.6z"/>
		<path fill="#FFFFFF" d="M239.9,102.1c-0.2,0.3-0.4,0.5-0.8,0.5c0.1,0.6,0.3,1.1,0.4,1.7C239.9,103.8,240.5,103.4,239.9,102.1z"/>
		<path fill="#FFFFFF" d="M197.2,224.6C197.9,223.8,197.3,224.2,197.2,224.6L197.2,224.6z"/>
		<path fill="#FFFFFF" d="M27.1,74.3c0.1,0.1,0.1,0.3,0.2,0.5c0.1-0.2,0.2-0.4,0.3-0.6C27.4,74.2,27.3,74.2,27.1,74.3z"/>
		<path fill="#FFFFFF" d="M15.9,147.6c-1,0-2.3,0.6-2.6,1.1c0.5,1.5,1.8,1.5,3,1.2C16.1,149.1,16,148.4,15.9,147.6z"/>
		<path fill="#FFFFFF" d="M16.2,101c-0.6,0.6,0.3,0.9,0.8,1.3c0.1-0.4,0.2-0.8,0.3-1.2C16.9,101,16.5,101,16.2,101z"/>
		<path fill="#FFFFFF" d="M15.2,143.6c-0.1-0.5-0.1-0.9-0.2-1.4c-0.3,0.1-0.6,0.3-0.9,0.6C14.3,143.6,14.8,143.7,15.2,143.6z"/>
		<path fill="#FFFFFF" d="M14.5,137.4c0-0.3-0.1-0.7-0.1-1C14.2,136.6,14.1,136.9,14.5,137.4C14.5,137.4,14.5,137.4,14.5,137.4z"/>
		<path fill="#FFFFFF" d="M205.6,44.3c0.1,0,0.2,0,0.3,0c-0.1,0-0.2-0.1-0.3-0.1C205.5,44.2,205.6,44.2,205.6,44.3z"/>
		<path fill="#FFFFFF" d="M23.8,75.8c0,0.2,0.1,0.3,0.1,0.5c0,0,0.1,0,0.1,0.1C24,76,23.9,75.9,23.8,75.8z"/>
		<path fill="#FFFFFF" d="M105.6,239.7c0,0,0,0.1,0,0.1c-0.6,0.5-0.9,0.2-1-0.3c-1-0.2-2.1-0.4-3.1-0.7c-0.2,0.6-0.3,1.1-0.4,1.7
			c0.4,0.7,1.7-0.1,1.7-0.7c-0.2,0-1.4-0.9-0.6-0.8c0.7,0.1,3.1,2.9,3.4,0.7c0.9,0.4,0.6,1,1.5,0.3c0.1,0.1-0.3,2.9,0.5,2.6
			c0.6-0.3,1.4-1.5,1.3-2.4C107.8,240.1,106.7,239.9,105.6,239.7z"/>
		<path fill="#FFFFFF" d="M12.3,137.2c0,0-0.1,0-0.1,0C12.3,137.3,12.3,137.3,12.3,137.2z"/>
		<path fill="#FFFFFF" d="M29.2,69.6c0.3,0.3,0.4,0.6,0.4,0.8c0.2-0.3,0.4-0.6,0.5-0.9C29.9,69.4,29.6,69.4,29.2,69.6z"/>
		<path fill="#FFFFFF" d="M88.3,234.8c-0.3-0.1-0.5-0.2-0.8-0.3C87.7,234.6,88,234.8,88.3,234.8z"/>
		<path fill="#FFFFFF" d="M105.3,15.3c-1.5-0.1-1.5,1-2,1.6c0.7-0.2,1.3-0.3,2-0.4C105.4,16,105.4,15.6,105.3,15.3z"/>
		<path fill="#FFFFFF" d="M101.4,238.8c-0.3-0.1-0.6-0.2-0.9-0.2C100.8,239,101.1,239.2,101.4,238.8z"/>
		<path fill="#FFFFFF" d="M15.2,151.5c0,0.8,0.9,1.3,1.7,1.7c-0.1-0.6-0.2-1.2-0.4-1.8C16,151.1,15.2,150.8,15.2,151.5z"/>
		<path fill="#FFFFFF" d="M102.8,239.7C102.8,239.8,102.8,239.8,102.8,239.7C102.9,239.8,102.9,239.8,102.8,239.7z"/>
		<path fill="#FFFFFF" d="M107.7,16c0-0.1,0.1-0.2,0.2-0.2c0.1,0.1,0.1,0.1,0.1,0.2c0.2,0,0.4-0.1,0.7-0.1c-0.2-1-0.5-2.2-0.4-2.3
			c-0.3-0.1-0.5-0.2-0.8-0.3c-0.3,0.2-0.2,3.8-1.8,2.6c0,0.2,0,0.4,0.1,0.6C106.4,16.2,107.1,16.1,107.7,16z"/>
		<path fill="#FFFFFF" d="M120.2,14.4c-0.4-0.4-0.8-0.6-1.2-0.1c0,0.1-0.1,0.1-0.1,0.2C119.3,14.5,119.7,14.4,120.2,14.4z"/>
		<path fill="#FFFFFF" d="M113.8,15c-0.1-0.3-0.1-0.7-0.2-1c-0.4,0.2-0.6,0.6-0.7,1.1C113.2,15.1,113.5,15.1,113.8,15z"/>
	</g>
</g>
</svg>
