<?xml version="1.0" encoding="iso-8859-1"?>
<!-- Generator: Adobe Illustrator 23.0.1, SVG Export Plug-In . SVG Version: 6.00 Build 0)  -->
<svg version="1.2" baseProfile="tiny" id="Layer_1" xmlns="http://www.w3.org/2000/svg" xmlns:xlink="http://www.w3.org/1999/xlink"
	 x="0px" y="0px" viewBox="0 0 256 220" xml:space="preserve">
<g>
	<path fill="#FFFFFF" d="M25.9,123.4c-0.1-0.6-0.2-1.2-0.2-1.9c-0.5,0.5-0.8,0.9-0.9,1C25,123.3,25.4,123.4,25.9,123.4z"/>
	<path fill="#FFFFFF" d="M26.8,129.8c-0.9,0.2-0.3,0.6,0.5,1.2c-0.1-0.4-0.2-0.7-0.2-1.1C26.9,129.9,26.9,129.9,26.8,129.8z"/>
	<path fill="#FFFFFF" d="M26.1,125c-1.4,0.2-2.5,0.4-1.3,3c0-0.1,1.1,0.6,2,1.1C26.6,127.8,26.3,126.4,26.1,125z"/>
	<path fill="#FFFFFF" d="M99.7,82.8c5.1,0,2.9,3.3,5.5,6.6c0.9-0.9,4.4-0.9,2,1.7c1.7,1.3,3,2.8,2.6,5c1.7,0.1,3.2-0.4,4.5-1.5
		c-3,0.3-4.1-1.1-4.6-5.5c5.3-1.8,4.7,9.2,15.2,12.1c5.9,14.4,9,2.1,8.7,16.5c-0.5,3,0.5,5.1,3.3,6.5c0.1,0.5,0,1.1,0,1.5
		c-0.1-0.1-0.4-0.1-0.5-0.4c-1.7-1.1-5.9,7.5-6.6,8.3c0.4-2.4,2-4,2.8-6.1c-0.5-0.7-1.1-0.1-1.8-0.1c0-0.5,0.1-7.9-3-7.3
		c-0.8,0.1,1.1,10.2-0.8,12c1.7,1.1,1.2,2.4,0.8,3.7c0.7,0.5,1.3,1.1,0.7,2c1.2,1.3,0.1,3,1.2,4.4l-0.1,0.1c-0.4,0-5.1,2.6-5,2.6
		c1.5-1.7,1.7-3.8,3.2-5.3c-0.4-0.7-1.1-0.4-1.5-0.8c1.3-2.1,0.8-3.7-1.5-4.7c-0.9,0.5-1.3,7.1-1.1,8.2c-3-0.3,1.1-5-1.8-5
		c-3.3,0,1.1,4.6-3.6,3.3c-2.1,1.7-3.4,5-7.1,3.7c-0.5,0.7-0.4,1.2,0.4,1.5c-3.7,4.1-29,21.9-33.5,17.4c4.6-3.6,16-3.2,19-8.7
		c-1.7-1.2-5-0.3-6.6,0.9c-0.4-0.3-3.4-3.2-3.8-1.3c0.1,1.5,1.1,2.1,2.6,1.8l0.1,0.1c-1.5,1.3-3.3,1.3-5,2.1
		c-1.7-2.2-5.7-1.8-5.9,2.1c-0.5,0.1-1.1,0.1-1.5,0.4c-0.3,1.3-3.2,3.2-4.7,2.9c0-1.1,2-2.9-0.7-2.9c1.2-0.8,2.5-0.8,3.2-2
		c-0.1-1.2-1.1-0.5-1.7-0.7c-0.4-0.7-0.1-1.2-0.1-2.1c0.8,1.5,2.1,0.7,3.2,1.3c1.6-0.9,5.3-2.2,5.7-3.7c2.1,1.7,2.1,1.7,3,1.3
		c0-0.8-0.8-0.5-1.2-0.8c-0.9-3.7,2.8-2,4.1-2.6c0.1,0.1,0.1,0.1,0.4,0.4c-0.3,1.3,3.7,1.7,1.6-0.9c1.5-0.1,5-3.3,5.1-4.1
		c2.5-0.3,5.8-3,2.8-4.9c1.3-1.1,9.1-6.9,10-5.7c1.2-1.1,1.2-1.5-0.1-3.7c2.1-1.7-0.5-8.7-2.5-9.6c5.1-9.2-16.7-9-18.9-9.8
		c-0.8,0.7,0.1,1.1,0,1.8c-2,1.7-4.6,2.4-7.5,3c-0.1,0.5-0.5,1.1-0.8,1.5c-3.4-1.2-5.9,6.2-9.1,4.6c-2.4-7.1,16.3-12.1,13.3-16.6
		c-1.3-1.7-5,1.8-5.8,1.8l0,0c0-0.5,0.1-1.2-0.4-1.7c-1.8-0.1-1.7,2.5-3.3,2.6c-3.3-3.3-2.1-2.4-7.4,0.3c-0.4-0.1-0.1-0.7-0.7-1.1
		c-3.2,4.4-7.9,9.2-9.1,14.6c-1.3-0.8-1.3-0.8,0.4-2.4c0.4-1.8,6.1-10.5,5.4-11.5c-2,0.7-3.3,1.7-3.4,4c-2.6-0.8-1.8,3.3-4.5,2.9
		l0,0c0.5-1.7,0.8-4.6,2.9-3.7c0.5-1.7,0.4-3.7,2.1-4.5c-0.4-1.5-0.7-2.9-0.7-4.5c-1.7-1.1-4.7-0.3-6.2,1.2
		c-3.4-4.2-21.9,30.3-19.4,41.5c2.4-1.3,4.7,1.7,5.8,3.8c2.4,1.2,5.1,0,7,1.7c2.8-1.1,5.3-0.7,7.8,0c0,8.3,1.6,4.9,5.9,5.9
		c0.7,0.7-0.3,8.3,2.9,3c-1.8-0.7-2.4-4.6-1.1-6.1c1.3,0,2.8-0.7,4.4,0.1c0.1,0.5,0,1.2,0.5,1.7c-0.3,0.5-7.4,8.8,2.6,2.5
		c0-1.1,0.8-1.7,1.5-2.4c5.1,0-5.1,6.5-5.4,6.5c-2.8,2-6.3-0.4-6.9,0.4c1.1,0.8,1.5,1.7,1.2,3c-2.8,0.4-4-4.1-5.4,2.2
		c2.4,3-1.1,4.2,5.8,3.3c1.2-2.1-3-2.2-2.6-5c1.1,1.5,2.6,1.1,4,1.2c0.4,0.7-0.5,0.8-0.4,1.5c1.5,0.3,4.9,6.2,4.9,0.5
		c0.5-0.1,1.2-0.3,1.7-0.4c-0.5,0.5-0.8,1.2-0.5,2c0.7,0.5,1.8,0.4,2.6,0.5c0.3,2.2-0.7,2.9-2.9,2.1c0.5-0.4,0.9-0.8,1.5-1.2
		c0-1.6-5.5,1.3-6.3,1.2c-0.4-0.4-4-3.2-2.9,0.3c-2.1,0.5-4.4,0.5-6.6,0.4c0.4-1.1,1.3-0.5,1.7-1.1c-0.5-1.5-1.3-1.8-3-1.5
		c-0.4,0.7,0.5,1.3,0.4,2c-1.1,0.4-5.9-4.9-5.9,0.3c0.5,0.1,0.9,0.1,1.5,0.1c0.4,0.4,0.4,0.7,0.1,0.8c0,0.1-0.1,0.4-0.4,0.7
		c-2.1-2.1-4.2-2.8-6.2-4.7c-1.7,0,0,4.2-2.5,4.2c-1.8,0,0.8-2.5,0.8-2.6c-4.6-4-5.9,0.1-8,1.8c-0.4-0.1-0.8-0.1-1.5-0.4
		c1.7-3.4-8-1.7-6.3-4.4c-0.7-0.8-5.9-5-6.7-5c-0.3-3.3-4.4-1.7-4.1-4.4c0,0-0.1-0.1-0.1-0.4c-1.8-1.5-2.4-3.8-3.7-5.7
		c-0.8,0-1.2,1.2-2.1,1.3c0.1-2.1,1.8-4.4,0.1-6.5c1.2-2,1.1-2.4-1.1-2.6c-1.6,1.6,2,5-0.9,5.7c-0.1-1.2-0.7-2.2-1.6-3
		c0.9-2.4-1.3-7.5-1.3-10c0-5.9,1.5-16.7,3.3-16.1c-1.2-2.1,9.2-25,21.8-33c0-2.8,4.1-2.8,5.1-4.5c-0.4-0.8-1.1-1.3-1.8-1.2
		c3.4-1.5,3,0.9,5-4.1c6.7,1.3,16-8.3,23.3-10.2c1.2,3.2-2.1,2.2-2.1,4.9c1.7,0.7,4-0.1,5.3,1.7c0.8-0.1,0.4-1.1,0.8-1.3
		c1.2,0,2.5-0.7,3.8,0.7c0.1-0.4-0.1-8.6,3.3-5.1c1.1,1.8-1.5-0.3,0.7,2.6c-0.5,0.8-1.5,0.7-2,1.2c-0.4,3.2,5.5,1.2,6.7,2.1
		C74,77,78,91.9,77.9,91.8c0.8-0.1,1.1-0.8,1.3-1.3c1.3,0.5,2.4,0.1,3-1.1c-0.5-1.2-1.5-1.6-2.8-1.2c0.5-1.2,1.5-1.5,2.6-2.1
		c0.1,1.8,0.5,3.7,2.5,4.4c1.1-0.4,0.8-1.3,1.1-2c0.8,0.1,0.4,1.1,1.1,1.2c1.1-0.5-0.3-4,0-4.6c1.5,1.7,3,3,4.4,4.7
		c4.2-2.6,4.5,2,6.2-3.2c0.8-0.1,1.7-0.4,2.4-1.1c1.8,1.1,4.6,1.8,3,4.5c1.3,2,3.3,3.2,5.8,3.8c0-1.2,0.7-2.1,0.5-3.3
		c-1.2-0.5-1.7,0.7-2.6,0.8C104.4,86.1,104.5,85.8,99.7,82.8L99.7,82.8z M41.7,103L41.7,103c0-0.8-1.2-4-2.2-1.7
		c0.8,1.5,0.4,3-1.5,3.4c-0.5,1.2-0.1,2.6-1.3,3.4c0.1-1.2-0.4-2-1.5-2.6c-0.7,0.9-1.2,1.8-1.7,2.9c-3.2-1.7-3,3-4.5,4.4
		c-0.5,2.8-0.9,0.9-1.6,3c0.7,1.1,1.8,2,1.7,3.4c-0.8-0.4-1.3-1.1-2.1-1.2c-1.3,1.3,1.5,2.9-1.2,3.8c0.4-0.7-3.7,7-0.8,7.5
		c1.6-0.4,2.2-1.5,2.2-3c2.9,0.8,4.9-7.1,6.2-9.1c-0.5-1.7,1.2-2.1,1.7-3.7c0.9,2.5,1.8,2.8,3,0.8c-0.7-0.7-1.3-1.1-2.1-1.5
		c2.1-1.3,4-3.4,5.8-4.6c-1.2-1.7,4.6-5.5,5.5-5.5c1.6-1.7,7-9,10.2-7c0.7-1.2,2-1.2,2.6-2c-1.2-5.7-12.8,5.4-14.1,5.3
		C45,100.5,43.5,101.8,41.7,103z M1.7,143.2c0,0.4,1.2-4.2-0.8-3.3C-0.1,141.3,0.1,142.4,1.7,143.2z M49.3,169.7
		c1.2,1.3,1.2,1.3,2.4,0C50.8,168.9,50.1,168.9,49.3,169.7z M41.3,111c0.8,1.1,0.8,1.1,2.4,0.1C42.8,109.7,42.8,109.7,41.3,111z
		 M27.3,171.4c0.4,0.4,2,1.3,2,0.1C28.5,170.5,27.8,170.3,27.3,171.4z M25.4,132.6c0-1.8-2.5,0.7-0.7,0.7
		C24.9,133.2,25.3,133.2,25.4,132.6z M41.7,113.1c-0.4-0.8-0.8-0.8-1.5-0.7c-0.4,0.8,0,1.2,1.2,1.1
		C41.5,113.3,41.5,113.1,41.7,113.1z M100.7,92.8c-1.1-0.7-1.1-0.7-1.5,0.4C99.7,93.4,100.2,93.4,100.7,92.8z M22.1,95.1
		c-1.1-0.7-1.1-0.7-1.3,0.1C21.4,95.5,21.6,95.5,22.1,95.1z M11.3,160.7c-0.4-0.7-0.7-0.8-0.8-0.1C10.9,161,11.1,161,11.3,160.7z
		 M8.2,155.2c0-2.4-1.2,1.8-0.4,0.3C8,155.4,8.2,155.4,8.2,155.2z"/>
	<path fill="#FFFFFF" d="M64.9,169.4c1.2-0.8,7.4-2.2,8.7-1.1c1.2-0.1,1.2-1.3,1.7-2c0,0,3.3,0.8,3.4,0.8c0,1.1-8.6,3.3-4.6,5.3
		c-0.7,0.4-1.3,1.2-2.1,0.4c1.6-2.6-2.5-5-4.2-2.4C66.7,170.1,65.9,169.4,64.9,169.4L64.9,169.4z"/>
	<path fill="#FFFFFF" d="M132.1,143.7c2.8-2.8,4.5-14.4,4.9-18.2c0.8,0.4,1.2,0.8,1.8,1.5c-4.2,1.7-1.7,11.3-2.8,11.9
		C135.8,141.9,134.5,143.6,132.1,143.7z"/>
	<path fill="#FFFFFF" d="M111.1,152.8c0-1.8,9.5-10,10.3-9.1c-3,3-7.6,6.1-10,8.7C111.4,152.7,111.3,152.7,111.1,152.8L111.1,152.8z
		"/>
	<path fill="#FFFFFF" d="M118.5,155.7c0-1.7,1.1-3,1.5-4.5c2.6,0.1,7.9-8.4,8.4-6.5C124.6,147.5,122.6,152.5,118.5,155.7
		L118.5,155.7z"/>
	<path fill="#FFFFFF" d="M47.2,110.9c0.5,0.4,0.8,0.7,1.1,1.3c-3.4,3.4-4.5,8.2-6.5,12.7C39.4,122.9,46.1,111.9,47.2,110.9z"/>
	<path fill="#FFFFFF" d="M52.6,109.7c-3,2.8,0.1-2.9-3.3,1.3c-0.1-0.8-0.7-1.1-1.5-0.8c-3.4,4.6,7.3-10.2,5.9-6.3
		C53.8,106.1,53.5,107.7,52.6,109.7z"/>
	<path fill="#FFFFFF" d="M91.7,164.9c0.5-2.5,2.1-3.4,4.6-3c1.5-2,3.2-3.2,5.9-3.8c-2.5,0.8-3.2,2.1-2,3.7c-0.4,0.3-1.5-0.7-1.7-0.8
		C96.5,162.4,94.1,163.8,91.7,164.9z"/>
	<path fill="#FFFFFF" d="M52.1,116c0,1.1,0.1,2.1-0.5,3.2c-2.8-0.8-2.1,3.6-4.6,3.6C47.5,121,49.8,116.4,52.1,116z"/>
	<path fill="#FFFFFF" d="M65.9,112.2c0.7-1.5,1.5-1.8,2.8-0.8c0.5-0.4,0.5-1.1,0.8-1.5c0.5-0.1,1.1,0,1.5,0c0,0.1,0.1,0.4,0,0.5
		c-0.7,2.2-1.8,3.2-3.7,2.6C67.4,112.1,66.7,112.2,65.9,112.2L65.9,112.2z"/>
	<path fill="#FFFFFF" d="M83.4,74.5c-0.4,1.8,2,2.6,1.2,4.5c-1.3,0.1-2.5-0.4-3-1.8c1.1-0.7,0.5-1.5,0.4-2.4
		C82.4,74.5,82.8,74.6,83.4,74.5z"/>
	<path fill="#FFFFFF" d="M65.5,112.6c0.1,1.2,1.3,1.7,1.8,2.5c-0.5,0.9-3.2,1.1-4.4,2.2C62.4,115.6,64.2,113.5,65.5,112.6
		L65.5,112.6z"/>
	<path fill="#FFFFFF" d="M81.3,168.1c1.1-3.6,1.5-4.2,3.8-2.4c-0.4,0.7-0.8,1.3-0.8,2C83.3,168.4,82.3,167,81.3,168.1z"/>
	<path fill="#FFFFFF" d="M103.6,156c-0.8-0.4-1.7,0.5-2.6,0.4c0.7-1.3,5.1-4.4,6.9-4.5C106.6,153.5,105.2,154.8,103.6,156L103.6,156
		z"/>
	<path fill="#FFFFFF" d="M75.9,151.4c-0.7,1.3-1.1,3-3,2.6C70.9,151.5,74.5,151.1,75.9,151.4z"/>
	<path fill="#FFFFFF" d="M137,132.1c1.2,0.1,1.5,0.8,1.8,1.3c0,0.5-0.5,0.5-0.5,1.1c1.7,1.3,1.1,2.5-0.5,3.7
		C136.4,136.2,138.3,134.1,137,132.1z"/>
	<path fill="#FFFFFF" d="M113.9,157c0.8-1.1,1.1-2.2,1.1-3.6c0.7-0.5,1.2-1.2,2.1-1.5C116.5,153.6,116.9,157.6,113.9,157L113.9,157z
		"/>
	<path fill="#FFFFFF" d="M127.2,150.2c0.5-3.3,1.8-4.7,4-4.4C129.8,147,128.8,149,127.2,150.2z"/>
	<path fill="#FFFFFF" d="M104.7,159c1.8,0.1,2.5-1.2,3.7-1.8c1.2,1.2-0.4,1.7-0.7,2.5c1.1,0.8,0.4,1.5-0.1,2.4
		C107.4,161.9,104.9,159.1,104.7,159z"/>
	<path fill="#FFFFFF" d="M91,164.9c-1.1,0.4-1.8,0.7-2.5,1.5c-0.7-0.8-2.4,0-2.5-1.8c5.4,2,1.2,0.7,2.5-0.7
		C89.1,163.8,90,163.8,91,164.9z"/>
	<path fill="#FFFFFF" d="M72.6,165.9c-0.7,0-1.1-0.4-1.5-0.5c0.1-0.1,0.1-0.5,0.4-0.5c2.4-2.8,4-2.9,4.7-0.3
		C74.6,163.9,73.3,164.3,72.6,165.9z"/>
	<path fill="#FFFFFF" d="M68.8,165.7c-1.1,0.1-2,0.5-2.8-0.4c0.8-1.8,2-2.6,3.8-2.6C68.7,163.6,67.9,164.3,68.8,165.7z"/>
	<path fill="#FFFFFF" d="M41.4,73.8c2.6,0-0.7-3.8,3.2-3.6c-1.5,0.8-1.1,1.8-0.7,2.8C43.1,74.5,42.3,74.8,41.4,73.8L41.4,73.8z"/>
	<path fill="#FFFFFF" d="M53.7,155.7c-0.1-0.7,0.1-1.3,0.5-1.8c0.8,1.1,1.8,0.4,2.8,0C56.2,155.8,55.6,156.1,53.7,155.7z"/>
	<path fill="#FFFFFF" d="M79.8,79.6c0.1,0.8,0,1.3-0.1,2c-1.3,0-2-1.2-3.2-2C77.8,79.4,78.8,79.4,79.8,79.6z"/>
	<path fill="#FFFFFF" d="M135.9,121.7c0.4-1.7-0.1-3.2-1.1-4.5C138,119.3,138.3,120.8,135.9,121.7z"/>
	<path fill="#FFFFFF" d="M61.6,74.2c-0.7,0.3-4.6-0.5-4.9-1.2C58.3,72.1,60.1,72.7,61.6,74.2z"/>
	<path fill="#FFFFFF" d="M73.6,75.4c-1.6-1.3-1.5-2.8,0.4-4.1C74.3,72.8,74,74.1,73.6,75.4z"/>
	<path fill="#FFFFFF" d="M68.7,67.4c2.5-0.5,3.3,0.3,2.5,2.5C70.5,69.8,69.1,67.5,68.7,67.4z"/>
	<path fill="#FFFFFF" d="M82.4,81.6c-2.6,0,0-1.5,0.7-1.8C84.6,80.4,84.5,81.1,82.4,81.6z"/>
	<path fill="#FFFFFF" d="M58.4,151.9c-1.6,0.9-2,2.2-2.5-0.7C57.1,150.8,57.7,151,58.4,151.9z"/>
	<path fill="#FFFFFF" d="M64.6,69.9c-0.7-0.4-0.7-1.1-0.8-1.3c-0.5,0-1.3,0.5-1.5-0.7c1.2-0.5,2.1,0.1,3.3,0.1
		C65.4,69,64.9,69.4,64.6,69.9z"/>
	<path fill="#FFFFFF" d="M77.5,77.1c-0.1,0.9-2.4,2.4-2.4,0.9C75.7,77.1,76.5,76.7,77.5,77.1z"/>
	<path fill="#FFFFFF" d="M114.7,145.8c0.1,1.5-1.1,1.8-2.1,2.1C113.1,146.9,113.8,146.2,114.7,145.8z"/>
	<path fill="#FFFFFF" d="M75.5,108.7c0.1,1.1-0.5,1.8-0.4,2.8C73.8,110.4,73.8,110.1,75.5,108.7L75.5,108.7z"/>
	<path fill="#FFFFFF" d="M92,82.8c1.1-0.5,1.7-0.1,2.5,0.7C92.4,84.1,92.4,84.1,92,82.8z"/>
	<path fill="#FFFFFF" d="M91.7,160.1c-0.7,0.7-0.4,1.3-0.8,1.8c-0.7,0.1-1.1-0.1-1.5-0.5C89.9,160.6,90.6,160.5,91.7,160.1z"/>
	<path fill="#FFFFFF" d="M68.2,75c0.5-1.3,1.3-0.7,2.5-0.7C69.9,75.4,69.1,75.2,68.2,75z"/>
	<path fill="#FFFFFF" d="M119.4,96.8c1.1-2,1.1-2,2-0.8C120.9,96.4,120.2,96.7,119.4,96.8z"/>
	<path fill="#FFFFFF" d="M92.3,166.9c-0.4,0.8-0.8,1.5-1.7,1.1C91.1,166.3,91.1,166.3,92.3,166.9z"/>
	<path fill="#FFFFFF" d="M64.6,164.1c-0.4,1.2-1.1,1.5-2,1.2C63,164.4,63,164.4,64.6,164.1z"/>
	<path fill="#FFFFFF" d="M68.8,173.9c0.4-0.7,0.8-1.2,1.5-1.5C70.5,173.8,70.4,174,68.8,173.9z"/>
	<path fill="#FFFFFF" d="M60.1,70.8c0.7-0.1,1.5-1.2,2.1,0.1C61.6,71.5,60.9,71.3,60.1,70.8z"/>
	<path fill="#FFFFFF" d="M92,86.4c-1.2,0.4-1.5-0.5-2.4-0.8C91,84.9,91.4,85.4,92,86.4z"/>
	<path fill="#FFFFFF" d="M98.7,157.3c-0.4,0.7-0.7,1.1-1.3,1.2C97,156.6,97.4,156.2,98.7,157.3z"/>
	<path fill="#FFFFFF" d="M108.1,86.9c1.1,0.4,2.1,0.4,1.5,2c-0.8-0.4-1.2-1.2-1.7-1.7C108,86.9,108,86.9,108.1,86.9z"/>
	<path fill="#FFFFFF" d="M47.7,70.7c0.7-0.1,1.2-0.7,1.8-0.4C49.3,71.9,48.6,72,47.7,70.7z"/>
	<path fill="#FFFFFF" d="M64.3,167.2c-0.7,0.1-1.3-0.5-2.1-0.1C63.4,165.9,63.7,166.1,64.3,167.2z"/>
	<path fill="#FFFFFF" d="M51.9,69.4c0.5-1.2,1.3-1.5,2.4-1.2C53.5,68.6,53.1,69.5,51.9,69.4z"/>
	<path fill="#FFFFFF" d="M134.9,116.8c-0.8-1.5-0.7-2.1,0.5-2.4C135,115.2,134.5,116,134.9,116.8z"/>
	<path fill="#FFFFFF" d="M118.1,92.6c0.5-0.4,1.1-0.4,1.5,0c0.1,0.7-0.1,0.8-0.7,1.1C118.2,93.4,117.8,93,118.1,92.6z"/>
	<path fill="#FFFFFF" d="M80.1,171.3c-0.8,0.8-1.8,0.7-2.8,0.7C78.3,171.7,79.2,171.4,80.1,171.3z"/>
	<path fill="#FFFFFF" d="M113.9,157c0.1,1.1,0,1.7-1.3,1.3C113,157.8,113.5,157.4,113.9,157z"/>
	<path fill="#FFFFFF" d="M98.1,165.2c0.4-0.5,0.8-0.7,1.3-0.7C99.7,165.5,99.3,165.7,98.1,165.2z"/>
	<path fill="#FFFFFF" d="M88.1,167.4c0.5,0.7,1.1,1.3-0.4,1.7C87.5,168.4,87.4,168,88.1,167.4z"/>
	<path fill="#FFFFFF" d="M35.9,77.3c1.1-0.5,1.3-0.4,1.7,0.5C36.9,78.3,36.5,77.7,35.9,77.3z"/>
	<path fill="#FFFFFF" d="M50.5,67.8c0.1,0.5,0.4,1.1,0.5,2c-1.1-0.7-0.8-1.3-1.1-1.8C50.1,67.8,50.4,67.8,50.5,67.8z"/>
	<path fill="#FFFFFF" d="M56.4,121.7c-0.1-0.8,0.1-1.1,0.8-0.8C57.5,121.6,57.1,121.7,56.4,121.7z"/>
	<path fill="#FFFFFF" d="M60,65.1c-0.5,0.5-0.8,0.5-1.3,0.1C58.9,64.8,59.2,64.9,60,65.1z"/>
	<path fill="#FFFFFF" d="M87.3,81.6c-0.7-0.5-0.4-1.1-0.4-1.5C87.8,80.6,87.8,81.1,87.3,81.6z"/>
	<path fill="#FFFFFF" d="M88.6,83.1c0.5-0.5,1.1-0.5,1.3-0.1C89.5,83.5,89.2,83.6,88.6,83.1z"/>
	<path fill="#FFFFFF" d="M103.6,156c0.8,0.8,0.8,0.8,0.1,1.3C103.5,156.8,103.9,156.4,103.6,156L103.6,156z"/>
	<path fill="#FFFFFF" d="M64.7,156.8c0.5,0.7,0.7,1.1-0.4,1.2C64.1,157.4,64.6,157.3,64.7,156.8z"/>
	<path fill="#FFFFFF" d="M86.1,169.3c-0.5,0.7-0.8,0.7-1.3,0.5C85.2,168.9,85.6,169.3,86.1,169.3z"/>
	<path fill="#FFFFFF" d="M66.2,66.9c-0.8,0,0.3-1.7,0.3-0.4C66.7,66.7,66.6,66.9,66.2,66.9z"/>
	<path fill="#FFFFFF" d="M99.4,82.3c-0.7-0.1-1.1-0.4-0.5-1.1C99,81.5,99.3,81.9,99.4,82.3z"/>
	<path fill="#FFFFFF" d="M95.7,166.1c-0.5,0.4-1.1,0.4-1.5,0.1C94.6,165.7,95.2,165.9,95.7,166.1z"/>
	<path fill="#FFFFFF" d="M136.4,143.1c-0.1-0.8,0-0.9,0.5-0.7C137,142.5,137,142.9,136.4,143.1z"/>
	<path fill="#FFFFFF" d="M90.2,154.7c-0.1,0.5-0.7,0.7-1.2,0.7l-0.1-0.1C89.2,154.4,89.8,154.3,90.2,154.7z"/>
	<path fill="#FFFFFF" d="M59.6,166.3c0-0.1,0.1-0.4,0.4-0.1c0.5,0.3,0.5,0.5,0,0.8C59.7,166.5,59.6,166.4,59.6,166.3z"/>
	<path fill="#FFFFFF" d="M74.9,112.7c-0.1,0-0.4-0.1-0.1-0.4C74.7,111.8,76.1,112.7,74.9,112.7z"/>
	<path fill="#FFFFFF" d="M129.7,105.1c0,1.2-1.6-0.4-0.4-0.4C129.5,104.8,129.7,105,129.7,105.1z"/>
	<path fill="#FFFFFF" d="M52.6,176.7c-0.4,0.3-0.5,0.1-0.5-0.4c0.1,0,0.1-0.1,0.4-0.1C52.6,176.4,52.7,176.4,52.6,176.7z"/>
	<path fill="#FFFFFF" d="M112,159c-0.4,0.3-0.5,0.1-0.5-0.3c0-0.1,0.1-0.4,0.4-0.4C112,158.6,112.3,158.6,112,159z"/>
	<path fill="#FFFFFF" d="M110.7,153.2c-0.1,0.5-0.5,0.5-0.8,0.1C110.2,153.2,110.5,153.2,110.7,153.2z"/>
	<path fill="#FFFFFF" d="M91.6,80.3L91.6,80.3c0.3,0,0.3,0,0.5,0.3L92,80.7C91.7,80.4,91.6,80.4,91.6,80.3z"/>
	<path fill="#FFFFFF" d="M107.4,86.5c-0.1,0-0.4,0-0.5-0.1C107.3,86.1,107.4,86.2,107.4,86.5L107.4,86.5z"/>
	<path fill="#FFFFFF" d="M87.9,150.2c0.7-0.3,0.7-0.1,0.1,0.4C88.1,150.3,87.9,150.2,87.9,150.2z"/>
	<path fill="#FFFFFF" d="M80.1,171.3c0-0.1,0.1-0.4,0.4-0.4l0.1,0.1C80.4,171.3,80.3,171.3,80.1,171.3L80.1,171.3z"/>
	<path fill="#FFFFFF" d="M111.1,152.7c0,0.1-0.1,0.4-0.4,0.4l0,0C110.7,152.8,111,152.8,111.1,152.7L111.1,152.7z"/>
	<path fill="#FFFFFF" d="M41.4,73.8L41.4,73.8C41.3,73.6,41.4,73.6,41.4,73.8C41.4,73.6,41.4,73.8,41.4,73.8L41.4,73.8z"/>
	<path fill="#FFFFFF" d="M99.4,82.3c0.1,0.1,0.1,0.1,0.4,0.4C99.7,82.5,99.5,82.4,99.4,82.3L99.4,82.3z"/>
	<path fill="#FFFFFF" d="M107.6,86.5c0.1,0,0.4,0,0.5,0.1C108,86.8,107.8,86.8,107.6,86.5L107.6,86.5z"/>
	<path fill="#FFFFFF" d="M65.9,112.2c0,0.1-0.1,0.4-0.4,0.4l0,0C65.6,112.5,65.8,112.3,65.9,112.2z"/>
	<path fill="#FFFFFF" d="M88.1,150.3c-0.1,0.1-0.1,0.1-0.4,0.4c-0.1-0.1-0.1-0.1-0.4-0.4c0.1-0.1,0.1-0.1,0.4-0.4
		C87.9,150.2,88.1,150.3,88.1,150.3z"/>
	<path fill="#FFFFFF" d="M118.5,155.7L118.5,155.7c-0.1,0.1-0.1,0.1-0.1,0.1C118.4,155.7,118.5,155.7,118.5,155.7z"/>
	<path fill="#FFFFFF" d="M129.7,141.6c0.1,0,0.4,0.1,0.1,0.4C129.7,142,129.7,141.9,129.7,141.6
		C129.7,141.7,129.7,141.7,129.7,141.6z"/>
	<path fill="#FFFFFF" d="M41.7,103c0,0.1-0.1,0.4-0.1,0.5l-0.1-0.1C41.5,103.2,41.5,103.1,41.7,103z"/>
	<path fill="#FFFFFF" d="M148.7,148.3c0.1-0.4-0.1-0.7-0.1-1.1c3.2-0.8,3.4-1.5,1.8-3.7c0.3-2.8,1.1-5.3,2.5-7.6
		c0.4-1.7,1.5-6.7,2.2-9.1c0.8,0.1,1.7,0,2.4-0.4c0.4-0.8-0.5-1.1-0.7-1.7c2.2-4.6,2.8-10.4,5.5-14.2c-0.4-3.7,2.8-10.2,3.7-13.6
		c3-2.2,5.3-19,2.8-20.4c-2.1,6.3-22.7,4.6-25.2,7.6c1.7,1.7,3.8,1.3,5.8,1.2c0,0.1,0,0.4,0,0.5c-6.7,0.5-12.9,0.5-19.5-0.1
		c-1.2-2-0.4-2.9-3.7-3.6c-0.3-0.1-2.8-9.1-2.8-2.8c-2.6-2-1.1-5-2-7.3c2.6,0.5,3.4-1.3,4.1-3.3c-0.4-0.5-0.8,0-1.2-0.5
		c1.7-2.5,1.7-2.5,0.8-3.8c2.5,1.3,4,0.7,4.4-2c4-4.2,10-0.5,13.2-3.7c-1.2-1.3-2.6-1.1-4.4-0.5c0.7-1.6,12.9-3.2,12.5-2.9
		c-1.1-1.8-2.6,0.1-3.8-0.7c3.6-2.9,12-0.1,16.5-2c3.8-3.8,14-0.5,16.5-5.5c0.7,0.4,0.8,1.2,1.7,1.2c0.8-0.4,0.8-1.2,1.2-2
		c0.9,0.9,9.6,0.9,10.3-0.7c0.5,0,0.5,0.7,0.8,1.1c4.9-3.8,15.6-2.2,21.5-2.2c5.1,2.9,15.3-3,20,0.8c0.1,0.5-1.1,1.2,0.1,1.7
		c0.8-0.5,0.7-1.3,0.8-2c-0.4,0,4.9,4.9,3.3,0.9c-0.1-0.1,0-0.5-0.1-0.7c0.5,0,10.8,1.7,11.5,2.4c-0.8,1.1-2.1,0-2.8,0.7
		c-0.7,2.6,2.6,2.1,4,2.8c0.8-1.3,2-0.8,3.2-0.4c0.5,0.5,0,1.2,0.5,1.3c-0.3,0.3-4,1.6-4.5,1.6c-0.1-0.1-0.4-0.4-0.1-0.4
		c-0.7-2.4-1.7-2.9-3.2-1.8c-1.3,0.1-1.2,2.1-2.6,2c1.8,1.7,1.8,1.2,1.2,3c2.1,1.3,5.1,0,7.3,1.3c-1.6,4.4-5.9,0-7.4,3.4
		c1.2,0.5,1.5,1.5,2.1,2.4c-1.2,0-2.4,0.1-3.7,0c-0.3-1.2,0-2.1,0.8-2.9c0.4-0.7,0-1.1-0.9-1.2c-0.7,0.5-1.3,1.2-1.7,2
		c0.1,0.8,1.2,1.1,1.1,2c-1.5,0.8-1.5,0.8-0.8,2.5c-1.1-0.1-1.3,0.7-1.3,1.3c-1.1,0.1-1.8,0.4-2.8,0.4c-0.4-1.8-0.1-1.3-2.4-1.3
		c0,0.5,0.1,0.9,0.5,1.3c-0.4,0-0.8,0-1.2,0c-0.8-2.1-1.5-2.5-3.4-1.8c-0.7-0.1-0.5-1.2-1.3-1.1c-0.8,2.1-0.7,2.5,2.1,3
		c0.5-0.1-13.2-1.7-9,2.5c-0.8,0.1-1.5,0.5-2.1,0.4c-0.7-0.7,0.1-1.1,0-1.7c-2.6-1.1-21.6-2.2-22.1,0.3c0,0.9,18.9,1.5,17.8,1.2
		c-6.9,0.1-13.6,0-20.6,1.1c3.4,6.5-2.9,16.1-0.1,21.2c0,0,0,0.1,0,0.4c-0.3,2.5-0.9,4.9-1.8,7.1c2.9,3.2-3,11.2-3,14.6
		c-3.7,0.4-1.7,12.7-4.4,12.7c-0.8,1.2-1.5,2.5-2.1,3.8c0.4,0.8-2.8,2.6-2.4,4.2c-0.4,0.5-0.8,0.5-1.5,0.8c-0.5,2-1.1,4.1-1.5,6.1
		c-0.8,0.7-2,1.1-2.5,2c0,0.8,1.1,0.7,1.2,1.3c-0.4,0-0.7,0.1-1.2,0.1c-2.1,7.1-5.1,14-8.3,20.2c-0.8,0.5-1.1-0.4-1.5-0.1
		c-0.7-1.7-0.4-3.4-0.4-5.1c1.2-1.1,2.1-2.2,2.5-3.8c1.6-1.6-4,0.4-3.6,0.7c0.4-1.3,1.2-2.1,2.1-2.8c-0.1-0.4-0.5-0.5-0.4-0.8
		c9.2-7.4,0.8-3.8,1.8-5.5c-0.1,0.7,0.7,0.8,0.8,1.3c-0.5,0.5-0.8,0.8-1.7,0.5c0.8-2.1,0.5-4.2-0.8-6.2c-3-3-1.6,3.7-1.5,3.3
		c-0.8-0.1-0.8-0.1-1.8,0.4c0.5,0.5,0.1,1.3,0.4,1.8c0.5,0.4,1.1,0,1.5,0.5c-2.8,4.4-0.4,10.7-2.4,14.4c1.2,0.7,1.8,2,3.3,1.7
		c-1.2,1.6-2.1,3.3-2.8,5.1c-1.7-1.3-0.8-3.2-1.2-4.6c0.7-0.7,1.7-5.1-0.3-6.2c0-2.2,0.4-2.9-2.8-1.6c-0.7,3.2-0.5,6.1,0.5,9
		c-0.4,0.8-1.7,1.3-1.1,2.8c-0.1,0.1-0.7,0.5-1.5,0.8c1.1-2.5,0.5-5,1.5-7.5c-1.2,0.1-2.4,0.5-3.3-0.1c-0.4,0.5-0.5,1.1-0.7,1.3
		c0.4,0.7,0.8,0.4,1.3,0.7c0,0.7-0.1,1.7,1.1,2.4c-1.3,1.3-2.2,2.9-2.6,4.6c-2.4-0.9,2.1-5.1-2-5.1c0.1,4.5-1.5,7.1-4.9,7.8
		c1.2-1.3,1.8-2.6,0.1-4l0,0c0-2,2.8-3-1.3-3.6c0.1,4.2-0.9,5.9-3.3,5.3c0-0.8,0-1.8,0-2.8c1.6,0.4,1.7-0.3,0.4-2
		c0-0.7,0.8-1.5-0.4-2.1c-1.8,2.9-2,3.2-3.3,6.3c-2.1-2.9,3.6-9.4,0.9-11.2c-2.2,0.3-2.2,5.4-3.7,6.6c0.9-4.6,2.5-9.1,4.6-13.4
		c-0.4,1.3-0.5,2.6-0.3,4c2.8-1.5,5.7-12.8,3-11.1C149.1,148.2,148.8,148.2,148.7,148.3L148.7,148.3z M176.9,129.6
		c-0.5,1.5-0.5,2.8,0.1,4.4C179.4,134,181,127.9,176.9,129.6z M194.8,71.6c0-0.3,3,5.7,3,2.4C198,71.6,196.9,70.8,194.8,71.6z
		 M239,64.8c1.5,2.8,4.9,0.4,2.9-1.1C241.5,65,240,63.6,239,64.8z M131.7,84.8c1.1,0.4,1.1,0.4,2-0.8
		C132.5,83.5,132.5,83.5,131.7,84.8z M233.9,61.7c0.7,0.4,1.2,0.4,1.5-0.4C234.9,61.1,234.4,60.9,233.9,61.7z M125.5,75
		c-1.6-1.6-1.1,0.4-0.5,0.4C125.2,75.3,125.4,75.2,125.5,75z"/>
	<path fill="#FFFFFF" d="M134.6,56.6c-0.1-0.7,0-1.2-0.4-1.7c1.1-0.7,2.1-0.4,3.4-0.4C136.6,55.4,136.3,57,134.6,56.6z"/>
	<path fill="#FFFFFF" d="M138.4,88.6c1.7-0.5,3.3-0.4,4.7-0.1C141.7,89,140.1,89.5,138.4,88.6z"/>
	<path fill="#FFFFFF" d="M250.7,63.7c-0.8-0.7-0.5-1.2,0-1.8C251.3,60.3,253.2,64.1,250.7,63.7z"/>
	<path fill="#FFFFFF" d="M211.3,43.1c1.1-0.4,1.7-0.7,2.5-0.1C213.3,43.8,213.3,43.8,211.3,43.1z"/>
	<path fill="#FFFFFF" d="M124.8,59c0.7-1.7,0.7-1.8,1.7-0.8C125.9,59,125.9,59,124.8,59z"/>
	<path fill="#FFFFFF" d="M222.6,42.7c1.2,0,2-0.1,2.8,0.5C224.5,43.5,223.6,43.7,222.6,42.7z"/>
	<path fill="#FFFFFF" d="M250.5,56.1c-1.3,0-1.3-0.1-0.7-1.3C250.7,55,250.3,55.8,250.5,56.1z"/>
	<path fill="#FFFFFF" d="M121.7,66.6c0.5,0.5,0.1,0.8-0.1,1.2c-0.1,0-0.4-0.1-0.4-0.1C121,67,121.3,66.7,121.7,66.6z"/>
	<path fill="#FFFFFF" d="M126.5,61.6c-0.1,0.7-0.5,0.8-1.2,1.1C125.2,61.7,125.8,61.5,126.5,61.6z"/>
	<path fill="#FFFFFF" d="M249,46c0.7-0.5,1.2-0.5,1.5,0.1C249.9,46.4,249.4,46.3,249,46z"/>
	<path fill="#FFFFFF" d="M158.8,175.5c-0.1-0.4-0.1-0.8,0-1.2C159.6,174.8,159.4,175.2,158.8,175.5z"/>
	<path fill="#FFFFFF" d="M163.6,52.1c-0.7,0.4-1.2,0.1-1.7,0.1C162.5,51.8,162.9,52,163.6,52.1z"/>
	<path fill="#FFFFFF" d="M124.3,68.6c-0.4,0.1-0.7,0.4-1.1,0C123.9,68.2,124,68.2,124.3,68.6z"/>
	<path fill="#FFFFFF" d="M122.1,65c0.1-0.4,0.5-0.4,0.8-0.1C122.7,65.1,122.3,65.1,122.1,65z"/>
</g>
<g>
	<path fill="#FFFFFF" d="M112.1,208.8c0.1-0.2,0.2-0.4,0.3-0.5c-0.5-0.1-1-0.1-1.5-0.2C111.2,208.4,111.6,208.7,112.1,208.8z"/>
	<path fill="#FFFFFF" d="M103.8,207c0.6,0.6,1.1,1.3,1.3,2.3c1.2-0.5,0.9-1.2,0.9-1.9C105.2,207.3,104.5,207.1,103.8,207z"/>
	<path fill="#FFFFFF" d="M102.5,13.3c0.4-0.1,0.8-0.2,1.2-0.3C103.4,12.8,103,12.8,102.5,13.3z"/>
	<path fill="#FFFFFF" d="M107.2,207.6c0.1,0,0.2,0.1,0.3,0.1C107.4,207.6,107.3,207.6,107.2,207.6z"/>
	<path fill="#FFFFFF" d="M111.4,11.8c-0.2-0.4-0.3-0.9-0.5-1.4c-0.9-0.4-1.9,0.7-2.1,1.8C109.7,12.1,110.6,11.9,111.4,11.8z"/>
	<path fill="#FFFFFF" d="M115.3,11.4c-0.2-0.1-0.4-0.1-0.6-0.2c0,0.1-0.1,0.1-0.1,0.2C114.9,11.5,115.1,11.5,115.3,11.4z"/>
	<path fill="#FFFFFF" d="M107.9,12.3c-0.2-0.9-0.4-1.7-0.8-1.7c-0.9,0.9-1.5,1.6-1.8,2.2C106.2,12.6,107.1,12.5,107.9,12.3z"/>
	<path fill="#FFFFFF" d="M91.1,203.5c-0.6,0.4-1.2,0.9-1.9,0.8c1.1,1.1,3,0.8,1.7,2.7c1.4-1.6,2.8-2,3.8-2.3
		C93.5,204.3,92.3,203.9,91.1,203.5z"/>
	<path fill="#FFFFFF" d="M100.7,206.4C100.7,206.4,100.7,206.3,100.7,206.4c-0.5-0.2-1-0.3-1.5-0.5c0.2,0.5,0.4,1,0.6,1.5
		c0.8,0.4,3,0.6,3.2-0.2C102.8,207.3,100.7,206.7,100.7,206.4z"/>
	<path fill="#FFFFFF" d="M89.6,203c-0.2-0.1-0.4-0.2-0.7-0.2C89,203.4,89.3,203.3,89.6,203z"/>
	<path fill="#FFFFFF" d="M232.6,100.4c-1-2.2-3.1-3.4-4.4-5.4c-1.6-2.5-1.1-4.7-0.3-7.3c0.6-1.8,1.4-3.2,1.7-4.7l-10.5,2.1
		c1.4,5.2,2.3,10.6,2.8,16.2c0.2-0.1,0.4-0.1,0.6,0.2c-0.2,0.2-0.4,0.4-0.6,0.3c0.1,0.8,0.1,1.6,0.2,2.3c0,0.1,0,0.1,0,0.2
		c0.1,1.4,0.1,2.8,0.2,4.2c0.2-0.1,0.4,0,0.7,0.2c-0.2,0.2-0.4,0.3-0.7,0.2c0,0.4,0,0.8,0,1.2c0,1.8-0.1,3.6-0.1,5.3
		c0.2-0.1,0.5-0.1,1,0.3c1.2,0.9-1.2,1.1-0.7,2c1.7-0.4,0.6,1.6,0.2,2.4c0.4,0.5,2.5-0.3,2.1-0.7c-0.3,0-0.5-0.1-0.8-0.3
		c0-2,2.7,0.5,1.4,0.8c-1.7,1.4-1,5.2-0.1,5.5c-1.1,0.9-1.7,2,0.3,2c-0.6,2.6-3-1.8-2.3,2.2c-1.6-0.1-0.2-0.9-1.1-1.6
		c-1.4,1-2,1.9-2,4.5c-0.1,0-0.2,0-0.3-0.1c-4.3,18.5-13.8,35.1-27,48c0,0.1,0,0.1-0.2,0.2c-2.8,2.8-5.8,5.3-8.9,7.7
		c0.1,0.1,0.2,0.2,0.2,0.4c-0.3,0.3-0.3,0-0.3-0.3c-5.3,4-10.9,7.5-16.9,10.5c0.2,0.2,0.3,0.3,0.6,0.4c-0.5,0.1-0.5,0.1-0.6-0.3
		c-0.8,0.4-1.7,0.8-2.5,1.2c-0.2,0.2-0.5,0.5-0.6,0.4c0,0,0-0.1,0-0.2c-5.1,2.3-10.5,4.1-16,5.5c0,0,0,0,0,0.1c0,0-0.1,0-0.1-0.1
		c-6.2,1.5-12.6,2.5-19.1,2.8c0.1,0.1,0.1,0.3,0.2,0.3c-0.4,0.1-0.7,0-0.9-0.3c-0.7,0-1.4,0.1-2.2,0.1c0.4,0.3,0.3,0.4-0.1,0.5
		c-0.3-0.2-0.3-0.4-0.1-0.5c-0.6,0-1.1,0-1.7,0c0,0,0,0,0,0c-0.1,0.7-0.5,0.8-1.3,0.4c0,0,0.2-0.2,0.5-0.5c-1.4,0-2.9,0-4.3-0.1
		c0,0.1,0,0.2-0.1,0.3c-0.3-0.1-0.4-0.2-0.4-0.3c-0.6,0-1.1-0.1-1.7-0.1c-1,1.3,1.5,1.9,1,2.1c-0.9,0.3-2.9-1.6-2.5-2.2c0,0,0,0,0,0
		c-0.5,0.6,0.5,2.2,0.9,2.9c-9.5-5.2-4.9-2.4-11.4,1c1.9-1.9-0.4-0.5-1-1c0-0.9,0.4-1.2,1.4-1c0.8-1-6.3-4.2-4.8-0.4
		c-2-1-1.5-6.2-2.1,0.5c-1.7-1.7,0.3-5.7-3.1-3c0.7-1,0.4-1.5-0.8-1.5c0.3-0.2-1.5,3-1,3.5c0,0,0.1,0,0.1,0.1c0,0-0.1,0-0.1-0.1
		c-0.4-0.3-1.3-1.3-2.1,1.1c-0.1,0.3,0.6-6.6-2.4-4.9c1.4,0.1,1.8,1,2.2,2.1c-2.3,0.4-0.7-1.2-3.8-0.5c1.7-0.3,2-3.8,0.1-4
		c0.5-0.1,1.2-0.5,1.9-0.8c-2.1-0.8-4.1-1.6-6.1-2.5c0,0-0.1,0.1-0.1,0.1c0,0,0-0.1,0-0.1c-0.6-0.3-1.2-0.6-1.9-0.9
		c-0.4,0.1-0.8-0.1-1-0.5c-2-1-3.9-2-5.8-3.1c0.1,0.1,0.2,0.3,0.3,0.4c-0.4,0.1-0.8-0.2-0.9-0.8c-0.7-0.4-1.3-0.8-2-1.2
		c0,0.2-0.1,0.4-0.4,0.6c0-0.3,0-0.6,0-0.8c-0.9-0.6-1.8-1.1-2.7-1.7c-0.3,0.4-0.6,0.8-0.7,0.9c0.1-0.4,0.2-0.8,0.4-1.1
		c-0.7-0.5-1.3-0.9-2-1.4c-0.1,0-0.1-0.1-0.2-0.1c-0.8-0.6-1.5-1.1-2.3-1.7c-0.6,0.1-1,0.1-1.2,0.1c-0.3,0-1.2,0-2.4,0
		c0.6,1.2,0.6,2.1-1,0c-0.4,0-0.9,0-1.4,0c-0.1,0-0.2,0.1-0.2,0.1c0,0,0-0.1,0-0.1c-2.4-0.1-5.4-0.1-8.6-0.2c0.6,2.5,1,5.2,3.1,6.5
		c1.7,1.1,5,0.4,7,0.7c3.1,0.3,5.1,1.7,6.4,4.5c1,2,1.4,4.3,3.1,5.7c2.7,2.3,5.9,0.4,8.9,0.4c4.3,0,5.7,2.6,8,5.6
		c2.9,3.6,5.2,3.8,9.3,2.3c2.1-0.8,4.3-1.8,6.7-1.1c3.1,1,4.5,5,7.7,6.1c5.6,2.1,9-5.5,14.9-3.1c2.2,0.9,3.8,3.1,6,3.8
		c2.2,0.6,3.8,0.1,5.6-1.1c2.2-1.3,3.4-3.8,5.9-4.6c3-0.9,5.2,0.8,7.7,1.7c7.7,2.7,8.5-5.9,14.4-7.7c2.6-0.9,6.1,0.7,9.5,0.3
		c2.1-0.3,3-0.8,3.9-2.4c1.7-2.4,2.2-4.4,5.2-5.5c3.1-1.1,6.5,0.3,9.4-1.4c3.4-2.1,2.6-8.4,5.2-11.6c1.1-1.6,2.7-3.1,4.4-3.9
		c2.5-1.2,5.4-0.8,7.7-2.4c5.2-3.8,0.4-10.8,5.9-14.2c2.7-1.7,6.4-2.1,7.9-5.2c1.7-3.1-1.7-7.4,0.1-10.3c1.7-2.7,5.7-2.9,6.5-6.7
		c0.5-2.5-1.3-5.2-1.4-7.7c0-1.1-0.5-3.6-0.3-4.4c0.8-1.8,3.1-3.1,4.3-4.7c2.4-3.3,1-6.2-1.3-9.7
		C225.6,110.9,235.4,107.1,232.6,100.4z M224.4,103c0.3,0.3,0.1,0.4-0.3,0.3C223.9,103,224,102.9,224.4,103z M224.6,105.7
		c-0.1,0.4-0.3,0.5-0.8,0.4C223.9,105.7,224.1,105.6,224.6,105.7z M223.8,99.7c0.3,0.3-0.1,0.5-0.5,0.7
		C223.3,100.1,223.4,99.9,223.8,99.7z M220.6,90.6c0.5-0.3,0.5-0.3,1,0.4C221.2,90.7,220.8,90.6,220.6,90.6z M221.9,97.2
		c-0.3,0-0.3-0.2,0-0.4C222.2,96.9,222.3,97,221.9,97.2z M222.3,95.8c0.3,0.3,0.3,0.3,0,0.4C221.9,96.2,221.9,96.1,222.3,95.8z
		 M222.4,97.7c0.9,0.1,0.9,0.1,0.5,1.6C222.6,98.6,222.6,98.2,222.4,97.7z M222.9,103c-0.3-0.4,0.5-2,1.1-0.8
		C223.6,102.1,223.2,102.3,222.9,103z M223.8,114.2c0.1-0.3,0.3-0.3,0.7-0.3C224.1,114.7,224,114.7,223.8,114.2z M224.1,115.5
		c0.3-0.2,0.4-0.2,0.7-0.1C224.9,115.9,224.1,115.8,224.1,115.5z M225,117.9c-0.3-0.3-0.3-0.6,0-0.9
		C225.4,117.4,225.4,117.6,225,117.9z M87,204.6c0.2,0.3,0.1,0.5-0.3,0.5C86.4,204.8,86.5,204.7,87,204.6z M55.8,189.6
		c-0.3-0.3,0.5,0,0.4,0C56.1,189.6,55.9,189.7,55.8,189.6z M61.2,193.1c0.1-0.5,0.3-0.8,0.3-1.3C61.8,192.5,61.7,192.7,61.2,193.1z
		 M61,191.3c0.3-0.5,0.7,0.4,0.9-0.1C61.7,191.9,61.3,191.7,61,191.3z M63.5,193.4c-0.4-0.3,0-0.5,0.1-0.8
		C64,193,63.7,193.3,63.5,193.4z M64.7,192.9c0.3,0.1,0.3,0.3,0.4,0.3C64.9,193.4,64.7,193.4,64.7,192.9z M64.4,191.4
		c0.3-0.7,0.3-0.7,1-0.3C64.8,191.3,64.7,191.6,64.4,191.4z M65.7,194.1c0-0.3,0.3-0.3,0.4-0.4C66.1,193.9,66.1,194.2,65.7,194.1z
		 M66.3,192.7c-0.7-0.4-0.2-0.7-0.1-1.1C66.6,192.1,66.6,192.1,66.3,192.7z M67,193.1c-0.1,0-0.3,0-0.3,0
		C66.4,192.7,67.2,193.1,67,193.1z M68.7,194.1c-0.1-0.2-0.2-0.3-0.4-0.4C67.8,193.4,68.7,193.4,68.7,194.1z M69.1,196.6
		c-0.3,0-0.3-0.3-0.7-0.3C68.9,196.2,69.2,196.1,69.1,196.6z M70.2,196.5c-0.1,0.3,0.3,0.7-0.4,0.7
		C69.8,196.9,69.9,196.6,70.2,196.5z M70.5,199.4c-0.3,0.3-0.4,0.3-0.4-0.1C70.1,199,70.7,198.9,70.5,199.4z M70.7,196.4
		c0.3,0.3,0.3,0.7,0.4,1C70.7,197.2,70.5,196.9,70.7,196.4z M71.2,198.6c-0.1-0.4,0.3-1.3,0.8-1.4C72.6,197.7,71.3,199,71.2,198.6z
		 M72.6,200.6c0.1-0.3,0.3-0.1,0.4-0.1C72.9,200.7,72.8,200.8,72.6,200.6z M75,202.5c0,0.1,0.3-1.7,0.7-0.7
		C75.6,202.4,75.4,202.5,75,202.5z M76.4,200.4c0-0.3,0-0.4,0-0.8C76.9,199.7,76.9,199.9,76.4,200.4z M78,202.8
		c-0.3-0.3,0-0.5,0.3-0.7C78.5,202.5,78.2,202.7,78,202.8z M79.4,203c0.1-0.4,0.3-0.4,0.5-0.1C79.9,202.9,79.7,203,79.4,203z
		 M79.9,202.5c-0.4-0.9,0.8-1.3,1.1-0.4C80.6,202.4,80.3,202.5,79.9,202.5z M81.4,201.9c0.1-0.4-0.3-0.8,0.3-1
		C81.6,201.2,82,201.6,81.4,201.9z M83.4,204.1c0.3-0.1,0.4-0.1,0.5,0C83.6,204.3,83.4,204.3,83.4,204.1z M81.8,203.6
		c0.9-1.7,1.3-1.8,2.4-0.9C82.9,202.3,82.7,203.6,81.8,203.6z M84.4,204.7c0.4-0.1,0.5-0.4,0.5-0.9C86.2,204.5,84.8,206,84.4,204.7z
		 M84.9,201.8c-0.3-0.7,0.9,0.4,0.9,0.4C85.5,201.9,85.2,201.8,84.9,201.8z M89.3,208.6c0.1-0.3,0.3-0.1,0.4-0.1
		C89.7,208.6,89.6,208.8,89.3,208.6z M93.9,207c0.3,0,0.3,0.3,0.4,0.4C93.9,207.3,93.6,207.3,93.9,207z M94.7,208.8
		c0.4,0.3,0.9,0.3,1.2,0C95.3,209.4,94.9,209.4,94.7,208.8z M99.4,210.9c-0.1-0.1-0.3-0.3-0.4-0.4C99.4,210.4,99.5,210.5,99.4,210.9
		z M101.3,209.9c-0.3-0.4,0-0.9-0.1-1.3C102.2,209.1,101.5,209.5,101.3,209.9z M102.9,210.4c-0.3-0.3-0.1-0.4-0.1-0.7
		C103,210,103,210.2,102.9,210.4z M110.5,213.1c0.4-0.1,0.5,0.1,0.7,0.4C110.7,213.6,110.7,213.2,110.5,213.1z M113.5,212.3
		c-0.6-0.3-0.6-0.7,0-0.9C113.7,211.5,113.5,211.9,113.5,212.3z M114.3,213.3c0.3-0.1,0.3-0.1,0.7,0
		C114.6,213.8,114.5,213.7,114.3,213.3z M116.3,211.9c-0.3,0-0.3-0.8,0.4-0.5C116.5,211.6,116.3,211.8,116.3,211.9z M117.1,212.2
		c0.3-0.1,0.3-0.3,0.7-0.4C117.8,212.4,117.4,212.2,117.1,212.2z M118.2,211.6c-0.3-0.4,0-0.5,0.3-0.5
		C118.6,211.4,118.4,211.4,118.2,211.6z M119.6,210.2c0,0.3,0.1,0.7,0.1,0.9C118.8,210.7,118.8,210.3,119.6,210.2z M124.4,210.2
		c0.1-0.1,0.3-0.3,0.3-0.3C125.1,210.2,124.8,210.4,124.4,210.2z M127.9,210.2c0.1,0.3,0.1,0.7,0.3,1
		C127.8,210.9,127.3,210.7,127.9,210.2z M130.8,209.6c0.3-0.1,0.7-0.3,0.8,0.4C131.2,209.8,131,209.7,130.8,209.6z M133.2,209.9
		c0.2-0.3,0.9,0.6,0.9,0.7C134.1,210.6,133.2,210.2,133.2,209.9z M134.5,209.6c0.3-0.3,0.3-0.4,0.8-0.3
		C135.1,209.5,135.1,209.7,134.5,209.6z M136,209.6c-0.4-0.3-0.4-0.3,0.1-0.5C136.3,209.3,135.8,209.4,136,209.6z M136.4,208.8
		c0.3-0.3,0.3-0.3,0.4-0.4C137.1,208.8,136.8,208.8,136.4,208.8z M137.8,209c-0.3-0.3-0.3-0.3,0-0.7
		C137.8,208.8,137.8,208.9,137.8,209z M138.9,208.3c-0.5-0.1,0.4-0.4,0.5-0.4C139.4,208,139.2,208.1,138.9,208.3z M143.2,208.1
		c-0.1-0.7-0.1-0.7,0.5-0.7C143.7,207.9,143.6,208,143.2,208.1z M148,206.7c-0.3-0.3,0.1-0.4-0.1-0.7
		C148.5,206.2,148.5,206.4,148,206.7z M149.6,207.5c0.1,0.1,0.2,0.2,0.3,0.4C149.6,208.2,149.5,208,149.6,207.5z M150.6,206
		c-0.3-0.5,1.1-0.7,1.2,0.4C151.4,205.8,150.9,206.8,150.6,206z M152.6,205.1c0.3,0,0.3,0.3,0.4,0.3
		C152.7,205.4,152.6,205.5,152.6,205.1z M155.4,205.3c0.1-0.8,0.3-1.2,0.7-1.4C156.1,204.5,156.1,204.5,155.4,205.3z M161.2,202.4
		c-0.3,0-0.3-0.1-0.4-0.3C161.1,201.9,161.3,201.9,161.2,202.4z M162.2,203.2c-0.1-0.4,0.1-0.4,0.3-0.4
		C162.5,202.9,162.4,202.9,162.2,203.2z M162.9,202.9c0.3,0,0.3,0.3,0.4,0.3C162.9,203.4,163,203.2,162.9,202.9z M164.9,204
		c-0.7-1,0.9-0.9,1.2-0.8C165.6,203.4,165.3,203.8,164.9,204z M174,196.3c0.3,0.5,0.3,0.5-0.1,0.9
		C173.9,196.9,173.9,196.5,174,196.3z M174.1,198.3c-0.7,0.1-0.5,0.4-0.9,1C172.6,198.6,173.7,198.3,174.1,198.3z M168.4,201.8
		c-0.8-0.3,0.3-0.9,1-0.4C168.9,201.1,168.9,202,168.4,201.8z M169.7,200c-0.3-0.3-0.3-1,0.3-1.1C170.1,199.4,170.1,199.8,169.7,200
		z M170.2,199.8c0.3,0,0.3,0,0.7-0.1C170.7,200.3,170.5,200.4,170.2,199.8z M172.1,201.1C171.9,201.1,172,201.1,172.1,201.1
		C172.2,201.1,172.2,201.1,172.1,201.1z M172.2,200.9c0-0.1,0-0.3,0.1-0.4C172.4,200.8,172.3,200.8,172.2,200.9z M172.4,200.3
		c-0.4-0.3-0.9-0.3-1,0.5C170.6,199,172.9,199.3,172.4,200.3z M172.2,198.4c0-0.5,0.4-1.8,1.3-1.7
		C173.3,197.6,173,198.3,172.2,198.4z M173,199.8c0.7-0.7,1.2-1,2-0.4C174.4,199.4,173.9,199.9,173,199.8z M173.5,202.7
		c0.3,0,0.3-0.1,0.5-0.1C173.7,203.2,173.6,202.7,173.5,202.7z M174.3,202.1c0.3-0.3,0.4-0.4,0.8-0.4
		C175,202.1,174.6,201.9,174.3,202.1z M176.7,195c-0.3,0.3,0.3-1.3,0.4-1.6C177.5,194.1,177.3,194.6,176.7,195z M179.2,196.9
		c-0.3,0.3,0.8-1.3,0.5-0.9C179.9,196.6,179.5,196.6,179.2,196.9z M182.5,194.6c1-0.7,0.5,0.8,0.1,1.1
		C182.1,195.3,182.1,195,182.5,194.6z M182.9,199.1c-0.1-0.1-0.4-1.2-0.4-1.2C182.9,198,183.4,198.9,182.9,199.1z M183.7,197.3
		c-0.3-0.5,0.1-0.8,0.4-1.1C184.2,196.8,184,196.9,183.7,197.3z M189.3,187.1c-0.3,0.7-0.7,0.7-1.1,0.7
		C188.4,187.5,188.6,187.1,189.3,187.1z M186.3,186.5c0,0,0.4-0.9,0.4-0.3C186.8,187,185.9,186.6,186.3,186.5z M186.6,188.3
		c-0.4-0.3-0.4-0.4,0-0.7C186.6,187.6,187.5,188.3,186.6,188.3z M187.6,193.5c-0.8-0.8,0.1-1.7,1-1.1
		C187.8,192.6,187.6,192.9,187.6,193.5z M188.6,189.9c0.3-0.3,0.3-0.3,0.5,0.1C188.9,190.2,188.8,190.2,188.6,189.9z M189,189.4
		c-0.5-0.3-0.1-0.4,0.1-0.4C189,189.1,189,189.2,189,189.4z M189.1,188.9c0.1-0.4,0.3-0.4,0.5-0.1
		C189.6,189.1,189.3,188.8,189.1,188.9z M190.2,191c0.3,0,0.5,0.1,0.7,0.4C190.3,191.9,190.4,191.3,190.2,191z M190.7,189.7
		c0.4-0.4,0.4-0.4,0.9-0.1C191.2,189.9,191.1,189.5,190.7,189.7z M192.5,183.9c-0.5-0.1-0.5-0.3-0.1-0.7
		C192.9,183.6,192.9,183.7,192.5,183.9z M193.4,183.9c0.1-0.3,0.4-1.2,0.9-0.9C195,183.5,193.9,184.1,193.4,183.9z M194.6,184.6
		c-0.1-0.7,0.4-0.5,0.8-0.7C195.2,184.3,195,184.5,194.6,184.6z M195.3,181.5C195.4,181.5,195.4,181.5,195.3,181.5L195.3,181.5z
		 M194.5,179.7c0.9-0.3,1.8,0.1,2.5-0.7C196.7,179.7,195.9,181.1,194.5,179.7z M202.7,171.9C203.4,172.7,202.7,172.3,202.7,171.9
		L202.7,171.9z M199.5,178c0-0.7,0.4-0.4,0.8-0.4C200.2,178.1,199.8,178,199.5,178z M200.2,180.9c0.3,0,0.3,0.3,0.4,0.3
		C200.2,181.5,200.2,181.4,200.2,180.9z M200.1,176.6c0.3-0.3,0.4-0.4,0.9-0.3C200.9,177,200.5,177,200.1,176.6z M200.7,172
		c0.3-0.1,0.3-0.1,0.5,0C201.1,172.2,200.9,172.1,200.7,172z M202,171.2c-0.3-0.3-0.1-0.3,0.1-0.4C202.3,171,202.3,171.1,202,171.2z
		 M202.7,174.5c-0.1-0.3-0.3-0.5,0.3-0.7C203.1,174,203.1,174.2,202.7,174.5z M203.1,173.1c-0.3-0.3-0.1-0.4-0.1-0.7
		C203.5,172.5,203.2,172.8,203.1,173.1z M204,174.6c-0.3-0.3-0.3-0.3,0-0.5C204.4,174.3,204.3,174.5,204,174.6z M204.4,168.3
		c-0.1-0.3-0.4-0.3-0.3-0.5C204.4,167.8,204.5,168.1,204.4,168.3z M204.7,172.9c-0.3-0.4-0.3-0.7,0.1-1
		C205.2,172.4,205.1,172.7,204.7,172.9z M205.3,169c-0.3-0.3-0.3-0.5,0.1-0.7C205.4,168.7,205.3,168.9,205.3,169z M206.6,166.3
		c-0.4,0.4,0-0.5,0-0.4C206.9,166,206.7,166.1,206.6,166.3z M218.6,141.1c-0.5-0.4-0.4-0.9,0.1-1.6
		C218.9,139.8,219.1,141.3,218.6,141.1z M218.6,138.3c0.1-0.3,0.3-0.4,0.3-0.7C219.5,138.2,219.4,138.5,218.6,138.3z M219.8,142.2
		c-0.3-0.3-0.3-0.4-0.4-0.8C219.8,141.6,219.8,141.7,219.8,142.2z M220.6,139c0.5-0.4,0.9,0.9,0,0.8c0,0.1,0.1,0.1,0.1,0.2
		c-0.1,0-0.1-0.1-0.1-0.2C221.1,139.5,220.8,139.2,220.6,139z M221.2,141.9c-0.3-0.1-0.4-0.3-0.4-0.7v0c-0.2,0.1-0.3,0.1-0.1-0.2
		c0.3-0.3,0.1-0.1,0.3,0.1c0.1,0,0,0.1-0.2,0.1C221.2,141.3,221.2,141.6,221.2,141.9z M222.6,130.2c0.1,0.5-0.1,0.8-0.7,0.9
		C221.9,130.5,222.1,130.2,222.6,130.2z M221.6,133.2c-0.3-0.1-0.1-0.3,0-0.3C221.7,133,221.7,133.1,221.6,133.2z M221.7,132
		c0.7-0.3,1-0.9,1.4-0.1C222.7,132.1,222.4,132.2,221.7,132z M225.5,115.9c0.3,0.3,0.3,0.5,0,0.8
		C225.3,116.4,225.3,116.2,225.5,115.9z M225.7,118.8c0.3-0.3,0.3-0.7,0.7-0.1C226.2,118.9,225.9,118.6,225.7,118.8z M226.3,115.8
		c-0.4-0.1-0.4-0.3,0-0.4C226.6,115.5,226.6,115.6,226.3,115.8z M227.1,119.4c-0.3,0-0.4-0.3-0.3-0.5
		C227.1,119,227.2,119.1,227.1,119.4z"/>
	<path fill="#FFFFFF" d="M23.5,72.4c0,0.1-0.1,0.3-0.1,0.4c4.2-2.4,8.5-4.9,11.5-7c1.4-2.8,2.9-5.5,4.5-8.1c-0.1,0-0.1-0.1-0.2-0.1
		c0.1-0.1,0.2-0.1,0.3-0.1c4.5-7.1,9.8-13.7,15.9-19.4c-0.6-0.3-1.3-0.7-0.4-1c0.4-0.1,0.9,0.1,1.1,0.4c2.6-2.4,5.3-4.7,8.1-6.8
		c0-0.1,0.1-0.2,0.1-0.3c0,0.1,0.1,0.1,0.1,0.2c0.3-0.3,0.7-0.5,1-0.8c0,0,0,0-0.1,0c-0.3-0.1-0.3-0.3,0-0.4
		c0.2,0.1,0.3,0.2,0.2,0.3c6.3-4.5,13.1-8.3,20.4-11.3c0,0,0,0,0,0c0,0,0,0,0.1,0c2.9-1.2,5.8-2.2,8.8-3.1c0,0,0,0-0.1,0
		c0.3-0.6,0.4-0.9,0.9-0.8c0,0.3-0.1,0.5-0.1,0.6c2.1-0.6,4.3-1.2,6.4-1.7c0.4-1.6-2.8-0.1-2.3-0.8c0.1-0.3,3.5-1.5,5.1-0.3
		c-0.9-1.1-0.6-1.7,0.7-1.7c-0.7,0-1.3-0.3-1.7-1c2.4-0.8,5-3.1,5-0.5c2.7-0.5,2.7,0.4,3.5,0.9c1-0.2,1.2-1.5,0.5-2.4
		c1,0.6,1.1,2,0.4,3.1c4.7,0.7-0.8-3.2,5.2-1c-0.8,0.1-1.2,0.7-1.1,1.6c0.5,0,1.1-0.1,1.6-0.1c0-0.1,0-0.2,0-0.3
		c0.2,0,0.5,0.1,0.7,0.3c0.3,0,0.5,0,0.8,0c0-0.2,0-0.4,0.1-0.6c0.1,0.2,0.2,0.4,0.3,0.6c0.9,0,1.8,0,2.7,0c0.6,0,1.1,0,1.7,0
		c-0.1-0.2-0.2-0.5-0.3-0.7c0.4,0.3,0.5,0.4,0.5,0.7c1.5,0,3,0.1,4.4,0.2c0,0,0.1,0,0.1,0c0,0,0,0,0,0c1.3,0.1,2.5,0.2,3.8,0.3
		c0.2-0.1,0.4-0.2,0.4,0c3.1,0.3,6.1,0.8,9.1,1.4c0-0.4,0.3-0.8-0.3-1.1c0.8,0.3,0.9,0.3,0.4,1.1c0.8,0.2,1.7,0.4,2.5,0.5
		c0-0.1,0-0.2,0-0.3c0.2,0.2,0.6,0.2,0.6,0.4c12.8,3,24.6,8.5,34.9,16c-0.1-0.1,0-0.2,0.1-0.4c0.3,0.1,0.3,0.3,0,0.5
		c2,1.4,3.9,3,5.8,4.5c0.2-0.2,0.3-0.2,0.4-0.3c0.1,0.3,0.1,0.4-0.2,0.4c0.1,0.1,0.2,0.1,0.2,0.2l9.7-1.1c-2-3.6-1.8-8.3-5.6-10.3
		c-3.5-1.7-7.6,0.5-10.8-2.4c-2.7-2.5-2.3-6.9-5.7-8.9c-3.6-2.1-7.6,0.9-11.3-0.4c-3-1-4.3-1.3-6.4-4.3c-2.2-3.1-5-3.9-8.9-2.9
		c-3.1,0.9-5.9,2.7-9.3,0.8c-3.1-1.8-4.3-5.1-8.1-5.2c-3.6-0.1-5.2,3.1-8.5,4.2c-4.2,1.4-6.5-2.1-10-3.3c-6.9-2.3-9,7.4-16,5.9
		c-2.3-0.5-4.4-2-6.6-1.7c-3.5,0.3-3.8,3.1-6.3,5.1c-8.4,7-13.4-1.6-17.1,6.7c-1,2.3-2.2,4.3-4,5.6c-3.3,2.2-7.9,0.9-11,2.7
		c-2.7,1.7-2.9,4.7-3.5,7.4c-0.5,2-1.4,3.9-3.3,5.2c-2.6,1-8.4,2.5-9.5,4.3c-1.1,1.7-1.2,2.7-1.3,4.7c-0.3,3.5-0.3,6.3-3.1,8.8
		c-2,1.7-5.4,1.7-7,4C21.3,63.6,24.3,67.4,23.5,72.4z M187.8,29.5c0.3,0.3,0,0.5,0,1C187.4,29.8,187.4,29.7,187.8,29.5z M186,32
		C185.9,32,185.9,31.9,186,32C185.9,31.8,186.2,31.7,186,32z M185.7,28.1c1.1,0.7,0.3,1.2,0.1,1.8C185.5,29.3,184.8,28.7,185.7,28.1
		z M182.6,28.3c0.3,0.1,0.3,0.3,0,0.4C182.3,28.6,182.3,28.4,182.6,28.3z M182.1,29.9c0.3-0.3,0.5-0.3,0.8,0.1
		C182.7,30.2,181.4,30.6,182.1,29.9z M154.8,15.3c-0.3,0-0.3-0.3-0.4-0.3C154.7,14.9,154.8,15.1,154.8,15.3z M138.1,10.9
		c-0.2,0.3-0.2,0.4-0.4,0.8C137.6,11.4,137.4,11,138.1,10.9z M136.8,11.8c-0.3-0.1-0.4-0.3-0.4-0.8
		C136.7,11.4,137.1,11.5,136.8,11.8z M136,11c-0.3-0.3-1.1,0.1-1.3-0.8C135.3,10.5,135.9,10.2,136,11z M133.5,9.6
		c0.7-0.1-0.1,0.7-0.1,0.7C133.3,10,133.3,9.7,133.5,9.6z M131.9,9.3c0.1,0.5,0,0.5-0.3,0.4C131.6,9.5,131.7,9.5,131.9,9.3z
		 M131,9.5c-0.3,0.2-0.4-0.2-0.7-0.3C130.7,8.8,130.8,9.3,131,9.5z M128.2,8.8c0.3,0.3-0.1,0.4-0.3,0.8
		C127.7,9.1,127.9,8.9,128.2,8.8z M127.5,10.5c-0.2,0.3-0.3,0.2-0.4-0.1C127.3,10.2,127.4,10.3,127.5,10.5z M123.2,10.5
		c-0.3,0.3-0.4,0.5-0.9,0.5C121.7,10.4,123.2,10.5,123.2,10.5z M122.6,9.7c-0.4,0.8-0.4,0.8-1.4,0.7C121.6,10,122,10,122.6,9.7z
		 M119.3,9.2c0.3,0.1,0.4,0.3,0.3,0.5C119.7,9.7,118.7,9.3,119.3,9.2z M119.3,10c0.5,0.5,0.1,0.7-0.3,0.9
		C119.1,10.5,119.2,10.2,119.3,10z M118.5,9c-0.3-0.1-0.3-0.1-0.3-0.3C118.3,8.8,118.4,8.9,118.5,9z M114.9,6.6
		c-0.1,0.1-0.3,0.3-0.3,0.3C114.6,6.6,114.6,6.6,114.9,6.6z M111.1,6.3c0.3,0.7-0.1,0.8-0.5,0.7C110.7,6.7,110.9,6.4,111.1,6.3z
		 M106.3,7.3c-0.3,0.3-0.3,0.5-0.4,0.9C105.8,7.7,105.6,7.5,106.3,7.3z M103.7,11.4c-0.3,0.5-0.5,0-1,0
		C103,10.9,103,10.9,103.7,11.4z M100,9.8c0.3,0.3,0.1,0.4,0,0.5C99.9,10.2,99.8,10.1,100,9.8z M96,10.9c-0.3,0.5-0.8,0.3-1.1,0.7
		C95.2,10.7,95.2,10.7,96,10.9z M94.2,12.6c0.1,0.3-0.1,0.4-0.3,0.7C93.6,13,93.9,12.7,94.2,12.6z M89,16.1c0.2-0.3,0.4-0.3,0.5,0
		C89.3,16.5,89.1,16.5,89,16.1z M89.7,14c-0.7-0.1-0.7-0.4-0.8-1C89.6,13.2,89.7,13.5,89.7,14z M64.7,28.3c0.3,0.3,0.3,0.4-0.3,0.4
		C64.4,28.5,64.5,28.4,64.7,28.3z M60.2,33.2c0.2-0.3,0.3-0.3,0.4-0.1C60.5,33.1,60.3,33.1,60.2,33.2z M61.5,31.1
		c-0.4-0.3-0.4-0.3,0-0.4C61.7,31,61.7,31.1,61.5,31.1z M62.3,30.7c-0.3,0-0.4,0-0.7,0C61.7,30.4,61.9,30.5,62.3,30.7z M61.4,28.5
		c0.3,0,0.3,0.9-0.4,0.5C61,28.9,61.2,28.6,61.4,28.5z M61.2,31.9c-0.7,0.1-1.1,0-1.3-0.5C60.6,31,60.6,31.7,61.2,31.9z M58.2,31.4
		c0.1,0.3-0.3,0.7,0,0.9C57.8,31.9,57.5,31.7,58.2,31.4z M56.7,33.1c0.3,0.5,0.3,0.5-0.1,0.8C56.3,33.5,56.7,33.3,56.7,33.1z
		 M55.8,33.7c0.3,0.3,0.1,0.3-0.1,0.4C55.8,33.9,55.8,33.8,55.8,33.7z M54,37.4c0.4,0.5,0.3,1,0.3,1.6C53.5,38.4,53.5,38.2,54,37.4z
		 M54,37.1c-0.1-0.3-0.1-0.5,0.1-0.8C54.7,36.2,54,37.2,54,37.1z M54.3,35c-1,0.9-1.4-0.2-1.4-1C53.4,35.4,53.4,34.4,54.3,35z
		 M49.8,41.3c-0.4-0.1-0.3-0.4-0.1-0.3C50.2,41.2,49.9,41.6,49.8,41.3z M50.5,42.1c-0.1-0.2-0.1-0.3-0.1-0.3S50.6,41.6,50.5,42.1z
		 M50.2,36.7c0.1,0.3,0.1,0.5-0.1,0.8C49.8,37.1,49.8,37,50.2,36.7z M49.9,38.1c-0.3,0.7-0.5,1-0.7,1.4
		C48.8,38.8,48.8,38.7,49.9,38.1z M48.6,43c-0.3,0.7-0.3,0.7-1.1,0.1C47.9,42.7,48.2,42.7,48.6,43z M44.6,41.9
		c-0.1,0.3,0.3,0.8-0.4,0.9c0,1.1,0,0.3-0.5,0.3c0.2-0.1,0.3-0.2,0.5-0.3C44.2,42.5,44.1,42.2,44.6,41.9z M44.5,44.9
		c-0.9,0.3-1.4-0.3-1.7-1C43.3,44.4,44.2,44,44.5,44.9z M40.3,44.4c0.1,0.2,0.1,0.3,0.2,0.3c0.2,0,0.3,0,0.3,0.1
		c-0.1,0-0.2,0-0.3-0.1C40.3,44.7,40,44.6,40.3,44.4z M40,56.3c-0.3,0.9-1,0.3-1.3,0.5C38.8,55.9,39.5,56.4,40,56.3z M39.1,47.2
		c-0.7,0-0.4-0.4-0.8-0.8C39.1,46.5,38.8,47,39.1,47.2z M38.7,49.8c-0.3,0.1-0.3-0.2-0.4-0.3C38.6,49.4,38.8,49.5,38.7,49.8z
		 M38.1,53.5c0.1,0.3,0.1,0.3-0.1,0.4C38.1,53.8,38.1,53.6,38.1,53.5z M37.9,53.9c0.1,0.3,0.5,0.7-0.3,0.7
		C37.8,54.3,37.8,54.2,37.9,53.9z M37.3,49.5c-0.1,0.3-0.3,0.3-0.8,0.4C36.9,49.6,36.9,49.3,37.3,49.5z M35.1,61.8
		c-0.1-0.3,0.2-0.6,0.5-1C36.1,61.5,35.9,61.8,35.1,61.8z M35.8,57.6c0.1,0.2-0.5,1-0.7,1.3C34.4,58.4,35.1,57.7,35.8,57.6z
		 M35.7,50.7c-0.4,0.3-0.7-0.3-1,0C35.1,50.4,35.1,50.4,35.7,50.7z M34.9,54.5c0.1,0.3,0.3,0.4-0.3,0.5
		C34.7,54.8,34.7,54.7,34.9,54.5z M33.5,65.4c0.4-0.3,0.4-0.1,0.5,0.3C33.8,65.5,33.6,65.5,33.5,65.4z M33,61.8c0.1,0-0.9,0.5-0.5,0
		C34.3,58.9,34.3,64.8,33,61.8z M33.2,57c-0.3,0.1-0.5-0.1-0.8-0.1C32.7,56.8,33,56.8,33.2,57z M33,66.5c-0.1,0.5-0.3,0.6-0.7,0.3
		C31.9,66.2,33,66.4,33,66.5z M32.2,59.2c-0.3,0.1-0.3,0.3-0.5,0.3C31.8,59.2,31.8,59.2,32.2,59.2z M31.7,60.3
		c0.1,0.3,0.3,0.5,0,0.7C31.5,60.7,31.4,60.5,31.7,60.3z"/>
	<path fill="#FFFFFF" d="M52.7,57.9c16-21.5,41.7-35.4,70.5-35.4c17.6,0,34.1,5.2,47.8,14.2l8.7-0.9c-15.7-11.9-35.2-18.9-56.3-18.9
		c-32.8,0-61.6,17-78.3,42.6C47.3,58.8,50,58.3,52.7,57.9z"/>
	<path fill="#FFFFFF" d="M208.1,87.5c2,7.3,3,15,3,23c0,48.5-39.4,87.9-87.9,87.9c-16,0-31-4.3-43.9-11.7c-2.5,0.4-5.2,0.8-7.7,1.1
		c14.8,9.9,32.7,15.7,51.9,15.7c51.6,0,93.3-41.9,93.3-93.3c0-8.2-1.1-16.2-3.1-23.8L208.1,87.5z M192.1,171.9
		c-0.3-0.3-0.3-0.4,0.1-0.5C192.5,171.7,192.5,171.7,192.1,171.9z"/>
</g>
</svg>
