<?xml version="1.0" encoding="iso-8859-1"?>
<!-- Generator: Adobe Illustrator 23.0.1, SVG Export Plug-In . SVG Version: 6.00 Build 0)  -->
<svg version="1.2" baseProfile="tiny" id="Layer_1" xmlns="http://www.w3.org/2000/svg" xmlns:xlink="http://www.w3.org/1999/xlink"
	 x="0px" y="0px" viewBox="0 0 142.9 126" xml:space="preserve">
<g>
	<g>
		<g>
			<linearGradient id="SVGID_1_" gradientUnits="userSpaceOnUse" x1="32.4788" y1="-5.5868" x2="170.1002" y2="114.9958">
				<stop  offset="2.717173e-07" style="stop-color:#DC9457"/>
				<stop  offset="1" style="stop-color:#B4705D"/>
			</linearGradient>
			<path fill="url(#SVGID_1_)" d="M18.6,30.3c15.1,12.1,41.7,33.4,49.5,40c1,0.9,2.2,1.4,3.3,1.4c1.2,0,2.3-0.5,3.3-1.3
				c7.8-6.6,34.4-27.9,49.5-40c0.9-0.8,1.1-2.1,0.3-3c-1.8-2.1-4.4-3.3-7.2-3.3H25.5c-2.8,0-5.4,1.2-7.2,3.3
				C17.6,28.2,17.7,29.5,18.6,30.3z"/>
			<linearGradient id="SVGID_2_" gradientUnits="userSpaceOnUse" x1="13.1117" y1="16.3792" x2="148.2731" y2="134.8063">
				<stop  offset="2.717173e-07" style="stop-color:#DC9457"/>
				<stop  offset="1" style="stop-color:#B4705D"/>
			</linearGradient>
			<path fill="url(#SVGID_2_)" d="M125.3,36.8c-0.8-0.4-1.8-0.2-2.4,0.3C106,50.6,84.6,67.8,77.9,73.6c-3.8,3.2-9,3.2-12.8,0
				c-7.2-6.1-31.2-25.4-44.9-36.4c-0.7-0.5-1.6-0.7-2.4-0.3c-0.8,0.4-1.3,1.1-1.3,2v54.6c0,4.8,4.1,8.7,9.2,8.7h91.9
				c5.1,0,9.2-3.9,9.2-8.7V38.8C126.6,38,126.1,37.2,125.3,36.8z"/>
		</g>
	</g>
</g>
</svg>
