<?xml version="1.0" encoding="iso-8859-1"?>
<!-- Generator: Adobe Illustrator 23.0.1, SVG Export Plug-In . SVG Version: 6.00 Build 0)  -->
<svg version="1.2" baseProfile="tiny" id="Capa_1" xmlns="http://www.w3.org/2000/svg" xmlns:xlink="http://www.w3.org/1999/xlink"
	 x="0px" y="0px" viewBox="0 0 135.5 126" xml:space="preserve">
<linearGradient id="SVGID_1_" gradientUnits="userSpaceOnUse" x1="19.5293" y1="-12.966" x2="151.6171" y2="139.0847">
	<stop  offset="2.717173e-07" style="stop-color:#DC9457"/>
	<stop  offset="1" style="stop-color:#B4705D"/>
</linearGradient>
<path fill="url(#SVGID_1_)" d="M135.3,37.6C133.3,15.8,117.9,0,98.6,0C85.8,0,74,6.9,67.4,18C60.8,6.8,49.5,0,36.9,0
	C17.6,0,2.2,15.8,0.2,37.6c-0.2,1-0.8,6,1.2,14.3c2.8,11.9,9.3,22.7,18.8,31.3L67.4,126l48-42.8c9.5-8.6,16-19.4,18.8-31.3
	C136.1,43.6,135.4,38.5,135.3,37.6z M41.7,21.1c-11.5,0-20.9,9.4-20.9,20.9c0,1.4-1.2,2.6-2.6,2.6c-1.4,0-2.6-1.2-2.6-2.6
	c0-14.4,11.7-26.1,26.1-26.1c1.4,0,2.6,1.2,2.6,2.6S43.1,21.1,41.7,21.1z"/>
</svg>
