<?xml version="1.0" encoding="iso-8859-1"?>
<!-- Generator: Adobe Illustrator 23.0.1, SVG Export Plug-In . SVG Version: 6.00 Build 0)  -->
<svg version="1.2" baseProfile="tiny" id="Layer_1" xmlns="http://www.w3.org/2000/svg" xmlns:xlink="http://www.w3.org/1999/xlink"
	 x="0px" y="0px" viewBox="0 0 256 136.2" xml:space="preserve">
<g>
	<path fill="#B82205" d="M100.8,38c5.6,0,2.7,2.9,5.5,6.6c1.6-1.6,3.8,0.1,2,1.7c1.7,1.4,3.1,2.8,2.7,5c2.6,0.9,4.2-1.2,3.9-2.7
		c0.1,0.5-3.7-3.9-3.9-4.4c7.9,0,3.4,4.3,7.3,8.4c2,2.2,0.8-0.5,4.2,1.2c1.7,0.8,1.8,2.5,3.8,2.7c0,4.6,6.4,6,8,9.5
		c1.3,2.7-0.7,5.1,0.8,7.2c-0.5,3.1,0.5,5.2,3.3,6.5c0.1,0.5,0,1,0,1.5c-0.5-0.5-1.2-0.8-1.9-0.8c-1,0.6-4,7.4-5.4,8.9
		c0.4-2.3,2-4.1,2.8-6.3c-0.5-0.6-1-0.1-1.8-0.1c0.1-1.6-1.4-10.5-3.5-6.2c-1.6,3.2,3.7,7.5-0.2,11c1.7,1,1.2,2.3,0.9,3.7
		c0.6,0.5,1.4,1,0.6,2c1.2,1.4,0.1,3.1,1.2,4.3l-0.1,0.1c-1.8,0,0-1.9-2.4-0.8c-0.8,0.4-0.4,4.3-3,3.5c1.5-1.7,1.7-3.8,3.2-5.4
		c-0.4-0.6-1-0.4-1.5-0.9c1.4-2.2,0.9-3.7-1.5-4.9c-1.5,0.7-1.5,6.9-1.2,8.4c-2.6-0.2,0.1-6.9-2.6-4.4c-2.3,2.1,1.4,4.6-2.8,2.5
		c-2.2,1.7-3.6,5-7.3,3.7c-0.5,0.6-0.4,1.2,0.4,1.5c-4.1,5-10.1,8.3-15.8,11c-2.9,1.4-15.5,9-17.9,6.6c2.4-1.8,6.3-2,9-3.1
		c2.7-1.2,9-3.1,10.4-5.7c-1.7-1.1-5.3-0.5-6.8,1l0.1,0.3c-2-4.5-6.4,1.7-1,0.8l0.1,0.1c-1.5,1.4-3.3,1.4-5,2.2
		c-2.2-2.5-5.7-1.2-6.1,2c-0.5,0.1-1,0.1-1.5,0.4c-0.3,1.3-3.1,3-4.6,2.8c0-1.3,1.7-2.8-0.8-2.8c1.2-0.5,2.3-1.2,3.2-2
		c-0.3-0.7-0.9-1-1.7-0.6c-0.4-0.6-0.1-1.2-0.1-2.2c0.9,1.5,2.2,0.6,3.2,1.4c0.8-0.5,1.7-1.8,2.5-2.3c1.9-1.3,2.2,2.6,3.3-1.4
		c2.2,1.7,2.2,1.7,3.1,1.4c0-1.1-2-1-0.6-3c1.1-1.6,1.8,0,3.5-0.6c0.1,0.1,0.1,0.1,0.4,0.4c-0.3,1.4,3.6,1.6,1.7-0.9
		c1.9-0.1,1.3-2.6,2.8-3.2c1.9,0.3,1.8,2.1,2.3-1c2.6-0.3,5.8-3.2,2.8-5.1c2.3-1.7,4.6-2.5,6.9-3.8c1.1-0.6,1-4.8,3-2
		c1.2-1,1.2-1.5-0.1-3.7c1.9-1.4-0.6-9-2.7-9.8c2.1-3.8-4.6-7.7-6.6-8.3c-4.1-1.2-8.4-0.6-12.4-1.4c-0.9,0.6,0.1,1,0,1.8
		c-2,1.7-4.7,2.3-7.5,3.1c-0.1,0.5-0.5,1-0.9,1.5c-3.3-1.1-6.5,6.1-9.2,4.7c-1.2-3.7,2.6-7.4,5.5-9c0.8-0.4,2.4,0.3,3-0.2
		c1.3-1.1,1.3-2.9,2.5-4.1c0.8-0.9,5.6-1.8,2.1-3.9c-0.9-0.5-4.9,2.2-5.3,2.2l0,0c0-0.5,0.1-1.2-0.4-1.7c-1.8-0.1-1.7,2.6-3.3,2.7
		c-1.2-1.2,1.4-2.1-1.5-2.9c-1.5-0.4-4.8,2-5.9,3.1c-0.4-0.1-0.1-0.6-0.6-1c-3.1,4.3-8,9.6-9.2,14.8c-1.4-0.9-1.4-0.9,0.4-2.3
		c0.3-1.7,0.4-3.7,1.8-5.5c1.1-1.5,5.5-4.1,3.7-6.2c-2,0.6-3.3,1.7-3.6,4.1c-2.8-0.8-2,3.5-4.6,2.8l0,0c0.5-1.5,0.7-4.5,2.8-3.7
		c0.5-1.7,0.4-3.7,2.2-4.5c-1-1.6-0.2-2.8-0.6-4.5c-1.7-1-5-0.6-6.1,1.2c-2.8,0.6-3,1.8-5,5.1c-2.8,4.5-5.8,8.8-8.6,13.3
		c-1.9,3-3.6,6.3-4.6,9.8c-1.3,4.4,0.2,9.9-1.4,14c2.4,0.5,4.5,2.6,5.9,3.3c1.4,0.7,5.5,0.8,7,2.1c2.8-1,5.4-0.6,7.9,0
		c0,3.7-1,1.7,0.9,5c0.2,0.4,0.3,2.7,0.9,2.9c1.7,0.5,2.5-2.2,4-1.9c0,0,0.6,8.7,2.8,3.1c-2-0.7-2.3-4.7-1.2-6.3
		c1.4,0,2.8-0.6,4.3,0.1c0.1,0.5,0,1.2,0.5,1.7c-0.9,1.6-3.5-1.1-2.9,2.7c0.5,3,3.9,0.8,5.8-0.2c0-1,0.9-1.7,1.5-2.3
		c4.1,0-0.2,5.3-1.5,5.9c-1.9,0.9-3.8-2.8-4,0.7c-0.8,0.7-3.1,1.9-4.2,1.9c-1.2,0-0.6-1.7-0.7-1.7c-1.9,0.2-2,0-0.8,3.1
		c-2.8,0.4-3.5-3.6-5.4,2.2c0.4,0.5,1.2,0.3,1.5,1c0.3,0.6-2,1.8-1.3,2.4c1.7,1.4,3.8,0.2,5.8-0.1c1-1.8-3.2-2.4-2.7-5.1
		c1,1.5,2.7,1,4.1,1.2c0.4,0.6-0.5,0.9-0.4,1.5c1.5,0.2,4.9,6.4,4.9,0.5c0.5-0.2,1.1-0.4,1.7-0.4c-2.1,2.1,0.7,2.3,2.2,2.6
		c1.2,2.1-1.4,3-2.9,2.2c0.1-0.5,1.2-0.8,1.5-1.2c0-1.6-5.7,1.2-6.4,1.3c0.7,0-4.2-3.6-3.1,0.1c-2.2,0.5-4.3,0.5-6.8,0.4
		c0.4-1,1.4-0.5,1.7-1c-0.5-1.5-1.4-1.8-3.1-1.5c-0.4,0.6,0.5,1.4,0.4,2c-1.1,0.4-5.9-4.9-5.9,0.4c0.5,0.1,1,0.2,1.5,0.1
		c0.4,0.4,0.4,0.6,0.1,0.9c0,0.1-0.1,0.4-0.4,0.6c-1.4-1.4-4.1-0.6-5.1-1.6c-0.9-0.9-0.3-2.3-1.2-3.2c-1.9,0,0.1,4.5-2.7,4.5
		c-1.9,0,0.9-2.7,0.9-2.7c-2.1-1.9-4.2-1.6-5.9-0.6c-1.6,0.8-0.8,1.2-2.3,2.4c-0.4-0.1-0.9-0.1-1.5-0.4c1.7-3.7-8.2-1.6-6.4-4.3
		c-0.4-0.6-3.2-2.5-3.6-2.8c-1.1-0.8-1-2.4-3.3-2.4c-0.2-2.8-4.2-2.1-4-4.3c0,0-0.1-0.1-0.1-0.4c-1.8-1.5-2.3-3.8-3.7-5.8
		c-0.9,0-1.2,1.2-2.2,1.4c0.1-2.2,1.8-4.3,0.1-6.5c1-2,0.9-2.4-1.2-2.8c-1.6,1.6,2,5.4-0.9,5.8c-0.2-1.2-0.6-2.2-1.5-3.1
		c1-2.7-1.3-9.2-1.4-12.3C0,89.2,2.2,84.6,3.8,79.8c1-3,2.8-6.3,4.3-9.5c1.2-2.5,2-3.1,3.2-5.1c3.1-4.8,7.7-16.5,14.1-18.1
		c0-3.3,4.5-2.7,5.2-4.5c-0.4-0.9-1-1.4-1.8-1.2c3-1.3,3.6-0.7,5-4.2c3.5,0.7,5.9-2.4,9.6-3.6c5.3-1.7,8.4-5.5,13.7-6.8
		c1,2.9-2,2.5-2,4.9c1.7,0.6,4.1-0.1,5.4,1.7c1.5-0.2,2.1-3.4,4.7-0.8c1.3-5.2,1.4-7.7,4-2.6c-0.5,0.9-1.5,0.6-2,1.2
		c-0.4,3.2,5.3,0.8,6.9,2c-1.2,2.7,3.7,4.3,4.2,6.5c0.6,2.8-2.4,4.6,0.5,6.9c0.9-0.1,1-0.9,1.4-1.4c2.5-0.5,4.9-2.2,0.4-2.2
		c0.5-1.2,1.5-1.5,2.7-2.2c0.2,2.4,2.8,6.4,3.6,2.3c0.4,0.3,0.8,0.7,1,1.2c3.1-1.5-0.9-2.7-1.3-3.7c0.4-0.4,0.9-0.7,1.4-1
		c1.5,1.7,3.1,3.1,4.3,4.9c3.8-2.4,4.6,1.8,6.3-3.2c0.9-0.1,1.7-0.4,2.3-1c2.1,1.3,4.8,1.7,3.1,4.6c1.4,2,3.3,3.2,5.9,3.8
		c0-1.2,0.6-2.2,0.5-3.3c-1.2-0.5-1.7,0.6-2.7,0.9C105.8,41.4,105.3,40.8,100.8,38L100.8,38z M42,58.4L42,58.4
		c0-1.6-0.8-4.2-2.4-1.7c0.9,1.5,0.4,3.1-1.5,3.6c-0.5,1.2-0.1,2.7-1.4,3.6c-0.8-0.8,0.5-2.6-1.5-2.7c-1.4-0.1-0.9,2-1.7,2.8
		c-3.2-1.8-3,3.1-4.6,4.5c-0.4,2-0.9,1.3-1.7,3.1c0.6,1,1.8,2,1.7,3.6c-0.9-0.4-1.4-1-2.2-1.2c-1.3,1.3,1.3,2.8-1.2,3.8
		c-0.3,1-2.8,5.9-1.5,7.1c1.9,1.7,2.6-1,2.9-2.5c3.4,0.8,4-7.2,6.4-9.1c-0.5-1.7,1.2-2.2,1.7-3.7c0.6,1.7,2.2,3.3,3.1,0.8
		c-0.4-1-1.5-0.6-2.2-1.5c1.5-1,1.5-2.3,2.8-3.3c1.2-0.9,1.9-0.7,2.9-1.3c-1-1.8,4.4-5.8,5.8-5.8c1.2-2.2,7.7-8.5,10.2-7.2
		c0.6-1.2,2-1.2,2.7-2c-1.2-5.9-13.2,5.5-14.3,5.4C44.6,56.3,43.8,57.4,42,58.4z M1.5,99.2c0-0.6,0.6-3.1,0-3.5
		C0.3,95-0.9,99.2,1.5,99.2z M49.8,126.2c1.2,1.4,1.2,1.4,2.3,0C51.3,125.3,50.5,125.3,49.8,126.2z M41.4,66.6c0.9,1,0.9,1,2.3,0.1
		C43.2,65.4,43.2,65.4,41.4,66.6z M27.4,127.9c1.9,1.9,2.8-0.8,0.6-0.8C27.8,127.4,27.5,127.4,27.4,127.9z M102.2,107.5
		c-0.5-1.1-2.1-1.1-1.8-0.4C100.8,108,101.3,108.2,102.2,107.5z M101.9,46c-0.5-0.6-1.1-0.8-1.8-0.4C99.7,46.1,101.1,47.3,101.9,46z
		 M25.6,88.5c0-1.8-2.5,0.6-0.6,0.6C25.1,89,25.3,89,25.6,88.5z M42,68.7c-0.3-0.8-0.8-1-1.5-0.6c-0.9,0.9,1,1,1.3,1
		C41.8,68.8,41.8,68.7,42,68.7z M101.8,48.2c-1-0.6-1-0.6-1.5,0.4C100.8,48.7,101.3,48.7,101.8,48.2z M9.9,113.7
		C9,114.1,9,114.5,9.7,115C10.7,115.2,10.3,113.7,9.9,113.7z M22.1,50.4c-1-0.6-1-0.6-1.4,0.1C21.4,50.9,21.6,50.9,22.1,50.4z
		 M12.4,63.8c-0.4-0.6-0.7-0.5-1,0.1C11.8,64.5,12.1,64.5,12.4,63.8z M72.5,37.7c0.6-0.5,0.5-0.8-0.1-1
		C71.8,37.1,71.9,37.4,72.5,37.7z M32.1,83.1c-0.7,0.3-0.7,0.7,0,1C32.6,83.8,32.6,83.5,32.1,83.1z M11.3,117.1
		c0-0.7-0.6-0.5-0.9-0.3C10.8,117.3,10.9,117.3,11.3,117.1z M74.6,38.6c-0.6,0.3-0.7,0.6-0.1,0.9C74.9,39.5,75.3,38.6,74.6,38.6z
		 M8.1,111.4c0-2.3-1.1,1.8-0.4,0.3C7.9,111.8,8.1,111.8,8.1,111.4z"/>
	<path fill="#B82205" d="M65.5,125.8c1.6-1,7.3-2.2,8.7-1c1.5-0.2,1.3-1.5,2.7-1.7c-0.4,0.1,2.4,0.5,2.3,0.4c0,1.3-8.9,3.2-4.7,5.2
		c-0.6,0.4-1.4,1.2-2.2,0.4c1.7-2.7-2.7-5-4.5-2.4C67.4,126.5,66.5,125.8,65.5,125.8L65.5,125.8z"/>
	<path fill="#B82205" d="M133.8,99.7c1.9-1.9,2.4-4.4,2.7-6.8c0.2-1.6-0.4-3.3,0-5c0.5-2.3,2.2-4.2,2.4-6.7c0.9,0.4,1.2,0.9,1.8,1.5
		C137.8,83.9,137.3,101.9,133.8,99.7z"/>
	<path fill="#B82205" d="M112.4,109.1c0-5.3,1.3-1.8,3.8-3.4c0.9-0.6,5.2-7.5,6.6-5.8c-1.6,1.6-2.8,4.7-4.4,6
		c-1.9,1.5-4.2,1.1-5.7,3C112.8,108.8,112.5,108.8,112.4,109.1L112.4,109.1z"/>
	<path fill="#B82205" d="M119.9,111.9c0-1.7,1-3.1,1.5-4.5c2.3,0.1,7.9-8.7,8.7-6.5C126.3,103.8,124.1,108.8,119.9,111.9
		L119.9,111.9z"/>
	<path fill="#B82205" d="M47.6,66.5c0.5,0.4,0.9,0.6,1,1.4c-3.6,3.6-4.5,8.2-6.5,12.8C39.7,78.8,45.7,68.3,47.6,66.5z"/>
	<path fill="#B82205" d="M53.1,65.4c-1.6,1.3-1.4-1-2.7-0.6c-0.3,0.7-0.5,1.3-0.6,2c-0.1-0.9-0.6-1-1.5-0.9c1-1.5,1.8-3.1,3-4.3
		c1.4-1.5,2.2,0.8,3.1-2.2C54.4,61.6,53.9,63.4,53.1,65.4z"/>
	<path fill="#B82205" d="M92.7,121.2c0.5-2.6,2.2-3.6,4.7-3.1c1.5-2,3.2-3.2,6-3.8c-2.1,2.1-1.7,1.5-2,3.7c-0.6,0.5-1.5-0.6-1.8-0.9
		C98.8,119.4,94.5,119.8,92.7,121.2z"/>
	<path fill="#B82205" d="M52.6,71.7c0,1,0.1,2.2-0.5,3.2c-2.9-0.8-2.1,3.5-4.7,3.5C47.9,76.1,50.2,72.2,52.6,71.7z"/>
	<path fill="#B82205" d="M66.5,67.9c0.6-1.5,1.5-1.8,2.8-0.9c0.5-0.4,0.5-1,0.9-1.5c0.5-0.1,1,0,1.5,0c0,0.1,0.1,0.4,0,0.5
		C71.3,70.4,68.1,67.9,66.5,67.9L66.5,67.9z"/>
	<path fill="#B82205" d="M84.3,29.5c-0.4,1.8,2,2.7,1.2,4.5c-1.4,0.1-2.6-0.4-3.1-1.8c1-0.6,0.5-1.5,0.4-2.3
		C83.4,29.5,83.6,29.7,84.3,29.5z"/>
	<path fill="#B82205" d="M66.2,68.2c0.1,1.2,1.4,1.7,1.8,2.6c-0.7,1.2-3,0.8-4.3,2.2C63.1,71.3,64.8,69.1,66.2,68.2z"/>
	<path fill="#B82205" d="M82.1,124.4c0-0.1,1.5-3.8,1.9-4c0.7,0.4,1.4,0.9,2,1.5c-0.4,0.6-0.9,1.4-0.9,2
		C84.1,124.8,83.1,123.5,82.1,124.4z"/>
	<path fill="#B82205" d="M104.9,112.1c-0.9-0.4-1.7,0.5-2.7,0.4c0.6-1.4,5.2-4.3,6.9-4.5C109.4,110.7,105.1,109.1,104.9,112.1
		L104.9,112.1z"/>
	<path fill="#B82205" d="M76.7,107.5c-0.6,1.4-1,3.1-3.1,2.7C72,107.9,74.8,107.1,76.7,107.5z"/>
	<path fill="#B82205" d="M138.6,88c2.3,0.3,1.3,1.3,1.3,2.4c1.7,1.4,1,2.6-0.5,3.7C138.1,92.2,139.9,90,138.6,88z"/>
	<path fill="#B82205" d="M115.2,113.2c0-1.5,2.2-1.8,1-3.5c0.6-0.5,1.2-1.2,2.2-1.5C118,109.6,118.2,114.4,115.2,113.2L115.2,113.2z
		"/>
	<path fill="#B82205" d="M128.6,106.3c0.5-3.3,1.8-4.9,4.1-4.3C131.4,103.3,130.4,105.4,128.6,106.3z"/>
	<path fill="#B82205" d="M105.9,115.2c1.8,0.1,2.6-1.2,3.7-1.8c1.2,1.2-0.4,1.7-0.6,2.6c1,0.9,0.4,1.5-0.1,2.3
		c-0.5-0.8-0.9-1.6-1-2.6C107.1,115.7,106.5,115.6,105.9,115.2z"/>
	<path fill="#B82205" d="M91.9,121.2c-1,0.4-1.8,0.6-2.6,1.5c-0.6-0.9-2.3,0-2.6-1.8C89.3,121.9,90.1,118.8,91.9,121.2z"/>
	<path fill="#B82205" d="M73.4,122.3c-0.6,0-1-0.4-1.5-0.5c0.1-0.1,0.1-0.5,0.4-0.5c1.3-1.3,4.7-3.6,4.7-0.4
		C75.5,120.3,74,120.6,73.4,122.3z"/>
	<path fill="#B82205" d="M69.6,122.1c-1,0.1-2,0.5-2.8-0.4c0.9-1.8,2-2.7,3.8-2.7C69.3,119.9,68.5,120.6,69.6,122.1z"/>
	<path fill="#B82205" d="M41.7,28.9c2.4,0-0.4-3.7,3.2-3.5c-1.5,0.9-1,1.8-0.6,2.8C44.3,28.2,41.7,30.9,41.7,28.9L41.7,28.9z"/>
	<path fill="#B82205" d="M54.1,111.9c-0.1-0.6,0.1-1.4,0.5-1.8c0.9,1,1.8,0.4,2.8,0C56.7,112,56.1,112.4,54.1,111.9z"/>
	<path fill="#B82205" d="M80.7,34.8c0.1,0.9,0,1.4-0.1,2c-1.4,0-2-1.2-3.2-2C78.6,34.5,79.7,34.5,80.7,34.8z"/>
	<path fill="#B82205" d="M137.6,77.4c0.4-1.7-0.1-3.2-1-4.5C138,73.7,140.5,77.1,137.6,77.4z"/>
	<path fill="#B82205" d="M62.2,29.4c-0.6,0.2-4.6-0.5-4.9-1.2C58.8,27.2,60.6,27.8,62.2,29.4z"/>
	<path fill="#B82205" d="M74.3,30.6c-2.5-0.7-0.4-2.6,0.5-4C75.1,27.9,74.8,29.2,74.3,30.6z"/>
	<path fill="#B82205" d="M69.3,22.4c1.8-1,4,0.8,2.6,2.6C71,24.8,70.3,22.9,69.3,22.4z"/>
	<path fill="#B82205" d="M83.4,36.8c-3.1,0,0.7-2,0.6-1.9C84.1,34.8,86.3,36.8,83.4,36.8z"/>
	<path fill="#B82205" d="M59,108.1c-1.8,1.1-2.1,1.7-2.6-0.6C57.7,107,58.3,107.2,59,108.1z"/>
	<path fill="#B82205" d="M65.2,24.8c-0.6-0.4-0.6-1-0.9-1.4c-0.5,0-1.4,0.5-1.5-0.6c1.2-0.5,2.2,0.1,3.3,0.1
		C66,24,65.5,24.3,65.2,24.8z"/>
	<path fill="#B82205" d="M78.3,32.2c-0.1,0.8-2.4,2.4-2.4,1C75.8,32.6,77.8,32,78.3,32.2z"/>
	<path fill="#B82205" d="M116.1,101.9c0.1,1.5-1,1.8-2.2,2.2C114.5,102.9,115.1,102.3,116.1,101.9z"/>
	<path fill="#B82205" d="M76.2,64.2c0.1,1-0.5,1.8-0.4,2.8C74.6,66,74.6,65.7,76.2,64.2L76.2,64.2z"/>
	<path fill="#B82205" d="M93.1,38c1-0.5,1.7-0.1,2.6,0.6C93.4,39.3,93.4,39.3,93.1,38z"/>
	<path fill="#B82205" d="M92.7,116.4c-1,1-0.3,2.9-2.4,1.3C90.9,116.9,91.6,116.8,92.7,116.4z"/>
	<path fill="#B82205" d="M68.9,30.1c0.5-1.4,1.4-0.6,2.6-0.6C70.6,30.6,69.7,30.2,68.9,30.1z"/>
	<path fill="#B82205" d="M126.3,53.7c0.3,0.3,0.6,0.6,0.9,0.9c0,0.9-1.9,0.8-1.9-0.3C125.7,54.1,126,53.9,126.3,53.7z"/>
	<path fill="#B82205" d="M120.8,52.2c1-2,1-2,2-0.9C122.3,51.7,121.6,52.1,120.8,52.2z"/>
	<path fill="#B82205" d="M93.2,123.3c-0.4,0.9-0.9,1.5-1.7,1C92.1,122.6,92.1,122.6,93.2,123.3z"/>
	<path fill="#B82205" d="M70.2,27.8c-0.3-2.1,1.7-1.3,1.7-1.2C71.6,27.4,71.1,27.8,70.2,27.8z"/>
	<path fill="#B82205" d="M65.2,120.5c-0.4,1.2-1,1.5-2,1.2C63.7,120.7,63.7,120.7,65.2,120.5z"/>
	<path fill="#B82205" d="M69.6,130.3c0.4-0.6,0.9-1.2,1.5-1.5C71.2,130.2,71.1,130.6,69.6,130.3z"/>
	<path fill="#B82205" d="M60.6,25.8c0.6-0.1,1.5-1.2,2.2,0.1C62.2,26.5,61.5,26.4,60.6,25.8z"/>
	<path fill="#B82205" d="M93.1,41.7c-1.2,0.4-1.5-0.5-2.3-0.9C91.9,40.2,92.5,40.7,93.1,41.7z"/>
	<path fill="#B82205" d="M99.7,113.6c-0.4,0.6-0.6,1-1.4,1.2c0-0.6,0.1-1.1,0.1-1.7C99.1,112.8,99.5,113,99.7,113.6z"/>
	<path fill="#B82205" d="M109.3,42.2c1,0.4,2.2,0.4,1.5,2c-0.9-0.4-1.2-1.2-1.7-1.7C109.2,42.2,109.2,42.2,109.3,42.2z"/>
	<path fill="#B82205" d="M48.1,25.7c0.6-0.1,1.2-0.6,1.8-0.4c-0.2,0.5-0.4,0.9-0.6,1.4C48.6,26.7,48.2,26.4,48.1,25.7z"/>
	<path fill="#B82205" d="M65,123.7c-0.6,0.1-1.4-0.5-2.2-0.1C63.9,122.3,64.3,122.5,65,123.7z"/>
	<path fill="#B82205" d="M52.4,24.3c0.5-1.2,1.4-1.5,2.3-1.2C54,23.5,53.6,24.6,52.4,24.3z"/>
	<path fill="#B82205" d="M136.4,72.5c-0.9-1.5-0.6-2.2,0.5-2.3C136.6,70.8,136.1,71.7,136.4,72.5z"/>
	<path fill="#B82205" d="M109.6,111.5c-0.4,0.2-0.8,0.3-1.2,0.5C107.4,111,109.1,111.2,109.6,111.5z"/>
	<path fill="#B82205" d="M119.4,47.8c0.5-0.4,1-0.4,1.5,0c-0.2,0.3-0.4,0.7-0.6,1C119.7,48.8,119.4,48.5,119.4,47.8z"/>
	<path fill="#B82205" d="M80.9,127.6c-0.9,0.9-1.8,0.6-2.8,0.6C79,127.9,80,127.7,80.9,127.6z"/>
	<path fill="#B82205" d="M115.2,113.2c0.1,1,0,1.7-1.4,1.4C114.1,113.9,114.6,113.4,115.2,113.2z"/>
	<path fill="#B82205" d="M99.1,121.6c0.4-0.5,0.9-0.6,1.4-0.6C100.9,122.2,99.7,122.4,99.1,121.6z"/>
	<path fill="#B82205" d="M89,123.8c0.5,0.6,1,1.4-0.4,1.7C88.5,124.8,88.4,124.3,89,123.8z"/>
	<path fill="#B82205" d="M60.7,123.1c0.7,0.5,0.9,1.1,0.5,1.8C60.3,125.9,60.7,122.9,60.7,123.1z"/>
	<path fill="#B82205" d="M84.1,126.3c0.4,1.2,0.1,1.7-0.8,1.3C83.1,126.8,83.3,126.4,84.1,126.3z"/>
	<path fill="#B82205" d="M36.1,32.4c1-0.5,1.4-0.4,1.7,0.5C37.1,33.4,36.8,32.7,36.1,32.4z"/>
	<path fill="#B82205" d="M111.9,111.3c0.6,0.3,0.7,0.7,0.4,1.2C112,112.7,110.7,111.9,111.9,111.3z"/>
	<path fill="#B82205" d="M82.4,107.2c0.7,0.3,0.7,0.7,0,1.2C81.9,108.3,81.4,107.2,82.4,107.2z"/>
	<path fill="#B82205" d="M50.9,22.8c0.1,0.5,0.4,1,0.5,2c-1-0.6-0.9-1.4-1-1.8C50.5,22.8,50.8,22.8,50.9,22.8z"/>
	<path fill="#B82205" d="M56.9,77.4c-0.1-0.9,0.1-1,0.9-0.9C57.9,77.2,57.7,77.4,56.9,77.4z"/>
	<path fill="#B82205" d="M59.3,24c-0.3-0.4-0.2-0.7,0.1-1C59.7,22.8,60.5,24.3,59.3,24z"/>
	<path fill="#B82205" d="M60.5,20.1c-0.5,0.5-0.9,0.5-1.4,0.1C59.5,19.6,59.9,19.8,60.5,20.1z"/>
	<path fill="#B82205" d="M88.2,36.8c-0.6-0.5-0.4-1-0.4-1.5C88.7,35.8,88.7,36.3,88.2,36.8z"/>
	<path fill="#B82205" d="M89.5,38.2c0.5-0.5,1-0.5,1.4-0.1C90.5,38.6,90.2,38.8,89.5,38.2z"/>
	<path fill="#B82205" d="M104.9,112.1c0.9,0.9,0.9,0.9,0.1,1.4C104.6,113,105,112.5,104.9,112.1L104.9,112.1z"/>
	<path fill="#B82205" d="M65.4,113c0.5,0.6,0.6,1-0.4,1.2C64.7,113.7,65.2,113.6,65.4,113z"/>
	<path fill="#B82205" d="M87,125.7c-0.5,0.6-0.9,0.6-1.4,0.5C86.1,125.3,86.6,125.7,87,125.7z"/>
	<path fill="#B82205" d="M98.6,38.6c-0.3,0.5-0.6,0.5-0.9,0C98,38.1,98.3,38.1,98.6,38.6z"/>
	<path fill="#B82205" d="M66.9,21.9c-0.8,0,0.3-1.7,0.3-0.4C67.4,21.6,67.1,21.9,66.9,21.9z"/>
	<path fill="#B82205" d="M100.5,37.5c-0.6-0.1-1-0.4-0.5-1C100.6,36.6,100.3,37.2,100.5,37.5L100.5,37.5z"/>
	<path fill="#B82205" d="M96.8,122.5c-0.5,0.4-1,0.4-1.5,0.1C95.8,122.1,96.3,122.3,96.8,122.5z"/>
	<path fill="#B82205" d="M138.1,99.1c-0.1-0.4-0.1-0.6,0.1-0.9c0,0,0.1,0,0.4,0.1C138.6,98.6,138.6,99,138.1,99.1z"/>
	<path fill="#B82205" d="M91.2,110.9c-0.1,0.5-0.6,0.6-1.2,0.6l-0.1-0.1C90.3,110.7,90.7,110.6,91.2,110.9z"/>
	<path fill="#B82205" d="M60.1,122.6c0-0.1,0.1-0.4,0.4-0.1c0.5,0.3,0.5,0.5,0,0.8C60.4,123,60.1,122.8,60.1,122.6z"/>
	<path fill="#B82205" d="M75.6,68.4c-0.1,0-0.4-0.1-0.1-0.4C75.5,67.6,76.8,68.4,75.6,68.4z"/>
	<path fill="#B82205" d="M131.2,60.6c-0.3,0.5-0.5,0.5-0.8,0C130.7,60.1,130.9,60.1,131.2,60.6z"/>
	<path fill="#B82205" d="M53.1,133.2c-0.4,0.3-0.6,0.1-0.5-0.4c0.1,0,0.1-0.1,0.4-0.1C53.1,132.9,53.2,132.9,53.1,133.2z"/>
	<path fill="#B82205" d="M129,57.9C128,57.9,129.8,57.9,129,57.9z"/>
	<path fill="#B82205" d="M113.4,115.2c-0.3,0.3-0.5,0.2-0.5-0.3c0-0.1,0.1-0.4,0.4-0.4C113.4,114.8,113.6,114.8,113.4,115.2z"/>
	<path fill="#B82205" d="M112,109.3c-0.1,0.5-0.5,0.5-0.9,0.1C111.4,109.4,111.7,109.4,112,109.3z"/>
	<path fill="#B82205" d="M92.6,35.4l0.1-0.1c0.1,0.1,0.1,0.1,0.4,0.4l-0.3,0.1C92.7,35.6,92.6,35.6,92.6,35.4z"/>
	<path fill="#B82205" d="M108.7,41.8c-0.1,0-0.4,0-0.5-0.1C108.6,41.3,108.7,41.4,108.7,41.8L108.7,41.8z"/>
	<path fill="#B82205" d="M88.9,106.3c0.4-0.4,0.8,0,0.1,0.4C89,106.5,88.9,106.3,88.9,106.3z"/>
	<path fill="#B82205" d="M80.9,127.6c0-0.1,0.1-0.4,0.4-0.4l0.1,0.1C81.3,127.6,81.1,127.6,80.9,127.6L80.9,127.6z"/>
	<path fill="#B82205" d="M112.4,108.8c0,0.1-0.1,0.4-0.4,0.4l0,0C112,109.1,112.3,109.1,112.4,108.8L112.4,108.8z"/>
	<path fill="#B82205" d="M41.7,28.9C41.5,28.7,41.5,28.7,41.7,28.9C41.7,28.7,41.7,28.9,41.7,28.9L41.7,28.9z"/>
	<path fill="#B82205" d="M100.5,37.5c0.1,0.1,0.1,0.1,0.4,0.4C100.8,37.7,100.6,37.6,100.5,37.5L100.5,37.5z"/>
	<path fill="#B82205" d="M108.8,41.8c0.1,0,0.4,0,0.5,0.1l-0.1,0.3C108.8,42.2,108.7,42.2,108.8,41.8L108.8,41.8z"/>
	<path fill="#B82205" d="M66.5,67.9c0,0.1-0.1,0.4-0.4,0.4l0,0C66.2,68.2,66.4,68,66.5,67.9z"/>
	<path fill="#B82205" d="M89,106.5c-0.1,0.1-0.1,0.1-0.4,0.4c-0.1-0.1-0.1-0.1-0.4-0.4c0.1-0.1,0.1-0.1,0.4-0.4
		C88.9,106.3,89,106.5,89,106.5z"/>
	<path fill="#B82205" d="M119.9,111.9L119.9,111.9c-0.1,0.1-0.1,0.1-0.1,0.1C119.9,112,119.9,111.9,119.9,111.9z"/>
	<path fill="#B82205" d="M131.2,97.6C131.3,97.6,131.2,98.7,131.2,97.6C131.2,97.7,131.2,97.7,131.2,97.6z"/>
	<path fill="#B82205" d="M34.2,65.2c0.5,0.6,0.9,1.2,0.6,1.8C33.8,66.6,33.6,66.1,34.2,65.2z"/>
	<path fill="#B82205" d="M42,58.4c0,0.1-0.1,0.4-0.1,0.5l-0.1-0.1C41.8,58.7,41.9,58.6,42,58.4z"/>
	<path fill="#D0D441" d="M147.3,107.2c0.1-0.4-0.1-0.6-0.1-1c3.2-0.9,3.6-1.5,1.8-3.7c1.4-2.5,1.2-7.1,2.1-9.1
		c0.4-1,1.6-1.3,2.1-2.6c0.7-1.9,0.3-3.9,0.8-5.4c0.8-0.1,1.5-0.3,2.3-0.4c0.1-0.7-0.2-1.2-0.6-1.7c0.9-1.7,1.6-3.6,2.1-5.4
		c0.9-2.8,1.8-6.1,2.8-8.7c1.5-4.1,4.4-9.1,4.3-14c2.1-1.7,2.2-8.7,2.6-11.1c0.6-3.2,3.4-7.5,0-9.5c-0.8,2.5-3.6,2.3-5.5,3.1
		c-1.3,0.5-3,1.2-4.1,1.6c-2.8,1-6.1,1.9-9.1,2.4c-1.6,0.2-5.9-0.6-6.9,0.7c1.7,1.7,3.8,1.4,5.9,1.2c0,0.1,0,0.4,0,0.5
		c-6.8,0.5-13.1,0.5-19.8-0.1c-0.2-0.4,0.2-1.2,0-1.7c-0.6-1.3-3.2-1.1-4-2.3c-0.4-0.6,0.3-5.6-2-4.7c-0.5,0.7-0.7,1.5-0.5,2.3
		c-2.7-2-1-5-2-7.4c2.7,0.5,3.6-1.4,4.2-3.3c-0.4-0.5-0.9,0-1.2-0.5c1.7-2.6,1.7-2.6,0.9-3.8c1.9,1.2,5.1,0.7,4.3-1.9
		c3.1-3.5,11.5-0.9,13.4-3.7c-1.2-1.4-2.7-1-4.3-0.5c0.9-2.5,10.4-1.1,12.8-2.8c-1-1.8-2.7,0.1-3.8-0.6c3.3-2.6,12.9-0.6,17.4-2.3
		c2.9-1.1,14.4-2.3,15.9-5.2c1.7,1,2.1,1.6,2.8-0.9c1.1,1.1,10,0.6,10.4-0.8c0.5,0,0.5,0.6,0.9,1c4.3-3.7,15.9-2,21.2-1.9
		c4.7,0,17.1-2.7,21,0.4c0.2,0.7-1.1,1.1,0.1,1.7c0.9-0.5,0.6-1.4,0.9-2c-1.6,0,7.1,4.5,3.1,0.4c2.9,0,4,1.5,6.7,2.1
		c1.6,0.4,3.5-0.9,4.9,0.3c-1.1,1.3-3.6-0.4-2.7,2.2c0.4,1.1,2.9,0.7,4,1.3c1.9-2.9,2.9,0.6,3.7,1c-0.5,0.6-4,1.5-4.6,1.5
		c-0.1-0.1-0.4-0.4-0.1-0.4c0.5-2.2-1.5-3.5-3.2-1.8c-1.4,0.1-1.2,2.2-2.7,2c1.8,1.7,1.8,1.2,1.2,3.1c2,1.5,5.2,0,7.4,1.4
		c-1.4,3.8-6.5,0.4-7.3,3.6c1.2,0.5,1.5,1.5,2.2,2.3c-1.2,0-2.3,0.1-3.7,0c0.7-0.9,0.8-3.6-0.1-4.1c-2.6,2.1-0.4,1.9-0.6,4.1
		c-1.5,0.9-1.5,0.9-0.9,2.6c-1-0.1-1.4,0.6-1.4,1.4c-1,0.1-1.8,0.4-2.8,0.4c-0.5-2-0.1-1.4-2.4-1.4c-0.1,0.6,0.1,1,0.5,1.4
		c-0.4,0-0.9,0-1.2,0c-0.6-1.4-3.6-3-5-2.8c-0.9,2.2-0.6,2.6,2.2,3.1c-2.1,0.3-12.7-1.2-9.1,2.4c-0.7,0.2-1.4,0.4-2.2,0.4
		c-0.3-0.6-0.3-1.1,0-1.7c-2.8-1-19.6-3-21.8-0.4c-1.6,1.9,2.6,1.4,3.3,1.4c4.8,0.6,9.3-0.6,14.2,0.4c-6.9,0.1-13.8,0-20.8,1
		c4.1,8.1,0.1,20.9-1.9,29.2c2.9,3.6-3.1,11.1-3.1,14.8c-2,0.2-4.1,11.1-4.9,13.5c-0.4,1.1-1,3.5-1.4,4.4c-1.1,2-2.9,0-2.5,3.1
		c-0.4,0.5-0.9,0.5-1.5,0.9c0.9,1.7-0.6,4.5-1.4,6c-1.7,2.9-1.9,0.5-1.4,3.5c-0.4,0-0.6,0.1-1.2,0.1c-1.3,4.5-3,8.8-4.9,13.1
		c-0.7,1.6-1.3,3.6-2.3,4.9c-4,5.5,0.1,0.9-2.7,2.3c-0.6-1.7-0.4-3.6-0.4-5.2c1-0.4,3.2-3.8,2.3-4.6c-1.5-1.4-1.5,2.4-3.3,1.5
		c0.4-1.4,1.2-2.2,2.2-2.8c-0.8-2.5,3-2.1,3.5-4.5c0.1-0.7-0.6-4.6-2-2.2c0.1,0.6,0.4,1,0.9,1.4c-0.5,0.5-0.9,0.9-1.7,0.5
		c0-0.8,0.9-8.3-2.1-6.4c-1.5,1,0.2,2.2,0,3.7c-0.9-0.1-0.9-0.1-1.8,0.4c0.8,0.8,1.1,1.5,1.9,2.3c-1,1.5-2.7,4.8-2.9,6.6
		c-0.4,3.1,2.6,4.6,0.5,8c1.2,0.6,1.8,2,3.3,1.7c-0.7,1.9-2,3.3-2.7,5.2c-1.7-1.4-0.9-3.2-1.2-4.7c0.6-0.6,1.4-5.2-0.4-6.1
		c0-2.2-0.3-3-2.7-1.4c1.1,1.8-0.8,8.7,0.5,9.1c-0.4,0.9-1.7,1.4-1,2.8c-0.1,0.1-0.6,0.5-1.5,0.9c1-2.6,0.5-5,1.5-7.5
		c-1.2,0.1-2.3,0.5-3.3-0.1c-0.4,0.5-0.5,1-0.6,1.4c0.4,0.6,0.9,0.4,1.4,0.6c0,0.6-0.1,1.7,1,2.3c-3.4,0.2-0.7,4-2.7,4.6
		c-2.7-1,2.2-5.1-1.9-5.1c-0.8,1.7-2.6,8.9-4.9,7.9c1.2-1.4,1.8-2.7,0.1-4.1l0,0c0-2,2.4-3.1-1.3-3.7c-0.2,1-1.8,6.5-3.5,5.4
		c0-0.9,0-1.8,0-2.8c1.9,0.6,1.1-1,0.3-2c0-0.6,0.9-1.5-0.4-2.2c-1.3,2.3-2.3,4-3.2,6.4c-2.5-2.8,3.4-9.4,0.9-11.3
		c-2.6,0.3-1.7,5.2-3.7,6.6c0.2-4.3,2.6-10,4.7-13.7c1.1,1.8-2.2,2.5-0.3,4.1c2.4-1.2,0.7-3,1.7-4.9c0.5-1,2.7-3.2,2.9-3.8
		c0.2-1,1.3-3.7-1.3-2.4C147.7,107,147.4,107,147.3,107.2L147.3,107.2z M176,88.2c-0.5,1.5-0.5,2.8,0.1,4.3
		C179.3,92.6,179.6,86,176,88.2z M194,29.4C195.8,38.4,197.8,25.7,194,29.4z M238.9,22.4c1.1,2.2,5.5,0.7,3.1-1
		C241.4,22.6,239.9,21.1,238.9,22.4z M154.7,14.2c0.1,0.2-3.7-3.3-3.7-1C151,14.3,154.3,14.3,154.7,14.2z M145.7,124.2
		c1.1-0.5,1.6-3.4-0.1-3.1C144.4,121.2,145.2,123.9,145.7,124.2z M229.3,23.5C226.2,27.4,232.9,24.6,229.3,23.5z M166.4,35
		C164.3,32.5,163.6,37.8,166.4,35z M130.1,42.6c1,0.4,1,0.4,2-0.9C130.8,41.3,130.8,41.3,130.1,42.6z M191.2,5.1
		C188.7,2.7,189.2,8.7,191.2,5.1z M167.1,10.4c-0.4-0.8-0.9-0.9-1.5-0.1C165.4,11,166.9,11.1,167.1,10.4z M233.8,19.3
		c0.6,0.4,1.2,0.4,1.5-0.4C234.6,18.7,234.1,18.4,233.8,19.3z M123.8,32.7c-0.6-0.8-1-0.9-1.3-0.1C122.9,33.3,123.3,33.3,123.8,32.7
		z"/>
	<path fill="#D0D441" d="M133,14.1c-0.1-0.6,0-1.2-0.4-1.7c1-0.6,2.2-0.4,3.6-0.4C135,12.9,134.8,14.5,133,14.1z"/>
	<path fill="#D0D441" d="M137,46.6c1.7-0.5,3.3-0.4,4.9-0.1C140.3,47.1,138.6,47.6,137,46.6z"/>
	<path fill="#D0D441" d="M147.3,107.2c0,1.7-0.7,2.7-1.5,4.1C145.2,109.8,146.1,108,147.3,107.2z"/>
	<path fill="#D0D441" d="M250.9,21.4c-2-1.5,1.3-2,1.1-1.7C251.8,20.1,252,21.6,250.9,21.4z"/>
	<path fill="#D0D441" d="M131.3,14.1c-0.2,0.3-0.7,2.6-1.2,2.6C128,16.6,131.5,14,131.3,14.1z"/>
	<path fill="#D0D441" d="M210.9,0.5c1-0.4,1.7-0.6,2.6-0.1C212.9,1.2,212.9,1.2,210.9,0.5z"/>
	<path fill="#D0D441" d="M123.1,16.5c0.6-1.7,0.6-1.8,1.7-0.9C124.2,16.5,124.2,16.5,123.1,16.5z"/>
	<path fill="#D0D441" d="M222.2,0c1.2,0,2-0.1,2.8,0.5C224.2,0.8,223.3,1,222.2,0z"/>
	<path fill="#D0D441" d="M253.8,5.6c0.3-0.6,0.8-0.8,1.4-0.4C255.9,6,254.3,6.1,253.8,5.6z"/>
	<path fill="#D0D441" d="M250.5,13.6c-1.4,0-1.4-0.1-0.6-1.4C250.9,12.4,250.4,13.3,250.5,13.6z"/>
	<path fill="#D0D441" d="M150.5,131.1c-0.5,0.4-0.1,1.7-1.5,1.4C149.5,132,150,131.5,150.5,131.1z"/>
	<path fill="#D0D441" d="M119.9,24.2c0.5,0.5,0.1,0.9-0.1,1.2c-0.1,0-0.4-0.1-0.4-0.1C119.3,24.7,119.4,24.3,119.9,24.2z"/>
	<path fill="#D0D441" d="M124.8,19.2c-0.1,0.6-0.5,0.9-1.2,1C123.5,19.3,124,18.9,124.8,19.2z"/>
	<path fill="#D0D441" d="M249,3.3c0.6-0.5,1.2-0.5,1.5,0.1C250,3.8,249.5,3.7,249,3.3z"/>
	<path fill="#D0D441" d="M157.5,134.8c-0.1-0.4-0.1-0.9,0-1.2C158.4,134,158.1,134.4,157.5,134.8z"/>
	<path fill="#D0D441" d="M162.4,9.6c-0.6,0.4-1.2,0.1-1.7,0.1C161.3,9.2,161.8,9.3,162.4,9.6z"/>
	<path fill="#D0D441" d="M145.5,134.9c-0.3,0.5-0.5,0.5-0.8,0C145,134.4,145.3,134.4,145.5,134.9z"/>
	<path fill="#D0D441" d="M122.6,26.2c-0.4,0.1-0.6,0.4-1,0C122.1,25.8,122.3,25.8,122.6,26.2z"/>
	<path fill="#D0D441" d="M120.3,22.6c0.1-0.4,0.5-0.4,0.9-0.1C121,22.8,120.6,22.8,120.3,22.6z"/>
</g>
</svg>
