<?xml version="1.0" encoding="iso-8859-1"?>
<!-- Generator: Adobe Illustrator 23.0.1, SVG Export Plug-In . SVG Version: 6.00 Build 0)  -->
<svg version="1.2" baseProfile="tiny" id="Capa_1" xmlns="http://www.w3.org/2000/svg" xmlns:xlink="http://www.w3.org/1999/xlink"
	 x="0px" y="0px" viewBox="0 0 126 126" xml:space="preserve">
<g>
	<linearGradient id="SVGID_1_" gradientUnits="userSpaceOnUse" x1="-5.9109" y1="31.8294" x2="131.3487" y2="183.5656">
		<stop  offset="2.717173e-07" style="stop-color:#DC9457"/>
		<stop  offset="1" style="stop-color:#B4705D"/>
	</linearGradient>
	<path fill="url(#SVGID_1_)" d="M88.4,90.3c-1.2-0.1-2.2,0.7-2.3,1.8s0.7,2.2,1.8,2.3c22.1,2.6,33.8,9.6,33.8,13.7
		c0,5.7-22.4,13.7-58.8,13.7s-58.8-8-58.8-13.7c0-4.1,11.8-11.1,33.8-13.7c1.2-0.1,2-1.2,1.8-2.3c-0.1-1.2-1.2-2-2.3-1.8
		C15.4,92.9,0,100.3,0,108.2C0,117,21.6,126,63,126s63-9,63-17.8C126,100.3,110.6,92.9,88.4,90.3z"/>
	<linearGradient id="SVGID_2_" gradientUnits="userSpaceOnUse" x1="23.9267" y1="4.8386" x2="161.1862" y2="156.5747">
		<stop  offset="2.717173e-07" style="stop-color:#DC9457"/>
		<stop  offset="1" style="stop-color:#B4705D"/>
	</linearGradient>
	<path fill="url(#SVGID_2_)" d="M62.6,115l32.2-46.5c12.1-16.1,10.3-42.6-3.7-56.7C83.5,4.2,73.4,0,62.6,0S41.8,4.2,34.2,11.8
		c-14.1,14.1-15.8,40.6-3.8,56.6L62.6,115z M63,25.2c8.1,0,14.7,6.6,14.7,14.7S71.1,54.6,63,54.6S48.3,48,48.3,39.9
		S54.9,25.2,63,25.2z"/>
</g>
</svg>
